%TF.GenerationSoftware,KiCad,Pcbnew,(5.1.4)-1*%
%TF.CreationDate,2019-08-28T19:55:50+03:00*%
%TF.ProjectId,Timsah_Main_Board,54696d73-6168-45f4-9d61-696e5f426f61,rev?*%
%TF.SameCoordinates,Original*%
%TF.FileFunction,Legend,Bot*%
%TF.FilePolarity,Positive*%
%FSLAX46Y46*%
G04 Gerber Fmt 4.6, Leading zero omitted, Abs format (unit mm)*
G04 Created by KiCad (PCBNEW (5.1.4)-1) date 2019-08-28 19:55:50*
%MOMM*%
%LPD*%
G04 APERTURE LIST*
%ADD10C,0.120000*%
%ADD11C,0.150000*%
G04 APERTURE END LIST*
D10*
X87600000Y-82850000D02*
X110600000Y-82850000D01*
X110600000Y-82850000D02*
X110600000Y-73850000D01*
X110600000Y-73850000D02*
X87600000Y-73850000D01*
X87600000Y-73850000D02*
X87600000Y-82850000D01*
X88600000Y-81850000D02*
X95100000Y-81850000D01*
X95100000Y-81850000D02*
X95100000Y-82850000D01*
X88600000Y-81850000D02*
X88600000Y-74850000D01*
X88600000Y-74850000D02*
X95100000Y-74850000D01*
X95100000Y-74850000D02*
X95100000Y-73850000D01*
X109600000Y-81850000D02*
X103100000Y-81850000D01*
X103100000Y-81850000D02*
X103100000Y-82850000D01*
X109600000Y-81850000D02*
X109600000Y-74850000D01*
X109600000Y-74850000D02*
X103100000Y-74850000D01*
X103100000Y-74850000D02*
X103100000Y-73850000D01*
X74865000Y-113788748D02*
X74865000Y-114311252D01*
X76285000Y-113788748D02*
X76285000Y-114311252D01*
X115815000Y-114113748D02*
X115815000Y-114636252D01*
X117235000Y-114113748D02*
X117235000Y-114636252D01*
X104388748Y-64260000D02*
X104911252Y-64260000D01*
X104388748Y-62840000D02*
X104911252Y-62840000D01*
X83761252Y-75485000D02*
X83238748Y-75485000D01*
X83761252Y-74065000D02*
X83238748Y-74065000D01*
X141188748Y-85090000D02*
X141711252Y-85090000D01*
X141188748Y-86510000D02*
X141711252Y-86510000D01*
X86815000Y-110300000D02*
X113485000Y-110300000D01*
X113485000Y-110300000D02*
X113485000Y-89980000D01*
X113485000Y-89980000D02*
X86815000Y-89980000D01*
X86815000Y-89980000D02*
X86815000Y-110300000D01*
X112737068Y-93028000D02*
G75*
G03X112737068Y-93028000I-2300068J0D01*
G01*
X92163068Y-93028000D02*
G75*
G03X92163068Y-93028000I-2300068J0D01*
G01*
X92163068Y-107252000D02*
G75*
G03X92163068Y-107252000I-2300068J0D01*
G01*
X112737068Y-107252000D02*
G75*
G03X112737068Y-107252000I-2300068J0D01*
G01*
X113358000Y-107252000D02*
G75*
G03X113358000Y-107252000I-2921000J0D01*
G01*
X113382743Y-93028000D02*
G75*
G03X113382743Y-93028000I-2945743J0D01*
G01*
X92835994Y-93028000D02*
G75*
G03X92835994Y-93028000I-2972994J0D01*
G01*
X92795023Y-107252000D02*
G75*
G03X92795023Y-107252000I-2932023J0D01*
G01*
X98118000Y-102172000D02*
X101674000Y-102172000D01*
X101674000Y-102172000D02*
X101674000Y-97346000D01*
X101674000Y-97346000D02*
X98118000Y-97346000D01*
X98118000Y-97346000D02*
X98118000Y-102172000D01*
X91006000Y-102934000D02*
X96086000Y-102934000D01*
X96086000Y-102934000D02*
X96086000Y-100394000D01*
X96086000Y-100394000D02*
X91006000Y-100394000D01*
X91006000Y-100394000D02*
X91006000Y-102934000D01*
X95070000Y-96838000D02*
X95070000Y-94298000D01*
X95070000Y-94298000D02*
X96594000Y-94298000D01*
X96594000Y-94298000D02*
X96594000Y-96838000D01*
X96594000Y-96838000D02*
X95070000Y-96838000D01*
X105484000Y-103950000D02*
X105484000Y-102426000D01*
X105484000Y-102426000D02*
X107770000Y-102426000D01*
X107770000Y-102426000D02*
X107770000Y-103950000D01*
X107770000Y-103950000D02*
X105484000Y-103950000D01*
X105484000Y-97092000D02*
X107770000Y-97092000D01*
X107770000Y-97092000D02*
X107770000Y-95568000D01*
X107770000Y-95568000D02*
X105484000Y-95568000D01*
X105484000Y-95568000D02*
X105484000Y-97092000D01*
X137905000Y-104570000D02*
X135245000Y-104570000D01*
X137905000Y-101970000D02*
X137905000Y-104570000D01*
X135245000Y-101970000D02*
X135245000Y-104570000D01*
X137905000Y-101970000D02*
X135245000Y-101970000D01*
X137905000Y-100700000D02*
X137905000Y-99370000D01*
X137905000Y-99370000D02*
X136575000Y-99370000D01*
X122580000Y-125575000D02*
X119920000Y-125575000D01*
X122580000Y-125575000D02*
X122580000Y-133255000D01*
X122580000Y-133255000D02*
X119920000Y-133255000D01*
X119920000Y-125575000D02*
X119920000Y-133255000D01*
X119920000Y-122975000D02*
X119920000Y-124305000D01*
X121250000Y-122975000D02*
X119920000Y-122975000D01*
X123970000Y-72410000D02*
X113810000Y-72410000D01*
X123970000Y-71140000D02*
X123970000Y-78760000D01*
X123970000Y-78760000D02*
X113810000Y-78760000D01*
X113810000Y-78760000D02*
X113810000Y-71140000D01*
X113810000Y-71140000D02*
X123970000Y-71140000D01*
X81830000Y-103845000D02*
X79170000Y-103845000D01*
X81830000Y-103845000D02*
X81830000Y-106445000D01*
X81830000Y-106445000D02*
X79170000Y-106445000D01*
X79170000Y-103845000D02*
X79170000Y-106445000D01*
X79170000Y-101245000D02*
X79170000Y-102575000D01*
X80500000Y-101245000D02*
X79170000Y-101245000D01*
X80575000Y-94145000D02*
X79245000Y-94145000D01*
X79245000Y-94145000D02*
X79245000Y-95475000D01*
X79245000Y-96745000D02*
X79245000Y-99345000D01*
X81905000Y-99345000D02*
X79245000Y-99345000D01*
X81905000Y-96745000D02*
X81905000Y-99345000D01*
X81905000Y-96745000D02*
X79245000Y-96745000D01*
X121200000Y-120355000D02*
X122530000Y-120355000D01*
X122530000Y-120355000D02*
X122530000Y-119025000D01*
X122530000Y-117755000D02*
X122530000Y-110075000D01*
X119870000Y-110075000D02*
X122530000Y-110075000D01*
X119870000Y-117755000D02*
X119870000Y-110075000D01*
X119870000Y-117755000D02*
X122530000Y-117755000D01*
X122530000Y-99950000D02*
X119870000Y-99950000D01*
X122530000Y-99950000D02*
X122530000Y-107630000D01*
X122530000Y-107630000D02*
X119870000Y-107630000D01*
X119870000Y-99950000D02*
X119870000Y-107630000D01*
X119870000Y-97350000D02*
X119870000Y-98680000D01*
X121200000Y-97350000D02*
X119870000Y-97350000D01*
X74740000Y-86088748D02*
X74740000Y-86611252D01*
X76160000Y-86088748D02*
X76160000Y-86611252D01*
X118411252Y-86915000D02*
X117888748Y-86915000D01*
X118411252Y-88335000D02*
X117888748Y-88335000D01*
X100361252Y-122560000D02*
X99838748Y-122560000D01*
X100361252Y-121140000D02*
X99838748Y-121140000D01*
X100386252Y-117310000D02*
X99863748Y-117310000D01*
X100386252Y-115890000D02*
X99863748Y-115890000D01*
X100336252Y-113465000D02*
X99813748Y-113465000D01*
X100336252Y-114885000D02*
X99813748Y-114885000D01*
X140638748Y-104010000D02*
X141161252Y-104010000D01*
X140638748Y-102590000D02*
X141161252Y-102590000D01*
X107115000Y-119286252D02*
X107115000Y-118763748D01*
X108535000Y-119286252D02*
X108535000Y-118763748D01*
X108513748Y-114060000D02*
X109036252Y-114060000D01*
X108513748Y-112640000D02*
X109036252Y-112640000D01*
X141161252Y-101310000D02*
X140638748Y-101310000D01*
X141161252Y-99890000D02*
X140638748Y-99890000D01*
X100786252Y-133890000D02*
X100263748Y-133890000D01*
X100786252Y-135310000D02*
X100263748Y-135310000D01*
X100786252Y-132235000D02*
X100263748Y-132235000D01*
X100786252Y-130815000D02*
X100263748Y-130815000D01*
X100786252Y-128365000D02*
X100263748Y-128365000D01*
X100786252Y-129785000D02*
X100263748Y-129785000D01*
X108186252Y-132335000D02*
X107663748Y-132335000D01*
X108186252Y-130915000D02*
X107663748Y-130915000D01*
X106715000Y-134813748D02*
X106715000Y-135336252D01*
X108135000Y-134813748D02*
X108135000Y-135336252D01*
D11*
X99433333Y-72278571D02*
X99766666Y-72278571D01*
X99766666Y-72802380D02*
X99766666Y-71802380D01*
X99290476Y-71802380D01*
X98385714Y-72802380D02*
X98957142Y-72802380D01*
X98671428Y-72802380D02*
X98671428Y-71802380D01*
X98766666Y-71945238D01*
X98861904Y-72040476D01*
X98957142Y-72088095D01*
X74282142Y-113883333D02*
X74329761Y-113835714D01*
X74377380Y-113692857D01*
X74377380Y-113597619D01*
X74329761Y-113454761D01*
X74234523Y-113359523D01*
X74139285Y-113311904D01*
X73948809Y-113264285D01*
X73805952Y-113264285D01*
X73615476Y-113311904D01*
X73520238Y-113359523D01*
X73425000Y-113454761D01*
X73377380Y-113597619D01*
X73377380Y-113692857D01*
X73425000Y-113835714D01*
X73472619Y-113883333D01*
X74377380Y-114835714D02*
X74377380Y-114264285D01*
X74377380Y-114550000D02*
X73377380Y-114550000D01*
X73520238Y-114454761D01*
X73615476Y-114359523D01*
X73663095Y-114264285D01*
X115232142Y-114208333D02*
X115279761Y-114160714D01*
X115327380Y-114017857D01*
X115327380Y-113922619D01*
X115279761Y-113779761D01*
X115184523Y-113684523D01*
X115089285Y-113636904D01*
X114898809Y-113589285D01*
X114755952Y-113589285D01*
X114565476Y-113636904D01*
X114470238Y-113684523D01*
X114375000Y-113779761D01*
X114327380Y-113922619D01*
X114327380Y-114017857D01*
X114375000Y-114160714D01*
X114422619Y-114208333D01*
X114422619Y-114589285D02*
X114375000Y-114636904D01*
X114327380Y-114732142D01*
X114327380Y-114970238D01*
X114375000Y-115065476D01*
X114422619Y-115113095D01*
X114517857Y-115160714D01*
X114613095Y-115160714D01*
X114755952Y-115113095D01*
X115327380Y-114541666D01*
X115327380Y-115160714D01*
X104816666Y-65557142D02*
X104864285Y-65604761D01*
X105007142Y-65652380D01*
X105102380Y-65652380D01*
X105245238Y-65604761D01*
X105340476Y-65509523D01*
X105388095Y-65414285D01*
X105435714Y-65223809D01*
X105435714Y-65080952D01*
X105388095Y-64890476D01*
X105340476Y-64795238D01*
X105245238Y-64700000D01*
X105102380Y-64652380D01*
X105007142Y-64652380D01*
X104864285Y-64700000D01*
X104816666Y-64747619D01*
X104483333Y-64652380D02*
X103864285Y-64652380D01*
X104197619Y-65033333D01*
X104054761Y-65033333D01*
X103959523Y-65080952D01*
X103911904Y-65128571D01*
X103864285Y-65223809D01*
X103864285Y-65461904D01*
X103911904Y-65557142D01*
X103959523Y-65604761D01*
X104054761Y-65652380D01*
X104340476Y-65652380D01*
X104435714Y-65604761D01*
X104483333Y-65557142D01*
X83666666Y-73482142D02*
X83714285Y-73529761D01*
X83857142Y-73577380D01*
X83952380Y-73577380D01*
X84095238Y-73529761D01*
X84190476Y-73434523D01*
X84238095Y-73339285D01*
X84285714Y-73148809D01*
X84285714Y-73005952D01*
X84238095Y-72815476D01*
X84190476Y-72720238D01*
X84095238Y-72625000D01*
X83952380Y-72577380D01*
X83857142Y-72577380D01*
X83714285Y-72625000D01*
X83666666Y-72672619D01*
X82809523Y-72910714D02*
X82809523Y-73577380D01*
X83047619Y-72529761D02*
X83285714Y-73244047D01*
X82666666Y-73244047D01*
X141616666Y-87807142D02*
X141664285Y-87854761D01*
X141807142Y-87902380D01*
X141902380Y-87902380D01*
X142045238Y-87854761D01*
X142140476Y-87759523D01*
X142188095Y-87664285D01*
X142235714Y-87473809D01*
X142235714Y-87330952D01*
X142188095Y-87140476D01*
X142140476Y-87045238D01*
X142045238Y-86950000D01*
X141902380Y-86902380D01*
X141807142Y-86902380D01*
X141664285Y-86950000D01*
X141616666Y-86997619D01*
X140711904Y-86902380D02*
X141188095Y-86902380D01*
X141235714Y-87378571D01*
X141188095Y-87330952D01*
X141092857Y-87283333D01*
X140854761Y-87283333D01*
X140759523Y-87330952D01*
X140711904Y-87378571D01*
X140664285Y-87473809D01*
X140664285Y-87711904D01*
X140711904Y-87807142D01*
X140759523Y-87854761D01*
X140854761Y-87902380D01*
X141092857Y-87902380D01*
X141188095Y-87854761D01*
X141235714Y-87807142D01*
X100483333Y-113562380D02*
X100483333Y-114276666D01*
X100530952Y-114419523D01*
X100626190Y-114514761D01*
X100769047Y-114562380D01*
X100864285Y-114562380D01*
X100102380Y-113562380D02*
X99483333Y-113562380D01*
X99816666Y-113943333D01*
X99673809Y-113943333D01*
X99578571Y-113990952D01*
X99530952Y-114038571D01*
X99483333Y-114133809D01*
X99483333Y-114371904D01*
X99530952Y-114467142D01*
X99578571Y-114514761D01*
X99673809Y-114562380D01*
X99959523Y-114562380D01*
X100054761Y-114514761D01*
X100102380Y-114467142D01*
X88029428Y-102798761D02*
X87981809Y-102655904D01*
X87934190Y-102608285D01*
X87838952Y-102560666D01*
X87696095Y-102560666D01*
X87600857Y-102608285D01*
X87553238Y-102655904D01*
X87505619Y-102751142D01*
X87505619Y-103132095D01*
X88505619Y-103132095D01*
X88505619Y-102798761D01*
X88458000Y-102703523D01*
X88410380Y-102655904D01*
X88315142Y-102608285D01*
X88219904Y-102608285D01*
X88124666Y-102655904D01*
X88077047Y-102703523D01*
X88029428Y-102798761D01*
X88029428Y-103132095D01*
X87505619Y-102132095D02*
X88505619Y-102132095D01*
X87505619Y-101560666D01*
X88505619Y-101560666D01*
X88505619Y-100894000D02*
X88505619Y-100703523D01*
X88458000Y-100608285D01*
X88362761Y-100513047D01*
X88172285Y-100465428D01*
X87838952Y-100465428D01*
X87648476Y-100513047D01*
X87553238Y-100608285D01*
X87505619Y-100703523D01*
X87505619Y-100894000D01*
X87553238Y-100989238D01*
X87648476Y-101084476D01*
X87838952Y-101132095D01*
X88172285Y-101132095D01*
X88362761Y-101084476D01*
X88458000Y-100989238D01*
X88505619Y-100894000D01*
X88505619Y-99846380D02*
X88505619Y-99751142D01*
X88458000Y-99655904D01*
X88410380Y-99608285D01*
X88315142Y-99560666D01*
X88124666Y-99513047D01*
X87886571Y-99513047D01*
X87696095Y-99560666D01*
X87600857Y-99608285D01*
X87553238Y-99655904D01*
X87505619Y-99751142D01*
X87505619Y-99846380D01*
X87553238Y-99941619D01*
X87600857Y-99989238D01*
X87696095Y-100036857D01*
X87886571Y-100084476D01*
X88124666Y-100084476D01*
X88315142Y-100036857D01*
X88410380Y-99989238D01*
X88458000Y-99941619D01*
X88505619Y-99846380D01*
X88505619Y-98608285D02*
X88505619Y-99084476D01*
X88029428Y-99132095D01*
X88077047Y-99084476D01*
X88124666Y-98989238D01*
X88124666Y-98751142D01*
X88077047Y-98655904D01*
X88029428Y-98608285D01*
X87934190Y-98560666D01*
X87696095Y-98560666D01*
X87600857Y-98608285D01*
X87553238Y-98655904D01*
X87505619Y-98751142D01*
X87505619Y-98989238D01*
X87553238Y-99084476D01*
X87600857Y-99132095D01*
X88505619Y-97655904D02*
X88505619Y-98132095D01*
X88029428Y-98179714D01*
X88077047Y-98132095D01*
X88124666Y-98036857D01*
X88124666Y-97798761D01*
X88077047Y-97703523D01*
X88029428Y-97655904D01*
X87934190Y-97608285D01*
X87696095Y-97608285D01*
X87600857Y-97655904D01*
X87553238Y-97703523D01*
X87505619Y-97798761D01*
X87505619Y-98036857D01*
X87553238Y-98132095D01*
X87600857Y-98179714D01*
X136908333Y-97822380D02*
X136908333Y-98536666D01*
X136955952Y-98679523D01*
X137051190Y-98774761D01*
X137194047Y-98822380D01*
X137289285Y-98822380D01*
X135955952Y-97822380D02*
X136432142Y-97822380D01*
X136479761Y-98298571D01*
X136432142Y-98250952D01*
X136336904Y-98203333D01*
X136098809Y-98203333D01*
X136003571Y-98250952D01*
X135955952Y-98298571D01*
X135908333Y-98393809D01*
X135908333Y-98631904D01*
X135955952Y-98727142D01*
X136003571Y-98774761D01*
X136098809Y-98822380D01*
X136336904Y-98822380D01*
X136432142Y-98774761D01*
X136479761Y-98727142D01*
X122059523Y-120987380D02*
X122059523Y-121701666D01*
X122107142Y-121844523D01*
X122202380Y-121939761D01*
X122345238Y-121987380D01*
X122440476Y-121987380D01*
X121059523Y-121987380D02*
X121630952Y-121987380D01*
X121345238Y-121987380D02*
X121345238Y-120987380D01*
X121440476Y-121130238D01*
X121535714Y-121225476D01*
X121630952Y-121273095D01*
X120726190Y-120987380D02*
X120107142Y-120987380D01*
X120440476Y-121368333D01*
X120297619Y-121368333D01*
X120202380Y-121415952D01*
X120154761Y-121463571D01*
X120107142Y-121558809D01*
X120107142Y-121796904D01*
X120154761Y-121892142D01*
X120202380Y-121939761D01*
X120297619Y-121987380D01*
X120583333Y-121987380D01*
X120678571Y-121939761D01*
X120726190Y-121892142D01*
X119699523Y-79482380D02*
X119699523Y-80196666D01*
X119747142Y-80339523D01*
X119842380Y-80434761D01*
X119985238Y-80482380D01*
X120080476Y-80482380D01*
X118699523Y-80482380D02*
X119270952Y-80482380D01*
X118985238Y-80482380D02*
X118985238Y-79482380D01*
X119080476Y-79625238D01*
X119175714Y-79720476D01*
X119270952Y-79768095D01*
X117842380Y-79815714D02*
X117842380Y-80482380D01*
X118080476Y-79434761D02*
X118318571Y-80149047D01*
X117699523Y-80149047D01*
X81309523Y-99257380D02*
X81309523Y-99971666D01*
X81357142Y-100114523D01*
X81452380Y-100209761D01*
X81595238Y-100257380D01*
X81690476Y-100257380D01*
X80309523Y-100257380D02*
X80880952Y-100257380D01*
X80595238Y-100257380D02*
X80595238Y-99257380D01*
X80690476Y-99400238D01*
X80785714Y-99495476D01*
X80880952Y-99543095D01*
X79404761Y-99257380D02*
X79880952Y-99257380D01*
X79928571Y-99733571D01*
X79880952Y-99685952D01*
X79785714Y-99638333D01*
X79547619Y-99638333D01*
X79452380Y-99685952D01*
X79404761Y-99733571D01*
X79357142Y-99828809D01*
X79357142Y-100066904D01*
X79404761Y-100162142D01*
X79452380Y-100209761D01*
X79547619Y-100257380D01*
X79785714Y-100257380D01*
X79880952Y-100209761D01*
X79928571Y-100162142D01*
X81384523Y-92157380D02*
X81384523Y-92871666D01*
X81432142Y-93014523D01*
X81527380Y-93109761D01*
X81670238Y-93157380D01*
X81765476Y-93157380D01*
X80384523Y-93157380D02*
X80955952Y-93157380D01*
X80670238Y-93157380D02*
X80670238Y-92157380D01*
X80765476Y-92300238D01*
X80860714Y-92395476D01*
X80955952Y-92443095D01*
X79527380Y-92157380D02*
X79717857Y-92157380D01*
X79813095Y-92205000D01*
X79860714Y-92252619D01*
X79955952Y-92395476D01*
X80003571Y-92585952D01*
X80003571Y-92966904D01*
X79955952Y-93062142D01*
X79908333Y-93109761D01*
X79813095Y-93157380D01*
X79622619Y-93157380D01*
X79527380Y-93109761D01*
X79479761Y-93062142D01*
X79432142Y-92966904D01*
X79432142Y-92728809D01*
X79479761Y-92633571D01*
X79527380Y-92585952D01*
X79622619Y-92538333D01*
X79813095Y-92538333D01*
X79908333Y-92585952D01*
X79955952Y-92633571D01*
X80003571Y-92728809D01*
X122009523Y-121247380D02*
X122009523Y-121961666D01*
X122057142Y-122104523D01*
X122152380Y-122199761D01*
X122295238Y-122247380D01*
X122390476Y-122247380D01*
X121009523Y-122247380D02*
X121580952Y-122247380D01*
X121295238Y-122247380D02*
X121295238Y-121247380D01*
X121390476Y-121390238D01*
X121485714Y-121485476D01*
X121580952Y-121533095D01*
X120676190Y-121247380D02*
X120009523Y-121247380D01*
X120438095Y-122247380D01*
X122009523Y-95362380D02*
X122009523Y-96076666D01*
X122057142Y-96219523D01*
X122152380Y-96314761D01*
X122295238Y-96362380D01*
X122390476Y-96362380D01*
X121009523Y-96362380D02*
X121580952Y-96362380D01*
X121295238Y-96362380D02*
X121295238Y-95362380D01*
X121390476Y-95505238D01*
X121485714Y-95600476D01*
X121580952Y-95648095D01*
X120438095Y-95790952D02*
X120533333Y-95743333D01*
X120580952Y-95695714D01*
X120628571Y-95600476D01*
X120628571Y-95552857D01*
X120580952Y-95457619D01*
X120533333Y-95410000D01*
X120438095Y-95362380D01*
X120247619Y-95362380D01*
X120152380Y-95410000D01*
X120104761Y-95457619D01*
X120057142Y-95552857D01*
X120057142Y-95600476D01*
X120104761Y-95695714D01*
X120152380Y-95743333D01*
X120247619Y-95790952D01*
X120438095Y-95790952D01*
X120533333Y-95838571D01*
X120580952Y-95886190D01*
X120628571Y-95981428D01*
X120628571Y-96171904D01*
X120580952Y-96267142D01*
X120533333Y-96314761D01*
X120438095Y-96362380D01*
X120247619Y-96362380D01*
X120152380Y-96314761D01*
X120104761Y-96267142D01*
X120057142Y-96171904D01*
X120057142Y-95981428D01*
X120104761Y-95886190D01*
X120152380Y-95838571D01*
X120247619Y-95790952D01*
X74252380Y-86183333D02*
X73776190Y-85850000D01*
X74252380Y-85611904D02*
X73252380Y-85611904D01*
X73252380Y-85992857D01*
X73300000Y-86088095D01*
X73347619Y-86135714D01*
X73442857Y-86183333D01*
X73585714Y-86183333D01*
X73680952Y-86135714D01*
X73728571Y-86088095D01*
X73776190Y-85992857D01*
X73776190Y-85611904D01*
X74252380Y-87135714D02*
X74252380Y-86564285D01*
X74252380Y-86850000D02*
X73252380Y-86850000D01*
X73395238Y-86754761D01*
X73490476Y-86659523D01*
X73538095Y-86564285D01*
X118316666Y-86427380D02*
X118650000Y-85951190D01*
X118888095Y-86427380D02*
X118888095Y-85427380D01*
X118507142Y-85427380D01*
X118411904Y-85475000D01*
X118364285Y-85522619D01*
X118316666Y-85617857D01*
X118316666Y-85760714D01*
X118364285Y-85855952D01*
X118411904Y-85903571D01*
X118507142Y-85951190D01*
X118888095Y-85951190D01*
X117935714Y-85522619D02*
X117888095Y-85475000D01*
X117792857Y-85427380D01*
X117554761Y-85427380D01*
X117459523Y-85475000D01*
X117411904Y-85522619D01*
X117364285Y-85617857D01*
X117364285Y-85713095D01*
X117411904Y-85855952D01*
X117983333Y-86427380D01*
X117364285Y-86427380D01*
X100266666Y-120652380D02*
X100600000Y-120176190D01*
X100838095Y-120652380D02*
X100838095Y-119652380D01*
X100457142Y-119652380D01*
X100361904Y-119700000D01*
X100314285Y-119747619D01*
X100266666Y-119842857D01*
X100266666Y-119985714D01*
X100314285Y-120080952D01*
X100361904Y-120128571D01*
X100457142Y-120176190D01*
X100838095Y-120176190D01*
X99933333Y-119652380D02*
X99314285Y-119652380D01*
X99647619Y-120033333D01*
X99504761Y-120033333D01*
X99409523Y-120080952D01*
X99361904Y-120128571D01*
X99314285Y-120223809D01*
X99314285Y-120461904D01*
X99361904Y-120557142D01*
X99409523Y-120604761D01*
X99504761Y-120652380D01*
X99790476Y-120652380D01*
X99885714Y-120604761D01*
X99933333Y-120557142D01*
X100291666Y-115402380D02*
X100625000Y-114926190D01*
X100863095Y-115402380D02*
X100863095Y-114402380D01*
X100482142Y-114402380D01*
X100386904Y-114450000D01*
X100339285Y-114497619D01*
X100291666Y-114592857D01*
X100291666Y-114735714D01*
X100339285Y-114830952D01*
X100386904Y-114878571D01*
X100482142Y-114926190D01*
X100863095Y-114926190D01*
X99434523Y-114735714D02*
X99434523Y-115402380D01*
X99672619Y-114354761D02*
X99910714Y-115069047D01*
X99291666Y-115069047D01*
X100241666Y-112977380D02*
X100575000Y-112501190D01*
X100813095Y-112977380D02*
X100813095Y-111977380D01*
X100432142Y-111977380D01*
X100336904Y-112025000D01*
X100289285Y-112072619D01*
X100241666Y-112167857D01*
X100241666Y-112310714D01*
X100289285Y-112405952D01*
X100336904Y-112453571D01*
X100432142Y-112501190D01*
X100813095Y-112501190D01*
X99336904Y-111977380D02*
X99813095Y-111977380D01*
X99860714Y-112453571D01*
X99813095Y-112405952D01*
X99717857Y-112358333D01*
X99479761Y-112358333D01*
X99384523Y-112405952D01*
X99336904Y-112453571D01*
X99289285Y-112548809D01*
X99289285Y-112786904D01*
X99336904Y-112882142D01*
X99384523Y-112929761D01*
X99479761Y-112977380D01*
X99717857Y-112977380D01*
X99813095Y-112929761D01*
X99860714Y-112882142D01*
X141066666Y-105402380D02*
X141400000Y-104926190D01*
X141638095Y-105402380D02*
X141638095Y-104402380D01*
X141257142Y-104402380D01*
X141161904Y-104450000D01*
X141114285Y-104497619D01*
X141066666Y-104592857D01*
X141066666Y-104735714D01*
X141114285Y-104830952D01*
X141161904Y-104878571D01*
X141257142Y-104926190D01*
X141638095Y-104926190D01*
X140209523Y-104402380D02*
X140400000Y-104402380D01*
X140495238Y-104450000D01*
X140542857Y-104497619D01*
X140638095Y-104640476D01*
X140685714Y-104830952D01*
X140685714Y-105211904D01*
X140638095Y-105307142D01*
X140590476Y-105354761D01*
X140495238Y-105402380D01*
X140304761Y-105402380D01*
X140209523Y-105354761D01*
X140161904Y-105307142D01*
X140114285Y-105211904D01*
X140114285Y-104973809D01*
X140161904Y-104878571D01*
X140209523Y-104830952D01*
X140304761Y-104783333D01*
X140495238Y-104783333D01*
X140590476Y-104830952D01*
X140638095Y-104878571D01*
X140685714Y-104973809D01*
X109927380Y-118858333D02*
X109451190Y-118525000D01*
X109927380Y-118286904D02*
X108927380Y-118286904D01*
X108927380Y-118667857D01*
X108975000Y-118763095D01*
X109022619Y-118810714D01*
X109117857Y-118858333D01*
X109260714Y-118858333D01*
X109355952Y-118810714D01*
X109403571Y-118763095D01*
X109451190Y-118667857D01*
X109451190Y-118286904D01*
X108927380Y-119191666D02*
X108927380Y-119858333D01*
X109927380Y-119429761D01*
X108941666Y-115452380D02*
X109275000Y-114976190D01*
X109513095Y-115452380D02*
X109513095Y-114452380D01*
X109132142Y-114452380D01*
X109036904Y-114500000D01*
X108989285Y-114547619D01*
X108941666Y-114642857D01*
X108941666Y-114785714D01*
X108989285Y-114880952D01*
X109036904Y-114928571D01*
X109132142Y-114976190D01*
X109513095Y-114976190D01*
X108370238Y-114880952D02*
X108465476Y-114833333D01*
X108513095Y-114785714D01*
X108560714Y-114690476D01*
X108560714Y-114642857D01*
X108513095Y-114547619D01*
X108465476Y-114500000D01*
X108370238Y-114452380D01*
X108179761Y-114452380D01*
X108084523Y-114500000D01*
X108036904Y-114547619D01*
X107989285Y-114642857D01*
X107989285Y-114690476D01*
X108036904Y-114785714D01*
X108084523Y-114833333D01*
X108179761Y-114880952D01*
X108370238Y-114880952D01*
X108465476Y-114928571D01*
X108513095Y-114976190D01*
X108560714Y-115071428D01*
X108560714Y-115261904D01*
X108513095Y-115357142D01*
X108465476Y-115404761D01*
X108370238Y-115452380D01*
X108179761Y-115452380D01*
X108084523Y-115404761D01*
X108036904Y-115357142D01*
X107989285Y-115261904D01*
X107989285Y-115071428D01*
X108036904Y-114976190D01*
X108084523Y-114928571D01*
X108179761Y-114880952D01*
X141066666Y-99402380D02*
X141400000Y-98926190D01*
X141638095Y-99402380D02*
X141638095Y-98402380D01*
X141257142Y-98402380D01*
X141161904Y-98450000D01*
X141114285Y-98497619D01*
X141066666Y-98592857D01*
X141066666Y-98735714D01*
X141114285Y-98830952D01*
X141161904Y-98878571D01*
X141257142Y-98926190D01*
X141638095Y-98926190D01*
X140590476Y-99402380D02*
X140400000Y-99402380D01*
X140304761Y-99354761D01*
X140257142Y-99307142D01*
X140161904Y-99164285D01*
X140114285Y-98973809D01*
X140114285Y-98592857D01*
X140161904Y-98497619D01*
X140209523Y-98450000D01*
X140304761Y-98402380D01*
X140495238Y-98402380D01*
X140590476Y-98450000D01*
X140638095Y-98497619D01*
X140685714Y-98592857D01*
X140685714Y-98830952D01*
X140638095Y-98926190D01*
X140590476Y-98973809D01*
X140495238Y-99021428D01*
X140304761Y-99021428D01*
X140209523Y-98973809D01*
X140161904Y-98926190D01*
X140114285Y-98830952D01*
X101167857Y-133402380D02*
X101501190Y-132926190D01*
X101739285Y-133402380D02*
X101739285Y-132402380D01*
X101358333Y-132402380D01*
X101263095Y-132450000D01*
X101215476Y-132497619D01*
X101167857Y-132592857D01*
X101167857Y-132735714D01*
X101215476Y-132830952D01*
X101263095Y-132878571D01*
X101358333Y-132926190D01*
X101739285Y-132926190D01*
X100215476Y-133402380D02*
X100786904Y-133402380D01*
X100501190Y-133402380D02*
X100501190Y-132402380D01*
X100596428Y-132545238D01*
X100691666Y-132640476D01*
X100786904Y-132688095D01*
X99834523Y-132497619D02*
X99786904Y-132450000D01*
X99691666Y-132402380D01*
X99453571Y-132402380D01*
X99358333Y-132450000D01*
X99310714Y-132497619D01*
X99263095Y-132592857D01*
X99263095Y-132688095D01*
X99310714Y-132830952D01*
X99882142Y-133402380D01*
X99263095Y-133402380D01*
X101167857Y-130327380D02*
X101501190Y-129851190D01*
X101739285Y-130327380D02*
X101739285Y-129327380D01*
X101358333Y-129327380D01*
X101263095Y-129375000D01*
X101215476Y-129422619D01*
X101167857Y-129517857D01*
X101167857Y-129660714D01*
X101215476Y-129755952D01*
X101263095Y-129803571D01*
X101358333Y-129851190D01*
X101739285Y-129851190D01*
X100215476Y-130327380D02*
X100786904Y-130327380D01*
X100501190Y-130327380D02*
X100501190Y-129327380D01*
X100596428Y-129470238D01*
X100691666Y-129565476D01*
X100786904Y-129613095D01*
X99358333Y-129660714D02*
X99358333Y-130327380D01*
X99596428Y-129279761D02*
X99834523Y-129994047D01*
X99215476Y-129994047D01*
X101167857Y-127877380D02*
X101501190Y-127401190D01*
X101739285Y-127877380D02*
X101739285Y-126877380D01*
X101358333Y-126877380D01*
X101263095Y-126925000D01*
X101215476Y-126972619D01*
X101167857Y-127067857D01*
X101167857Y-127210714D01*
X101215476Y-127305952D01*
X101263095Y-127353571D01*
X101358333Y-127401190D01*
X101739285Y-127401190D01*
X100215476Y-127877380D02*
X100786904Y-127877380D01*
X100501190Y-127877380D02*
X100501190Y-126877380D01*
X100596428Y-127020238D01*
X100691666Y-127115476D01*
X100786904Y-127163095D01*
X99310714Y-126877380D02*
X99786904Y-126877380D01*
X99834523Y-127353571D01*
X99786904Y-127305952D01*
X99691666Y-127258333D01*
X99453571Y-127258333D01*
X99358333Y-127305952D01*
X99310714Y-127353571D01*
X99263095Y-127448809D01*
X99263095Y-127686904D01*
X99310714Y-127782142D01*
X99358333Y-127829761D01*
X99453571Y-127877380D01*
X99691666Y-127877380D01*
X99786904Y-127829761D01*
X99834523Y-127782142D01*
X108567857Y-130427380D02*
X108901190Y-129951190D01*
X109139285Y-130427380D02*
X109139285Y-129427380D01*
X108758333Y-129427380D01*
X108663095Y-129475000D01*
X108615476Y-129522619D01*
X108567857Y-129617857D01*
X108567857Y-129760714D01*
X108615476Y-129855952D01*
X108663095Y-129903571D01*
X108758333Y-129951190D01*
X109139285Y-129951190D01*
X107615476Y-130427380D02*
X108186904Y-130427380D01*
X107901190Y-130427380D02*
X107901190Y-129427380D01*
X107996428Y-129570238D01*
X108091666Y-129665476D01*
X108186904Y-129713095D01*
X107282142Y-129427380D02*
X106615476Y-129427380D01*
X107044047Y-130427380D01*
X106227380Y-134432142D02*
X105751190Y-134098809D01*
X106227380Y-133860714D02*
X105227380Y-133860714D01*
X105227380Y-134241666D01*
X105275000Y-134336904D01*
X105322619Y-134384523D01*
X105417857Y-134432142D01*
X105560714Y-134432142D01*
X105655952Y-134384523D01*
X105703571Y-134336904D01*
X105751190Y-134241666D01*
X105751190Y-133860714D01*
X106227380Y-135384523D02*
X106227380Y-134813095D01*
X106227380Y-135098809D02*
X105227380Y-135098809D01*
X105370238Y-135003571D01*
X105465476Y-134908333D01*
X105513095Y-134813095D01*
X105655952Y-135955952D02*
X105608333Y-135860714D01*
X105560714Y-135813095D01*
X105465476Y-135765476D01*
X105417857Y-135765476D01*
X105322619Y-135813095D01*
X105275000Y-135860714D01*
X105227380Y-135955952D01*
X105227380Y-136146428D01*
X105275000Y-136241666D01*
X105322619Y-136289285D01*
X105417857Y-136336904D01*
X105465476Y-136336904D01*
X105560714Y-136289285D01*
X105608333Y-136241666D01*
X105655952Y-136146428D01*
X105655952Y-135955952D01*
X105703571Y-135860714D01*
X105751190Y-135813095D01*
X105846428Y-135765476D01*
X106036904Y-135765476D01*
X106132142Y-135813095D01*
X106179761Y-135860714D01*
X106227380Y-135955952D01*
X106227380Y-136146428D01*
X106179761Y-136241666D01*
X106132142Y-136289285D01*
X106036904Y-136336904D01*
X105846428Y-136336904D01*
X105751190Y-136289285D01*
X105703571Y-136241666D01*
X105655952Y-136146428D01*
M02*
