M48
; DRILL file {KiCad (5.1.4)-1} date 28/08/2019 19:55:53
; FORMAT={-:-/ absolute / inch / decimal}
; #@! TF.CreationDate,2019-08-28T19:55:53+03:00
; #@! TF.GenerationSoftware,Kicad,Pcbnew,(5.1.4)-1
; #@! TF.FileFunction,Plated,1,2,PTH
FMAT,2
INCH
T1C0.0157
T2C0.0300
T3C0.0315
T4C0.0394
T5C0.0512
T6C0.0598
T7C0.1575
%
G90
G05
T1
X3.3701Y-3.3789
X3.3789Y-3.2726
X3.6693Y-3.9616
X3.7165Y-4.1024
X3.9931Y-4.9439
X4.252Y-4.5797
X4.252Y-4.9026
X4.2825Y-3.2136
X4.2835Y-5.0945
X4.3514Y-5.4705
X4.3524Y-4.2382
X4.4685Y-3.3317
X4.6122Y-4.6398
X4.6604Y-3.6722
X5.2963Y-5.2018
X5.4301Y-5.1319
T2
X3.6929Y-3.5925
X3.7929Y-3.5925
X3.7929Y-4.2925
X3.8929Y-3.5925
X3.8929Y-4.2925
X3.9929Y-3.5925
X3.9929Y-4.2925
X4.0929Y-3.5925
X4.0929Y-4.2925
X4.1929Y-3.5925
X4.4144Y-2.9747
X4.4144Y-3.0797
X4.4144Y-3.1847
X3.6063Y-3.0846
X4.1969Y-3.0846
T3
X2.9341Y-2.4144
X3.2617Y-2.1849
X4.3898Y-2.1043
X4.7174Y-2.3338
X3.7894Y-4.4961
X3.7894Y-4.5961
X3.7894Y-4.6961
X3.7894Y-4.7961
X4.0894Y-4.4961
X4.0894Y-4.5961
X4.0894Y-4.6961
X4.0894Y-4.7961
X2.8386Y-3.439
X2.8386Y-3.539
X2.8386Y-3.639
X2.8386Y-3.739
X2.8386Y-3.839
X2.8386Y-3.939
X2.8386Y-4.039
X2.8386Y-4.139
X2.8386Y-4.239
X2.8386Y-4.339
X2.8386Y-4.439
X2.8386Y-4.539
X2.8386Y-4.639
X2.8386Y-4.739
X2.8386Y-4.839
X2.8386Y-4.939
X2.8386Y-5.039
X2.8386Y-5.139
X2.8386Y-5.239
X2.8386Y-5.339
X3.4386Y-3.439
X3.4386Y-3.539
X3.4386Y-3.639
X3.4386Y-3.739
X3.4386Y-3.839
X3.4386Y-3.939
X3.4386Y-4.039
X3.4386Y-4.139
X3.4386Y-4.239
X3.4386Y-4.339
X3.4386Y-4.439
X3.4386Y-4.539
X3.4386Y-4.639
X3.4386Y-4.739
X3.4386Y-4.839
X3.4386Y-4.939
X3.4386Y-5.039
X3.4386Y-5.139
X3.4386Y-5.239
X3.4386Y-5.339
X3.8031Y-5.0807
X3.8031Y-5.1807
X3.8031Y-5.2807
X3.8031Y-5.3807
X4.1031Y-5.0807
X4.1031Y-5.1807
X4.1031Y-5.2807
X4.1031Y-5.3807
X2.3031Y-4.3386
X2.7031Y-4.3386
X4.4626Y-3.4488
X4.4626Y-3.5488
X4.4626Y-3.6488
X4.4626Y-3.7488
X4.4626Y-3.8488
X4.4626Y-3.9488
X4.4626Y-4.0488
X4.4626Y-4.1488
X4.4626Y-4.2488
X4.4626Y-4.3488
X4.4626Y-4.4488
X4.4626Y-4.5488
X4.4626Y-4.6488
X4.4626Y-4.7488
X4.4626Y-4.8488
X4.4626Y-4.9488
X4.4626Y-5.0488
X4.4626Y-5.1488
X4.4626Y-5.2488
X4.4626Y-5.3488
X5.0626Y-3.4488
X5.0626Y-3.5488
X5.0626Y-3.6488
X5.0626Y-3.7488
X5.0626Y-3.8488
X5.0626Y-3.9488
X5.0626Y-4.0488
X5.0626Y-4.1488
X5.0626Y-4.2488
X5.0626Y-4.3488
X5.0626Y-4.4488
X5.0626Y-4.5488
X5.0626Y-4.6488
X5.0626Y-4.7488
X5.0626Y-4.8488
X5.0626Y-4.9488
X5.0626Y-5.0488
X5.0626Y-5.1488
X5.0626Y-5.2488
X5.0626Y-5.3488
X5.2181Y-4.3839
X5.6181Y-4.3839
T4
X4.7717Y-3.885
X4.7717Y-3.985
X4.7717Y-4.085
X4.7717Y-4.185
X4.7717Y-4.386
X4.7717Y-4.486
X4.7717Y-4.586
X4.7717Y-4.686
X4.5862Y-3.2776
X4.6862Y-3.2776
X4.7862Y-3.2776
X4.8862Y-3.2776
X4.9862Y-3.2776
X2.8677Y-3.2382
X2.9677Y-3.2382
X3.0677Y-3.2382
X3.1677Y-3.2382
X3.2677Y-3.2382
X4.7736Y-4.8939
X4.7736Y-4.9939
X4.7736Y-5.0939
X4.7736Y-5.1939
X3.6913Y-3.3976
X3.7913Y-3.3976
X3.8913Y-3.3976
X3.9913Y-3.3976
X4.0913Y-3.3976
X4.1913Y-3.3976
X4.2913Y-3.3976
X5.7126Y-3.5315
X5.7126Y-3.6315
X5.7126Y-3.7315
X5.7126Y-3.8315
X5.7126Y-3.9315
X5.7126Y-4.0315
X3.1722Y-3.7589
X3.1722Y-3.8589
X5.377Y-3.9646
X5.377Y-4.0646
X3.1693Y-4.0384
X3.1693Y-4.1384
T5
X3.8406Y-2.3346
X3.8406Y-2.7646
X5.0226Y-2.9301
X5.1604Y-2.9301
X5.3189Y-3.6102
X5.4567Y-3.6102
X2.4961Y-2.9016
X2.6339Y-2.9016
X5.3967Y-3.1732
X5.5344Y-3.1732
X2.8819Y-2.8937
X3.0197Y-2.8937
X5.3642Y-4.689
X5.502Y-4.689
X2.4291Y-4.6122
X2.5669Y-4.6122
T6
X4.8571Y-2.561
X5.0571Y-2.561
X4.5807Y-2.9508
X4.7807Y-2.9508
T7
X3.3169Y-2.5492
X4.5059Y-2.5492
T0
M30
