%TF.GenerationSoftware,KiCad,Pcbnew,(5.1.4)-1*%
%TF.CreationDate,2019-08-28T16:24:02+03:00*%
%TF.ProjectId,Timsah_Main_Board,54696d73-6168-45f4-9d61-696e5f426f61,rev?*%
%TF.SameCoordinates,Original*%
%TF.FileFunction,Legend,Bot*%
%TF.FilePolarity,Positive*%
%FSLAX46Y46*%
G04 Gerber Fmt 4.6, Leading zero omitted, Abs format (unit mm)*
G04 Created by KiCad (PCBNEW (5.1.4)-1) date 2019-08-28 16:24:02*
%MOMM*%
%LPD*%
G04 APERTURE LIST*
%ADD10C,0.120000*%
%ADD11C,0.150000*%
G04 APERTURE END LIST*
D10*
X106500000Y-86500000D02*
X129500000Y-86500000D01*
X129500000Y-86500000D02*
X129500000Y-77500000D01*
X129500000Y-77500000D02*
X106500000Y-77500000D01*
X106500000Y-77500000D02*
X106500000Y-86500000D01*
X107500000Y-85500000D02*
X114000000Y-85500000D01*
X114000000Y-85500000D02*
X114000000Y-86500000D01*
X107500000Y-85500000D02*
X107500000Y-78500000D01*
X107500000Y-78500000D02*
X114000000Y-78500000D01*
X114000000Y-78500000D02*
X114000000Y-77500000D01*
X128500000Y-85500000D02*
X122000000Y-85500000D01*
X122000000Y-85500000D02*
X122000000Y-86500000D01*
X128500000Y-85500000D02*
X128500000Y-78500000D01*
X128500000Y-78500000D02*
X122000000Y-78500000D01*
X122000000Y-78500000D02*
X122000000Y-77500000D01*
X89450000Y-139100000D02*
X91450000Y-139100000D01*
X89450000Y-141340000D02*
X89450000Y-139100000D01*
X96900000Y-143311000D02*
X96900000Y-143250000D01*
X96900000Y-147000000D02*
X96900000Y-144689000D01*
X94100000Y-143311000D02*
X94100000Y-143250000D01*
X94100000Y-147000000D02*
X94100000Y-144689000D01*
X96900000Y-143250000D02*
X96900000Y-143250000D01*
X94100000Y-143250000D02*
X94101000Y-143250000D01*
X94100000Y-147000000D02*
X96900000Y-147000000D01*
X93400000Y-147000000D02*
X93400000Y-145540000D01*
X90600000Y-147000000D02*
X90600000Y-145540000D01*
X90600000Y-147000000D02*
X93400000Y-147000000D01*
X97810000Y-147760000D02*
X97810000Y-139340000D01*
X89690000Y-147760000D02*
X89690000Y-139340000D01*
X89690000Y-139340000D02*
X97810000Y-139340000D01*
X89690000Y-147760000D02*
X97810000Y-147760000D01*
X96634000Y-142899000D02*
X97810000Y-142899000D01*
X93540000Y-142899000D02*
X94367000Y-142899000D01*
X89690000Y-142899000D02*
X90460000Y-142899000D01*
X94560085Y-145257767D02*
G75*
G03X96440000Y-145258000I939915J-342233D01*
G01*
X91002110Y-145529434D02*
G75*
G03X92998000Y-145531000I997890J-70566D01*
G01*
X104997890Y-98470566D02*
G75*
G03X103002000Y-98469000I-997890J70566D01*
G01*
X101439915Y-98742233D02*
G75*
G03X99560000Y-98742000I-939915J342233D01*
G01*
X106310000Y-101101000D02*
X105540000Y-101101000D01*
X102460000Y-101101000D02*
X101633000Y-101101000D01*
X99366000Y-101101000D02*
X98190000Y-101101000D01*
X106310000Y-96240000D02*
X98190000Y-96240000D01*
X106310000Y-104660000D02*
X98190000Y-104660000D01*
X106310000Y-96240000D02*
X106310000Y-104660000D01*
X98190000Y-96240000D02*
X98190000Y-104660000D01*
X105400000Y-97000000D02*
X102600000Y-97000000D01*
X105400000Y-97000000D02*
X105400000Y-98460000D01*
X102600000Y-97000000D02*
X102600000Y-98460000D01*
X101900000Y-97000000D02*
X99100000Y-97000000D01*
X101900000Y-100750000D02*
X101899000Y-100750000D01*
X99100000Y-100750000D02*
X99100000Y-100750000D01*
X101900000Y-97000000D02*
X101900000Y-99311000D01*
X101900000Y-100689000D02*
X101900000Y-100750000D01*
X99100000Y-97000000D02*
X99100000Y-99311000D01*
X99100000Y-100689000D02*
X99100000Y-100750000D01*
X106550000Y-102660000D02*
X106550000Y-104900000D01*
X106550000Y-104900000D02*
X104550000Y-104900000D01*
X122957574Y-120161522D02*
X124838478Y-122042426D01*
X122957574Y-120161522D02*
X128388154Y-114730942D01*
X128388154Y-114730942D02*
X130269058Y-116611846D01*
X124838478Y-122042426D02*
X130269058Y-116611846D01*
X123000000Y-123880904D02*
X123940452Y-122940452D01*
X122059548Y-122940452D02*
X123000000Y-123880904D01*
X131430580Y-121450324D02*
X129549676Y-119569420D01*
X131430580Y-121450324D02*
X126000000Y-126880904D01*
X126000000Y-126880904D02*
X124119096Y-125000000D01*
X129549676Y-119569420D02*
X124119096Y-125000000D01*
X131388154Y-117730942D02*
X130447702Y-118671394D01*
X132328606Y-118671394D02*
X131388154Y-117730942D01*
X140950000Y-111000000D02*
X140950000Y-109670000D01*
X140950000Y-109670000D02*
X139620000Y-109670000D01*
X138350000Y-109670000D02*
X130670000Y-109670000D01*
X130670000Y-112330000D02*
X130670000Y-109670000D01*
X138350000Y-112330000D02*
X130670000Y-112330000D01*
X138350000Y-112330000D02*
X138350000Y-109670000D01*
X144286252Y-95710000D02*
X143763748Y-95710000D01*
X144286252Y-94290000D02*
X143763748Y-94290000D01*
X92286252Y-128290000D02*
X91763748Y-128290000D01*
X92286252Y-129710000D02*
X91763748Y-129710000D01*
X89286252Y-124710000D02*
X88763748Y-124710000D01*
X89286252Y-123290000D02*
X88763748Y-123290000D01*
X93710000Y-133286252D02*
X93710000Y-132763748D01*
X92290000Y-133286252D02*
X92290000Y-132763748D01*
X98290000Y-130236252D02*
X98290000Y-129713748D01*
X99710000Y-130236252D02*
X99710000Y-129713748D01*
X101551186Y-139551186D02*
X102095658Y-140095658D01*
X107264609Y-145264609D02*
X106720137Y-144720137D01*
X103064395Y-139126922D02*
X107688873Y-143751400D01*
X101126922Y-141064395D02*
X103064395Y-139126922D01*
X105751400Y-145688873D02*
X101126922Y-141064395D01*
X107688873Y-143751400D02*
X105751400Y-145688873D01*
X102738748Y-68290000D02*
X103261252Y-68290000D01*
X102738748Y-69710000D02*
X103261252Y-69710000D01*
X90763748Y-104710000D02*
X91286252Y-104710000D01*
X90763748Y-103290000D02*
X91286252Y-103290000D01*
X88470667Y-57768983D02*
X87839920Y-58210637D01*
X81851918Y-62403481D02*
X82482665Y-61961827D01*
X88625719Y-59332875D02*
X83268465Y-63084065D01*
X87054120Y-57088398D02*
X88625719Y-59332875D01*
X81696865Y-60839588D02*
X87054120Y-57088398D01*
X83268465Y-63084065D02*
X81696865Y-60839588D01*
X95710000Y-109286252D02*
X95710000Y-108763748D01*
X94290000Y-109286252D02*
X94290000Y-108763748D01*
X96286252Y-116710000D02*
X95763748Y-116710000D01*
X96286252Y-115290000D02*
X95763748Y-115290000D01*
X109696865Y-58160412D02*
X111268465Y-55915935D01*
X111268465Y-55915935D02*
X116625719Y-59667125D01*
X116625719Y-59667125D02*
X115054120Y-61911602D01*
X115054120Y-61911602D02*
X109696865Y-58160412D01*
X109851918Y-56596519D02*
X110482665Y-57038173D01*
X116470667Y-61231017D02*
X115839920Y-60789363D01*
X103310000Y-109738748D02*
X103310000Y-110261252D01*
X101890000Y-109738748D02*
X101890000Y-110261252D01*
X96290000Y-112713748D02*
X96290000Y-113236252D01*
X97710000Y-112713748D02*
X97710000Y-113236252D01*
X111370000Y-103190000D02*
X108630000Y-103190000D01*
X108630000Y-103190000D02*
X108630000Y-96650000D01*
X108630000Y-96650000D02*
X111370000Y-96650000D01*
X111370000Y-96650000D02*
X111370000Y-103190000D01*
X110000000Y-103960000D02*
X110000000Y-103190000D01*
X110000000Y-95880000D02*
X110000000Y-96650000D01*
X122190000Y-74270000D02*
X122190000Y-71730000D01*
X122190000Y-71730000D02*
X129810000Y-71730000D01*
X129810000Y-71730000D02*
X129810000Y-74270000D01*
X129810000Y-74270000D02*
X122190000Y-74270000D01*
X96810000Y-117330000D02*
G75*
G03X94810000Y-117330000I-1000000J0D01*
G01*
X94810000Y-117330000D02*
X93160000Y-117330000D01*
X93160000Y-117330000D02*
X93160000Y-107050000D01*
X93160000Y-107050000D02*
X98460000Y-107050000D01*
X98460000Y-107050000D02*
X98460000Y-117330000D01*
X98460000Y-117330000D02*
X96810000Y-117330000D01*
X90670000Y-117390000D02*
X90670000Y-106990000D01*
X90670000Y-106990000D02*
X100950000Y-106990000D01*
X100950000Y-106990000D02*
X100950000Y-117390000D01*
X100950000Y-117390000D02*
X90670000Y-117390000D01*
X70290000Y-111738748D02*
X70290000Y-112261252D01*
X71710000Y-111738748D02*
X71710000Y-112261252D01*
X102738748Y-60290000D02*
X103261252Y-60290000D01*
X102738748Y-61710000D02*
X103261252Y-61710000D01*
X108710000Y-65286252D02*
X108710000Y-64763748D01*
X107290000Y-65286252D02*
X107290000Y-64763748D01*
X60763748Y-79290000D02*
X61286252Y-79290000D01*
X60763748Y-80710000D02*
X61286252Y-80710000D01*
X103040000Y-65975000D02*
X103040000Y-63115000D01*
X103040000Y-63115000D02*
X104960000Y-63115000D01*
X104960000Y-63115000D02*
X104960000Y-65975000D01*
X78000000Y-100670000D02*
X76670000Y-100670000D01*
X76670000Y-100670000D02*
X76670000Y-102000000D01*
X76670000Y-103270000D02*
X76670000Y-105870000D01*
X79330000Y-105870000D02*
X76670000Y-105870000D01*
X79330000Y-103270000D02*
X79330000Y-105870000D01*
X79330000Y-103270000D02*
X76670000Y-103270000D01*
X79330000Y-96270000D02*
X76670000Y-96270000D01*
X79330000Y-96270000D02*
X79330000Y-98870000D01*
X79330000Y-98870000D02*
X76670000Y-98870000D01*
X76670000Y-96270000D02*
X76670000Y-98870000D01*
X76670000Y-93670000D02*
X76670000Y-95000000D01*
X78000000Y-93670000D02*
X76670000Y-93670000D01*
D11*
X118333333Y-75928571D02*
X118666666Y-75928571D01*
X118666666Y-76452380D02*
X118666666Y-75452380D01*
X118190476Y-75452380D01*
X117285714Y-76452380D02*
X117857142Y-76452380D01*
X117571428Y-76452380D02*
X117571428Y-75452380D01*
X117666666Y-75595238D01*
X117761904Y-75690476D01*
X117857142Y-75738095D01*
X94083333Y-148212380D02*
X94083333Y-148926666D01*
X94130952Y-149069523D01*
X94226190Y-149164761D01*
X94369047Y-149212380D01*
X94464285Y-149212380D01*
X93178571Y-148212380D02*
X93369047Y-148212380D01*
X93464285Y-148260000D01*
X93511904Y-148307619D01*
X93607142Y-148450476D01*
X93654761Y-148640952D01*
X93654761Y-149021904D01*
X93607142Y-149117142D01*
X93559523Y-149164761D01*
X93464285Y-149212380D01*
X93273809Y-149212380D01*
X93178571Y-149164761D01*
X93130952Y-149117142D01*
X93083333Y-149021904D01*
X93083333Y-148783809D01*
X93130952Y-148688571D01*
X93178571Y-148640952D01*
X93273809Y-148593333D01*
X93464285Y-148593333D01*
X93559523Y-148640952D01*
X93607142Y-148688571D01*
X93654761Y-148783809D01*
X103059523Y-94692380D02*
X103059523Y-95406666D01*
X103107142Y-95549523D01*
X103202380Y-95644761D01*
X103345238Y-95692380D01*
X103440476Y-95692380D01*
X102059523Y-95692380D02*
X102630952Y-95692380D01*
X102345238Y-95692380D02*
X102345238Y-94692380D01*
X102440476Y-94835238D01*
X102535714Y-94930476D01*
X102630952Y-94978095D01*
X101678571Y-94787619D02*
X101630952Y-94740000D01*
X101535714Y-94692380D01*
X101297619Y-94692380D01*
X101202380Y-94740000D01*
X101154761Y-94787619D01*
X101107142Y-94882857D01*
X101107142Y-94978095D01*
X101154761Y-95120952D01*
X101726190Y-95692380D01*
X101107142Y-95692380D01*
X122000958Y-124143880D02*
X121495882Y-124648956D01*
X121428539Y-124783643D01*
X121428539Y-124918330D01*
X121495882Y-125053017D01*
X121563226Y-125120361D01*
X120586745Y-124143880D02*
X120990806Y-124547941D01*
X120788775Y-124345911D02*
X121495882Y-123638804D01*
X121462210Y-123807163D01*
X121462210Y-123941850D01*
X121495882Y-124042865D01*
X120687760Y-122830682D02*
X120822447Y-122965369D01*
X120856119Y-123066384D01*
X120856119Y-123133728D01*
X120822447Y-123302086D01*
X120721432Y-123470445D01*
X120452058Y-123739819D01*
X120351043Y-123773491D01*
X120283699Y-123773491D01*
X120182684Y-123739819D01*
X120047997Y-123605132D01*
X120014325Y-123504117D01*
X120014325Y-123436773D01*
X120047997Y-123335758D01*
X120216356Y-123167399D01*
X120317371Y-123133728D01*
X120384714Y-123133728D01*
X120485730Y-123167399D01*
X120620417Y-123302086D01*
X120654088Y-123403102D01*
X120654088Y-123470445D01*
X120620417Y-123571460D01*
X134306484Y-117838354D02*
X133801408Y-118343430D01*
X133734065Y-118478117D01*
X133734065Y-118612804D01*
X133801408Y-118747491D01*
X133868752Y-118814835D01*
X132892271Y-117838354D02*
X133296332Y-118242415D01*
X133094301Y-118040385D02*
X133801408Y-117333278D01*
X133767736Y-117501637D01*
X133767736Y-117636324D01*
X133801408Y-117737339D01*
X132555553Y-117501637D02*
X132420866Y-117366950D01*
X132387195Y-117265934D01*
X132387195Y-117198591D01*
X132420866Y-117030232D01*
X132521882Y-116861873D01*
X132791256Y-116592499D01*
X132892271Y-116558828D01*
X132959614Y-116558828D01*
X133060630Y-116592499D01*
X133195317Y-116727186D01*
X133228988Y-116828202D01*
X133228988Y-116895545D01*
X133195317Y-116996560D01*
X133026958Y-117164919D01*
X132925943Y-117198591D01*
X132858599Y-117198591D01*
X132757584Y-117164919D01*
X132622897Y-117030232D01*
X132589225Y-116929217D01*
X132589225Y-116861873D01*
X132622897Y-116760858D01*
X141842380Y-110190476D02*
X142556666Y-110190476D01*
X142699523Y-110142857D01*
X142794761Y-110047619D01*
X142842380Y-109904761D01*
X142842380Y-109809523D01*
X141937619Y-110619047D02*
X141890000Y-110666666D01*
X141842380Y-110761904D01*
X141842380Y-111000000D01*
X141890000Y-111095238D01*
X141937619Y-111142857D01*
X142032857Y-111190476D01*
X142128095Y-111190476D01*
X142270952Y-111142857D01*
X142842380Y-110571428D01*
X142842380Y-111190476D01*
X142842380Y-112142857D02*
X142842380Y-111571428D01*
X142842380Y-111857142D02*
X141842380Y-111857142D01*
X141985238Y-111761904D01*
X142080476Y-111666666D01*
X142128095Y-111571428D01*
X144191666Y-93802380D02*
X144525000Y-93326190D01*
X144763095Y-93802380D02*
X144763095Y-92802380D01*
X144382142Y-92802380D01*
X144286904Y-92850000D01*
X144239285Y-92897619D01*
X144191666Y-92992857D01*
X144191666Y-93135714D01*
X144239285Y-93230952D01*
X144286904Y-93278571D01*
X144382142Y-93326190D01*
X144763095Y-93326190D01*
X143810714Y-92897619D02*
X143763095Y-92850000D01*
X143667857Y-92802380D01*
X143429761Y-92802380D01*
X143334523Y-92850000D01*
X143286904Y-92897619D01*
X143239285Y-92992857D01*
X143239285Y-93088095D01*
X143286904Y-93230952D01*
X143858333Y-93802380D01*
X143239285Y-93802380D01*
X92191666Y-127802380D02*
X92525000Y-127326190D01*
X92763095Y-127802380D02*
X92763095Y-126802380D01*
X92382142Y-126802380D01*
X92286904Y-126850000D01*
X92239285Y-126897619D01*
X92191666Y-126992857D01*
X92191666Y-127135714D01*
X92239285Y-127230952D01*
X92286904Y-127278571D01*
X92382142Y-127326190D01*
X92763095Y-127326190D01*
X91858333Y-126802380D02*
X91239285Y-126802380D01*
X91572619Y-127183333D01*
X91429761Y-127183333D01*
X91334523Y-127230952D01*
X91286904Y-127278571D01*
X91239285Y-127373809D01*
X91239285Y-127611904D01*
X91286904Y-127707142D01*
X91334523Y-127754761D01*
X91429761Y-127802380D01*
X91715476Y-127802380D01*
X91810714Y-127754761D01*
X91858333Y-127707142D01*
X89191666Y-122802380D02*
X89525000Y-122326190D01*
X89763095Y-122802380D02*
X89763095Y-121802380D01*
X89382142Y-121802380D01*
X89286904Y-121850000D01*
X89239285Y-121897619D01*
X89191666Y-121992857D01*
X89191666Y-122135714D01*
X89239285Y-122230952D01*
X89286904Y-122278571D01*
X89382142Y-122326190D01*
X89763095Y-122326190D01*
X88286904Y-121802380D02*
X88763095Y-121802380D01*
X88810714Y-122278571D01*
X88763095Y-122230952D01*
X88667857Y-122183333D01*
X88429761Y-122183333D01*
X88334523Y-122230952D01*
X88286904Y-122278571D01*
X88239285Y-122373809D01*
X88239285Y-122611904D01*
X88286904Y-122707142D01*
X88334523Y-122754761D01*
X88429761Y-122802380D01*
X88667857Y-122802380D01*
X88763095Y-122754761D01*
X88810714Y-122707142D01*
X95102380Y-132858333D02*
X94626190Y-132525000D01*
X95102380Y-132286904D02*
X94102380Y-132286904D01*
X94102380Y-132667857D01*
X94150000Y-132763095D01*
X94197619Y-132810714D01*
X94292857Y-132858333D01*
X94435714Y-132858333D01*
X94530952Y-132810714D01*
X94578571Y-132763095D01*
X94626190Y-132667857D01*
X94626190Y-132286904D01*
X94102380Y-133191666D02*
X94102380Y-133858333D01*
X95102380Y-133429761D01*
X101102380Y-129808333D02*
X100626190Y-129475000D01*
X101102380Y-129236904D02*
X100102380Y-129236904D01*
X100102380Y-129617857D01*
X100150000Y-129713095D01*
X100197619Y-129760714D01*
X100292857Y-129808333D01*
X100435714Y-129808333D01*
X100530952Y-129760714D01*
X100578571Y-129713095D01*
X100626190Y-129617857D01*
X100626190Y-129236904D01*
X100530952Y-130379761D02*
X100483333Y-130284523D01*
X100435714Y-130236904D01*
X100340476Y-130189285D01*
X100292857Y-130189285D01*
X100197619Y-130236904D01*
X100150000Y-130284523D01*
X100102380Y-130379761D01*
X100102380Y-130570238D01*
X100150000Y-130665476D01*
X100197619Y-130713095D01*
X100292857Y-130760714D01*
X100340476Y-130760714D01*
X100435714Y-130713095D01*
X100483333Y-130665476D01*
X100530952Y-130570238D01*
X100530952Y-130379761D01*
X100578571Y-130284523D01*
X100626190Y-130236904D01*
X100721428Y-130189285D01*
X100911904Y-130189285D01*
X101007142Y-130236904D01*
X101054761Y-130284523D01*
X101102380Y-130379761D01*
X101102380Y-130570238D01*
X101054761Y-130665476D01*
X101007142Y-130713095D01*
X100911904Y-130760714D01*
X100721428Y-130760714D01*
X100626190Y-130713095D01*
X100578571Y-130665476D01*
X100530952Y-130570238D01*
X106218428Y-141506504D02*
X106790847Y-141405489D01*
X106622489Y-141910565D02*
X107329595Y-141203458D01*
X107060221Y-140934084D01*
X106959206Y-140900412D01*
X106891863Y-140900412D01*
X106790847Y-140934084D01*
X106689832Y-141035099D01*
X106656160Y-141136115D01*
X106656160Y-141203458D01*
X106689832Y-141304473D01*
X106959206Y-141573847D01*
X105544992Y-140833069D02*
X105949053Y-141237130D01*
X105747023Y-141035099D02*
X106454130Y-140327992D01*
X106420458Y-140496351D01*
X106420458Y-140631038D01*
X106454130Y-140732054D01*
X105814366Y-139688229D02*
X105747023Y-139620886D01*
X105646008Y-139587214D01*
X105578664Y-139587214D01*
X105477649Y-139620886D01*
X105309290Y-139721901D01*
X105140931Y-139890260D01*
X105039916Y-140058618D01*
X105006244Y-140159634D01*
X105006244Y-140226977D01*
X105039916Y-140327992D01*
X105107260Y-140395336D01*
X105208275Y-140429008D01*
X105275618Y-140429008D01*
X105376634Y-140395336D01*
X105544992Y-140294321D01*
X105713351Y-140125962D01*
X105814366Y-139957603D01*
X105848038Y-139856588D01*
X105848038Y-139789244D01*
X105814366Y-139688229D01*
X103642857Y-71102380D02*
X103976190Y-70626190D01*
X104214285Y-71102380D02*
X104214285Y-70102380D01*
X103833333Y-70102380D01*
X103738095Y-70150000D01*
X103690476Y-70197619D01*
X103642857Y-70292857D01*
X103642857Y-70435714D01*
X103690476Y-70530952D01*
X103738095Y-70578571D01*
X103833333Y-70626190D01*
X104214285Y-70626190D01*
X102690476Y-71102380D02*
X103261904Y-71102380D01*
X102976190Y-71102380D02*
X102976190Y-70102380D01*
X103071428Y-70245238D01*
X103166666Y-70340476D01*
X103261904Y-70388095D01*
X101738095Y-71102380D02*
X102309523Y-71102380D01*
X102023809Y-71102380D02*
X102023809Y-70102380D01*
X102119047Y-70245238D01*
X102214285Y-70340476D01*
X102309523Y-70388095D01*
X91667857Y-106102380D02*
X92001190Y-105626190D01*
X92239285Y-106102380D02*
X92239285Y-105102380D01*
X91858333Y-105102380D01*
X91763095Y-105150000D01*
X91715476Y-105197619D01*
X91667857Y-105292857D01*
X91667857Y-105435714D01*
X91715476Y-105530952D01*
X91763095Y-105578571D01*
X91858333Y-105626190D01*
X92239285Y-105626190D01*
X90715476Y-106102380D02*
X91286904Y-106102380D01*
X91001190Y-106102380D02*
X91001190Y-105102380D01*
X91096428Y-105245238D01*
X91191666Y-105340476D01*
X91286904Y-105388095D01*
X90334523Y-105197619D02*
X90286904Y-105150000D01*
X90191666Y-105102380D01*
X89953571Y-105102380D01*
X89858333Y-105150000D01*
X89810714Y-105197619D01*
X89763095Y-105292857D01*
X89763095Y-105388095D01*
X89810714Y-105530952D01*
X90382142Y-106102380D01*
X89763095Y-106102380D01*
X87306741Y-62029463D02*
X87306660Y-61448198D01*
X87774828Y-61701705D02*
X87201252Y-60882553D01*
X86889194Y-61101058D01*
X86838493Y-61194691D01*
X86826798Y-61261012D01*
X86842418Y-61366339D01*
X86924357Y-61483361D01*
X87017991Y-61534063D01*
X87084311Y-61545757D01*
X87189639Y-61530138D01*
X87501697Y-61311632D01*
X86526596Y-62575726D02*
X86994683Y-62247968D01*
X86760640Y-62411847D02*
X86187063Y-61592695D01*
X86347017Y-61655090D01*
X86479658Y-61678478D01*
X86584986Y-61662859D01*
X85679969Y-61947766D02*
X85172875Y-62302837D01*
X85664431Y-62423703D01*
X85547410Y-62505642D01*
X85496708Y-62599276D01*
X85485014Y-62665596D01*
X85500633Y-62770924D01*
X85637199Y-62965960D01*
X85730833Y-63016661D01*
X85797153Y-63028356D01*
X85902481Y-63012736D01*
X86136524Y-62848857D01*
X86187225Y-62755224D01*
X86198919Y-62688904D01*
X97102380Y-108382142D02*
X96626190Y-108048809D01*
X97102380Y-107810714D02*
X96102380Y-107810714D01*
X96102380Y-108191666D01*
X96150000Y-108286904D01*
X96197619Y-108334523D01*
X96292857Y-108382142D01*
X96435714Y-108382142D01*
X96530952Y-108334523D01*
X96578571Y-108286904D01*
X96626190Y-108191666D01*
X96626190Y-107810714D01*
X97102380Y-109334523D02*
X97102380Y-108763095D01*
X97102380Y-109048809D02*
X96102380Y-109048809D01*
X96245238Y-108953571D01*
X96340476Y-108858333D01*
X96388095Y-108763095D01*
X96435714Y-110191666D02*
X97102380Y-110191666D01*
X96054761Y-109953571D02*
X96769047Y-109715476D01*
X96769047Y-110334523D01*
X96667857Y-114802380D02*
X97001190Y-114326190D01*
X97239285Y-114802380D02*
X97239285Y-113802380D01*
X96858333Y-113802380D01*
X96763095Y-113850000D01*
X96715476Y-113897619D01*
X96667857Y-113992857D01*
X96667857Y-114135714D01*
X96715476Y-114230952D01*
X96763095Y-114278571D01*
X96858333Y-114326190D01*
X97239285Y-114326190D01*
X95715476Y-114802380D02*
X96286904Y-114802380D01*
X96001190Y-114802380D02*
X96001190Y-113802380D01*
X96096428Y-113945238D01*
X96191666Y-114040476D01*
X96286904Y-114088095D01*
X94810714Y-113802380D02*
X95286904Y-113802380D01*
X95334523Y-114278571D01*
X95286904Y-114230952D01*
X95191666Y-114183333D01*
X94953571Y-114183333D01*
X94858333Y-114230952D01*
X94810714Y-114278571D01*
X94763095Y-114373809D01*
X94763095Y-114611904D01*
X94810714Y-114707142D01*
X94858333Y-114754761D01*
X94953571Y-114802380D01*
X95191666Y-114802380D01*
X95286904Y-114754761D01*
X95334523Y-114707142D01*
X112069038Y-61594455D02*
X112615221Y-61395575D01*
X112537125Y-61922213D02*
X113110702Y-61103061D01*
X112798644Y-60884556D01*
X112693316Y-60868937D01*
X112626996Y-60880631D01*
X112533362Y-60931332D01*
X112451422Y-61048354D01*
X112435803Y-61153681D01*
X112447497Y-61220002D01*
X112498199Y-61313635D01*
X112810257Y-61532141D01*
X111288893Y-61048192D02*
X111756980Y-61375950D01*
X111522937Y-61212071D02*
X112096513Y-60392919D01*
X112092588Y-60564567D01*
X112115976Y-60697208D01*
X112166678Y-60790841D01*
X111160339Y-59737403D02*
X111316368Y-59846655D01*
X111367070Y-59940289D01*
X111378764Y-60006609D01*
X111374839Y-60178257D01*
X111304593Y-60361600D01*
X111086088Y-60673657D01*
X110992455Y-60724359D01*
X110926134Y-60736053D01*
X110820807Y-60720434D01*
X110664778Y-60611181D01*
X110614076Y-60517548D01*
X110602382Y-60451227D01*
X110618001Y-60345899D01*
X110754567Y-60150863D01*
X110848201Y-60100162D01*
X110914521Y-60088468D01*
X111019849Y-60104087D01*
X111175878Y-60213340D01*
X111226579Y-60306973D01*
X111238273Y-60373294D01*
X111222654Y-60478621D01*
X101402380Y-109357142D02*
X100926190Y-109023809D01*
X101402380Y-108785714D02*
X100402380Y-108785714D01*
X100402380Y-109166666D01*
X100450000Y-109261904D01*
X100497619Y-109309523D01*
X100592857Y-109357142D01*
X100735714Y-109357142D01*
X100830952Y-109309523D01*
X100878571Y-109261904D01*
X100926190Y-109166666D01*
X100926190Y-108785714D01*
X101402380Y-110309523D02*
X101402380Y-109738095D01*
X101402380Y-110023809D02*
X100402380Y-110023809D01*
X100545238Y-109928571D01*
X100640476Y-109833333D01*
X100688095Y-109738095D01*
X100402380Y-110642857D02*
X100402380Y-111309523D01*
X101402380Y-110880952D01*
X95802380Y-112332142D02*
X95326190Y-111998809D01*
X95802380Y-111760714D02*
X94802380Y-111760714D01*
X94802380Y-112141666D01*
X94850000Y-112236904D01*
X94897619Y-112284523D01*
X94992857Y-112332142D01*
X95135714Y-112332142D01*
X95230952Y-112284523D01*
X95278571Y-112236904D01*
X95326190Y-112141666D01*
X95326190Y-111760714D01*
X95802380Y-113284523D02*
X95802380Y-112713095D01*
X95802380Y-112998809D02*
X94802380Y-112998809D01*
X94945238Y-112903571D01*
X95040476Y-112808333D01*
X95088095Y-112713095D01*
X95230952Y-113855952D02*
X95183333Y-113760714D01*
X95135714Y-113713095D01*
X95040476Y-113665476D01*
X94992857Y-113665476D01*
X94897619Y-113713095D01*
X94850000Y-113760714D01*
X94802380Y-113855952D01*
X94802380Y-114046428D01*
X94850000Y-114141666D01*
X94897619Y-114189285D01*
X94992857Y-114236904D01*
X95040476Y-114236904D01*
X95135714Y-114189285D01*
X95183333Y-114141666D01*
X95230952Y-114046428D01*
X95230952Y-113855952D01*
X95278571Y-113760714D01*
X95326190Y-113713095D01*
X95421428Y-113665476D01*
X95611904Y-113665476D01*
X95707142Y-113713095D01*
X95754761Y-113760714D01*
X95802380Y-113855952D01*
X95802380Y-114046428D01*
X95754761Y-114141666D01*
X95707142Y-114189285D01*
X95611904Y-114236904D01*
X95421428Y-114236904D01*
X95326190Y-114189285D01*
X95278571Y-114141666D01*
X95230952Y-114046428D01*
X112822380Y-99277142D02*
X112346190Y-98943809D01*
X112822380Y-98705714D02*
X111822380Y-98705714D01*
X111822380Y-99086666D01*
X111870000Y-99181904D01*
X111917619Y-99229523D01*
X112012857Y-99277142D01*
X112155714Y-99277142D01*
X112250952Y-99229523D01*
X112298571Y-99181904D01*
X112346190Y-99086666D01*
X112346190Y-98705714D01*
X112822380Y-100229523D02*
X112822380Y-99658095D01*
X112822380Y-99943809D02*
X111822380Y-99943809D01*
X111965238Y-99848571D01*
X112060476Y-99753333D01*
X112108095Y-99658095D01*
X112822380Y-100705714D02*
X112822380Y-100896190D01*
X112774761Y-100991428D01*
X112727142Y-101039047D01*
X112584285Y-101134285D01*
X112393809Y-101181904D01*
X112012857Y-101181904D01*
X111917619Y-101134285D01*
X111870000Y-101086666D01*
X111822380Y-100991428D01*
X111822380Y-100800952D01*
X111870000Y-100705714D01*
X111917619Y-100658095D01*
X112012857Y-100610476D01*
X112250952Y-100610476D01*
X112346190Y-100658095D01*
X112393809Y-100705714D01*
X112441428Y-100800952D01*
X112441428Y-100991428D01*
X112393809Y-101086666D01*
X112346190Y-101134285D01*
X112250952Y-101181904D01*
X127333333Y-70356761D02*
X127190476Y-70404380D01*
X126952380Y-70404380D01*
X126857142Y-70356761D01*
X126809523Y-70309142D01*
X126761904Y-70213904D01*
X126761904Y-70118666D01*
X126809523Y-70023428D01*
X126857142Y-69975809D01*
X126952380Y-69928190D01*
X127142857Y-69880571D01*
X127238095Y-69832952D01*
X127285714Y-69785333D01*
X127333333Y-69690095D01*
X127333333Y-69594857D01*
X127285714Y-69499619D01*
X127238095Y-69452000D01*
X127142857Y-69404380D01*
X126904761Y-69404380D01*
X126761904Y-69452000D01*
X126428571Y-69404380D02*
X126190476Y-70404380D01*
X126000000Y-69690095D01*
X125809523Y-70404380D01*
X125571428Y-69404380D01*
X124666666Y-70404380D02*
X125238095Y-70404380D01*
X124952380Y-70404380D02*
X124952380Y-69404380D01*
X125047619Y-69547238D01*
X125142857Y-69642476D01*
X125238095Y-69690095D01*
X96571904Y-117782380D02*
X96571904Y-118591904D01*
X96524285Y-118687142D01*
X96476666Y-118734761D01*
X96381428Y-118782380D01*
X96190952Y-118782380D01*
X96095714Y-118734761D01*
X96048095Y-118687142D01*
X96000476Y-118591904D01*
X96000476Y-117782380D01*
X95048095Y-117782380D02*
X95524285Y-117782380D01*
X95571904Y-118258571D01*
X95524285Y-118210952D01*
X95429047Y-118163333D01*
X95190952Y-118163333D01*
X95095714Y-118210952D01*
X95048095Y-118258571D01*
X95000476Y-118353809D01*
X95000476Y-118591904D01*
X95048095Y-118687142D01*
X95095714Y-118734761D01*
X95190952Y-118782380D01*
X95429047Y-118782380D01*
X95524285Y-118734761D01*
X95571904Y-118687142D01*
X69707142Y-111833333D02*
X69754761Y-111785714D01*
X69802380Y-111642857D01*
X69802380Y-111547619D01*
X69754761Y-111404761D01*
X69659523Y-111309523D01*
X69564285Y-111261904D01*
X69373809Y-111214285D01*
X69230952Y-111214285D01*
X69040476Y-111261904D01*
X68945238Y-111309523D01*
X68850000Y-111404761D01*
X68802380Y-111547619D01*
X68802380Y-111642857D01*
X68850000Y-111785714D01*
X68897619Y-111833333D01*
X69802380Y-112785714D02*
X69802380Y-112214285D01*
X69802380Y-112500000D02*
X68802380Y-112500000D01*
X68945238Y-112404761D01*
X69040476Y-112309523D01*
X69088095Y-112214285D01*
X103166666Y-63007142D02*
X103214285Y-63054761D01*
X103357142Y-63102380D01*
X103452380Y-63102380D01*
X103595238Y-63054761D01*
X103690476Y-62959523D01*
X103738095Y-62864285D01*
X103785714Y-62673809D01*
X103785714Y-62530952D01*
X103738095Y-62340476D01*
X103690476Y-62245238D01*
X103595238Y-62150000D01*
X103452380Y-62102380D01*
X103357142Y-62102380D01*
X103214285Y-62150000D01*
X103166666Y-62197619D01*
X102833333Y-62102380D02*
X102214285Y-62102380D01*
X102547619Y-62483333D01*
X102404761Y-62483333D01*
X102309523Y-62530952D01*
X102261904Y-62578571D01*
X102214285Y-62673809D01*
X102214285Y-62911904D01*
X102261904Y-63007142D01*
X102309523Y-63054761D01*
X102404761Y-63102380D01*
X102690476Y-63102380D01*
X102785714Y-63054761D01*
X102833333Y-63007142D01*
X110007142Y-64858333D02*
X110054761Y-64810714D01*
X110102380Y-64667857D01*
X110102380Y-64572619D01*
X110054761Y-64429761D01*
X109959523Y-64334523D01*
X109864285Y-64286904D01*
X109673809Y-64239285D01*
X109530952Y-64239285D01*
X109340476Y-64286904D01*
X109245238Y-64334523D01*
X109150000Y-64429761D01*
X109102380Y-64572619D01*
X109102380Y-64667857D01*
X109150000Y-64810714D01*
X109197619Y-64858333D01*
X109435714Y-65715476D02*
X110102380Y-65715476D01*
X109054761Y-65477380D02*
X109769047Y-65239285D01*
X109769047Y-65858333D01*
X61191666Y-82007142D02*
X61239285Y-82054761D01*
X61382142Y-82102380D01*
X61477380Y-82102380D01*
X61620238Y-82054761D01*
X61715476Y-81959523D01*
X61763095Y-81864285D01*
X61810714Y-81673809D01*
X61810714Y-81530952D01*
X61763095Y-81340476D01*
X61715476Y-81245238D01*
X61620238Y-81150000D01*
X61477380Y-81102380D01*
X61382142Y-81102380D01*
X61239285Y-81150000D01*
X61191666Y-81197619D01*
X60286904Y-81102380D02*
X60763095Y-81102380D01*
X60810714Y-81578571D01*
X60763095Y-81530952D01*
X60667857Y-81483333D01*
X60429761Y-81483333D01*
X60334523Y-81530952D01*
X60286904Y-81578571D01*
X60239285Y-81673809D01*
X60239285Y-81911904D01*
X60286904Y-82007142D01*
X60334523Y-82054761D01*
X60429761Y-82102380D01*
X60667857Y-82102380D01*
X60763095Y-82054761D01*
X60810714Y-82007142D01*
X102802380Y-64236904D02*
X101802380Y-64236904D01*
X101802380Y-64475000D01*
X101850000Y-64617857D01*
X101945238Y-64713095D01*
X102040476Y-64760714D01*
X102230952Y-64808333D01*
X102373809Y-64808333D01*
X102564285Y-64760714D01*
X102659523Y-64713095D01*
X102754761Y-64617857D01*
X102802380Y-64475000D01*
X102802380Y-64236904D01*
X102802380Y-65760714D02*
X102802380Y-65189285D01*
X102802380Y-65475000D02*
X101802380Y-65475000D01*
X101945238Y-65379761D01*
X102040476Y-65284523D01*
X102088095Y-65189285D01*
X78809523Y-98682380D02*
X78809523Y-99396666D01*
X78857142Y-99539523D01*
X78952380Y-99634761D01*
X79095238Y-99682380D01*
X79190476Y-99682380D01*
X78380952Y-98777619D02*
X78333333Y-98730000D01*
X78238095Y-98682380D01*
X78000000Y-98682380D01*
X77904761Y-98730000D01*
X77857142Y-98777619D01*
X77809523Y-98872857D01*
X77809523Y-98968095D01*
X77857142Y-99110952D01*
X78428571Y-99682380D01*
X77809523Y-99682380D01*
X76904761Y-98682380D02*
X77380952Y-98682380D01*
X77428571Y-99158571D01*
X77380952Y-99110952D01*
X77285714Y-99063333D01*
X77047619Y-99063333D01*
X76952380Y-99110952D01*
X76904761Y-99158571D01*
X76857142Y-99253809D01*
X76857142Y-99491904D01*
X76904761Y-99587142D01*
X76952380Y-99634761D01*
X77047619Y-99682380D01*
X77285714Y-99682380D01*
X77380952Y-99634761D01*
X77428571Y-99587142D01*
X78809523Y-91682380D02*
X78809523Y-92396666D01*
X78857142Y-92539523D01*
X78952380Y-92634761D01*
X79095238Y-92682380D01*
X79190476Y-92682380D01*
X78380952Y-91777619D02*
X78333333Y-91730000D01*
X78238095Y-91682380D01*
X78000000Y-91682380D01*
X77904761Y-91730000D01*
X77857142Y-91777619D01*
X77809523Y-91872857D01*
X77809523Y-91968095D01*
X77857142Y-92110952D01*
X78428571Y-92682380D01*
X77809523Y-92682380D01*
X76952380Y-91682380D02*
X77142857Y-91682380D01*
X77238095Y-91730000D01*
X77285714Y-91777619D01*
X77380952Y-91920476D01*
X77428571Y-92110952D01*
X77428571Y-92491904D01*
X77380952Y-92587142D01*
X77333333Y-92634761D01*
X77238095Y-92682380D01*
X77047619Y-92682380D01*
X76952380Y-92634761D01*
X76904761Y-92587142D01*
X76857142Y-92491904D01*
X76857142Y-92253809D01*
X76904761Y-92158571D01*
X76952380Y-92110952D01*
X77047619Y-92063333D01*
X77238095Y-92063333D01*
X77333333Y-92110952D01*
X77380952Y-92158571D01*
X77428571Y-92253809D01*
M02*
