%TF.GenerationSoftware,KiCad,Pcbnew,(5.1.4)-1*%
%TF.CreationDate,2019-08-28T19:55:50+03:00*%
%TF.ProjectId,Timsah_Main_Board,54696d73-6168-45f4-9d61-696e5f426f61,rev?*%
%TF.SameCoordinates,Original*%
%TF.FileFunction,Soldermask,Top*%
%TF.FilePolarity,Negative*%
%FSLAX46Y46*%
G04 Gerber Fmt 4.6, Leading zero omitted, Abs format (unit mm)*
G04 Created by KiCad (PCBNEW (5.1.4)-1) date 2019-08-28 19:55:50*
%MOMM*%
%LPD*%
G04 APERTURE LIST*
%ADD10C,0.100000*%
G04 APERTURE END LIST*
D10*
G36*
X104386823Y-135831313D02*
G01*
X104547242Y-135879976D01*
X104654373Y-135937239D01*
X104695078Y-135958996D01*
X104824659Y-136065341D01*
X104931004Y-136194922D01*
X104931005Y-136194924D01*
X105010024Y-136342758D01*
X105058687Y-136503177D01*
X105075117Y-136670000D01*
X105058687Y-136836823D01*
X105010024Y-136997242D01*
X104939114Y-137129906D01*
X104931004Y-137145078D01*
X104824659Y-137274659D01*
X104695078Y-137381004D01*
X104695076Y-137381005D01*
X104547242Y-137460024D01*
X104386823Y-137508687D01*
X104261804Y-137521000D01*
X104178196Y-137521000D01*
X104053177Y-137508687D01*
X103892758Y-137460024D01*
X103744924Y-137381005D01*
X103744922Y-137381004D01*
X103615341Y-137274659D01*
X103508996Y-137145078D01*
X103500886Y-137129906D01*
X103429976Y-136997242D01*
X103381313Y-136836823D01*
X103364883Y-136670000D01*
X103381313Y-136503177D01*
X103429976Y-136342758D01*
X103508995Y-136194924D01*
X103508996Y-136194922D01*
X103615341Y-136065341D01*
X103744922Y-135958996D01*
X103785627Y-135937239D01*
X103892758Y-135879976D01*
X104053177Y-135831313D01*
X104178196Y-135819000D01*
X104261804Y-135819000D01*
X104386823Y-135831313D01*
X104386823Y-135831313D01*
G37*
G36*
X96766823Y-135831313D02*
G01*
X96927242Y-135879976D01*
X97034373Y-135937239D01*
X97075078Y-135958996D01*
X97204659Y-136065341D01*
X97311004Y-136194922D01*
X97311005Y-136194924D01*
X97390024Y-136342758D01*
X97438687Y-136503177D01*
X97455117Y-136670000D01*
X97438687Y-136836823D01*
X97390024Y-136997242D01*
X97319114Y-137129906D01*
X97311004Y-137145078D01*
X97204659Y-137274659D01*
X97075078Y-137381004D01*
X97075076Y-137381005D01*
X96927242Y-137460024D01*
X96766823Y-137508687D01*
X96641804Y-137521000D01*
X96558196Y-137521000D01*
X96433177Y-137508687D01*
X96272758Y-137460024D01*
X96124924Y-137381005D01*
X96124922Y-137381004D01*
X95995341Y-137274659D01*
X95888996Y-137145078D01*
X95880886Y-137129906D01*
X95809976Y-136997242D01*
X95761313Y-136836823D01*
X95744883Y-136670000D01*
X95761313Y-136503177D01*
X95809976Y-136342758D01*
X95888995Y-136194924D01*
X95888996Y-136194922D01*
X95995341Y-136065341D01*
X96124922Y-135958996D01*
X96165627Y-135937239D01*
X96272758Y-135879976D01*
X96433177Y-135831313D01*
X96558196Y-135819000D01*
X96641804Y-135819000D01*
X96766823Y-135831313D01*
X96766823Y-135831313D01*
G37*
G36*
X128756823Y-135021313D02*
G01*
X128917242Y-135069976D01*
X129038747Y-135134922D01*
X129065078Y-135148996D01*
X129194659Y-135255341D01*
X129301004Y-135384922D01*
X129301005Y-135384924D01*
X129380024Y-135532758D01*
X129428687Y-135693177D01*
X129445117Y-135860000D01*
X129428687Y-136026823D01*
X129380024Y-136187242D01*
X129365369Y-136214659D01*
X129301004Y-136335078D01*
X129194659Y-136464659D01*
X129065078Y-136571004D01*
X129065076Y-136571005D01*
X128917242Y-136650024D01*
X128756823Y-136698687D01*
X128631804Y-136711000D01*
X128548196Y-136711000D01*
X128423177Y-136698687D01*
X128262758Y-136650024D01*
X128114924Y-136571005D01*
X128114922Y-136571004D01*
X127985341Y-136464659D01*
X127878996Y-136335078D01*
X127814631Y-136214659D01*
X127799976Y-136187242D01*
X127751313Y-136026823D01*
X127734883Y-135860000D01*
X127751313Y-135693177D01*
X127799976Y-135532758D01*
X127878995Y-135384924D01*
X127878996Y-135384922D01*
X127985341Y-135255341D01*
X128114922Y-135148996D01*
X128141253Y-135134922D01*
X128262758Y-135069976D01*
X128423177Y-135021313D01*
X128548196Y-135009000D01*
X128631804Y-135009000D01*
X128756823Y-135021313D01*
X128756823Y-135021313D01*
G37*
G36*
X113516823Y-135021313D02*
G01*
X113677242Y-135069976D01*
X113798747Y-135134922D01*
X113825078Y-135148996D01*
X113954659Y-135255341D01*
X114061004Y-135384922D01*
X114061005Y-135384924D01*
X114140024Y-135532758D01*
X114188687Y-135693177D01*
X114205117Y-135860000D01*
X114188687Y-136026823D01*
X114140024Y-136187242D01*
X114125369Y-136214659D01*
X114061004Y-136335078D01*
X113954659Y-136464659D01*
X113825078Y-136571004D01*
X113825076Y-136571005D01*
X113677242Y-136650024D01*
X113516823Y-136698687D01*
X113391804Y-136711000D01*
X113308196Y-136711000D01*
X113183177Y-136698687D01*
X113022758Y-136650024D01*
X112874924Y-136571005D01*
X112874922Y-136571004D01*
X112745341Y-136464659D01*
X112638996Y-136335078D01*
X112574631Y-136214659D01*
X112559976Y-136187242D01*
X112511313Y-136026823D01*
X112494883Y-135860000D01*
X112511313Y-135693177D01*
X112559976Y-135532758D01*
X112638995Y-135384924D01*
X112638996Y-135384922D01*
X112745341Y-135255341D01*
X112874922Y-135148996D01*
X112901253Y-135134922D01*
X113022758Y-135069976D01*
X113183177Y-135021313D01*
X113308196Y-135009000D01*
X113391804Y-135009000D01*
X113516823Y-135021313D01*
X113516823Y-135021313D01*
G37*
G36*
X87506823Y-134771313D02*
G01*
X87667242Y-134819976D01*
X87706584Y-134841005D01*
X87815078Y-134898996D01*
X87944659Y-135005341D01*
X88051004Y-135134922D01*
X88051005Y-135134924D01*
X88130024Y-135282758D01*
X88178687Y-135443177D01*
X88195117Y-135610000D01*
X88178687Y-135776823D01*
X88130024Y-135937242D01*
X88118396Y-135958996D01*
X88051004Y-136085078D01*
X87944659Y-136214659D01*
X87815078Y-136321004D01*
X87815076Y-136321005D01*
X87667242Y-136400024D01*
X87506823Y-136448687D01*
X87381804Y-136461000D01*
X87298196Y-136461000D01*
X87173177Y-136448687D01*
X87012758Y-136400024D01*
X86864924Y-136321005D01*
X86864922Y-136321004D01*
X86735341Y-136214659D01*
X86628996Y-136085078D01*
X86561604Y-135958996D01*
X86549976Y-135937242D01*
X86501313Y-135776823D01*
X86484883Y-135610000D01*
X86501313Y-135443177D01*
X86549976Y-135282758D01*
X86628995Y-135134924D01*
X86628996Y-135134922D01*
X86735341Y-135005341D01*
X86864922Y-134898996D01*
X86973416Y-134841005D01*
X87012758Y-134819976D01*
X87173177Y-134771313D01*
X87298196Y-134759000D01*
X87381804Y-134759000D01*
X87506823Y-134771313D01*
X87506823Y-134771313D01*
G37*
G36*
X72266823Y-134771313D02*
G01*
X72427242Y-134819976D01*
X72466584Y-134841005D01*
X72575078Y-134898996D01*
X72704659Y-135005341D01*
X72811004Y-135134922D01*
X72811005Y-135134924D01*
X72890024Y-135282758D01*
X72938687Y-135443177D01*
X72955117Y-135610000D01*
X72938687Y-135776823D01*
X72890024Y-135937242D01*
X72878396Y-135958996D01*
X72811004Y-136085078D01*
X72704659Y-136214659D01*
X72575078Y-136321004D01*
X72575076Y-136321005D01*
X72427242Y-136400024D01*
X72266823Y-136448687D01*
X72141804Y-136461000D01*
X72058196Y-136461000D01*
X71933177Y-136448687D01*
X71772758Y-136400024D01*
X71624924Y-136321005D01*
X71624922Y-136321004D01*
X71495341Y-136214659D01*
X71388996Y-136085078D01*
X71321604Y-135958996D01*
X71309976Y-135937242D01*
X71261313Y-135776823D01*
X71244883Y-135610000D01*
X71261313Y-135443177D01*
X71309976Y-135282758D01*
X71388995Y-135134924D01*
X71388996Y-135134922D01*
X71495341Y-135005341D01*
X71624922Y-134898996D01*
X71733416Y-134841005D01*
X71772758Y-134819976D01*
X71933177Y-134771313D01*
X72058196Y-134759000D01*
X72141804Y-134759000D01*
X72266823Y-134771313D01*
X72266823Y-134771313D01*
G37*
G36*
X104386823Y-133291313D02*
G01*
X104547242Y-133339976D01*
X104654373Y-133397239D01*
X104695078Y-133418996D01*
X104824659Y-133525341D01*
X104931004Y-133654922D01*
X104931005Y-133654924D01*
X105010024Y-133802758D01*
X105058687Y-133963177D01*
X105075117Y-134130000D01*
X105058687Y-134296823D01*
X105010024Y-134457242D01*
X104939114Y-134589906D01*
X104931004Y-134605078D01*
X104824659Y-134734659D01*
X104695078Y-134841004D01*
X104695076Y-134841005D01*
X104547242Y-134920024D01*
X104386823Y-134968687D01*
X104261804Y-134981000D01*
X104178196Y-134981000D01*
X104053177Y-134968687D01*
X103892758Y-134920024D01*
X103744924Y-134841005D01*
X103744922Y-134841004D01*
X103615341Y-134734659D01*
X103508996Y-134605078D01*
X103500886Y-134589906D01*
X103429976Y-134457242D01*
X103381313Y-134296823D01*
X103364883Y-134130000D01*
X103381313Y-133963177D01*
X103429976Y-133802758D01*
X103508995Y-133654924D01*
X103508996Y-133654922D01*
X103615341Y-133525341D01*
X103744922Y-133418996D01*
X103785627Y-133397239D01*
X103892758Y-133339976D01*
X104053177Y-133291313D01*
X104178196Y-133279000D01*
X104261804Y-133279000D01*
X104386823Y-133291313D01*
X104386823Y-133291313D01*
G37*
G36*
X96766823Y-133291313D02*
G01*
X96927242Y-133339976D01*
X97034373Y-133397239D01*
X97075078Y-133418996D01*
X97204659Y-133525341D01*
X97311004Y-133654922D01*
X97311005Y-133654924D01*
X97390024Y-133802758D01*
X97438687Y-133963177D01*
X97455117Y-134130000D01*
X97438687Y-134296823D01*
X97390024Y-134457242D01*
X97319114Y-134589906D01*
X97311004Y-134605078D01*
X97204659Y-134734659D01*
X97075078Y-134841004D01*
X97075076Y-134841005D01*
X96927242Y-134920024D01*
X96766823Y-134968687D01*
X96641804Y-134981000D01*
X96558196Y-134981000D01*
X96433177Y-134968687D01*
X96272758Y-134920024D01*
X96124924Y-134841005D01*
X96124922Y-134841004D01*
X95995341Y-134734659D01*
X95888996Y-134605078D01*
X95880886Y-134589906D01*
X95809976Y-134457242D01*
X95761313Y-134296823D01*
X95744883Y-134130000D01*
X95761313Y-133963177D01*
X95809976Y-133802758D01*
X95888995Y-133654924D01*
X95888996Y-133654922D01*
X95995341Y-133525341D01*
X96124922Y-133418996D01*
X96165627Y-133397239D01*
X96272758Y-133339976D01*
X96433177Y-133291313D01*
X96558196Y-133279000D01*
X96641804Y-133279000D01*
X96766823Y-133291313D01*
X96766823Y-133291313D01*
G37*
G36*
X113516823Y-132481313D02*
G01*
X113677242Y-132529976D01*
X113743113Y-132565185D01*
X113825078Y-132608996D01*
X113954659Y-132715341D01*
X114061004Y-132844922D01*
X114061005Y-132844924D01*
X114140024Y-132992758D01*
X114188687Y-133153177D01*
X114205117Y-133320000D01*
X114188687Y-133486823D01*
X114140024Y-133647242D01*
X114125369Y-133674659D01*
X114061004Y-133795078D01*
X113954659Y-133924659D01*
X113825078Y-134031004D01*
X113825076Y-134031005D01*
X113677242Y-134110024D01*
X113516823Y-134158687D01*
X113391804Y-134171000D01*
X113308196Y-134171000D01*
X113183177Y-134158687D01*
X113022758Y-134110024D01*
X112874924Y-134031005D01*
X112874922Y-134031004D01*
X112745341Y-133924659D01*
X112638996Y-133795078D01*
X112574631Y-133674659D01*
X112559976Y-133647242D01*
X112511313Y-133486823D01*
X112494883Y-133320000D01*
X112511313Y-133153177D01*
X112559976Y-132992758D01*
X112638995Y-132844924D01*
X112638996Y-132844922D01*
X112745341Y-132715341D01*
X112874922Y-132608996D01*
X112956887Y-132565185D01*
X113022758Y-132529976D01*
X113183177Y-132481313D01*
X113308196Y-132469000D01*
X113391804Y-132469000D01*
X113516823Y-132481313D01*
X113516823Y-132481313D01*
G37*
G36*
X128756823Y-132481313D02*
G01*
X128917242Y-132529976D01*
X128983113Y-132565185D01*
X129065078Y-132608996D01*
X129194659Y-132715341D01*
X129301004Y-132844922D01*
X129301005Y-132844924D01*
X129380024Y-132992758D01*
X129428687Y-133153177D01*
X129445117Y-133320000D01*
X129428687Y-133486823D01*
X129380024Y-133647242D01*
X129365369Y-133674659D01*
X129301004Y-133795078D01*
X129194659Y-133924659D01*
X129065078Y-134031004D01*
X129065076Y-134031005D01*
X128917242Y-134110024D01*
X128756823Y-134158687D01*
X128631804Y-134171000D01*
X128548196Y-134171000D01*
X128423177Y-134158687D01*
X128262758Y-134110024D01*
X128114924Y-134031005D01*
X128114922Y-134031004D01*
X127985341Y-133924659D01*
X127878996Y-133795078D01*
X127814631Y-133674659D01*
X127799976Y-133647242D01*
X127751313Y-133486823D01*
X127734883Y-133320000D01*
X127751313Y-133153177D01*
X127799976Y-132992758D01*
X127878995Y-132844924D01*
X127878996Y-132844922D01*
X127985341Y-132715341D01*
X128114922Y-132608996D01*
X128196887Y-132565185D01*
X128262758Y-132529976D01*
X128423177Y-132481313D01*
X128548196Y-132469000D01*
X128631804Y-132469000D01*
X128756823Y-132481313D01*
X128756823Y-132481313D01*
G37*
G36*
X87506823Y-132231313D02*
G01*
X87667242Y-132279976D01*
X87706584Y-132301005D01*
X87815078Y-132358996D01*
X87944659Y-132465341D01*
X88051004Y-132594922D01*
X88051005Y-132594924D01*
X88130024Y-132742758D01*
X88178687Y-132903177D01*
X88195117Y-133070000D01*
X88178687Y-133236823D01*
X88130024Y-133397242D01*
X88118396Y-133418996D01*
X88051004Y-133545078D01*
X87944659Y-133674659D01*
X87815078Y-133781004D01*
X87815076Y-133781005D01*
X87667242Y-133860024D01*
X87506823Y-133908687D01*
X87381804Y-133921000D01*
X87298196Y-133921000D01*
X87173177Y-133908687D01*
X87012758Y-133860024D01*
X86864924Y-133781005D01*
X86864922Y-133781004D01*
X86735341Y-133674659D01*
X86628996Y-133545078D01*
X86561604Y-133418996D01*
X86549976Y-133397242D01*
X86501313Y-133236823D01*
X86484883Y-133070000D01*
X86501313Y-132903177D01*
X86549976Y-132742758D01*
X86628995Y-132594924D01*
X86628996Y-132594922D01*
X86735341Y-132465341D01*
X86864922Y-132358996D01*
X86973416Y-132301005D01*
X87012758Y-132279976D01*
X87173177Y-132231313D01*
X87298196Y-132219000D01*
X87381804Y-132219000D01*
X87506823Y-132231313D01*
X87506823Y-132231313D01*
G37*
G36*
X72266823Y-132231313D02*
G01*
X72427242Y-132279976D01*
X72466584Y-132301005D01*
X72575078Y-132358996D01*
X72704659Y-132465341D01*
X72811004Y-132594922D01*
X72811005Y-132594924D01*
X72890024Y-132742758D01*
X72938687Y-132903177D01*
X72955117Y-133070000D01*
X72938687Y-133236823D01*
X72890024Y-133397242D01*
X72878396Y-133418996D01*
X72811004Y-133545078D01*
X72704659Y-133674659D01*
X72575078Y-133781004D01*
X72575076Y-133781005D01*
X72427242Y-133860024D01*
X72266823Y-133908687D01*
X72141804Y-133921000D01*
X72058196Y-133921000D01*
X71933177Y-133908687D01*
X71772758Y-133860024D01*
X71624924Y-133781005D01*
X71624922Y-133781004D01*
X71495341Y-133674659D01*
X71388996Y-133545078D01*
X71321604Y-133418996D01*
X71309976Y-133397242D01*
X71261313Y-133236823D01*
X71244883Y-133070000D01*
X71261313Y-132903177D01*
X71309976Y-132742758D01*
X71388995Y-132594924D01*
X71388996Y-132594922D01*
X71495341Y-132465341D01*
X71624922Y-132358996D01*
X71733416Y-132301005D01*
X71772758Y-132279976D01*
X71933177Y-132231313D01*
X72058196Y-132219000D01*
X72141804Y-132219000D01*
X72266823Y-132231313D01*
X72266823Y-132231313D01*
G37*
G36*
X121360443Y-131030519D02*
G01*
X121426627Y-131037037D01*
X121596466Y-131088557D01*
X121752991Y-131172222D01*
X121788729Y-131201552D01*
X121890186Y-131284814D01*
X121969123Y-131381000D01*
X122002778Y-131422009D01*
X122086443Y-131578534D01*
X122137963Y-131748373D01*
X122155359Y-131925000D01*
X122137963Y-132101627D01*
X122109742Y-132194659D01*
X122086442Y-132271468D01*
X122070654Y-132301005D01*
X122002778Y-132427991D01*
X121973448Y-132463729D01*
X121890186Y-132565186D01*
X121788729Y-132648448D01*
X121752991Y-132677778D01*
X121596466Y-132761443D01*
X121426627Y-132812963D01*
X121360442Y-132819482D01*
X121294260Y-132826000D01*
X121205740Y-132826000D01*
X121139558Y-132819482D01*
X121073373Y-132812963D01*
X120903534Y-132761443D01*
X120747009Y-132677778D01*
X120711271Y-132648448D01*
X120609814Y-132565186D01*
X120526552Y-132463729D01*
X120497222Y-132427991D01*
X120429346Y-132301005D01*
X120413558Y-132271468D01*
X120390258Y-132194659D01*
X120362037Y-132101627D01*
X120344641Y-131925000D01*
X120362037Y-131748373D01*
X120413557Y-131578534D01*
X120497222Y-131422009D01*
X120530877Y-131381000D01*
X120609814Y-131284814D01*
X120711271Y-131201552D01*
X120747009Y-131172222D01*
X120903534Y-131088557D01*
X121073373Y-131037037D01*
X121139557Y-131030519D01*
X121205740Y-131024000D01*
X121294260Y-131024000D01*
X121360443Y-131030519D01*
X121360443Y-131030519D01*
G37*
G36*
X104386823Y-130751313D02*
G01*
X104547242Y-130799976D01*
X104654373Y-130857239D01*
X104695078Y-130878996D01*
X104824659Y-130985341D01*
X104931004Y-131114922D01*
X104931005Y-131114924D01*
X105010024Y-131262758D01*
X105058687Y-131423177D01*
X105075117Y-131590000D01*
X105058687Y-131756823D01*
X105010024Y-131917242D01*
X105005877Y-131925000D01*
X104931004Y-132065078D01*
X104824659Y-132194659D01*
X104695078Y-132301004D01*
X104695076Y-132301005D01*
X104547242Y-132380024D01*
X104386823Y-132428687D01*
X104261804Y-132441000D01*
X104178196Y-132441000D01*
X104053177Y-132428687D01*
X103892758Y-132380024D01*
X103744924Y-132301005D01*
X103744922Y-132301004D01*
X103615341Y-132194659D01*
X103508996Y-132065078D01*
X103434123Y-131925000D01*
X103429976Y-131917242D01*
X103381313Y-131756823D01*
X103364883Y-131590000D01*
X103381313Y-131423177D01*
X103429976Y-131262758D01*
X103508995Y-131114924D01*
X103508996Y-131114922D01*
X103615341Y-130985341D01*
X103744922Y-130878996D01*
X103785627Y-130857239D01*
X103892758Y-130799976D01*
X104053177Y-130751313D01*
X104178196Y-130739000D01*
X104261804Y-130739000D01*
X104386823Y-130751313D01*
X104386823Y-130751313D01*
G37*
G36*
X96766823Y-130751313D02*
G01*
X96927242Y-130799976D01*
X97034373Y-130857239D01*
X97075078Y-130878996D01*
X97204659Y-130985341D01*
X97311004Y-131114922D01*
X97311005Y-131114924D01*
X97390024Y-131262758D01*
X97438687Y-131423177D01*
X97455117Y-131590000D01*
X97438687Y-131756823D01*
X97390024Y-131917242D01*
X97385877Y-131925000D01*
X97311004Y-132065078D01*
X97204659Y-132194659D01*
X97075078Y-132301004D01*
X97075076Y-132301005D01*
X96927242Y-132380024D01*
X96766823Y-132428687D01*
X96641804Y-132441000D01*
X96558196Y-132441000D01*
X96433177Y-132428687D01*
X96272758Y-132380024D01*
X96124924Y-132301005D01*
X96124922Y-132301004D01*
X95995341Y-132194659D01*
X95888996Y-132065078D01*
X95814123Y-131925000D01*
X95809976Y-131917242D01*
X95761313Y-131756823D01*
X95744883Y-131590000D01*
X95761313Y-131423177D01*
X95809976Y-131262758D01*
X95888995Y-131114924D01*
X95888996Y-131114922D01*
X95995341Y-130985341D01*
X96124922Y-130878996D01*
X96165627Y-130857239D01*
X96272758Y-130799976D01*
X96433177Y-130751313D01*
X96558196Y-130739000D01*
X96641804Y-130739000D01*
X96766823Y-130751313D01*
X96766823Y-130751313D01*
G37*
G36*
X113516823Y-129941313D02*
G01*
X113677242Y-129989976D01*
X113743113Y-130025185D01*
X113825078Y-130068996D01*
X113954659Y-130175341D01*
X114061004Y-130304922D01*
X114061005Y-130304924D01*
X114140024Y-130452758D01*
X114188687Y-130613177D01*
X114205117Y-130780000D01*
X114188687Y-130946823D01*
X114140024Y-131107242D01*
X114125369Y-131134659D01*
X114061004Y-131255078D01*
X113954659Y-131384659D01*
X113825078Y-131491004D01*
X113825076Y-131491005D01*
X113677242Y-131570024D01*
X113516823Y-131618687D01*
X113391804Y-131631000D01*
X113308196Y-131631000D01*
X113183177Y-131618687D01*
X113022758Y-131570024D01*
X112874924Y-131491005D01*
X112874922Y-131491004D01*
X112745341Y-131384659D01*
X112638996Y-131255078D01*
X112574631Y-131134659D01*
X112559976Y-131107242D01*
X112511313Y-130946823D01*
X112494883Y-130780000D01*
X112511313Y-130613177D01*
X112559976Y-130452758D01*
X112638995Y-130304924D01*
X112638996Y-130304922D01*
X112745341Y-130175341D01*
X112874922Y-130068996D01*
X112956887Y-130025185D01*
X113022758Y-129989976D01*
X113183177Y-129941313D01*
X113308196Y-129929000D01*
X113391804Y-129929000D01*
X113516823Y-129941313D01*
X113516823Y-129941313D01*
G37*
G36*
X128756823Y-129941313D02*
G01*
X128917242Y-129989976D01*
X128983113Y-130025185D01*
X129065078Y-130068996D01*
X129194659Y-130175341D01*
X129301004Y-130304922D01*
X129301005Y-130304924D01*
X129380024Y-130452758D01*
X129428687Y-130613177D01*
X129445117Y-130780000D01*
X129428687Y-130946823D01*
X129380024Y-131107242D01*
X129365369Y-131134659D01*
X129301004Y-131255078D01*
X129194659Y-131384659D01*
X129065078Y-131491004D01*
X129065076Y-131491005D01*
X128917242Y-131570024D01*
X128756823Y-131618687D01*
X128631804Y-131631000D01*
X128548196Y-131631000D01*
X128423177Y-131618687D01*
X128262758Y-131570024D01*
X128114924Y-131491005D01*
X128114922Y-131491004D01*
X127985341Y-131384659D01*
X127878996Y-131255078D01*
X127814631Y-131134659D01*
X127799976Y-131107242D01*
X127751313Y-130946823D01*
X127734883Y-130780000D01*
X127751313Y-130613177D01*
X127799976Y-130452758D01*
X127878995Y-130304924D01*
X127878996Y-130304922D01*
X127985341Y-130175341D01*
X128114922Y-130068996D01*
X128196887Y-130025185D01*
X128262758Y-129989976D01*
X128423177Y-129941313D01*
X128548196Y-129929000D01*
X128631804Y-129929000D01*
X128756823Y-129941313D01*
X128756823Y-129941313D01*
G37*
G36*
X72266823Y-129691313D02*
G01*
X72427242Y-129739976D01*
X72466584Y-129761005D01*
X72575078Y-129818996D01*
X72704659Y-129925341D01*
X72811004Y-130054922D01*
X72811005Y-130054924D01*
X72890024Y-130202758D01*
X72938687Y-130363177D01*
X72955117Y-130530000D01*
X72938687Y-130696823D01*
X72890024Y-130857242D01*
X72878396Y-130878996D01*
X72811004Y-131005078D01*
X72704659Y-131134659D01*
X72575078Y-131241004D01*
X72575076Y-131241005D01*
X72427242Y-131320024D01*
X72266823Y-131368687D01*
X72141804Y-131381000D01*
X72058196Y-131381000D01*
X71933177Y-131368687D01*
X71772758Y-131320024D01*
X71624924Y-131241005D01*
X71624922Y-131241004D01*
X71495341Y-131134659D01*
X71388996Y-131005078D01*
X71321604Y-130878996D01*
X71309976Y-130857242D01*
X71261313Y-130696823D01*
X71244883Y-130530000D01*
X71261313Y-130363177D01*
X71309976Y-130202758D01*
X71388995Y-130054924D01*
X71388996Y-130054922D01*
X71495341Y-129925341D01*
X71624922Y-129818996D01*
X71733416Y-129761005D01*
X71772758Y-129739976D01*
X71933177Y-129691313D01*
X72058196Y-129679000D01*
X72141804Y-129679000D01*
X72266823Y-129691313D01*
X72266823Y-129691313D01*
G37*
G36*
X87506823Y-129691313D02*
G01*
X87667242Y-129739976D01*
X87706584Y-129761005D01*
X87815078Y-129818996D01*
X87944659Y-129925341D01*
X88051004Y-130054922D01*
X88051005Y-130054924D01*
X88130024Y-130202758D01*
X88178687Y-130363177D01*
X88195117Y-130530000D01*
X88178687Y-130696823D01*
X88130024Y-130857242D01*
X88118396Y-130878996D01*
X88051004Y-131005078D01*
X87944659Y-131134659D01*
X87815078Y-131241004D01*
X87815076Y-131241005D01*
X87667242Y-131320024D01*
X87506823Y-131368687D01*
X87381804Y-131381000D01*
X87298196Y-131381000D01*
X87173177Y-131368687D01*
X87012758Y-131320024D01*
X86864924Y-131241005D01*
X86864922Y-131241004D01*
X86735341Y-131134659D01*
X86628996Y-131005078D01*
X86561604Y-130878996D01*
X86549976Y-130857242D01*
X86501313Y-130696823D01*
X86484883Y-130530000D01*
X86501313Y-130363177D01*
X86549976Y-130202758D01*
X86628995Y-130054924D01*
X86628996Y-130054922D01*
X86735341Y-129925341D01*
X86864922Y-129818996D01*
X86973416Y-129761005D01*
X87012758Y-129739976D01*
X87173177Y-129691313D01*
X87298196Y-129679000D01*
X87381804Y-129679000D01*
X87506823Y-129691313D01*
X87506823Y-129691313D01*
G37*
G36*
X121360443Y-128490519D02*
G01*
X121426627Y-128497037D01*
X121596466Y-128548557D01*
X121752991Y-128632222D01*
X121788729Y-128661552D01*
X121890186Y-128744814D01*
X121969123Y-128841000D01*
X122002778Y-128882009D01*
X122086443Y-129038534D01*
X122137963Y-129208373D01*
X122155359Y-129385000D01*
X122137963Y-129561627D01*
X122109742Y-129654659D01*
X122086442Y-129731468D01*
X122070654Y-129761005D01*
X122002778Y-129887991D01*
X121973448Y-129923729D01*
X121890186Y-130025186D01*
X121788729Y-130108448D01*
X121752991Y-130137778D01*
X121596466Y-130221443D01*
X121426627Y-130272963D01*
X121360442Y-130279482D01*
X121294260Y-130286000D01*
X121205740Y-130286000D01*
X121139558Y-130279482D01*
X121073373Y-130272963D01*
X120903534Y-130221443D01*
X120747009Y-130137778D01*
X120711271Y-130108448D01*
X120609814Y-130025186D01*
X120526552Y-129923729D01*
X120497222Y-129887991D01*
X120429346Y-129761005D01*
X120413558Y-129731468D01*
X120390258Y-129654659D01*
X120362037Y-129561627D01*
X120344641Y-129385000D01*
X120362037Y-129208373D01*
X120413557Y-129038534D01*
X120497222Y-128882009D01*
X120530877Y-128841000D01*
X120609814Y-128744814D01*
X120711271Y-128661552D01*
X120747009Y-128632222D01*
X120903534Y-128548557D01*
X121073373Y-128497037D01*
X121139557Y-128490519D01*
X121205740Y-128484000D01*
X121294260Y-128484000D01*
X121360443Y-128490519D01*
X121360443Y-128490519D01*
G37*
G36*
X97451000Y-129901000D02*
G01*
X95749000Y-129901000D01*
X95749000Y-128199000D01*
X97451000Y-128199000D01*
X97451000Y-129901000D01*
X97451000Y-129901000D01*
G37*
G36*
X104386823Y-128211313D02*
G01*
X104547242Y-128259976D01*
X104654373Y-128317239D01*
X104695078Y-128338996D01*
X104824659Y-128445341D01*
X104931004Y-128574922D01*
X104931005Y-128574924D01*
X105010024Y-128722758D01*
X105058687Y-128883177D01*
X105075117Y-129050000D01*
X105058687Y-129216823D01*
X105010024Y-129377242D01*
X105005877Y-129385000D01*
X104931004Y-129525078D01*
X104824659Y-129654659D01*
X104695078Y-129761004D01*
X104695076Y-129761005D01*
X104547242Y-129840024D01*
X104386823Y-129888687D01*
X104261804Y-129901000D01*
X104178196Y-129901000D01*
X104053177Y-129888687D01*
X103892758Y-129840024D01*
X103744924Y-129761005D01*
X103744922Y-129761004D01*
X103615341Y-129654659D01*
X103508996Y-129525078D01*
X103434123Y-129385000D01*
X103429976Y-129377242D01*
X103381313Y-129216823D01*
X103364883Y-129050000D01*
X103381313Y-128883177D01*
X103429976Y-128722758D01*
X103508995Y-128574924D01*
X103508996Y-128574922D01*
X103615341Y-128445341D01*
X103744922Y-128338996D01*
X103785627Y-128317239D01*
X103892758Y-128259976D01*
X104053177Y-128211313D01*
X104178196Y-128199000D01*
X104261804Y-128199000D01*
X104386823Y-128211313D01*
X104386823Y-128211313D01*
G37*
G36*
X113516823Y-127401313D02*
G01*
X113677242Y-127449976D01*
X113743113Y-127485185D01*
X113825078Y-127528996D01*
X113954659Y-127635341D01*
X114061004Y-127764922D01*
X114061005Y-127764924D01*
X114140024Y-127912758D01*
X114188687Y-128073177D01*
X114205117Y-128240000D01*
X114188687Y-128406823D01*
X114140024Y-128567242D01*
X114125369Y-128594659D01*
X114061004Y-128715078D01*
X113954659Y-128844659D01*
X113825078Y-128951004D01*
X113825076Y-128951005D01*
X113677242Y-129030024D01*
X113516823Y-129078687D01*
X113391804Y-129091000D01*
X113308196Y-129091000D01*
X113183177Y-129078687D01*
X113022758Y-129030024D01*
X112874924Y-128951005D01*
X112874922Y-128951004D01*
X112745341Y-128844659D01*
X112638996Y-128715078D01*
X112574631Y-128594659D01*
X112559976Y-128567242D01*
X112511313Y-128406823D01*
X112494883Y-128240000D01*
X112511313Y-128073177D01*
X112559976Y-127912758D01*
X112638995Y-127764924D01*
X112638996Y-127764922D01*
X112745341Y-127635341D01*
X112874922Y-127528996D01*
X112956887Y-127485185D01*
X113022758Y-127449976D01*
X113183177Y-127401313D01*
X113308196Y-127389000D01*
X113391804Y-127389000D01*
X113516823Y-127401313D01*
X113516823Y-127401313D01*
G37*
G36*
X128756823Y-127401313D02*
G01*
X128917242Y-127449976D01*
X128983113Y-127485185D01*
X129065078Y-127528996D01*
X129194659Y-127635341D01*
X129301004Y-127764922D01*
X129301005Y-127764924D01*
X129380024Y-127912758D01*
X129428687Y-128073177D01*
X129445117Y-128240000D01*
X129428687Y-128406823D01*
X129380024Y-128567242D01*
X129365369Y-128594659D01*
X129301004Y-128715078D01*
X129194659Y-128844659D01*
X129065078Y-128951004D01*
X129065076Y-128951005D01*
X128917242Y-129030024D01*
X128756823Y-129078687D01*
X128631804Y-129091000D01*
X128548196Y-129091000D01*
X128423177Y-129078687D01*
X128262758Y-129030024D01*
X128114924Y-128951005D01*
X128114922Y-128951004D01*
X127985341Y-128844659D01*
X127878996Y-128715078D01*
X127814631Y-128594659D01*
X127799976Y-128567242D01*
X127751313Y-128406823D01*
X127734883Y-128240000D01*
X127751313Y-128073177D01*
X127799976Y-127912758D01*
X127878995Y-127764924D01*
X127878996Y-127764922D01*
X127985341Y-127635341D01*
X128114922Y-127528996D01*
X128196887Y-127485185D01*
X128262758Y-127449976D01*
X128423177Y-127401313D01*
X128548196Y-127389000D01*
X128631804Y-127389000D01*
X128756823Y-127401313D01*
X128756823Y-127401313D01*
G37*
G36*
X87506823Y-127151313D02*
G01*
X87667242Y-127199976D01*
X87799906Y-127270886D01*
X87815078Y-127278996D01*
X87944659Y-127385341D01*
X88051004Y-127514922D01*
X88051005Y-127514924D01*
X88130024Y-127662758D01*
X88178687Y-127823177D01*
X88195117Y-127990000D01*
X88178687Y-128156823D01*
X88130024Y-128317242D01*
X88118396Y-128338996D01*
X88051004Y-128465078D01*
X87944659Y-128594659D01*
X87815078Y-128701004D01*
X87815076Y-128701005D01*
X87667242Y-128780024D01*
X87506823Y-128828687D01*
X87381804Y-128841000D01*
X87298196Y-128841000D01*
X87173177Y-128828687D01*
X87012758Y-128780024D01*
X86864924Y-128701005D01*
X86864922Y-128701004D01*
X86735341Y-128594659D01*
X86628996Y-128465078D01*
X86561604Y-128338996D01*
X86549976Y-128317242D01*
X86501313Y-128156823D01*
X86484883Y-127990000D01*
X86501313Y-127823177D01*
X86549976Y-127662758D01*
X86628995Y-127514924D01*
X86628996Y-127514922D01*
X86735341Y-127385341D01*
X86864922Y-127278996D01*
X86880094Y-127270886D01*
X87012758Y-127199976D01*
X87173177Y-127151313D01*
X87298196Y-127139000D01*
X87381804Y-127139000D01*
X87506823Y-127151313D01*
X87506823Y-127151313D01*
G37*
G36*
X72266823Y-127151313D02*
G01*
X72427242Y-127199976D01*
X72559906Y-127270886D01*
X72575078Y-127278996D01*
X72704659Y-127385341D01*
X72811004Y-127514922D01*
X72811005Y-127514924D01*
X72890024Y-127662758D01*
X72938687Y-127823177D01*
X72955117Y-127990000D01*
X72938687Y-128156823D01*
X72890024Y-128317242D01*
X72878396Y-128338996D01*
X72811004Y-128465078D01*
X72704659Y-128594659D01*
X72575078Y-128701004D01*
X72575076Y-128701005D01*
X72427242Y-128780024D01*
X72266823Y-128828687D01*
X72141804Y-128841000D01*
X72058196Y-128841000D01*
X71933177Y-128828687D01*
X71772758Y-128780024D01*
X71624924Y-128701005D01*
X71624922Y-128701004D01*
X71495341Y-128594659D01*
X71388996Y-128465078D01*
X71321604Y-128338996D01*
X71309976Y-128317242D01*
X71261313Y-128156823D01*
X71244883Y-127990000D01*
X71261313Y-127823177D01*
X71309976Y-127662758D01*
X71388995Y-127514924D01*
X71388996Y-127514922D01*
X71495341Y-127385341D01*
X71624922Y-127278996D01*
X71640094Y-127270886D01*
X71772758Y-127199976D01*
X71933177Y-127151313D01*
X72058196Y-127139000D01*
X72141804Y-127139000D01*
X72266823Y-127151313D01*
X72266823Y-127151313D01*
G37*
G36*
X121360442Y-125950518D02*
G01*
X121426627Y-125957037D01*
X121596466Y-126008557D01*
X121752991Y-126092222D01*
X121788729Y-126121552D01*
X121890186Y-126204814D01*
X121969123Y-126301000D01*
X122002778Y-126342009D01*
X122086443Y-126498534D01*
X122137963Y-126668373D01*
X122155359Y-126845000D01*
X122137963Y-127021627D01*
X122086443Y-127191466D01*
X122002778Y-127347991D01*
X121973448Y-127383729D01*
X121890186Y-127485186D01*
X121788729Y-127568448D01*
X121752991Y-127597778D01*
X121596466Y-127681443D01*
X121426627Y-127732963D01*
X121360443Y-127739481D01*
X121294260Y-127746000D01*
X121205740Y-127746000D01*
X121139557Y-127739481D01*
X121073373Y-127732963D01*
X120903534Y-127681443D01*
X120747009Y-127597778D01*
X120711271Y-127568448D01*
X120609814Y-127485186D01*
X120526552Y-127383729D01*
X120497222Y-127347991D01*
X120413557Y-127191466D01*
X120362037Y-127021627D01*
X120344641Y-126845000D01*
X120362037Y-126668373D01*
X120413557Y-126498534D01*
X120497222Y-126342009D01*
X120530877Y-126301000D01*
X120609814Y-126204814D01*
X120711271Y-126121552D01*
X120747009Y-126092222D01*
X120903534Y-126008557D01*
X121073373Y-125957037D01*
X121139558Y-125950518D01*
X121205740Y-125944000D01*
X121294260Y-125944000D01*
X121360442Y-125950518D01*
X121360442Y-125950518D01*
G37*
G36*
X113516823Y-124861313D02*
G01*
X113677242Y-124909976D01*
X113798747Y-124974922D01*
X113825078Y-124988996D01*
X113954659Y-125095341D01*
X114061004Y-125224922D01*
X114061005Y-125224924D01*
X114140024Y-125372758D01*
X114188687Y-125533177D01*
X114205117Y-125700000D01*
X114188687Y-125866823D01*
X114140024Y-126027242D01*
X114125369Y-126054659D01*
X114061004Y-126175078D01*
X113954659Y-126304659D01*
X113825078Y-126411004D01*
X113825076Y-126411005D01*
X113677242Y-126490024D01*
X113516823Y-126538687D01*
X113391804Y-126551000D01*
X113308196Y-126551000D01*
X113183177Y-126538687D01*
X113022758Y-126490024D01*
X112874924Y-126411005D01*
X112874922Y-126411004D01*
X112745341Y-126304659D01*
X112638996Y-126175078D01*
X112574631Y-126054659D01*
X112559976Y-126027242D01*
X112511313Y-125866823D01*
X112494883Y-125700000D01*
X112511313Y-125533177D01*
X112559976Y-125372758D01*
X112638995Y-125224924D01*
X112638996Y-125224922D01*
X112745341Y-125095341D01*
X112874922Y-124988996D01*
X112901253Y-124974922D01*
X113022758Y-124909976D01*
X113183177Y-124861313D01*
X113308196Y-124849000D01*
X113391804Y-124849000D01*
X113516823Y-124861313D01*
X113516823Y-124861313D01*
G37*
G36*
X128756823Y-124861313D02*
G01*
X128917242Y-124909976D01*
X129038747Y-124974922D01*
X129065078Y-124988996D01*
X129194659Y-125095341D01*
X129301004Y-125224922D01*
X129301005Y-125224924D01*
X129380024Y-125372758D01*
X129428687Y-125533177D01*
X129445117Y-125700000D01*
X129428687Y-125866823D01*
X129380024Y-126027242D01*
X129365369Y-126054659D01*
X129301004Y-126175078D01*
X129194659Y-126304659D01*
X129065078Y-126411004D01*
X129065076Y-126411005D01*
X128917242Y-126490024D01*
X128756823Y-126538687D01*
X128631804Y-126551000D01*
X128548196Y-126551000D01*
X128423177Y-126538687D01*
X128262758Y-126490024D01*
X128114924Y-126411005D01*
X128114922Y-126411004D01*
X127985341Y-126304659D01*
X127878996Y-126175078D01*
X127814631Y-126054659D01*
X127799976Y-126027242D01*
X127751313Y-125866823D01*
X127734883Y-125700000D01*
X127751313Y-125533177D01*
X127799976Y-125372758D01*
X127878995Y-125224924D01*
X127878996Y-125224922D01*
X127985341Y-125095341D01*
X128114922Y-124988996D01*
X128141253Y-124974922D01*
X128262758Y-124909976D01*
X128423177Y-124861313D01*
X128548196Y-124849000D01*
X128631804Y-124849000D01*
X128756823Y-124861313D01*
X128756823Y-124861313D01*
G37*
G36*
X72266823Y-124611313D02*
G01*
X72427242Y-124659976D01*
X72559906Y-124730886D01*
X72575078Y-124738996D01*
X72704659Y-124845341D01*
X72811004Y-124974922D01*
X72811005Y-124974924D01*
X72890024Y-125122758D01*
X72938687Y-125283177D01*
X72955117Y-125450000D01*
X72938687Y-125616823D01*
X72890024Y-125777242D01*
X72842142Y-125866823D01*
X72811004Y-125925078D01*
X72704659Y-126054659D01*
X72575078Y-126161004D01*
X72575076Y-126161005D01*
X72427242Y-126240024D01*
X72266823Y-126288687D01*
X72141804Y-126301000D01*
X72058196Y-126301000D01*
X71933177Y-126288687D01*
X71772758Y-126240024D01*
X71624924Y-126161005D01*
X71624922Y-126161004D01*
X71495341Y-126054659D01*
X71388996Y-125925078D01*
X71357858Y-125866823D01*
X71309976Y-125777242D01*
X71261313Y-125616823D01*
X71244883Y-125450000D01*
X71261313Y-125283177D01*
X71309976Y-125122758D01*
X71388995Y-124974924D01*
X71388996Y-124974922D01*
X71495341Y-124845341D01*
X71624922Y-124738996D01*
X71640094Y-124730886D01*
X71772758Y-124659976D01*
X71933177Y-124611313D01*
X72058196Y-124599000D01*
X72141804Y-124599000D01*
X72266823Y-124611313D01*
X72266823Y-124611313D01*
G37*
G36*
X87506823Y-124611313D02*
G01*
X87667242Y-124659976D01*
X87799906Y-124730886D01*
X87815078Y-124738996D01*
X87944659Y-124845341D01*
X88051004Y-124974922D01*
X88051005Y-124974924D01*
X88130024Y-125122758D01*
X88178687Y-125283177D01*
X88195117Y-125450000D01*
X88178687Y-125616823D01*
X88130024Y-125777242D01*
X88082142Y-125866823D01*
X88051004Y-125925078D01*
X87944659Y-126054659D01*
X87815078Y-126161004D01*
X87815076Y-126161005D01*
X87667242Y-126240024D01*
X87506823Y-126288687D01*
X87381804Y-126301000D01*
X87298196Y-126301000D01*
X87173177Y-126288687D01*
X87012758Y-126240024D01*
X86864924Y-126161005D01*
X86864922Y-126161004D01*
X86735341Y-126054659D01*
X86628996Y-125925078D01*
X86597858Y-125866823D01*
X86549976Y-125777242D01*
X86501313Y-125616823D01*
X86484883Y-125450000D01*
X86501313Y-125283177D01*
X86549976Y-125122758D01*
X86628995Y-124974924D01*
X86628996Y-124974922D01*
X86735341Y-124845341D01*
X86864922Y-124738996D01*
X86880094Y-124730886D01*
X87012758Y-124659976D01*
X87173177Y-124611313D01*
X87298196Y-124599000D01*
X87381804Y-124599000D01*
X87506823Y-124611313D01*
X87506823Y-124611313D01*
G37*
G36*
X122151000Y-125206000D02*
G01*
X120349000Y-125206000D01*
X120349000Y-123404000D01*
X122151000Y-123404000D01*
X122151000Y-125206000D01*
X122151000Y-125206000D01*
G37*
G36*
X128756823Y-122321313D02*
G01*
X128917242Y-122369976D01*
X129038747Y-122434922D01*
X129065078Y-122448996D01*
X129194659Y-122555341D01*
X129301004Y-122684922D01*
X129301005Y-122684924D01*
X129380024Y-122832758D01*
X129428687Y-122993177D01*
X129445117Y-123160000D01*
X129428687Y-123326823D01*
X129380024Y-123487242D01*
X129365369Y-123514659D01*
X129301004Y-123635078D01*
X129194659Y-123764659D01*
X129065078Y-123871004D01*
X129065076Y-123871005D01*
X128917242Y-123950024D01*
X128756823Y-123998687D01*
X128631804Y-124011000D01*
X128548196Y-124011000D01*
X128423177Y-123998687D01*
X128262758Y-123950024D01*
X128114924Y-123871005D01*
X128114922Y-123871004D01*
X127985341Y-123764659D01*
X127878996Y-123635078D01*
X127814631Y-123514659D01*
X127799976Y-123487242D01*
X127751313Y-123326823D01*
X127734883Y-123160000D01*
X127751313Y-122993177D01*
X127799976Y-122832758D01*
X127878995Y-122684924D01*
X127878996Y-122684922D01*
X127985341Y-122555341D01*
X128114922Y-122448996D01*
X128141253Y-122434922D01*
X128262758Y-122369976D01*
X128423177Y-122321313D01*
X128548196Y-122309000D01*
X128631804Y-122309000D01*
X128756823Y-122321313D01*
X128756823Y-122321313D01*
G37*
G36*
X113516823Y-122321313D02*
G01*
X113677242Y-122369976D01*
X113798747Y-122434922D01*
X113825078Y-122448996D01*
X113954659Y-122555341D01*
X114061004Y-122684922D01*
X114061005Y-122684924D01*
X114140024Y-122832758D01*
X114188687Y-122993177D01*
X114205117Y-123160000D01*
X114188687Y-123326823D01*
X114140024Y-123487242D01*
X114125369Y-123514659D01*
X114061004Y-123635078D01*
X113954659Y-123764659D01*
X113825078Y-123871004D01*
X113825076Y-123871005D01*
X113677242Y-123950024D01*
X113516823Y-123998687D01*
X113391804Y-124011000D01*
X113308196Y-124011000D01*
X113183177Y-123998687D01*
X113022758Y-123950024D01*
X112874924Y-123871005D01*
X112874922Y-123871004D01*
X112745341Y-123764659D01*
X112638996Y-123635078D01*
X112574631Y-123514659D01*
X112559976Y-123487242D01*
X112511313Y-123326823D01*
X112494883Y-123160000D01*
X112511313Y-122993177D01*
X112559976Y-122832758D01*
X112638995Y-122684924D01*
X112638996Y-122684922D01*
X112745341Y-122555341D01*
X112874922Y-122448996D01*
X112901253Y-122434922D01*
X113022758Y-122369976D01*
X113183177Y-122321313D01*
X113308196Y-122309000D01*
X113391804Y-122309000D01*
X113516823Y-122321313D01*
X113516823Y-122321313D01*
G37*
G36*
X87506823Y-122071313D02*
G01*
X87667242Y-122119976D01*
X87799906Y-122190886D01*
X87815078Y-122198996D01*
X87944659Y-122305341D01*
X88051004Y-122434922D01*
X88051005Y-122434924D01*
X88130024Y-122582758D01*
X88178687Y-122743177D01*
X88195117Y-122910000D01*
X88178687Y-123076823D01*
X88130024Y-123237242D01*
X88082142Y-123326823D01*
X88051004Y-123385078D01*
X87944659Y-123514659D01*
X87815078Y-123621004D01*
X87815076Y-123621005D01*
X87667242Y-123700024D01*
X87506823Y-123748687D01*
X87381804Y-123761000D01*
X87298196Y-123761000D01*
X87173177Y-123748687D01*
X87012758Y-123700024D01*
X86864924Y-123621005D01*
X86864922Y-123621004D01*
X86735341Y-123514659D01*
X86628996Y-123385078D01*
X86597858Y-123326823D01*
X86549976Y-123237242D01*
X86501313Y-123076823D01*
X86484883Y-122910000D01*
X86501313Y-122743177D01*
X86549976Y-122582758D01*
X86628995Y-122434924D01*
X86628996Y-122434922D01*
X86735341Y-122305341D01*
X86864922Y-122198996D01*
X86880094Y-122190886D01*
X87012758Y-122119976D01*
X87173177Y-122071313D01*
X87298196Y-122059000D01*
X87381804Y-122059000D01*
X87506823Y-122071313D01*
X87506823Y-122071313D01*
G37*
G36*
X72266823Y-122071313D02*
G01*
X72427242Y-122119976D01*
X72559906Y-122190886D01*
X72575078Y-122198996D01*
X72704659Y-122305341D01*
X72811004Y-122434922D01*
X72811005Y-122434924D01*
X72890024Y-122582758D01*
X72938687Y-122743177D01*
X72955117Y-122910000D01*
X72938687Y-123076823D01*
X72890024Y-123237242D01*
X72842142Y-123326823D01*
X72811004Y-123385078D01*
X72704659Y-123514659D01*
X72575078Y-123621004D01*
X72575076Y-123621005D01*
X72427242Y-123700024D01*
X72266823Y-123748687D01*
X72141804Y-123761000D01*
X72058196Y-123761000D01*
X71933177Y-123748687D01*
X71772758Y-123700024D01*
X71624924Y-123621005D01*
X71624922Y-123621004D01*
X71495341Y-123514659D01*
X71388996Y-123385078D01*
X71357858Y-123326823D01*
X71309976Y-123237242D01*
X71261313Y-123076823D01*
X71244883Y-122910000D01*
X71261313Y-122743177D01*
X71309976Y-122582758D01*
X71388995Y-122434924D01*
X71388996Y-122434922D01*
X71495341Y-122305341D01*
X71624922Y-122198996D01*
X71640094Y-122190886D01*
X71772758Y-122119976D01*
X71933177Y-122071313D01*
X72058196Y-122059000D01*
X72141804Y-122059000D01*
X72266823Y-122071313D01*
X72266823Y-122071313D01*
G37*
G36*
X96416823Y-120981313D02*
G01*
X96577242Y-121029976D01*
X96672710Y-121081005D01*
X96725078Y-121108996D01*
X96854659Y-121215341D01*
X96961004Y-121344922D01*
X96961005Y-121344924D01*
X97040024Y-121492758D01*
X97088687Y-121653177D01*
X97105117Y-121820000D01*
X97088687Y-121986823D01*
X97040024Y-122147242D01*
X97012361Y-122198995D01*
X96961004Y-122295078D01*
X96854659Y-122424659D01*
X96725078Y-122531004D01*
X96725076Y-122531005D01*
X96577242Y-122610024D01*
X96416823Y-122658687D01*
X96291804Y-122671000D01*
X96208196Y-122671000D01*
X96083177Y-122658687D01*
X95922758Y-122610024D01*
X95774924Y-122531005D01*
X95774922Y-122531004D01*
X95645341Y-122424659D01*
X95538996Y-122295078D01*
X95487639Y-122198995D01*
X95459976Y-122147242D01*
X95411313Y-121986823D01*
X95394883Y-121820000D01*
X95411313Y-121653177D01*
X95459976Y-121492758D01*
X95538995Y-121344924D01*
X95538996Y-121344922D01*
X95645341Y-121215341D01*
X95774922Y-121108996D01*
X95827290Y-121081005D01*
X95922758Y-121029976D01*
X96083177Y-120981313D01*
X96208196Y-120969000D01*
X96291804Y-120969000D01*
X96416823Y-120981313D01*
X96416823Y-120981313D01*
G37*
G36*
X104036823Y-120981313D02*
G01*
X104197242Y-121029976D01*
X104292710Y-121081005D01*
X104345078Y-121108996D01*
X104474659Y-121215341D01*
X104581004Y-121344922D01*
X104581005Y-121344924D01*
X104660024Y-121492758D01*
X104708687Y-121653177D01*
X104725117Y-121820000D01*
X104708687Y-121986823D01*
X104660024Y-122147242D01*
X104632361Y-122198995D01*
X104581004Y-122295078D01*
X104474659Y-122424659D01*
X104345078Y-122531004D01*
X104345076Y-122531005D01*
X104197242Y-122610024D01*
X104036823Y-122658687D01*
X103911804Y-122671000D01*
X103828196Y-122671000D01*
X103703177Y-122658687D01*
X103542758Y-122610024D01*
X103394924Y-122531005D01*
X103394922Y-122531004D01*
X103265341Y-122424659D01*
X103158996Y-122295078D01*
X103107639Y-122198995D01*
X103079976Y-122147242D01*
X103031313Y-121986823D01*
X103014883Y-121820000D01*
X103031313Y-121653177D01*
X103079976Y-121492758D01*
X103158995Y-121344924D01*
X103158996Y-121344922D01*
X103265341Y-121215341D01*
X103394922Y-121108996D01*
X103447290Y-121081005D01*
X103542758Y-121029976D01*
X103703177Y-120981313D01*
X103828196Y-120969000D01*
X103911804Y-120969000D01*
X104036823Y-120981313D01*
X104036823Y-120981313D01*
G37*
G36*
X113516823Y-119781313D02*
G01*
X113677242Y-119829976D01*
X113798747Y-119894922D01*
X113825078Y-119908996D01*
X113954659Y-120015341D01*
X114061004Y-120144922D01*
X114061005Y-120144924D01*
X114140024Y-120292758D01*
X114188687Y-120453177D01*
X114205117Y-120620000D01*
X114188687Y-120786823D01*
X114140024Y-120947242D01*
X114069114Y-121079906D01*
X114061004Y-121095078D01*
X113954659Y-121224659D01*
X113825078Y-121331004D01*
X113825076Y-121331005D01*
X113677242Y-121410024D01*
X113516823Y-121458687D01*
X113391804Y-121471000D01*
X113308196Y-121471000D01*
X113183177Y-121458687D01*
X113022758Y-121410024D01*
X112874924Y-121331005D01*
X112874922Y-121331004D01*
X112745341Y-121224659D01*
X112638996Y-121095078D01*
X112630886Y-121079906D01*
X112559976Y-120947242D01*
X112511313Y-120786823D01*
X112494883Y-120620000D01*
X112511313Y-120453177D01*
X112559976Y-120292758D01*
X112638995Y-120144924D01*
X112638996Y-120144922D01*
X112745341Y-120015341D01*
X112874922Y-119908996D01*
X112901253Y-119894922D01*
X113022758Y-119829976D01*
X113183177Y-119781313D01*
X113308196Y-119769000D01*
X113391804Y-119769000D01*
X113516823Y-119781313D01*
X113516823Y-119781313D01*
G37*
G36*
X128756823Y-119781313D02*
G01*
X128917242Y-119829976D01*
X129038747Y-119894922D01*
X129065078Y-119908996D01*
X129194659Y-120015341D01*
X129301004Y-120144922D01*
X129301005Y-120144924D01*
X129380024Y-120292758D01*
X129428687Y-120453177D01*
X129445117Y-120620000D01*
X129428687Y-120786823D01*
X129380024Y-120947242D01*
X129309114Y-121079906D01*
X129301004Y-121095078D01*
X129194659Y-121224659D01*
X129065078Y-121331004D01*
X129065076Y-121331005D01*
X128917242Y-121410024D01*
X128756823Y-121458687D01*
X128631804Y-121471000D01*
X128548196Y-121471000D01*
X128423177Y-121458687D01*
X128262758Y-121410024D01*
X128114924Y-121331005D01*
X128114922Y-121331004D01*
X127985341Y-121224659D01*
X127878996Y-121095078D01*
X127870886Y-121079906D01*
X127799976Y-120947242D01*
X127751313Y-120786823D01*
X127734883Y-120620000D01*
X127751313Y-120453177D01*
X127799976Y-120292758D01*
X127878995Y-120144924D01*
X127878996Y-120144922D01*
X127985341Y-120015341D01*
X128114922Y-119908996D01*
X128141253Y-119894922D01*
X128262758Y-119829976D01*
X128423177Y-119781313D01*
X128548196Y-119769000D01*
X128631804Y-119769000D01*
X128756823Y-119781313D01*
X128756823Y-119781313D01*
G37*
G36*
X87506823Y-119531313D02*
G01*
X87667242Y-119579976D01*
X87799906Y-119650886D01*
X87815078Y-119658996D01*
X87944659Y-119765341D01*
X88051004Y-119894922D01*
X88051005Y-119894924D01*
X88130024Y-120042758D01*
X88178687Y-120203177D01*
X88195117Y-120370000D01*
X88178687Y-120536823D01*
X88130024Y-120697242D01*
X88082142Y-120786823D01*
X88051004Y-120845078D01*
X87944659Y-120974659D01*
X87815078Y-121081004D01*
X87815076Y-121081005D01*
X87667242Y-121160024D01*
X87506823Y-121208687D01*
X87381804Y-121221000D01*
X87298196Y-121221000D01*
X87173177Y-121208687D01*
X87012758Y-121160024D01*
X86864924Y-121081005D01*
X86864922Y-121081004D01*
X86735341Y-120974659D01*
X86628996Y-120845078D01*
X86597858Y-120786823D01*
X86549976Y-120697242D01*
X86501313Y-120536823D01*
X86484883Y-120370000D01*
X86501313Y-120203177D01*
X86549976Y-120042758D01*
X86628995Y-119894924D01*
X86628996Y-119894922D01*
X86735341Y-119765341D01*
X86864922Y-119658996D01*
X86880094Y-119650886D01*
X87012758Y-119579976D01*
X87173177Y-119531313D01*
X87298196Y-119519000D01*
X87381804Y-119519000D01*
X87506823Y-119531313D01*
X87506823Y-119531313D01*
G37*
G36*
X72266823Y-119531313D02*
G01*
X72427242Y-119579976D01*
X72559906Y-119650886D01*
X72575078Y-119658996D01*
X72704659Y-119765341D01*
X72811004Y-119894922D01*
X72811005Y-119894924D01*
X72890024Y-120042758D01*
X72938687Y-120203177D01*
X72955117Y-120370000D01*
X72938687Y-120536823D01*
X72890024Y-120697242D01*
X72842142Y-120786823D01*
X72811004Y-120845078D01*
X72704659Y-120974659D01*
X72575078Y-121081004D01*
X72575076Y-121081005D01*
X72427242Y-121160024D01*
X72266823Y-121208687D01*
X72141804Y-121221000D01*
X72058196Y-121221000D01*
X71933177Y-121208687D01*
X71772758Y-121160024D01*
X71624924Y-121081005D01*
X71624922Y-121081004D01*
X71495341Y-120974659D01*
X71388996Y-120845078D01*
X71357858Y-120786823D01*
X71309976Y-120697242D01*
X71261313Y-120536823D01*
X71244883Y-120370000D01*
X71261313Y-120203177D01*
X71309976Y-120042758D01*
X71388995Y-119894924D01*
X71388996Y-119894922D01*
X71495341Y-119765341D01*
X71624922Y-119658996D01*
X71640094Y-119650886D01*
X71772758Y-119579976D01*
X71933177Y-119531313D01*
X72058196Y-119519000D01*
X72141804Y-119519000D01*
X72266823Y-119531313D01*
X72266823Y-119531313D01*
G37*
G36*
X137601000Y-120451000D02*
G01*
X134899000Y-120451000D01*
X134899000Y-117749000D01*
X137601000Y-117749000D01*
X137601000Y-120451000D01*
X137601000Y-120451000D01*
G37*
G36*
X140144072Y-117800918D02*
G01*
X140214283Y-117830000D01*
X140389939Y-117902759D01*
X140611212Y-118050610D01*
X140799390Y-118238788D01*
X140934715Y-118441314D01*
X140947242Y-118460063D01*
X141049082Y-118705928D01*
X141101000Y-118966937D01*
X141101000Y-119233063D01*
X141058480Y-119446823D01*
X141049082Y-119494072D01*
X140947241Y-119739939D01*
X140919595Y-119781314D01*
X140850542Y-119884659D01*
X140799390Y-119961212D01*
X140611212Y-120149390D01*
X140389939Y-120297241D01*
X140389938Y-120297242D01*
X140389937Y-120297242D01*
X140144072Y-120399082D01*
X139883063Y-120451000D01*
X139616937Y-120451000D01*
X139355928Y-120399082D01*
X139110063Y-120297242D01*
X139110062Y-120297242D01*
X139110061Y-120297241D01*
X138888788Y-120149390D01*
X138700610Y-119961212D01*
X138649459Y-119884659D01*
X138580405Y-119781314D01*
X138552759Y-119739939D01*
X138450918Y-119494072D01*
X138441520Y-119446823D01*
X138399000Y-119233063D01*
X138399000Y-118966937D01*
X138450918Y-118705928D01*
X138552758Y-118460063D01*
X138565286Y-118441314D01*
X138700610Y-118238788D01*
X138888788Y-118050610D01*
X139110061Y-117902759D01*
X139285718Y-117830000D01*
X139355928Y-117800918D01*
X139616937Y-117749000D01*
X139883063Y-117749000D01*
X140144072Y-117800918D01*
X140144072Y-117800918D01*
G37*
G36*
X104036823Y-118441313D02*
G01*
X104197242Y-118489976D01*
X104292710Y-118541005D01*
X104345078Y-118568996D01*
X104474659Y-118675341D01*
X104581004Y-118804922D01*
X104581005Y-118804924D01*
X104660024Y-118952758D01*
X104660025Y-118952761D01*
X104669083Y-118982620D01*
X104708687Y-119113177D01*
X104725117Y-119280000D01*
X104708687Y-119446823D01*
X104660024Y-119607242D01*
X104632361Y-119658995D01*
X104581004Y-119755078D01*
X104474659Y-119884659D01*
X104345078Y-119991004D01*
X104345076Y-119991005D01*
X104197242Y-120070024D01*
X104036823Y-120118687D01*
X103911804Y-120131000D01*
X103828196Y-120131000D01*
X103703177Y-120118687D01*
X103542758Y-120070024D01*
X103394924Y-119991005D01*
X103394922Y-119991004D01*
X103265341Y-119884659D01*
X103158996Y-119755078D01*
X103107639Y-119658995D01*
X103079976Y-119607242D01*
X103031313Y-119446823D01*
X103014883Y-119280000D01*
X103031313Y-119113177D01*
X103070917Y-118982620D01*
X103079975Y-118952761D01*
X103079976Y-118952758D01*
X103158995Y-118804924D01*
X103158996Y-118804922D01*
X103265341Y-118675341D01*
X103394922Y-118568996D01*
X103447290Y-118541005D01*
X103542758Y-118489976D01*
X103703177Y-118441313D01*
X103828196Y-118429000D01*
X103911804Y-118429000D01*
X104036823Y-118441313D01*
X104036823Y-118441313D01*
G37*
G36*
X96416823Y-118441313D02*
G01*
X96577242Y-118489976D01*
X96672710Y-118541005D01*
X96725078Y-118568996D01*
X96854659Y-118675341D01*
X96961004Y-118804922D01*
X96961005Y-118804924D01*
X97040024Y-118952758D01*
X97040025Y-118952761D01*
X97049083Y-118982620D01*
X97088687Y-119113177D01*
X97105117Y-119280000D01*
X97088687Y-119446823D01*
X97040024Y-119607242D01*
X97012361Y-119658995D01*
X96961004Y-119755078D01*
X96854659Y-119884659D01*
X96725078Y-119991004D01*
X96725076Y-119991005D01*
X96577242Y-120070024D01*
X96416823Y-120118687D01*
X96291804Y-120131000D01*
X96208196Y-120131000D01*
X96083177Y-120118687D01*
X95922758Y-120070024D01*
X95774924Y-119991005D01*
X95774922Y-119991004D01*
X95645341Y-119884659D01*
X95538996Y-119755078D01*
X95487639Y-119658995D01*
X95459976Y-119607242D01*
X95411313Y-119446823D01*
X95394883Y-119280000D01*
X95411313Y-119113177D01*
X95450917Y-118982620D01*
X95459975Y-118952761D01*
X95459976Y-118952758D01*
X95538995Y-118804924D01*
X95538996Y-118804922D01*
X95645341Y-118675341D01*
X95774922Y-118568996D01*
X95827290Y-118541005D01*
X95922758Y-118489976D01*
X96083177Y-118441313D01*
X96208196Y-118429000D01*
X96291804Y-118429000D01*
X96416823Y-118441313D01*
X96416823Y-118441313D01*
G37*
G36*
X122101000Y-119926000D02*
G01*
X120299000Y-119926000D01*
X120299000Y-118124000D01*
X122101000Y-118124000D01*
X122101000Y-119926000D01*
X122101000Y-119926000D01*
G37*
G36*
X128756823Y-117241313D02*
G01*
X128917242Y-117289976D01*
X129038747Y-117354922D01*
X129065078Y-117368996D01*
X129194659Y-117475341D01*
X129301004Y-117604922D01*
X129301005Y-117604924D01*
X129380024Y-117752758D01*
X129428687Y-117913177D01*
X129445117Y-118080000D01*
X129428687Y-118246823D01*
X129380024Y-118407242D01*
X129329909Y-118501000D01*
X129301004Y-118555078D01*
X129194659Y-118684659D01*
X129065078Y-118791004D01*
X129065076Y-118791005D01*
X128917242Y-118870024D01*
X128756823Y-118918687D01*
X128631804Y-118931000D01*
X128548196Y-118931000D01*
X128423177Y-118918687D01*
X128262758Y-118870024D01*
X128114924Y-118791005D01*
X128114922Y-118791004D01*
X127985341Y-118684659D01*
X127878996Y-118555078D01*
X127850091Y-118501000D01*
X127799976Y-118407242D01*
X127751313Y-118246823D01*
X127734883Y-118080000D01*
X127751313Y-117913177D01*
X127799976Y-117752758D01*
X127878995Y-117604924D01*
X127878996Y-117604922D01*
X127985341Y-117475341D01*
X128114922Y-117368996D01*
X128141253Y-117354922D01*
X128262758Y-117289976D01*
X128423177Y-117241313D01*
X128548196Y-117229000D01*
X128631804Y-117229000D01*
X128756823Y-117241313D01*
X128756823Y-117241313D01*
G37*
G36*
X113516823Y-117241313D02*
G01*
X113677242Y-117289976D01*
X113798747Y-117354922D01*
X113825078Y-117368996D01*
X113954659Y-117475341D01*
X114061004Y-117604922D01*
X114061005Y-117604924D01*
X114140024Y-117752758D01*
X114188687Y-117913177D01*
X114205117Y-118080000D01*
X114188687Y-118246823D01*
X114140024Y-118407242D01*
X114089909Y-118501000D01*
X114061004Y-118555078D01*
X113954659Y-118684659D01*
X113825078Y-118791004D01*
X113825076Y-118791005D01*
X113677242Y-118870024D01*
X113516823Y-118918687D01*
X113391804Y-118931000D01*
X113308196Y-118931000D01*
X113183177Y-118918687D01*
X113022758Y-118870024D01*
X112874924Y-118791005D01*
X112874922Y-118791004D01*
X112745341Y-118684659D01*
X112638996Y-118555078D01*
X112610091Y-118501000D01*
X112559976Y-118407242D01*
X112511313Y-118246823D01*
X112494883Y-118080000D01*
X112511313Y-117913177D01*
X112559976Y-117752758D01*
X112638995Y-117604924D01*
X112638996Y-117604922D01*
X112745341Y-117475341D01*
X112874922Y-117368996D01*
X112901253Y-117354922D01*
X113022758Y-117289976D01*
X113183177Y-117241313D01*
X113308196Y-117229000D01*
X113391804Y-117229000D01*
X113516823Y-117241313D01*
X113516823Y-117241313D01*
G37*
G36*
X87506823Y-116991313D02*
G01*
X87667242Y-117039976D01*
X87799906Y-117110886D01*
X87815078Y-117118996D01*
X87944659Y-117225341D01*
X88051004Y-117354922D01*
X88051005Y-117354924D01*
X88130024Y-117502758D01*
X88178687Y-117663177D01*
X88195117Y-117830000D01*
X88178687Y-117996823D01*
X88130024Y-118157242D01*
X88086436Y-118238789D01*
X88051004Y-118305078D01*
X87944659Y-118434659D01*
X87815078Y-118541004D01*
X87815076Y-118541005D01*
X87667242Y-118620024D01*
X87506823Y-118668687D01*
X87381804Y-118681000D01*
X87298196Y-118681000D01*
X87173177Y-118668687D01*
X87012758Y-118620024D01*
X86864924Y-118541005D01*
X86864922Y-118541004D01*
X86735341Y-118434659D01*
X86628996Y-118305078D01*
X86593564Y-118238789D01*
X86549976Y-118157242D01*
X86501313Y-117996823D01*
X86484883Y-117830000D01*
X86501313Y-117663177D01*
X86549976Y-117502758D01*
X86628995Y-117354924D01*
X86628996Y-117354922D01*
X86735341Y-117225341D01*
X86864922Y-117118996D01*
X86880094Y-117110886D01*
X87012758Y-117039976D01*
X87173177Y-116991313D01*
X87298196Y-116979000D01*
X87381804Y-116979000D01*
X87506823Y-116991313D01*
X87506823Y-116991313D01*
G37*
G36*
X72266823Y-116991313D02*
G01*
X72427242Y-117039976D01*
X72559906Y-117110886D01*
X72575078Y-117118996D01*
X72704659Y-117225341D01*
X72811004Y-117354922D01*
X72811005Y-117354924D01*
X72890024Y-117502758D01*
X72938687Y-117663177D01*
X72955117Y-117830000D01*
X72938687Y-117996823D01*
X72890024Y-118157242D01*
X72846436Y-118238789D01*
X72811004Y-118305078D01*
X72704659Y-118434659D01*
X72575078Y-118541004D01*
X72575076Y-118541005D01*
X72427242Y-118620024D01*
X72266823Y-118668687D01*
X72141804Y-118681000D01*
X72058196Y-118681000D01*
X71933177Y-118668687D01*
X71772758Y-118620024D01*
X71624924Y-118541005D01*
X71624922Y-118541004D01*
X71495341Y-118434659D01*
X71388996Y-118305078D01*
X71353564Y-118238789D01*
X71309976Y-118157242D01*
X71261313Y-117996823D01*
X71244883Y-117830000D01*
X71261313Y-117663177D01*
X71309976Y-117502758D01*
X71388995Y-117354924D01*
X71388996Y-117354922D01*
X71495341Y-117225341D01*
X71624922Y-117118996D01*
X71640094Y-117110886D01*
X71772758Y-117039976D01*
X71933177Y-116991313D01*
X72058196Y-116979000D01*
X72141804Y-116979000D01*
X72266823Y-116991313D01*
X72266823Y-116991313D01*
G37*
G36*
X65594072Y-115850918D02*
G01*
X65833221Y-115949976D01*
X65839939Y-115952759D01*
X65883714Y-115982009D01*
X66061211Y-116100609D01*
X66249391Y-116288789D01*
X66262478Y-116308375D01*
X66380496Y-116485000D01*
X66397242Y-116510063D01*
X66499082Y-116755928D01*
X66551000Y-117016937D01*
X66551000Y-117283063D01*
X66499082Y-117544072D01*
X66397242Y-117789937D01*
X66259005Y-117996823D01*
X66249390Y-118011212D01*
X66061212Y-118199390D01*
X65839939Y-118347241D01*
X65839938Y-118347242D01*
X65839937Y-118347242D01*
X65594072Y-118449082D01*
X65333063Y-118501000D01*
X65066937Y-118501000D01*
X64805928Y-118449082D01*
X64560063Y-118347242D01*
X64560062Y-118347242D01*
X64560061Y-118347241D01*
X64338788Y-118199390D01*
X64150610Y-118011212D01*
X64140996Y-117996823D01*
X64002758Y-117789937D01*
X63900918Y-117544072D01*
X63849000Y-117283063D01*
X63849000Y-117016937D01*
X63900918Y-116755928D01*
X64002758Y-116510063D01*
X64019505Y-116485000D01*
X64137522Y-116308375D01*
X64150609Y-116288789D01*
X64338789Y-116100609D01*
X64516286Y-115982009D01*
X64560061Y-115952759D01*
X64566780Y-115949976D01*
X64805928Y-115850918D01*
X65066937Y-115799000D01*
X65333063Y-115799000D01*
X65594072Y-115850918D01*
X65594072Y-115850918D01*
G37*
G36*
X63051000Y-118501000D02*
G01*
X60349000Y-118501000D01*
X60349000Y-115799000D01*
X63051000Y-115799000D01*
X63051000Y-118501000D01*
X63051000Y-118501000D01*
G37*
G36*
X96416823Y-115901313D02*
G01*
X96577242Y-115949976D01*
X96672710Y-116001005D01*
X96725078Y-116028996D01*
X96854659Y-116135341D01*
X96961004Y-116264922D01*
X96961005Y-116264924D01*
X97040024Y-116412758D01*
X97088687Y-116573177D01*
X97105117Y-116740000D01*
X97088687Y-116906823D01*
X97040024Y-117067242D01*
X97009052Y-117125186D01*
X96961004Y-117215078D01*
X96854659Y-117344659D01*
X96725078Y-117451004D01*
X96725076Y-117451005D01*
X96577242Y-117530024D01*
X96416823Y-117578687D01*
X96291804Y-117591000D01*
X96208196Y-117591000D01*
X96083177Y-117578687D01*
X95922758Y-117530024D01*
X95774924Y-117451005D01*
X95774922Y-117451004D01*
X95645341Y-117344659D01*
X95538996Y-117215078D01*
X95490948Y-117125186D01*
X95459976Y-117067242D01*
X95411313Y-116906823D01*
X95394883Y-116740000D01*
X95411313Y-116573177D01*
X95459976Y-116412758D01*
X95538995Y-116264924D01*
X95538996Y-116264922D01*
X95645341Y-116135341D01*
X95774922Y-116028996D01*
X95827290Y-116001005D01*
X95922758Y-115949976D01*
X96083177Y-115901313D01*
X96208196Y-115889000D01*
X96291804Y-115889000D01*
X96416823Y-115901313D01*
X96416823Y-115901313D01*
G37*
G36*
X104036823Y-115901313D02*
G01*
X104197242Y-115949976D01*
X104292710Y-116001005D01*
X104345078Y-116028996D01*
X104474659Y-116135341D01*
X104581004Y-116264922D01*
X104581005Y-116264924D01*
X104660024Y-116412758D01*
X104708687Y-116573177D01*
X104725117Y-116740000D01*
X104708687Y-116906823D01*
X104660024Y-117067242D01*
X104629052Y-117125186D01*
X104581004Y-117215078D01*
X104474659Y-117344659D01*
X104345078Y-117451004D01*
X104345076Y-117451005D01*
X104197242Y-117530024D01*
X104036823Y-117578687D01*
X103911804Y-117591000D01*
X103828196Y-117591000D01*
X103703177Y-117578687D01*
X103542758Y-117530024D01*
X103394924Y-117451005D01*
X103394922Y-117451004D01*
X103265341Y-117344659D01*
X103158996Y-117215078D01*
X103110948Y-117125186D01*
X103079976Y-117067242D01*
X103031313Y-116906823D01*
X103014883Y-116740000D01*
X103031313Y-116573177D01*
X103079976Y-116412758D01*
X103158995Y-116264924D01*
X103158996Y-116264922D01*
X103265341Y-116135341D01*
X103394922Y-116028996D01*
X103447290Y-116001005D01*
X103542758Y-115949976D01*
X103703177Y-115901313D01*
X103828196Y-115889000D01*
X103911804Y-115889000D01*
X104036823Y-115901313D01*
X104036823Y-115901313D01*
G37*
G36*
X121310443Y-115590519D02*
G01*
X121376627Y-115597037D01*
X121546466Y-115648557D01*
X121702991Y-115732222D01*
X121738729Y-115761552D01*
X121840186Y-115844814D01*
X121923448Y-115946271D01*
X121952778Y-115982009D01*
X122036443Y-116138534D01*
X122087963Y-116308373D01*
X122105359Y-116485000D01*
X122087963Y-116661627D01*
X122036443Y-116831466D01*
X121952778Y-116987991D01*
X121929022Y-117016937D01*
X121840186Y-117125186D01*
X121738729Y-117208448D01*
X121702991Y-117237778D01*
X121546466Y-117321443D01*
X121376627Y-117372963D01*
X121310442Y-117379482D01*
X121244260Y-117386000D01*
X121155740Y-117386000D01*
X121089558Y-117379482D01*
X121023373Y-117372963D01*
X120853534Y-117321443D01*
X120697009Y-117237778D01*
X120661271Y-117208448D01*
X120559814Y-117125186D01*
X120470978Y-117016937D01*
X120447222Y-116987991D01*
X120363557Y-116831466D01*
X120312037Y-116661627D01*
X120294641Y-116485000D01*
X120312037Y-116308373D01*
X120363557Y-116138534D01*
X120447222Y-115982009D01*
X120476552Y-115946271D01*
X120559814Y-115844814D01*
X120661271Y-115761552D01*
X120697009Y-115732222D01*
X120853534Y-115648557D01*
X121023373Y-115597037D01*
X121089557Y-115590519D01*
X121155740Y-115584000D01*
X121244260Y-115584000D01*
X121310443Y-115590519D01*
X121310443Y-115590519D01*
G37*
G36*
X113516823Y-114701313D02*
G01*
X113677242Y-114749976D01*
X113798747Y-114814922D01*
X113825078Y-114828996D01*
X113954659Y-114935341D01*
X114061004Y-115064922D01*
X114061005Y-115064924D01*
X114140024Y-115212758D01*
X114188687Y-115373177D01*
X114205117Y-115540000D01*
X114188687Y-115706823D01*
X114140024Y-115867242D01*
X114094314Y-115952759D01*
X114061004Y-116015078D01*
X113954659Y-116144659D01*
X113825078Y-116251004D01*
X113825076Y-116251005D01*
X113677242Y-116330024D01*
X113516823Y-116378687D01*
X113391804Y-116391000D01*
X113308196Y-116391000D01*
X113183177Y-116378687D01*
X113022758Y-116330024D01*
X112874924Y-116251005D01*
X112874922Y-116251004D01*
X112745341Y-116144659D01*
X112638996Y-116015078D01*
X112605686Y-115952759D01*
X112559976Y-115867242D01*
X112511313Y-115706823D01*
X112494883Y-115540000D01*
X112511313Y-115373177D01*
X112559976Y-115212758D01*
X112638995Y-115064924D01*
X112638996Y-115064922D01*
X112745341Y-114935341D01*
X112874922Y-114828996D01*
X112901253Y-114814922D01*
X113022758Y-114749976D01*
X113183177Y-114701313D01*
X113308196Y-114689000D01*
X113391804Y-114689000D01*
X113516823Y-114701313D01*
X113516823Y-114701313D01*
G37*
G36*
X128756823Y-114701313D02*
G01*
X128917242Y-114749976D01*
X129038747Y-114814922D01*
X129065078Y-114828996D01*
X129194659Y-114935341D01*
X129301004Y-115064922D01*
X129301005Y-115064924D01*
X129380024Y-115212758D01*
X129428687Y-115373177D01*
X129445117Y-115540000D01*
X129428687Y-115706823D01*
X129380024Y-115867242D01*
X129334314Y-115952759D01*
X129301004Y-116015078D01*
X129194659Y-116144659D01*
X129065078Y-116251004D01*
X129065076Y-116251005D01*
X128917242Y-116330024D01*
X128756823Y-116378687D01*
X128631804Y-116391000D01*
X128548196Y-116391000D01*
X128423177Y-116378687D01*
X128262758Y-116330024D01*
X128114924Y-116251005D01*
X128114922Y-116251004D01*
X127985341Y-116144659D01*
X127878996Y-116015078D01*
X127845686Y-115952759D01*
X127799976Y-115867242D01*
X127751313Y-115706823D01*
X127734883Y-115540000D01*
X127751313Y-115373177D01*
X127799976Y-115212758D01*
X127878995Y-115064924D01*
X127878996Y-115064922D01*
X127985341Y-114935341D01*
X128114922Y-114828996D01*
X128141253Y-114814922D01*
X128262758Y-114749976D01*
X128423177Y-114701313D01*
X128548196Y-114689000D01*
X128631804Y-114689000D01*
X128756823Y-114701313D01*
X128756823Y-114701313D01*
G37*
G36*
X72266823Y-114451313D02*
G01*
X72427242Y-114499976D01*
X72559906Y-114570886D01*
X72575078Y-114578996D01*
X72704659Y-114685341D01*
X72811004Y-114814922D01*
X72811005Y-114814924D01*
X72890024Y-114962758D01*
X72938687Y-115123177D01*
X72955117Y-115290000D01*
X72938687Y-115456823D01*
X72890024Y-115617242D01*
X72873285Y-115648558D01*
X72811004Y-115765078D01*
X72704659Y-115894659D01*
X72575078Y-116001004D01*
X72575076Y-116001005D01*
X72427242Y-116080024D01*
X72266823Y-116128687D01*
X72141804Y-116141000D01*
X72058196Y-116141000D01*
X71933177Y-116128687D01*
X71772758Y-116080024D01*
X71624924Y-116001005D01*
X71624922Y-116001004D01*
X71495341Y-115894659D01*
X71388996Y-115765078D01*
X71326715Y-115648558D01*
X71309976Y-115617242D01*
X71261313Y-115456823D01*
X71244883Y-115290000D01*
X71261313Y-115123177D01*
X71309976Y-114962758D01*
X71388995Y-114814924D01*
X71388996Y-114814922D01*
X71495341Y-114685341D01*
X71624922Y-114578996D01*
X71640094Y-114570886D01*
X71772758Y-114499976D01*
X71933177Y-114451313D01*
X72058196Y-114439000D01*
X72141804Y-114439000D01*
X72266823Y-114451313D01*
X72266823Y-114451313D01*
G37*
G36*
X87506823Y-114451313D02*
G01*
X87667242Y-114499976D01*
X87799906Y-114570886D01*
X87815078Y-114578996D01*
X87944659Y-114685341D01*
X88051004Y-114814922D01*
X88051005Y-114814924D01*
X88130024Y-114962758D01*
X88178687Y-115123177D01*
X88195117Y-115290000D01*
X88178687Y-115456823D01*
X88130024Y-115617242D01*
X88113285Y-115648558D01*
X88051004Y-115765078D01*
X87944659Y-115894659D01*
X87815078Y-116001004D01*
X87815076Y-116001005D01*
X87667242Y-116080024D01*
X87506823Y-116128687D01*
X87381804Y-116141000D01*
X87298196Y-116141000D01*
X87173177Y-116128687D01*
X87012758Y-116080024D01*
X86864924Y-116001005D01*
X86864922Y-116001004D01*
X86735341Y-115894659D01*
X86628996Y-115765078D01*
X86566715Y-115648558D01*
X86549976Y-115617242D01*
X86501313Y-115456823D01*
X86484883Y-115290000D01*
X86501313Y-115123177D01*
X86549976Y-114962758D01*
X86628995Y-114814924D01*
X86628996Y-114814922D01*
X86735341Y-114685341D01*
X86864922Y-114578996D01*
X86880094Y-114570886D01*
X87012758Y-114499976D01*
X87173177Y-114451313D01*
X87298196Y-114439000D01*
X87381804Y-114439000D01*
X87506823Y-114451313D01*
X87506823Y-114451313D01*
G37*
G36*
X104036823Y-113361313D02*
G01*
X104197242Y-113409976D01*
X104292710Y-113461005D01*
X104345078Y-113488996D01*
X104474659Y-113595341D01*
X104581004Y-113724922D01*
X104581005Y-113724924D01*
X104660024Y-113872758D01*
X104708687Y-114033177D01*
X104725117Y-114200000D01*
X104708687Y-114366823D01*
X104660024Y-114527242D01*
X104629052Y-114585186D01*
X104581004Y-114675078D01*
X104474659Y-114804659D01*
X104345078Y-114911004D01*
X104345076Y-114911005D01*
X104197242Y-114990024D01*
X104036823Y-115038687D01*
X103911804Y-115051000D01*
X103828196Y-115051000D01*
X103703177Y-115038687D01*
X103542758Y-114990024D01*
X103394924Y-114911005D01*
X103394922Y-114911004D01*
X103265341Y-114804659D01*
X103158996Y-114675078D01*
X103110948Y-114585186D01*
X103079976Y-114527242D01*
X103031313Y-114366823D01*
X103014883Y-114200000D01*
X103031313Y-114033177D01*
X103079976Y-113872758D01*
X103158995Y-113724924D01*
X103158996Y-113724922D01*
X103265341Y-113595341D01*
X103394922Y-113488996D01*
X103447290Y-113461005D01*
X103542758Y-113409976D01*
X103703177Y-113361313D01*
X103828196Y-113349000D01*
X103911804Y-113349000D01*
X104036823Y-113361313D01*
X104036823Y-113361313D01*
G37*
G36*
X97101000Y-115051000D02*
G01*
X95399000Y-115051000D01*
X95399000Y-113349000D01*
X97101000Y-113349000D01*
X97101000Y-115051000D01*
X97101000Y-115051000D01*
G37*
G36*
X121310443Y-113050519D02*
G01*
X121376627Y-113057037D01*
X121546466Y-113108557D01*
X121702991Y-113192222D01*
X121738729Y-113221552D01*
X121840186Y-113304814D01*
X121923448Y-113406271D01*
X121952778Y-113442009D01*
X122036443Y-113598534D01*
X122087963Y-113768373D01*
X122105359Y-113945000D01*
X122087963Y-114121627D01*
X122036443Y-114291466D01*
X121952778Y-114447991D01*
X121923448Y-114483729D01*
X121840186Y-114585186D01*
X121738729Y-114668448D01*
X121702991Y-114697778D01*
X121546466Y-114781443D01*
X121376627Y-114832963D01*
X121310442Y-114839482D01*
X121244260Y-114846000D01*
X121155740Y-114846000D01*
X121089558Y-114839482D01*
X121023373Y-114832963D01*
X120853534Y-114781443D01*
X120697009Y-114697778D01*
X120661271Y-114668448D01*
X120559814Y-114585186D01*
X120476552Y-114483729D01*
X120447222Y-114447991D01*
X120363557Y-114291466D01*
X120312037Y-114121627D01*
X120294641Y-113945000D01*
X120312037Y-113768373D01*
X120363557Y-113598534D01*
X120447222Y-113442009D01*
X120476552Y-113406271D01*
X120559814Y-113304814D01*
X120661271Y-113221552D01*
X120697009Y-113192222D01*
X120853534Y-113108557D01*
X121023373Y-113057037D01*
X121089557Y-113050519D01*
X121155740Y-113044000D01*
X121244260Y-113044000D01*
X121310443Y-113050519D01*
X121310443Y-113050519D01*
G37*
G36*
X113516823Y-112161313D02*
G01*
X113677242Y-112209976D01*
X113798747Y-112274922D01*
X113825078Y-112288996D01*
X113954659Y-112395341D01*
X114061004Y-112524922D01*
X114061005Y-112524924D01*
X114140024Y-112672758D01*
X114188687Y-112833177D01*
X114205117Y-113000000D01*
X114188687Y-113166823D01*
X114140024Y-113327242D01*
X114078680Y-113442009D01*
X114061004Y-113475078D01*
X113954659Y-113604659D01*
X113825078Y-113711004D01*
X113825076Y-113711005D01*
X113677242Y-113790024D01*
X113516823Y-113838687D01*
X113391804Y-113851000D01*
X113308196Y-113851000D01*
X113183177Y-113838687D01*
X113022758Y-113790024D01*
X112874924Y-113711005D01*
X112874922Y-113711004D01*
X112745341Y-113604659D01*
X112638996Y-113475078D01*
X112621320Y-113442009D01*
X112559976Y-113327242D01*
X112511313Y-113166823D01*
X112494883Y-113000000D01*
X112511313Y-112833177D01*
X112559976Y-112672758D01*
X112638995Y-112524924D01*
X112638996Y-112524922D01*
X112745341Y-112395341D01*
X112874922Y-112288996D01*
X112901253Y-112274922D01*
X113022758Y-112209976D01*
X113183177Y-112161313D01*
X113308196Y-112149000D01*
X113391804Y-112149000D01*
X113516823Y-112161313D01*
X113516823Y-112161313D01*
G37*
G36*
X128756823Y-112161313D02*
G01*
X128917242Y-112209976D01*
X129038747Y-112274922D01*
X129065078Y-112288996D01*
X129194659Y-112395341D01*
X129301004Y-112524922D01*
X129301005Y-112524924D01*
X129380024Y-112672758D01*
X129428687Y-112833177D01*
X129445117Y-113000000D01*
X129428687Y-113166823D01*
X129380024Y-113327242D01*
X129318680Y-113442009D01*
X129301004Y-113475078D01*
X129194659Y-113604659D01*
X129065078Y-113711004D01*
X129065076Y-113711005D01*
X128917242Y-113790024D01*
X128756823Y-113838687D01*
X128631804Y-113851000D01*
X128548196Y-113851000D01*
X128423177Y-113838687D01*
X128262758Y-113790024D01*
X128114924Y-113711005D01*
X128114922Y-113711004D01*
X127985341Y-113604659D01*
X127878996Y-113475078D01*
X127861320Y-113442009D01*
X127799976Y-113327242D01*
X127751313Y-113166823D01*
X127734883Y-113000000D01*
X127751313Y-112833177D01*
X127799976Y-112672758D01*
X127878995Y-112524924D01*
X127878996Y-112524922D01*
X127985341Y-112395341D01*
X128114922Y-112288996D01*
X128141253Y-112274922D01*
X128262758Y-112209976D01*
X128423177Y-112161313D01*
X128548196Y-112149000D01*
X128631804Y-112149000D01*
X128756823Y-112161313D01*
X128756823Y-112161313D01*
G37*
G36*
X87506823Y-111911313D02*
G01*
X87667242Y-111959976D01*
X87762729Y-112011015D01*
X87815078Y-112038996D01*
X87944659Y-112145341D01*
X88051004Y-112274922D01*
X88051005Y-112274924D01*
X88130024Y-112422758D01*
X88178687Y-112583177D01*
X88195117Y-112750000D01*
X88178687Y-112916823D01*
X88130024Y-113077242D01*
X88113285Y-113108558D01*
X88051004Y-113225078D01*
X87944659Y-113354659D01*
X87815078Y-113461004D01*
X87815076Y-113461005D01*
X87667242Y-113540024D01*
X87506823Y-113588687D01*
X87381804Y-113601000D01*
X87298196Y-113601000D01*
X87173177Y-113588687D01*
X87012758Y-113540024D01*
X86864924Y-113461005D01*
X86864922Y-113461004D01*
X86735341Y-113354659D01*
X86628996Y-113225078D01*
X86566715Y-113108558D01*
X86549976Y-113077242D01*
X86501313Y-112916823D01*
X86484883Y-112750000D01*
X86501313Y-112583177D01*
X86549976Y-112422758D01*
X86628995Y-112274924D01*
X86628996Y-112274922D01*
X86735341Y-112145341D01*
X86864922Y-112038996D01*
X86917271Y-112011015D01*
X87012758Y-111959976D01*
X87173177Y-111911313D01*
X87298196Y-111899000D01*
X87381804Y-111899000D01*
X87506823Y-111911313D01*
X87506823Y-111911313D01*
G37*
G36*
X72266823Y-111911313D02*
G01*
X72427242Y-111959976D01*
X72522729Y-112011015D01*
X72575078Y-112038996D01*
X72704659Y-112145341D01*
X72811004Y-112274922D01*
X72811005Y-112274924D01*
X72890024Y-112422758D01*
X72938687Y-112583177D01*
X72955117Y-112750000D01*
X72938687Y-112916823D01*
X72890024Y-113077242D01*
X72873285Y-113108558D01*
X72811004Y-113225078D01*
X72704659Y-113354659D01*
X72575078Y-113461004D01*
X72575076Y-113461005D01*
X72427242Y-113540024D01*
X72266823Y-113588687D01*
X72141804Y-113601000D01*
X72058196Y-113601000D01*
X71933177Y-113588687D01*
X71772758Y-113540024D01*
X71624924Y-113461005D01*
X71624922Y-113461004D01*
X71495341Y-113354659D01*
X71388996Y-113225078D01*
X71326715Y-113108558D01*
X71309976Y-113077242D01*
X71261313Y-112916823D01*
X71244883Y-112750000D01*
X71261313Y-112583177D01*
X71309976Y-112422758D01*
X71388995Y-112274924D01*
X71388996Y-112274922D01*
X71495341Y-112145341D01*
X71624922Y-112038996D01*
X71677271Y-112011015D01*
X71772758Y-111959976D01*
X71933177Y-111911313D01*
X72058196Y-111899000D01*
X72141804Y-111899000D01*
X72266823Y-111911313D01*
X72266823Y-111911313D01*
G37*
G36*
X121310442Y-110510518D02*
G01*
X121376627Y-110517037D01*
X121546466Y-110568557D01*
X121702991Y-110652222D01*
X121730838Y-110675076D01*
X121840186Y-110764814D01*
X121919135Y-110861015D01*
X121952778Y-110902009D01*
X121980647Y-110954147D01*
X122025835Y-111038687D01*
X122036443Y-111058534D01*
X122087963Y-111228373D01*
X122105359Y-111405000D01*
X122087963Y-111581627D01*
X122036443Y-111751466D01*
X121952778Y-111907991D01*
X121923448Y-111943729D01*
X121840186Y-112045186D01*
X121738729Y-112128448D01*
X121702991Y-112157778D01*
X121546466Y-112241443D01*
X121376627Y-112292963D01*
X121310443Y-112299481D01*
X121244260Y-112306000D01*
X121155740Y-112306000D01*
X121089557Y-112299481D01*
X121023373Y-112292963D01*
X120853534Y-112241443D01*
X120697009Y-112157778D01*
X120661271Y-112128448D01*
X120559814Y-112045186D01*
X120476552Y-111943729D01*
X120447222Y-111907991D01*
X120363557Y-111751466D01*
X120312037Y-111581627D01*
X120294641Y-111405000D01*
X120312037Y-111228373D01*
X120363557Y-111058534D01*
X120374166Y-111038687D01*
X120419353Y-110954147D01*
X120447222Y-110902009D01*
X120480865Y-110861015D01*
X120559814Y-110764814D01*
X120669162Y-110675076D01*
X120697009Y-110652222D01*
X120853534Y-110568557D01*
X121023373Y-110517037D01*
X121089558Y-110510518D01*
X121155740Y-110504000D01*
X121244260Y-110504000D01*
X121310442Y-110510518D01*
X121310442Y-110510518D01*
G37*
G36*
X142866823Y-110511313D02*
G01*
X143027242Y-110559976D01*
X143159906Y-110630886D01*
X143175078Y-110638996D01*
X143304659Y-110745341D01*
X143411004Y-110874922D01*
X143411005Y-110874924D01*
X143490024Y-111022758D01*
X143538687Y-111183177D01*
X143555117Y-111350000D01*
X143538687Y-111516823D01*
X143490024Y-111677242D01*
X143449477Y-111753100D01*
X143411004Y-111825078D01*
X143304659Y-111954659D01*
X143175078Y-112061004D01*
X143175076Y-112061005D01*
X143027242Y-112140024D01*
X142866823Y-112188687D01*
X142741804Y-112201000D01*
X142658196Y-112201000D01*
X142533177Y-112188687D01*
X142372758Y-112140024D01*
X142224924Y-112061005D01*
X142224922Y-112061004D01*
X142095341Y-111954659D01*
X141988996Y-111825078D01*
X141950523Y-111753100D01*
X141909976Y-111677242D01*
X141861313Y-111516823D01*
X141844883Y-111350000D01*
X141861313Y-111183177D01*
X141909976Y-111022758D01*
X141988995Y-110874924D01*
X141988996Y-110874922D01*
X142095341Y-110745341D01*
X142224922Y-110638996D01*
X142240094Y-110630886D01*
X142372758Y-110559976D01*
X142533177Y-110511313D01*
X142658196Y-110499000D01*
X142741804Y-110499000D01*
X142866823Y-110511313D01*
X142866823Y-110511313D01*
G37*
G36*
X132788228Y-110531703D02*
G01*
X132943100Y-110595853D01*
X133082481Y-110688985D01*
X133201015Y-110807519D01*
X133294147Y-110946900D01*
X133358297Y-111101772D01*
X133391000Y-111266184D01*
X133391000Y-111433816D01*
X133358297Y-111598228D01*
X133294147Y-111753100D01*
X133201015Y-111892481D01*
X133082481Y-112011015D01*
X132943100Y-112104147D01*
X132788228Y-112168297D01*
X132623816Y-112201000D01*
X132456184Y-112201000D01*
X132291772Y-112168297D01*
X132136900Y-112104147D01*
X131997519Y-112011015D01*
X131878985Y-111892481D01*
X131785853Y-111753100D01*
X131721703Y-111598228D01*
X131689000Y-111433816D01*
X131689000Y-111266184D01*
X131721703Y-111101772D01*
X131785853Y-110946900D01*
X131878985Y-110807519D01*
X131997519Y-110688985D01*
X132136900Y-110595853D01*
X132291772Y-110531703D01*
X132456184Y-110499000D01*
X132623816Y-110499000D01*
X132788228Y-110531703D01*
X132788228Y-110531703D01*
G37*
G36*
X128756823Y-109621313D02*
G01*
X128917242Y-109669976D01*
X129020042Y-109724924D01*
X129065078Y-109748996D01*
X129194659Y-109855341D01*
X129301004Y-109984922D01*
X129301005Y-109984924D01*
X129380024Y-110132758D01*
X129428687Y-110293177D01*
X129445117Y-110460000D01*
X129428687Y-110626823D01*
X129380024Y-110787242D01*
X129369185Y-110807520D01*
X129301004Y-110935078D01*
X129194659Y-111064659D01*
X129065078Y-111171004D01*
X129065076Y-111171005D01*
X128917242Y-111250024D01*
X128756823Y-111298687D01*
X128631804Y-111311000D01*
X128548196Y-111311000D01*
X128423177Y-111298687D01*
X128262758Y-111250024D01*
X128114924Y-111171005D01*
X128114922Y-111171004D01*
X127985341Y-111064659D01*
X127878996Y-110935078D01*
X127810815Y-110807520D01*
X127799976Y-110787242D01*
X127751313Y-110626823D01*
X127734883Y-110460000D01*
X127751313Y-110293177D01*
X127799976Y-110132758D01*
X127878995Y-109984924D01*
X127878996Y-109984922D01*
X127985341Y-109855341D01*
X128114922Y-109748996D01*
X128159958Y-109724924D01*
X128262758Y-109669976D01*
X128423177Y-109621313D01*
X128548196Y-109609000D01*
X128631804Y-109609000D01*
X128756823Y-109621313D01*
X128756823Y-109621313D01*
G37*
G36*
X113516823Y-109621313D02*
G01*
X113677242Y-109669976D01*
X113780042Y-109724924D01*
X113825078Y-109748996D01*
X113954659Y-109855341D01*
X114061004Y-109984922D01*
X114061005Y-109984924D01*
X114140024Y-110132758D01*
X114188687Y-110293177D01*
X114205117Y-110460000D01*
X114188687Y-110626823D01*
X114140024Y-110787242D01*
X114129185Y-110807520D01*
X114061004Y-110935078D01*
X113954659Y-111064659D01*
X113825078Y-111171004D01*
X113825076Y-111171005D01*
X113677242Y-111250024D01*
X113516823Y-111298687D01*
X113391804Y-111311000D01*
X113308196Y-111311000D01*
X113183177Y-111298687D01*
X113022758Y-111250024D01*
X112874924Y-111171005D01*
X112874922Y-111171004D01*
X112745341Y-111064659D01*
X112638996Y-110935078D01*
X112570815Y-110807520D01*
X112559976Y-110787242D01*
X112511313Y-110626823D01*
X112494883Y-110460000D01*
X112511313Y-110293177D01*
X112559976Y-110132758D01*
X112638995Y-109984924D01*
X112638996Y-109984922D01*
X112745341Y-109855341D01*
X112874922Y-109748996D01*
X112919958Y-109724924D01*
X113022758Y-109669976D01*
X113183177Y-109621313D01*
X113308196Y-109609000D01*
X113391804Y-109609000D01*
X113516823Y-109621313D01*
X113516823Y-109621313D01*
G37*
G36*
X87506823Y-109371313D02*
G01*
X87634273Y-109409975D01*
X87651172Y-109415101D01*
X87667242Y-109419976D01*
X87715654Y-109445853D01*
X87815078Y-109498996D01*
X87944659Y-109605341D01*
X88051004Y-109734922D01*
X88051005Y-109734924D01*
X88130024Y-109882758D01*
X88178687Y-110043177D01*
X88195117Y-110210000D01*
X88178687Y-110376823D01*
X88178686Y-110376825D01*
X88133058Y-110527242D01*
X88130024Y-110537242D01*
X88094822Y-110603100D01*
X88051004Y-110685078D01*
X87944659Y-110814659D01*
X87815078Y-110921004D01*
X87815076Y-110921005D01*
X87667242Y-111000024D01*
X87506823Y-111048687D01*
X87381804Y-111061000D01*
X87298196Y-111061000D01*
X87173177Y-111048687D01*
X87012758Y-111000024D01*
X86864924Y-110921005D01*
X86864922Y-110921004D01*
X86735341Y-110814659D01*
X86628996Y-110685078D01*
X86585178Y-110603100D01*
X86549976Y-110537242D01*
X86546943Y-110527242D01*
X86501314Y-110376825D01*
X86501313Y-110376823D01*
X86484883Y-110210000D01*
X86501313Y-110043177D01*
X86549976Y-109882758D01*
X86628995Y-109734924D01*
X86628996Y-109734922D01*
X86735341Y-109605341D01*
X86864922Y-109498996D01*
X86964346Y-109445853D01*
X87012758Y-109419976D01*
X87028829Y-109415101D01*
X87045727Y-109409975D01*
X87173177Y-109371313D01*
X87298196Y-109359000D01*
X87381804Y-109359000D01*
X87506823Y-109371313D01*
X87506823Y-109371313D01*
G37*
G36*
X72266823Y-109371313D02*
G01*
X72394273Y-109409975D01*
X72411172Y-109415101D01*
X72427242Y-109419976D01*
X72475654Y-109445853D01*
X72575078Y-109498996D01*
X72704659Y-109605341D01*
X72811004Y-109734922D01*
X72811005Y-109734924D01*
X72890024Y-109882758D01*
X72938687Y-110043177D01*
X72955117Y-110210000D01*
X72938687Y-110376823D01*
X72938686Y-110376825D01*
X72893058Y-110527242D01*
X72890024Y-110537242D01*
X72854822Y-110603100D01*
X72811004Y-110685078D01*
X72704659Y-110814659D01*
X72575078Y-110921004D01*
X72575076Y-110921005D01*
X72427242Y-111000024D01*
X72266823Y-111048687D01*
X72141804Y-111061000D01*
X72058196Y-111061000D01*
X71933177Y-111048687D01*
X71772758Y-111000024D01*
X71624924Y-110921005D01*
X71624922Y-110921004D01*
X71495341Y-110814659D01*
X71388996Y-110685078D01*
X71345178Y-110603100D01*
X71309976Y-110537242D01*
X71306943Y-110527242D01*
X71261314Y-110376825D01*
X71261313Y-110376823D01*
X71244883Y-110210000D01*
X71261313Y-110043177D01*
X71309976Y-109882758D01*
X71388995Y-109734924D01*
X71388996Y-109734922D01*
X71495341Y-109605341D01*
X71624922Y-109498996D01*
X71724346Y-109445853D01*
X71772758Y-109419976D01*
X71788829Y-109415101D01*
X71805727Y-109409975D01*
X71933177Y-109371313D01*
X72058196Y-109359000D01*
X72141804Y-109359000D01*
X72266823Y-109371313D01*
X72266823Y-109371313D01*
G37*
G36*
X58748228Y-109381703D02*
G01*
X58903100Y-109445853D01*
X59042481Y-109538985D01*
X59161015Y-109657519D01*
X59254147Y-109796900D01*
X59318297Y-109951772D01*
X59351000Y-110116184D01*
X59351000Y-110283816D01*
X59318297Y-110448228D01*
X59254147Y-110603100D01*
X59161015Y-110742481D01*
X59042481Y-110861015D01*
X58903100Y-110954147D01*
X58748228Y-111018297D01*
X58583816Y-111051000D01*
X58416184Y-111051000D01*
X58251772Y-111018297D01*
X58096900Y-110954147D01*
X57957519Y-110861015D01*
X57838985Y-110742481D01*
X57745853Y-110603100D01*
X57681703Y-110448228D01*
X57649000Y-110283816D01*
X57649000Y-110116184D01*
X57681703Y-109951772D01*
X57745853Y-109796900D01*
X57838985Y-109657519D01*
X57957519Y-109538985D01*
X58096900Y-109445853D01*
X58251772Y-109381703D01*
X58416184Y-109349000D01*
X58583816Y-109349000D01*
X58748228Y-109381703D01*
X58748228Y-109381703D01*
G37*
G36*
X68826823Y-109361313D02*
G01*
X68987242Y-109409976D01*
X69054361Y-109445852D01*
X69135078Y-109488996D01*
X69264659Y-109595341D01*
X69371004Y-109724922D01*
X69371005Y-109724924D01*
X69450024Y-109872758D01*
X69450025Y-109872761D01*
X69453058Y-109882761D01*
X69498687Y-110033177D01*
X69515117Y-110200000D01*
X69498687Y-110366823D01*
X69450024Y-110527242D01*
X69409477Y-110603100D01*
X69371004Y-110675078D01*
X69264659Y-110804659D01*
X69135078Y-110911004D01*
X69135076Y-110911005D01*
X68987242Y-110990024D01*
X68826823Y-111038687D01*
X68701804Y-111051000D01*
X68618196Y-111051000D01*
X68493177Y-111038687D01*
X68332758Y-110990024D01*
X68184924Y-110911005D01*
X68184922Y-110911004D01*
X68055341Y-110804659D01*
X67948996Y-110675078D01*
X67910523Y-110603100D01*
X67869976Y-110527242D01*
X67821313Y-110366823D01*
X67804883Y-110200000D01*
X67821313Y-110033177D01*
X67866942Y-109882761D01*
X67869975Y-109872761D01*
X67869976Y-109872758D01*
X67948995Y-109724924D01*
X67948996Y-109724922D01*
X68055341Y-109595341D01*
X68184922Y-109488996D01*
X68265639Y-109445852D01*
X68332758Y-109409976D01*
X68493177Y-109361313D01*
X68618196Y-109349000D01*
X68701804Y-109349000D01*
X68826823Y-109361313D01*
X68826823Y-109361313D01*
G37*
G36*
X96577142Y-108248242D02*
G01*
X96725101Y-108309529D01*
X96858255Y-108398499D01*
X96971501Y-108511745D01*
X97060471Y-108644899D01*
X97121758Y-108792858D01*
X97153000Y-108949925D01*
X97153000Y-109110075D01*
X97121758Y-109267142D01*
X97060471Y-109415101D01*
X96971501Y-109548255D01*
X96858255Y-109661501D01*
X96725101Y-109750471D01*
X96577142Y-109811758D01*
X96420075Y-109843000D01*
X96259925Y-109843000D01*
X96102858Y-109811758D01*
X95954899Y-109750471D01*
X95821745Y-109661501D01*
X95708499Y-109548255D01*
X95619529Y-109415101D01*
X95558242Y-109267142D01*
X95527000Y-109110075D01*
X95527000Y-108949925D01*
X95558242Y-108792858D01*
X95619529Y-108644899D01*
X95708499Y-108511745D01*
X95821745Y-108398499D01*
X95954899Y-108309529D01*
X96102858Y-108248242D01*
X96259925Y-108217000D01*
X96420075Y-108217000D01*
X96577142Y-108248242D01*
X96577142Y-108248242D01*
G37*
G36*
X99117142Y-108248242D02*
G01*
X99265101Y-108309529D01*
X99398255Y-108398499D01*
X99511501Y-108511745D01*
X99600471Y-108644899D01*
X99661758Y-108792858D01*
X99693000Y-108949925D01*
X99693000Y-109110075D01*
X99661758Y-109267142D01*
X99600471Y-109415101D01*
X99511501Y-109548255D01*
X99398255Y-109661501D01*
X99265101Y-109750471D01*
X99117142Y-109811758D01*
X98960075Y-109843000D01*
X98799925Y-109843000D01*
X98642858Y-109811758D01*
X98494899Y-109750471D01*
X98361745Y-109661501D01*
X98248499Y-109548255D01*
X98159529Y-109415101D01*
X98098242Y-109267142D01*
X98067000Y-109110075D01*
X98067000Y-108949925D01*
X98098242Y-108792858D01*
X98159529Y-108644899D01*
X98248499Y-108511745D01*
X98361745Y-108398499D01*
X98494899Y-108309529D01*
X98642858Y-108248242D01*
X98799925Y-108217000D01*
X98960075Y-108217000D01*
X99117142Y-108248242D01*
X99117142Y-108248242D01*
G37*
G36*
X101657142Y-108248242D02*
G01*
X101805101Y-108309529D01*
X101938255Y-108398499D01*
X102051501Y-108511745D01*
X102140471Y-108644899D01*
X102201758Y-108792858D01*
X102233000Y-108949925D01*
X102233000Y-109110075D01*
X102201758Y-109267142D01*
X102140471Y-109415101D01*
X102051501Y-109548255D01*
X101938255Y-109661501D01*
X101805101Y-109750471D01*
X101657142Y-109811758D01*
X101500075Y-109843000D01*
X101339925Y-109843000D01*
X101182858Y-109811758D01*
X101034899Y-109750471D01*
X100901745Y-109661501D01*
X100788499Y-109548255D01*
X100699529Y-109415101D01*
X100638242Y-109267142D01*
X100607000Y-109110075D01*
X100607000Y-108949925D01*
X100638242Y-108792858D01*
X100699529Y-108644899D01*
X100788499Y-108511745D01*
X100901745Y-108398499D01*
X101034899Y-108309529D01*
X101182858Y-108248242D01*
X101339925Y-108217000D01*
X101500075Y-108217000D01*
X101657142Y-108248242D01*
X101657142Y-108248242D01*
G37*
G36*
X104197142Y-108248242D02*
G01*
X104345101Y-108309529D01*
X104478255Y-108398499D01*
X104591501Y-108511745D01*
X104680471Y-108644899D01*
X104741758Y-108792858D01*
X104773000Y-108949925D01*
X104773000Y-109110075D01*
X104741758Y-109267142D01*
X104680471Y-109415101D01*
X104591501Y-109548255D01*
X104478255Y-109661501D01*
X104345101Y-109750471D01*
X104197142Y-109811758D01*
X104040075Y-109843000D01*
X103879925Y-109843000D01*
X103722858Y-109811758D01*
X103574899Y-109750471D01*
X103441745Y-109661501D01*
X103328499Y-109548255D01*
X103239529Y-109415101D01*
X103178242Y-109267142D01*
X103147000Y-109110075D01*
X103147000Y-108949925D01*
X103178242Y-108792858D01*
X103239529Y-108644899D01*
X103328499Y-108511745D01*
X103441745Y-108398499D01*
X103574899Y-108309529D01*
X103722858Y-108248242D01*
X103879925Y-108217000D01*
X104040075Y-108217000D01*
X104197142Y-108248242D01*
X104197142Y-108248242D01*
G37*
G36*
X113516823Y-107081313D02*
G01*
X113677242Y-107129976D01*
X113785728Y-107187963D01*
X113825078Y-107208996D01*
X113954659Y-107315341D01*
X114061004Y-107444922D01*
X114061005Y-107444924D01*
X114140024Y-107592758D01*
X114188687Y-107753177D01*
X114205117Y-107920000D01*
X114188687Y-108086823D01*
X114140024Y-108247242D01*
X114125369Y-108274659D01*
X114061004Y-108395078D01*
X113954659Y-108524659D01*
X113825078Y-108631004D01*
X113825076Y-108631005D01*
X113677242Y-108710024D01*
X113516823Y-108758687D01*
X113391804Y-108771000D01*
X113308196Y-108771000D01*
X113183177Y-108758687D01*
X113022758Y-108710024D01*
X112874924Y-108631005D01*
X112874922Y-108631004D01*
X112745341Y-108524659D01*
X112638996Y-108395078D01*
X112574631Y-108274659D01*
X112559976Y-108247242D01*
X112511313Y-108086823D01*
X112494883Y-107920000D01*
X112511313Y-107753177D01*
X112559976Y-107592758D01*
X112638995Y-107444924D01*
X112638996Y-107444922D01*
X112745341Y-107315341D01*
X112874922Y-107208996D01*
X112914272Y-107187963D01*
X113022758Y-107129976D01*
X113183177Y-107081313D01*
X113308196Y-107069000D01*
X113391804Y-107069000D01*
X113516823Y-107081313D01*
X113516823Y-107081313D01*
G37*
G36*
X128756823Y-107081313D02*
G01*
X128917242Y-107129976D01*
X129025728Y-107187963D01*
X129065078Y-107208996D01*
X129194659Y-107315341D01*
X129301004Y-107444922D01*
X129301005Y-107444924D01*
X129380024Y-107592758D01*
X129428687Y-107753177D01*
X129445117Y-107920000D01*
X129428687Y-108086823D01*
X129380024Y-108247242D01*
X129365369Y-108274659D01*
X129301004Y-108395078D01*
X129194659Y-108524659D01*
X129065078Y-108631004D01*
X129065076Y-108631005D01*
X128917242Y-108710024D01*
X128756823Y-108758687D01*
X128631804Y-108771000D01*
X128548196Y-108771000D01*
X128423177Y-108758687D01*
X128262758Y-108710024D01*
X128114924Y-108631005D01*
X128114922Y-108631004D01*
X127985341Y-108524659D01*
X127878996Y-108395078D01*
X127814631Y-108274659D01*
X127799976Y-108247242D01*
X127751313Y-108086823D01*
X127734883Y-107920000D01*
X127751313Y-107753177D01*
X127799976Y-107592758D01*
X127878995Y-107444924D01*
X127878996Y-107444922D01*
X127985341Y-107315341D01*
X128114922Y-107208996D01*
X128154272Y-107187963D01*
X128262758Y-107129976D01*
X128423177Y-107081313D01*
X128548196Y-107069000D01*
X128631804Y-107069000D01*
X128756823Y-107081313D01*
X128756823Y-107081313D01*
G37*
G36*
X87506823Y-106831313D02*
G01*
X87667242Y-106879976D01*
X87779885Y-106940185D01*
X87815078Y-106958996D01*
X87944659Y-107065341D01*
X88051004Y-107194922D01*
X88051005Y-107194924D01*
X88130024Y-107342758D01*
X88178687Y-107503177D01*
X88195117Y-107670000D01*
X88178687Y-107836823D01*
X88130024Y-107997242D01*
X88082142Y-108086823D01*
X88051004Y-108145078D01*
X87944659Y-108274659D01*
X87815078Y-108381004D01*
X87815076Y-108381005D01*
X87667242Y-108460024D01*
X87506823Y-108508687D01*
X87381804Y-108521000D01*
X87298196Y-108521000D01*
X87173177Y-108508687D01*
X87012758Y-108460024D01*
X86864924Y-108381005D01*
X86864922Y-108381004D01*
X86735341Y-108274659D01*
X86628996Y-108145078D01*
X86597858Y-108086823D01*
X86549976Y-107997242D01*
X86501313Y-107836823D01*
X86484883Y-107670000D01*
X86501313Y-107503177D01*
X86549976Y-107342758D01*
X86628995Y-107194924D01*
X86628996Y-107194922D01*
X86735341Y-107065341D01*
X86864922Y-106958996D01*
X86900115Y-106940185D01*
X87012758Y-106879976D01*
X87173177Y-106831313D01*
X87298196Y-106819000D01*
X87381804Y-106819000D01*
X87506823Y-106831313D01*
X87506823Y-106831313D01*
G37*
G36*
X72266823Y-106831313D02*
G01*
X72427242Y-106879976D01*
X72539885Y-106940185D01*
X72575078Y-106958996D01*
X72704659Y-107065341D01*
X72811004Y-107194922D01*
X72811005Y-107194924D01*
X72890024Y-107342758D01*
X72938687Y-107503177D01*
X72955117Y-107670000D01*
X72938687Y-107836823D01*
X72890024Y-107997242D01*
X72842142Y-108086823D01*
X72811004Y-108145078D01*
X72704659Y-108274659D01*
X72575078Y-108381004D01*
X72575076Y-108381005D01*
X72427242Y-108460024D01*
X72266823Y-108508687D01*
X72141804Y-108521000D01*
X72058196Y-108521000D01*
X71933177Y-108508687D01*
X71772758Y-108460024D01*
X71624924Y-108381005D01*
X71624922Y-108381004D01*
X71495341Y-108274659D01*
X71388996Y-108145078D01*
X71357858Y-108086823D01*
X71309976Y-107997242D01*
X71261313Y-107836823D01*
X71244883Y-107670000D01*
X71261313Y-107503177D01*
X71309976Y-107342758D01*
X71388995Y-107194924D01*
X71388996Y-107194922D01*
X71495341Y-107065341D01*
X71624922Y-106958996D01*
X71660115Y-106940185D01*
X71772758Y-106879976D01*
X71933177Y-106831313D01*
X72058196Y-106819000D01*
X72141804Y-106819000D01*
X72266823Y-106831313D01*
X72266823Y-106831313D01*
G37*
G36*
X121310443Y-105405519D02*
G01*
X121376627Y-105412037D01*
X121546466Y-105463557D01*
X121702991Y-105547222D01*
X121738729Y-105576552D01*
X121840186Y-105659814D01*
X121918454Y-105755185D01*
X121952778Y-105797009D01*
X122036443Y-105953534D01*
X122087963Y-106123373D01*
X122105359Y-106300000D01*
X122087963Y-106476627D01*
X122036443Y-106646466D01*
X121952778Y-106802991D01*
X121929534Y-106831314D01*
X121840186Y-106940186D01*
X121738729Y-107023448D01*
X121702991Y-107052778D01*
X121546466Y-107136443D01*
X121376627Y-107187963D01*
X121310443Y-107194481D01*
X121244260Y-107201000D01*
X121155740Y-107201000D01*
X121089557Y-107194481D01*
X121023373Y-107187963D01*
X120853534Y-107136443D01*
X120697009Y-107052778D01*
X120661271Y-107023448D01*
X120559814Y-106940186D01*
X120470466Y-106831314D01*
X120447222Y-106802991D01*
X120363557Y-106646466D01*
X120312037Y-106476627D01*
X120294641Y-106300000D01*
X120312037Y-106123373D01*
X120363557Y-105953534D01*
X120447222Y-105797009D01*
X120481546Y-105755185D01*
X120559814Y-105659814D01*
X120661271Y-105576552D01*
X120697009Y-105547222D01*
X120853534Y-105463557D01*
X121023373Y-105412037D01*
X121089557Y-105405519D01*
X121155740Y-105399000D01*
X121244260Y-105399000D01*
X121310443Y-105405519D01*
X121310443Y-105405519D01*
G37*
G36*
X128756823Y-104541313D02*
G01*
X128917242Y-104589976D01*
X129025728Y-104647963D01*
X129065078Y-104668996D01*
X129194659Y-104775341D01*
X129301004Y-104904922D01*
X129301005Y-104904924D01*
X129380024Y-105052758D01*
X129428687Y-105213177D01*
X129445117Y-105380000D01*
X129428687Y-105546823D01*
X129380024Y-105707242D01*
X129365369Y-105734659D01*
X129301004Y-105855078D01*
X129194659Y-105984659D01*
X129065078Y-106091004D01*
X129065076Y-106091005D01*
X128917242Y-106170024D01*
X128756823Y-106218687D01*
X128631804Y-106231000D01*
X128548196Y-106231000D01*
X128423177Y-106218687D01*
X128262758Y-106170024D01*
X128114924Y-106091005D01*
X128114922Y-106091004D01*
X127985341Y-105984659D01*
X127878996Y-105855078D01*
X127814631Y-105734659D01*
X127799976Y-105707242D01*
X127751313Y-105546823D01*
X127734883Y-105380000D01*
X127751313Y-105213177D01*
X127799976Y-105052758D01*
X127878995Y-104904924D01*
X127878996Y-104904922D01*
X127985341Y-104775341D01*
X128114922Y-104668996D01*
X128154272Y-104647963D01*
X128262758Y-104589976D01*
X128423177Y-104541313D01*
X128548196Y-104529000D01*
X128631804Y-104529000D01*
X128756823Y-104541313D01*
X128756823Y-104541313D01*
G37*
G36*
X113516823Y-104541313D02*
G01*
X113677242Y-104589976D01*
X113785728Y-104647963D01*
X113825078Y-104668996D01*
X113954659Y-104775341D01*
X114061004Y-104904922D01*
X114061005Y-104904924D01*
X114140024Y-105052758D01*
X114188687Y-105213177D01*
X114205117Y-105380000D01*
X114188687Y-105546823D01*
X114140024Y-105707242D01*
X114125369Y-105734659D01*
X114061004Y-105855078D01*
X113954659Y-105984659D01*
X113825078Y-106091004D01*
X113825076Y-106091005D01*
X113677242Y-106170024D01*
X113516823Y-106218687D01*
X113391804Y-106231000D01*
X113308196Y-106231000D01*
X113183177Y-106218687D01*
X113022758Y-106170024D01*
X112874924Y-106091005D01*
X112874922Y-106091004D01*
X112745341Y-105984659D01*
X112638996Y-105855078D01*
X112574631Y-105734659D01*
X112559976Y-105707242D01*
X112511313Y-105546823D01*
X112494883Y-105380000D01*
X112511313Y-105213177D01*
X112559976Y-105052758D01*
X112638995Y-104904924D01*
X112638996Y-104904922D01*
X112745341Y-104775341D01*
X112874922Y-104668996D01*
X112914272Y-104647963D01*
X113022758Y-104589976D01*
X113183177Y-104541313D01*
X113308196Y-104529000D01*
X113391804Y-104529000D01*
X113516823Y-104541313D01*
X113516823Y-104541313D01*
G37*
G36*
X80610442Y-104220518D02*
G01*
X80676627Y-104227037D01*
X80846466Y-104278557D01*
X80846468Y-104278558D01*
X80924729Y-104320390D01*
X81002991Y-104362222D01*
X81038729Y-104391552D01*
X81140186Y-104474814D01*
X81194760Y-104541314D01*
X81252778Y-104612009D01*
X81336443Y-104768534D01*
X81387963Y-104938373D01*
X81405359Y-105115000D01*
X81387963Y-105291627D01*
X81336443Y-105461466D01*
X81252778Y-105617991D01*
X81223448Y-105653729D01*
X81140186Y-105755186D01*
X81038729Y-105838448D01*
X81002991Y-105867778D01*
X81002989Y-105867779D01*
X80905245Y-105920025D01*
X80846466Y-105951443D01*
X80676627Y-106002963D01*
X80610442Y-106009482D01*
X80544260Y-106016000D01*
X80455740Y-106016000D01*
X80389558Y-106009482D01*
X80323373Y-106002963D01*
X80153534Y-105951443D01*
X80094756Y-105920025D01*
X79997011Y-105867779D01*
X79997009Y-105867778D01*
X79961271Y-105838448D01*
X79859814Y-105755186D01*
X79776552Y-105653729D01*
X79747222Y-105617991D01*
X79663557Y-105461466D01*
X79612037Y-105291627D01*
X79594641Y-105115000D01*
X79612037Y-104938373D01*
X79663557Y-104768534D01*
X79747222Y-104612009D01*
X79805240Y-104541314D01*
X79859814Y-104474814D01*
X79961271Y-104391552D01*
X79997009Y-104362222D01*
X80075271Y-104320390D01*
X80153532Y-104278558D01*
X80153534Y-104278557D01*
X80323373Y-104227037D01*
X80389557Y-104220519D01*
X80455740Y-104214000D01*
X80544260Y-104214000D01*
X80610442Y-104220518D01*
X80610442Y-104220518D01*
G37*
G36*
X87506823Y-104291313D02*
G01*
X87667242Y-104339976D01*
X87708859Y-104362221D01*
X87815078Y-104418996D01*
X87944659Y-104525341D01*
X88051004Y-104654922D01*
X88051005Y-104654924D01*
X88130024Y-104802758D01*
X88178687Y-104963177D01*
X88195117Y-105130000D01*
X88178687Y-105296823D01*
X88130024Y-105457242D01*
X88059114Y-105589906D01*
X88051004Y-105605078D01*
X87944659Y-105734659D01*
X87815078Y-105841004D01*
X87815076Y-105841005D01*
X87667242Y-105920024D01*
X87506823Y-105968687D01*
X87381804Y-105981000D01*
X87298196Y-105981000D01*
X87173177Y-105968687D01*
X87012758Y-105920024D01*
X86864924Y-105841005D01*
X86864922Y-105841004D01*
X86735341Y-105734659D01*
X86628996Y-105605078D01*
X86620886Y-105589906D01*
X86549976Y-105457242D01*
X86501313Y-105296823D01*
X86484883Y-105130000D01*
X86501313Y-104963177D01*
X86549976Y-104802758D01*
X86628995Y-104654924D01*
X86628996Y-104654922D01*
X86735341Y-104525341D01*
X86864922Y-104418996D01*
X86971141Y-104362221D01*
X87012758Y-104339976D01*
X87173177Y-104291313D01*
X87298196Y-104279000D01*
X87381804Y-104279000D01*
X87506823Y-104291313D01*
X87506823Y-104291313D01*
G37*
G36*
X72266823Y-104291313D02*
G01*
X72427242Y-104339976D01*
X72468859Y-104362221D01*
X72575078Y-104418996D01*
X72704659Y-104525341D01*
X72811004Y-104654922D01*
X72811005Y-104654924D01*
X72890024Y-104802758D01*
X72938687Y-104963177D01*
X72955117Y-105130000D01*
X72938687Y-105296823D01*
X72890024Y-105457242D01*
X72819114Y-105589906D01*
X72811004Y-105605078D01*
X72704659Y-105734659D01*
X72575078Y-105841004D01*
X72575076Y-105841005D01*
X72427242Y-105920024D01*
X72266823Y-105968687D01*
X72141804Y-105981000D01*
X72058196Y-105981000D01*
X71933177Y-105968687D01*
X71772758Y-105920024D01*
X71624924Y-105841005D01*
X71624922Y-105841004D01*
X71495341Y-105734659D01*
X71388996Y-105605078D01*
X71380886Y-105589906D01*
X71309976Y-105457242D01*
X71261313Y-105296823D01*
X71244883Y-105130000D01*
X71261313Y-104963177D01*
X71309976Y-104802758D01*
X71388995Y-104654924D01*
X71388996Y-104654922D01*
X71495341Y-104525341D01*
X71624922Y-104418996D01*
X71731141Y-104362221D01*
X71772758Y-104339976D01*
X71933177Y-104291313D01*
X72058196Y-104279000D01*
X72141804Y-104279000D01*
X72266823Y-104291313D01*
X72266823Y-104291313D01*
G37*
G36*
X121310442Y-102865518D02*
G01*
X121376627Y-102872037D01*
X121546466Y-102923557D01*
X121702991Y-103007222D01*
X121738729Y-103036552D01*
X121840186Y-103119814D01*
X121923448Y-103221271D01*
X121952778Y-103257009D01*
X122036443Y-103413534D01*
X122087963Y-103583373D01*
X122105359Y-103760000D01*
X122087963Y-103936627D01*
X122036443Y-104106466D01*
X121952778Y-104262991D01*
X121929534Y-104291314D01*
X121840186Y-104400186D01*
X121749250Y-104474814D01*
X121702991Y-104512778D01*
X121546466Y-104596443D01*
X121376627Y-104647963D01*
X121310443Y-104654481D01*
X121244260Y-104661000D01*
X121155740Y-104661000D01*
X121089558Y-104654482D01*
X121023373Y-104647963D01*
X120853534Y-104596443D01*
X120697009Y-104512778D01*
X120650750Y-104474814D01*
X120559814Y-104400186D01*
X120470466Y-104291314D01*
X120447222Y-104262991D01*
X120363557Y-104106466D01*
X120312037Y-103936627D01*
X120294641Y-103760000D01*
X120312037Y-103583373D01*
X120363557Y-103413534D01*
X120447222Y-103257009D01*
X120476552Y-103221271D01*
X120559814Y-103119814D01*
X120661271Y-103036552D01*
X120697009Y-103007222D01*
X120853534Y-102923557D01*
X121023373Y-102872037D01*
X121089557Y-102865519D01*
X121155740Y-102859000D01*
X121244260Y-102859000D01*
X121310442Y-102865518D01*
X121310442Y-102865518D01*
G37*
G36*
X136685443Y-102345519D02*
G01*
X136751627Y-102352037D01*
X136921466Y-102403557D01*
X137077991Y-102487222D01*
X137109106Y-102512758D01*
X137215186Y-102599814D01*
X137298448Y-102701271D01*
X137327778Y-102737009D01*
X137411443Y-102893534D01*
X137462963Y-103063373D01*
X137480359Y-103240000D01*
X137462963Y-103416627D01*
X137411443Y-103586466D01*
X137327778Y-103742991D01*
X137313819Y-103760000D01*
X137215186Y-103880186D01*
X137146411Y-103936627D01*
X137077991Y-103992778D01*
X136921466Y-104076443D01*
X136751627Y-104127963D01*
X136685442Y-104134482D01*
X136619260Y-104141000D01*
X136530740Y-104141000D01*
X136464557Y-104134481D01*
X136398373Y-104127963D01*
X136228534Y-104076443D01*
X136072009Y-103992778D01*
X136003589Y-103936627D01*
X135934814Y-103880186D01*
X135836181Y-103760000D01*
X135822222Y-103742991D01*
X135738557Y-103586466D01*
X135687037Y-103416627D01*
X135669641Y-103240000D01*
X135687037Y-103063373D01*
X135738557Y-102893534D01*
X135822222Y-102737009D01*
X135851552Y-102701271D01*
X135934814Y-102599814D01*
X136040894Y-102512758D01*
X136072009Y-102487222D01*
X136228534Y-102403557D01*
X136398373Y-102352037D01*
X136464558Y-102345518D01*
X136530740Y-102339000D01*
X136619260Y-102339000D01*
X136685443Y-102345519D01*
X136685443Y-102345519D01*
G37*
G36*
X113516823Y-102001313D02*
G01*
X113677242Y-102049976D01*
X113785728Y-102107963D01*
X113825078Y-102128996D01*
X113954659Y-102235341D01*
X114061004Y-102364922D01*
X114061005Y-102364924D01*
X114140024Y-102512758D01*
X114188687Y-102673177D01*
X114205117Y-102840000D01*
X114188687Y-103006823D01*
X114140024Y-103167242D01*
X114125369Y-103194659D01*
X114061004Y-103315078D01*
X113954659Y-103444659D01*
X113825078Y-103551004D01*
X113825076Y-103551005D01*
X113677242Y-103630024D01*
X113516823Y-103678687D01*
X113391804Y-103691000D01*
X113308196Y-103691000D01*
X113183177Y-103678687D01*
X113022758Y-103630024D01*
X112874924Y-103551005D01*
X112874922Y-103551004D01*
X112745341Y-103444659D01*
X112638996Y-103315078D01*
X112574631Y-103194659D01*
X112559976Y-103167242D01*
X112511313Y-103006823D01*
X112494883Y-102840000D01*
X112511313Y-102673177D01*
X112559976Y-102512758D01*
X112638995Y-102364924D01*
X112638996Y-102364922D01*
X112745341Y-102235341D01*
X112874922Y-102128996D01*
X112914272Y-102107963D01*
X113022758Y-102049976D01*
X113183177Y-102001313D01*
X113308196Y-101989000D01*
X113391804Y-101989000D01*
X113516823Y-102001313D01*
X113516823Y-102001313D01*
G37*
G36*
X128756823Y-102001313D02*
G01*
X128917242Y-102049976D01*
X129025728Y-102107963D01*
X129065078Y-102128996D01*
X129194659Y-102235341D01*
X129301004Y-102364922D01*
X129301005Y-102364924D01*
X129380024Y-102512758D01*
X129428687Y-102673177D01*
X129445117Y-102840000D01*
X129428687Y-103006823D01*
X129380024Y-103167242D01*
X129365369Y-103194659D01*
X129301004Y-103315078D01*
X129194659Y-103444659D01*
X129065078Y-103551004D01*
X129065076Y-103551005D01*
X128917242Y-103630024D01*
X128756823Y-103678687D01*
X128631804Y-103691000D01*
X128548196Y-103691000D01*
X128423177Y-103678687D01*
X128262758Y-103630024D01*
X128114924Y-103551005D01*
X128114922Y-103551004D01*
X127985341Y-103444659D01*
X127878996Y-103315078D01*
X127814631Y-103194659D01*
X127799976Y-103167242D01*
X127751313Y-103006823D01*
X127734883Y-102840000D01*
X127751313Y-102673177D01*
X127799976Y-102512758D01*
X127878995Y-102364924D01*
X127878996Y-102364922D01*
X127985341Y-102235341D01*
X128114922Y-102128996D01*
X128154272Y-102107963D01*
X128262758Y-102049976D01*
X128423177Y-102001313D01*
X128548196Y-101989000D01*
X128631804Y-101989000D01*
X128756823Y-102001313D01*
X128756823Y-102001313D01*
G37*
G36*
X81401000Y-103476000D02*
G01*
X79599000Y-103476000D01*
X79599000Y-101674000D01*
X81401000Y-101674000D01*
X81401000Y-103476000D01*
X81401000Y-103476000D01*
G37*
G36*
X72266823Y-101751313D02*
G01*
X72427242Y-101799976D01*
X72539885Y-101860185D01*
X72575078Y-101878996D01*
X72704659Y-101985341D01*
X72811004Y-102114922D01*
X72811005Y-102114924D01*
X72890024Y-102262758D01*
X72938687Y-102423177D01*
X72955117Y-102590000D01*
X72938687Y-102756823D01*
X72890024Y-102917242D01*
X72824309Y-103040186D01*
X72811004Y-103065078D01*
X72704659Y-103194659D01*
X72575078Y-103301004D01*
X72575076Y-103301005D01*
X72427242Y-103380024D01*
X72266823Y-103428687D01*
X72141804Y-103441000D01*
X72058196Y-103441000D01*
X71933177Y-103428687D01*
X71772758Y-103380024D01*
X71624924Y-103301005D01*
X71624922Y-103301004D01*
X71495341Y-103194659D01*
X71388996Y-103065078D01*
X71375691Y-103040186D01*
X71309976Y-102917242D01*
X71261313Y-102756823D01*
X71244883Y-102590000D01*
X71261313Y-102423177D01*
X71309976Y-102262758D01*
X71388995Y-102114924D01*
X71388996Y-102114922D01*
X71495341Y-101985341D01*
X71624922Y-101878996D01*
X71660115Y-101860185D01*
X71772758Y-101799976D01*
X71933177Y-101751313D01*
X72058196Y-101739000D01*
X72141804Y-101739000D01*
X72266823Y-101751313D01*
X72266823Y-101751313D01*
G37*
G36*
X87506823Y-101751313D02*
G01*
X87667242Y-101799976D01*
X87779885Y-101860185D01*
X87815078Y-101878996D01*
X87944659Y-101985341D01*
X88051004Y-102114922D01*
X88051005Y-102114924D01*
X88130024Y-102262758D01*
X88178687Y-102423177D01*
X88195117Y-102590000D01*
X88178687Y-102756823D01*
X88130024Y-102917242D01*
X88064309Y-103040186D01*
X88051004Y-103065078D01*
X87944659Y-103194659D01*
X87815078Y-103301004D01*
X87815076Y-103301005D01*
X87667242Y-103380024D01*
X87506823Y-103428687D01*
X87381804Y-103441000D01*
X87298196Y-103441000D01*
X87173177Y-103428687D01*
X87012758Y-103380024D01*
X86864924Y-103301005D01*
X86864922Y-103301004D01*
X86735341Y-103194659D01*
X86628996Y-103065078D01*
X86615691Y-103040186D01*
X86549976Y-102917242D01*
X86501313Y-102756823D01*
X86484883Y-102590000D01*
X86501313Y-102423177D01*
X86549976Y-102262758D01*
X86628995Y-102114924D01*
X86628996Y-102114922D01*
X86735341Y-101985341D01*
X86864922Y-101878996D01*
X86900115Y-101860185D01*
X87012758Y-101799976D01*
X87173177Y-101751313D01*
X87298196Y-101739000D01*
X87381804Y-101739000D01*
X87506823Y-101751313D01*
X87506823Y-101751313D01*
G37*
G36*
X145210443Y-101505519D02*
G01*
X145276627Y-101512037D01*
X145446466Y-101563557D01*
X145602991Y-101647222D01*
X145635620Y-101674000D01*
X145740186Y-101759814D01*
X145822557Y-101860185D01*
X145852778Y-101897009D01*
X145936443Y-102053534D01*
X145987963Y-102223373D01*
X146005359Y-102400000D01*
X145987963Y-102576627D01*
X145936443Y-102746466D01*
X145852778Y-102902991D01*
X145841085Y-102917239D01*
X145740186Y-103040186D01*
X145643156Y-103119815D01*
X145602991Y-103152778D01*
X145446466Y-103236443D01*
X145276627Y-103287963D01*
X145210443Y-103294481D01*
X145144260Y-103301000D01*
X145055740Y-103301000D01*
X144989557Y-103294481D01*
X144923373Y-103287963D01*
X144753534Y-103236443D01*
X144597009Y-103152778D01*
X144556844Y-103119815D01*
X144459814Y-103040186D01*
X144358915Y-102917239D01*
X144347222Y-102902991D01*
X144263557Y-102746466D01*
X144212037Y-102576627D01*
X144194641Y-102400000D01*
X144212037Y-102223373D01*
X144263557Y-102053534D01*
X144347222Y-101897009D01*
X144377443Y-101860185D01*
X144459814Y-101759814D01*
X144564380Y-101674000D01*
X144597009Y-101647222D01*
X144753534Y-101563557D01*
X144923373Y-101512037D01*
X144989557Y-101505519D01*
X145055740Y-101499000D01*
X145144260Y-101499000D01*
X145210443Y-101505519D01*
X145210443Y-101505519D01*
G37*
G36*
X121310442Y-100325518D02*
G01*
X121376627Y-100332037D01*
X121546466Y-100383557D01*
X121702991Y-100467222D01*
X121738729Y-100496552D01*
X121840186Y-100579814D01*
X121923448Y-100681271D01*
X121952778Y-100717009D01*
X122036443Y-100873534D01*
X122087963Y-101043373D01*
X122105359Y-101220000D01*
X122087963Y-101396627D01*
X122036443Y-101566466D01*
X121952778Y-101722991D01*
X121929534Y-101751314D01*
X121840186Y-101860186D01*
X121738729Y-101943448D01*
X121702991Y-101972778D01*
X121546466Y-102056443D01*
X121376627Y-102107963D01*
X121310442Y-102114482D01*
X121244260Y-102121000D01*
X121155740Y-102121000D01*
X121089558Y-102114482D01*
X121023373Y-102107963D01*
X120853534Y-102056443D01*
X120697009Y-101972778D01*
X120661271Y-101943448D01*
X120559814Y-101860186D01*
X120470466Y-101751314D01*
X120447222Y-101722991D01*
X120363557Y-101566466D01*
X120312037Y-101396627D01*
X120294641Y-101220000D01*
X120312037Y-101043373D01*
X120363557Y-100873534D01*
X120447222Y-100717009D01*
X120476552Y-100681271D01*
X120559814Y-100579814D01*
X120661271Y-100496552D01*
X120697009Y-100467222D01*
X120853534Y-100383557D01*
X121023373Y-100332037D01*
X121089558Y-100325518D01*
X121155740Y-100319000D01*
X121244260Y-100319000D01*
X121310442Y-100325518D01*
X121310442Y-100325518D01*
G37*
G36*
X137476000Y-101601000D02*
G01*
X135674000Y-101601000D01*
X135674000Y-99799000D01*
X137476000Y-99799000D01*
X137476000Y-101601000D01*
X137476000Y-101601000D01*
G37*
G36*
X113516823Y-99461313D02*
G01*
X113677242Y-99509976D01*
X113798747Y-99574922D01*
X113825078Y-99588996D01*
X113954659Y-99695341D01*
X114061004Y-99824922D01*
X114061005Y-99824924D01*
X114140024Y-99972758D01*
X114188687Y-100133177D01*
X114205117Y-100300000D01*
X114188687Y-100466823D01*
X114140024Y-100627242D01*
X114125369Y-100654659D01*
X114061004Y-100775078D01*
X113954659Y-100904659D01*
X113825078Y-101011004D01*
X113825076Y-101011005D01*
X113677242Y-101090024D01*
X113516823Y-101138687D01*
X113391804Y-101151000D01*
X113308196Y-101151000D01*
X113183177Y-101138687D01*
X113022758Y-101090024D01*
X112874924Y-101011005D01*
X112874922Y-101011004D01*
X112745341Y-100904659D01*
X112638996Y-100775078D01*
X112574631Y-100654659D01*
X112559976Y-100627242D01*
X112511313Y-100466823D01*
X112494883Y-100300000D01*
X112511313Y-100133177D01*
X112559976Y-99972758D01*
X112638995Y-99824924D01*
X112638996Y-99824922D01*
X112745341Y-99695341D01*
X112874922Y-99588996D01*
X112901253Y-99574922D01*
X113022758Y-99509976D01*
X113183177Y-99461313D01*
X113308196Y-99449000D01*
X113391804Y-99449000D01*
X113516823Y-99461313D01*
X113516823Y-99461313D01*
G37*
G36*
X128756823Y-99461313D02*
G01*
X128917242Y-99509976D01*
X129038747Y-99574922D01*
X129065078Y-99588996D01*
X129194659Y-99695341D01*
X129301004Y-99824922D01*
X129301005Y-99824924D01*
X129380024Y-99972758D01*
X129428687Y-100133177D01*
X129445117Y-100300000D01*
X129428687Y-100466823D01*
X129380024Y-100627242D01*
X129365369Y-100654659D01*
X129301004Y-100775078D01*
X129194659Y-100904659D01*
X129065078Y-101011004D01*
X129065076Y-101011005D01*
X128917242Y-101090024D01*
X128756823Y-101138687D01*
X128631804Y-101151000D01*
X128548196Y-101151000D01*
X128423177Y-101138687D01*
X128262758Y-101090024D01*
X128114924Y-101011005D01*
X128114922Y-101011004D01*
X127985341Y-100904659D01*
X127878996Y-100775078D01*
X127814631Y-100654659D01*
X127799976Y-100627242D01*
X127751313Y-100466823D01*
X127734883Y-100300000D01*
X127751313Y-100133177D01*
X127799976Y-99972758D01*
X127878995Y-99824924D01*
X127878996Y-99824922D01*
X127985341Y-99695341D01*
X128114922Y-99588996D01*
X128141253Y-99574922D01*
X128262758Y-99509976D01*
X128423177Y-99461313D01*
X128548196Y-99449000D01*
X128631804Y-99449000D01*
X128756823Y-99461313D01*
X128756823Y-99461313D01*
G37*
G36*
X72266823Y-99211313D02*
G01*
X72427242Y-99259976D01*
X72559906Y-99330886D01*
X72575078Y-99338996D01*
X72704659Y-99445341D01*
X72811004Y-99574922D01*
X72811005Y-99574924D01*
X72890024Y-99722758D01*
X72938687Y-99883177D01*
X72955117Y-100050000D01*
X72938687Y-100216823D01*
X72890024Y-100377242D01*
X72824309Y-100500186D01*
X72811004Y-100525078D01*
X72704659Y-100654659D01*
X72575078Y-100761004D01*
X72575076Y-100761005D01*
X72427242Y-100840024D01*
X72266823Y-100888687D01*
X72141804Y-100901000D01*
X72058196Y-100901000D01*
X71933177Y-100888687D01*
X71772758Y-100840024D01*
X71624924Y-100761005D01*
X71624922Y-100761004D01*
X71495341Y-100654659D01*
X71388996Y-100525078D01*
X71375691Y-100500186D01*
X71309976Y-100377242D01*
X71261313Y-100216823D01*
X71244883Y-100050000D01*
X71261313Y-99883177D01*
X71309976Y-99722758D01*
X71388995Y-99574924D01*
X71388996Y-99574922D01*
X71495341Y-99445341D01*
X71624922Y-99338996D01*
X71640094Y-99330886D01*
X71772758Y-99259976D01*
X71933177Y-99211313D01*
X72058196Y-99199000D01*
X72141804Y-99199000D01*
X72266823Y-99211313D01*
X72266823Y-99211313D01*
G37*
G36*
X87506823Y-99211313D02*
G01*
X87667242Y-99259976D01*
X87799906Y-99330886D01*
X87815078Y-99338996D01*
X87944659Y-99445341D01*
X88051004Y-99574922D01*
X88051005Y-99574924D01*
X88130024Y-99722758D01*
X88178687Y-99883177D01*
X88195117Y-100050000D01*
X88178687Y-100216823D01*
X88130024Y-100377242D01*
X88064309Y-100500186D01*
X88051004Y-100525078D01*
X87944659Y-100654659D01*
X87815078Y-100761004D01*
X87815076Y-100761005D01*
X87667242Y-100840024D01*
X87506823Y-100888687D01*
X87381804Y-100901000D01*
X87298196Y-100901000D01*
X87173177Y-100888687D01*
X87012758Y-100840024D01*
X86864924Y-100761005D01*
X86864922Y-100761004D01*
X86735341Y-100654659D01*
X86628996Y-100525078D01*
X86615691Y-100500186D01*
X86549976Y-100377242D01*
X86501313Y-100216823D01*
X86484883Y-100050000D01*
X86501313Y-99883177D01*
X86549976Y-99722758D01*
X86628995Y-99574924D01*
X86628996Y-99574922D01*
X86735341Y-99445341D01*
X86864922Y-99338996D01*
X86880094Y-99330886D01*
X87012758Y-99259976D01*
X87173177Y-99211313D01*
X87298196Y-99199000D01*
X87381804Y-99199000D01*
X87506823Y-99211313D01*
X87506823Y-99211313D01*
G37*
G36*
X145210442Y-98965518D02*
G01*
X145276627Y-98972037D01*
X145446466Y-99023557D01*
X145602991Y-99107222D01*
X145638729Y-99136552D01*
X145740186Y-99219814D01*
X145823448Y-99321271D01*
X145852778Y-99357009D01*
X145936443Y-99513534D01*
X145987963Y-99683373D01*
X146005359Y-99860000D01*
X145987963Y-100036627D01*
X145936443Y-100206466D01*
X145852778Y-100362991D01*
X145841085Y-100377239D01*
X145740186Y-100500186D01*
X145643156Y-100579815D01*
X145602991Y-100612778D01*
X145446466Y-100696443D01*
X145276627Y-100747963D01*
X145210442Y-100754482D01*
X145144260Y-100761000D01*
X145055740Y-100761000D01*
X144989558Y-100754482D01*
X144923373Y-100747963D01*
X144753534Y-100696443D01*
X144597009Y-100612778D01*
X144556844Y-100579815D01*
X144459814Y-100500186D01*
X144358915Y-100377239D01*
X144347222Y-100362991D01*
X144263557Y-100206466D01*
X144212037Y-100036627D01*
X144194641Y-99860000D01*
X144212037Y-99683373D01*
X144263557Y-99513534D01*
X144347222Y-99357009D01*
X144376552Y-99321271D01*
X144459814Y-99219814D01*
X144561271Y-99136552D01*
X144597009Y-99107222D01*
X144753534Y-99023557D01*
X144923373Y-98972037D01*
X144989558Y-98965518D01*
X145055740Y-98959000D01*
X145144260Y-98959000D01*
X145210442Y-98965518D01*
X145210442Y-98965518D01*
G37*
G36*
X122101000Y-99581000D02*
G01*
X120299000Y-99581000D01*
X120299000Y-97779000D01*
X122101000Y-97779000D01*
X122101000Y-99581000D01*
X122101000Y-99581000D01*
G37*
G36*
X80685442Y-97120518D02*
G01*
X80751627Y-97127037D01*
X80921466Y-97178557D01*
X80921468Y-97178558D01*
X80929331Y-97182761D01*
X81077991Y-97262222D01*
X81105651Y-97284922D01*
X81215186Y-97374814D01*
X81298448Y-97476271D01*
X81327778Y-97512009D01*
X81411443Y-97668534D01*
X81462963Y-97838373D01*
X81480359Y-98015000D01*
X81462963Y-98191627D01*
X81411443Y-98361466D01*
X81327778Y-98517991D01*
X81301489Y-98550024D01*
X81215186Y-98655186D01*
X81113729Y-98738448D01*
X81077991Y-98767778D01*
X80921466Y-98851443D01*
X80751627Y-98902963D01*
X80685442Y-98909482D01*
X80619260Y-98916000D01*
X80530740Y-98916000D01*
X80464557Y-98909481D01*
X80398373Y-98902963D01*
X80228534Y-98851443D01*
X80072009Y-98767778D01*
X80036271Y-98738448D01*
X79934814Y-98655186D01*
X79848511Y-98550024D01*
X79822222Y-98517991D01*
X79738557Y-98361466D01*
X79687037Y-98191627D01*
X79669641Y-98015000D01*
X79687037Y-97838373D01*
X79738557Y-97668534D01*
X79822222Y-97512009D01*
X79851552Y-97476271D01*
X79934814Y-97374814D01*
X80044349Y-97284922D01*
X80072009Y-97262222D01*
X80220669Y-97182761D01*
X80228532Y-97178558D01*
X80228534Y-97178557D01*
X80398373Y-97127037D01*
X80464558Y-97120518D01*
X80530740Y-97114000D01*
X80619260Y-97114000D01*
X80685442Y-97120518D01*
X80685442Y-97120518D01*
G37*
G36*
X113516823Y-96921313D02*
G01*
X113677242Y-96969976D01*
X113798747Y-97034922D01*
X113825078Y-97048996D01*
X113954659Y-97155341D01*
X114061004Y-97284922D01*
X114061005Y-97284924D01*
X114140024Y-97432758D01*
X114188687Y-97593177D01*
X114205117Y-97760000D01*
X114188687Y-97926823D01*
X114140024Y-98087242D01*
X114125369Y-98114659D01*
X114061004Y-98235078D01*
X113954659Y-98364659D01*
X113825078Y-98471004D01*
X113825076Y-98471005D01*
X113677242Y-98550024D01*
X113516823Y-98598687D01*
X113391804Y-98611000D01*
X113308196Y-98611000D01*
X113183177Y-98598687D01*
X113022758Y-98550024D01*
X112874924Y-98471005D01*
X112874922Y-98471004D01*
X112745341Y-98364659D01*
X112638996Y-98235078D01*
X112574631Y-98114659D01*
X112559976Y-98087242D01*
X112511313Y-97926823D01*
X112494883Y-97760000D01*
X112511313Y-97593177D01*
X112559976Y-97432758D01*
X112638995Y-97284924D01*
X112638996Y-97284922D01*
X112745341Y-97155341D01*
X112874922Y-97048996D01*
X112901253Y-97034922D01*
X113022758Y-96969976D01*
X113183177Y-96921313D01*
X113308196Y-96909000D01*
X113391804Y-96909000D01*
X113516823Y-96921313D01*
X113516823Y-96921313D01*
G37*
G36*
X128756823Y-96921313D02*
G01*
X128917242Y-96969976D01*
X129038747Y-97034922D01*
X129065078Y-97048996D01*
X129194659Y-97155341D01*
X129301004Y-97284922D01*
X129301005Y-97284924D01*
X129380024Y-97432758D01*
X129428687Y-97593177D01*
X129445117Y-97760000D01*
X129428687Y-97926823D01*
X129380024Y-98087242D01*
X129365369Y-98114659D01*
X129301004Y-98235078D01*
X129194659Y-98364659D01*
X129065078Y-98471004D01*
X129065076Y-98471005D01*
X128917242Y-98550024D01*
X128756823Y-98598687D01*
X128631804Y-98611000D01*
X128548196Y-98611000D01*
X128423177Y-98598687D01*
X128262758Y-98550024D01*
X128114924Y-98471005D01*
X128114922Y-98471004D01*
X127985341Y-98364659D01*
X127878996Y-98235078D01*
X127814631Y-98114659D01*
X127799976Y-98087242D01*
X127751313Y-97926823D01*
X127734883Y-97760000D01*
X127751313Y-97593177D01*
X127799976Y-97432758D01*
X127878995Y-97284924D01*
X127878996Y-97284922D01*
X127985341Y-97155341D01*
X128114922Y-97048996D01*
X128141253Y-97034922D01*
X128262758Y-96969976D01*
X128423177Y-96921313D01*
X128548196Y-96909000D01*
X128631804Y-96909000D01*
X128756823Y-96921313D01*
X128756823Y-96921313D01*
G37*
G36*
X87506823Y-96671313D02*
G01*
X87667242Y-96719976D01*
X87799906Y-96790886D01*
X87815078Y-96798996D01*
X87944659Y-96905341D01*
X88051004Y-97034922D01*
X88051005Y-97034924D01*
X88130024Y-97182758D01*
X88178687Y-97343177D01*
X88195117Y-97510000D01*
X88178687Y-97676823D01*
X88130024Y-97837242D01*
X88064309Y-97960186D01*
X88051004Y-97985078D01*
X87944659Y-98114659D01*
X87815078Y-98221004D01*
X87815076Y-98221005D01*
X87667242Y-98300024D01*
X87506823Y-98348687D01*
X87381804Y-98361000D01*
X87298196Y-98361000D01*
X87173177Y-98348687D01*
X87012758Y-98300024D01*
X86864924Y-98221005D01*
X86864922Y-98221004D01*
X86735341Y-98114659D01*
X86628996Y-97985078D01*
X86615691Y-97960186D01*
X86549976Y-97837242D01*
X86501313Y-97676823D01*
X86484883Y-97510000D01*
X86501313Y-97343177D01*
X86549976Y-97182758D01*
X86628995Y-97034924D01*
X86628996Y-97034922D01*
X86735341Y-96905341D01*
X86864922Y-96798996D01*
X86880094Y-96790886D01*
X87012758Y-96719976D01*
X87173177Y-96671313D01*
X87298196Y-96659000D01*
X87381804Y-96659000D01*
X87506823Y-96671313D01*
X87506823Y-96671313D01*
G37*
G36*
X72266823Y-96671313D02*
G01*
X72427242Y-96719976D01*
X72559906Y-96790886D01*
X72575078Y-96798996D01*
X72704659Y-96905341D01*
X72811004Y-97034922D01*
X72811005Y-97034924D01*
X72890024Y-97182758D01*
X72938687Y-97343177D01*
X72955117Y-97510000D01*
X72938687Y-97676823D01*
X72890024Y-97837242D01*
X72824309Y-97960186D01*
X72811004Y-97985078D01*
X72704659Y-98114659D01*
X72575078Y-98221004D01*
X72575076Y-98221005D01*
X72427242Y-98300024D01*
X72266823Y-98348687D01*
X72141804Y-98361000D01*
X72058196Y-98361000D01*
X71933177Y-98348687D01*
X71772758Y-98300024D01*
X71624924Y-98221005D01*
X71624922Y-98221004D01*
X71495341Y-98114659D01*
X71388996Y-97985078D01*
X71375691Y-97960186D01*
X71309976Y-97837242D01*
X71261313Y-97676823D01*
X71244883Y-97510000D01*
X71261313Y-97343177D01*
X71309976Y-97182758D01*
X71388995Y-97034924D01*
X71388996Y-97034922D01*
X71495341Y-96905341D01*
X71624922Y-96798996D01*
X71640094Y-96790886D01*
X71772758Y-96719976D01*
X71933177Y-96671313D01*
X72058196Y-96659000D01*
X72141804Y-96659000D01*
X72266823Y-96671313D01*
X72266823Y-96671313D01*
G37*
G36*
X145210442Y-96425518D02*
G01*
X145276627Y-96432037D01*
X145446466Y-96483557D01*
X145602991Y-96567222D01*
X145638729Y-96596552D01*
X145740186Y-96679814D01*
X145823448Y-96781271D01*
X145852778Y-96817009D01*
X145936443Y-96973534D01*
X145987963Y-97143373D01*
X146005359Y-97320000D01*
X145987963Y-97496627D01*
X145936443Y-97666466D01*
X145852778Y-97822991D01*
X145823448Y-97858729D01*
X145740186Y-97960186D01*
X145638729Y-98043448D01*
X145602991Y-98072778D01*
X145446466Y-98156443D01*
X145276627Y-98207963D01*
X145210443Y-98214481D01*
X145144260Y-98221000D01*
X145055740Y-98221000D01*
X144989557Y-98214481D01*
X144923373Y-98207963D01*
X144753534Y-98156443D01*
X144597009Y-98072778D01*
X144561271Y-98043448D01*
X144459814Y-97960186D01*
X144376552Y-97858729D01*
X144347222Y-97822991D01*
X144263557Y-97666466D01*
X144212037Y-97496627D01*
X144194641Y-97320000D01*
X144212037Y-97143373D01*
X144263557Y-96973534D01*
X144347222Y-96817009D01*
X144376552Y-96781271D01*
X144459814Y-96679814D01*
X144561271Y-96596552D01*
X144597009Y-96567222D01*
X144753534Y-96483557D01*
X144923373Y-96432037D01*
X144989557Y-96425519D01*
X145055740Y-96419000D01*
X145144260Y-96419000D01*
X145210442Y-96425518D01*
X145210442Y-96425518D01*
G37*
G36*
X81476000Y-96376000D02*
G01*
X79674000Y-96376000D01*
X79674000Y-94574000D01*
X81476000Y-94574000D01*
X81476000Y-96376000D01*
X81476000Y-96376000D01*
G37*
G36*
X113516823Y-94381313D02*
G01*
X113677242Y-94429976D01*
X113798747Y-94494922D01*
X113825078Y-94508996D01*
X113954659Y-94615341D01*
X114061004Y-94744922D01*
X114061005Y-94744924D01*
X114140024Y-94892758D01*
X114188687Y-95053177D01*
X114205117Y-95220000D01*
X114188687Y-95386823D01*
X114140024Y-95547242D01*
X114125369Y-95574659D01*
X114061004Y-95695078D01*
X113954659Y-95824659D01*
X113825078Y-95931004D01*
X113825076Y-95931005D01*
X113677242Y-96010024D01*
X113516823Y-96058687D01*
X113391804Y-96071000D01*
X113308196Y-96071000D01*
X113183177Y-96058687D01*
X113022758Y-96010024D01*
X112874924Y-95931005D01*
X112874922Y-95931004D01*
X112745341Y-95824659D01*
X112638996Y-95695078D01*
X112574631Y-95574659D01*
X112559976Y-95547242D01*
X112511313Y-95386823D01*
X112494883Y-95220000D01*
X112511313Y-95053177D01*
X112559976Y-94892758D01*
X112638995Y-94744924D01*
X112638996Y-94744922D01*
X112745341Y-94615341D01*
X112874922Y-94508996D01*
X112901253Y-94494922D01*
X113022758Y-94429976D01*
X113183177Y-94381313D01*
X113308196Y-94369000D01*
X113391804Y-94369000D01*
X113516823Y-94381313D01*
X113516823Y-94381313D01*
G37*
G36*
X128756823Y-94381313D02*
G01*
X128917242Y-94429976D01*
X129038747Y-94494922D01*
X129065078Y-94508996D01*
X129194659Y-94615341D01*
X129301004Y-94744922D01*
X129301005Y-94744924D01*
X129380024Y-94892758D01*
X129428687Y-95053177D01*
X129445117Y-95220000D01*
X129428687Y-95386823D01*
X129380024Y-95547242D01*
X129365369Y-95574659D01*
X129301004Y-95695078D01*
X129194659Y-95824659D01*
X129065078Y-95931004D01*
X129065076Y-95931005D01*
X128917242Y-96010024D01*
X128756823Y-96058687D01*
X128631804Y-96071000D01*
X128548196Y-96071000D01*
X128423177Y-96058687D01*
X128262758Y-96010024D01*
X128114924Y-95931005D01*
X128114922Y-95931004D01*
X127985341Y-95824659D01*
X127878996Y-95695078D01*
X127814631Y-95574659D01*
X127799976Y-95547242D01*
X127751313Y-95386823D01*
X127734883Y-95220000D01*
X127751313Y-95053177D01*
X127799976Y-94892758D01*
X127878995Y-94744924D01*
X127878996Y-94744922D01*
X127985341Y-94615341D01*
X128114922Y-94508996D01*
X128141253Y-94494922D01*
X128262758Y-94429976D01*
X128423177Y-94381313D01*
X128548196Y-94369000D01*
X128631804Y-94369000D01*
X128756823Y-94381313D01*
X128756823Y-94381313D01*
G37*
G36*
X87506823Y-94131313D02*
G01*
X87667242Y-94179976D01*
X87799906Y-94250886D01*
X87815078Y-94258996D01*
X87944659Y-94365341D01*
X88051004Y-94494922D01*
X88051005Y-94494924D01*
X88130024Y-94642758D01*
X88178687Y-94803177D01*
X88195117Y-94970000D01*
X88178687Y-95136823D01*
X88130024Y-95297242D01*
X88064309Y-95420186D01*
X88051004Y-95445078D01*
X87944659Y-95574659D01*
X87815078Y-95681004D01*
X87815076Y-95681005D01*
X87667242Y-95760024D01*
X87506823Y-95808687D01*
X87381804Y-95821000D01*
X87298196Y-95821000D01*
X87173177Y-95808687D01*
X87012758Y-95760024D01*
X86864924Y-95681005D01*
X86864922Y-95681004D01*
X86735341Y-95574659D01*
X86628996Y-95445078D01*
X86615691Y-95420186D01*
X86549976Y-95297242D01*
X86501313Y-95136823D01*
X86484883Y-94970000D01*
X86501313Y-94803177D01*
X86549976Y-94642758D01*
X86628995Y-94494924D01*
X86628996Y-94494922D01*
X86735341Y-94365341D01*
X86864922Y-94258996D01*
X86880094Y-94250886D01*
X87012758Y-94179976D01*
X87173177Y-94131313D01*
X87298196Y-94119000D01*
X87381804Y-94119000D01*
X87506823Y-94131313D01*
X87506823Y-94131313D01*
G37*
G36*
X72266823Y-94131313D02*
G01*
X72427242Y-94179976D01*
X72559906Y-94250886D01*
X72575078Y-94258996D01*
X72704659Y-94365341D01*
X72811004Y-94494922D01*
X72811005Y-94494924D01*
X72890024Y-94642758D01*
X72938687Y-94803177D01*
X72955117Y-94970000D01*
X72938687Y-95136823D01*
X72890024Y-95297242D01*
X72824309Y-95420186D01*
X72811004Y-95445078D01*
X72704659Y-95574659D01*
X72575078Y-95681004D01*
X72575076Y-95681005D01*
X72427242Y-95760024D01*
X72266823Y-95808687D01*
X72141804Y-95821000D01*
X72058196Y-95821000D01*
X71933177Y-95808687D01*
X71772758Y-95760024D01*
X71624924Y-95681005D01*
X71624922Y-95681004D01*
X71495341Y-95574659D01*
X71388996Y-95445078D01*
X71375691Y-95420186D01*
X71309976Y-95297242D01*
X71261313Y-95136823D01*
X71244883Y-94970000D01*
X71261313Y-94803177D01*
X71309976Y-94642758D01*
X71388995Y-94494924D01*
X71388996Y-94494922D01*
X71495341Y-94365341D01*
X71624922Y-94258996D01*
X71640094Y-94250886D01*
X71772758Y-94179976D01*
X71933177Y-94131313D01*
X72058196Y-94119000D01*
X72141804Y-94119000D01*
X72266823Y-94131313D01*
X72266823Y-94131313D01*
G37*
G36*
X145210443Y-93885519D02*
G01*
X145276627Y-93892037D01*
X145446466Y-93943557D01*
X145602991Y-94027222D01*
X145638729Y-94056552D01*
X145740186Y-94139814D01*
X145823448Y-94241271D01*
X145852778Y-94277009D01*
X145936443Y-94433534D01*
X145987963Y-94603373D01*
X146005359Y-94780000D01*
X145987963Y-94956627D01*
X145936443Y-95126466D01*
X145852778Y-95282991D01*
X145841085Y-95297239D01*
X145740186Y-95420186D01*
X145638729Y-95503448D01*
X145602991Y-95532778D01*
X145446466Y-95616443D01*
X145276627Y-95667963D01*
X145210442Y-95674482D01*
X145144260Y-95681000D01*
X145055740Y-95681000D01*
X144989558Y-95674482D01*
X144923373Y-95667963D01*
X144753534Y-95616443D01*
X144597009Y-95532778D01*
X144561271Y-95503448D01*
X144459814Y-95420186D01*
X144358915Y-95297239D01*
X144347222Y-95282991D01*
X144263557Y-95126466D01*
X144212037Y-94956627D01*
X144194641Y-94780000D01*
X144212037Y-94603373D01*
X144263557Y-94433534D01*
X144347222Y-94277009D01*
X144376552Y-94241271D01*
X144459814Y-94139814D01*
X144561271Y-94056552D01*
X144597009Y-94027222D01*
X144753534Y-93943557D01*
X144923373Y-93892037D01*
X144989558Y-93885518D01*
X145055740Y-93879000D01*
X145144260Y-93879000D01*
X145210443Y-93885519D01*
X145210443Y-93885519D01*
G37*
G36*
X128756823Y-91841313D02*
G01*
X128917242Y-91889976D01*
X129038747Y-91954922D01*
X129065078Y-91968996D01*
X129194659Y-92075341D01*
X129301004Y-92204922D01*
X129301005Y-92204924D01*
X129380024Y-92352758D01*
X129428687Y-92513177D01*
X129445117Y-92680000D01*
X129428687Y-92846823D01*
X129380024Y-93007242D01*
X129343036Y-93076442D01*
X129301004Y-93155078D01*
X129194659Y-93284659D01*
X129065078Y-93391004D01*
X129065076Y-93391005D01*
X128917242Y-93470024D01*
X128756823Y-93518687D01*
X128631804Y-93531000D01*
X128548196Y-93531000D01*
X128423177Y-93518687D01*
X128262758Y-93470024D01*
X128114924Y-93391005D01*
X128114922Y-93391004D01*
X127985341Y-93284659D01*
X127878996Y-93155078D01*
X127836964Y-93076442D01*
X127799976Y-93007242D01*
X127751313Y-92846823D01*
X127734883Y-92680000D01*
X127751313Y-92513177D01*
X127799976Y-92352758D01*
X127878995Y-92204924D01*
X127878996Y-92204922D01*
X127985341Y-92075341D01*
X128114922Y-91968996D01*
X128141253Y-91954922D01*
X128262758Y-91889976D01*
X128423177Y-91841313D01*
X128548196Y-91829000D01*
X128631804Y-91829000D01*
X128756823Y-91841313D01*
X128756823Y-91841313D01*
G37*
G36*
X113516823Y-91841313D02*
G01*
X113677242Y-91889976D01*
X113798747Y-91954922D01*
X113825078Y-91968996D01*
X113954659Y-92075341D01*
X114061004Y-92204922D01*
X114061005Y-92204924D01*
X114140024Y-92352758D01*
X114188687Y-92513177D01*
X114205117Y-92680000D01*
X114188687Y-92846823D01*
X114140024Y-93007242D01*
X114103036Y-93076442D01*
X114061004Y-93155078D01*
X113954659Y-93284659D01*
X113825078Y-93391004D01*
X113825076Y-93391005D01*
X113677242Y-93470024D01*
X113516823Y-93518687D01*
X113391804Y-93531000D01*
X113308196Y-93531000D01*
X113183177Y-93518687D01*
X113022758Y-93470024D01*
X112874924Y-93391005D01*
X112874922Y-93391004D01*
X112745341Y-93284659D01*
X112638996Y-93155078D01*
X112596964Y-93076442D01*
X112559976Y-93007242D01*
X112511313Y-92846823D01*
X112494883Y-92680000D01*
X112511313Y-92513177D01*
X112559976Y-92352758D01*
X112638995Y-92204924D01*
X112638996Y-92204922D01*
X112745341Y-92075341D01*
X112874922Y-91968996D01*
X112901253Y-91954922D01*
X113022758Y-91889976D01*
X113183177Y-91841313D01*
X113308196Y-91829000D01*
X113391804Y-91829000D01*
X113516823Y-91841313D01*
X113516823Y-91841313D01*
G37*
G36*
X87506823Y-91591313D02*
G01*
X87637380Y-91630917D01*
X87651172Y-91635101D01*
X87667242Y-91639976D01*
X87799906Y-91710886D01*
X87815078Y-91718996D01*
X87944659Y-91825341D01*
X88051004Y-91954922D01*
X88051005Y-91954924D01*
X88130024Y-92102758D01*
X88178687Y-92263177D01*
X88195117Y-92430000D01*
X88178687Y-92596823D01*
X88130024Y-92757242D01*
X88064309Y-92880186D01*
X88051004Y-92905078D01*
X87944659Y-93034659D01*
X87815078Y-93141004D01*
X87815076Y-93141005D01*
X87667242Y-93220024D01*
X87506823Y-93268687D01*
X87381804Y-93281000D01*
X87298196Y-93281000D01*
X87173177Y-93268687D01*
X87012758Y-93220024D01*
X86864924Y-93141005D01*
X86864922Y-93141004D01*
X86735341Y-93034659D01*
X86628996Y-92905078D01*
X86615691Y-92880186D01*
X86549976Y-92757242D01*
X86501313Y-92596823D01*
X86484883Y-92430000D01*
X86501313Y-92263177D01*
X86549976Y-92102758D01*
X86628995Y-91954924D01*
X86628996Y-91954922D01*
X86735341Y-91825341D01*
X86864922Y-91718996D01*
X86880094Y-91710886D01*
X87012758Y-91639976D01*
X87028829Y-91635101D01*
X87042620Y-91630917D01*
X87173177Y-91591313D01*
X87298196Y-91579000D01*
X87381804Y-91579000D01*
X87506823Y-91591313D01*
X87506823Y-91591313D01*
G37*
G36*
X72266823Y-91591313D02*
G01*
X72397380Y-91630917D01*
X72411172Y-91635101D01*
X72427242Y-91639976D01*
X72559906Y-91710886D01*
X72575078Y-91718996D01*
X72704659Y-91825341D01*
X72811004Y-91954922D01*
X72811005Y-91954924D01*
X72890024Y-92102758D01*
X72938687Y-92263177D01*
X72955117Y-92430000D01*
X72938687Y-92596823D01*
X72890024Y-92757242D01*
X72824309Y-92880186D01*
X72811004Y-92905078D01*
X72704659Y-93034659D01*
X72575078Y-93141004D01*
X72575076Y-93141005D01*
X72427242Y-93220024D01*
X72266823Y-93268687D01*
X72141804Y-93281000D01*
X72058196Y-93281000D01*
X71933177Y-93268687D01*
X71772758Y-93220024D01*
X71624924Y-93141005D01*
X71624922Y-93141004D01*
X71495341Y-93034659D01*
X71388996Y-92905078D01*
X71375691Y-92880186D01*
X71309976Y-92757242D01*
X71261313Y-92596823D01*
X71244883Y-92430000D01*
X71261313Y-92263177D01*
X71309976Y-92102758D01*
X71388995Y-91954924D01*
X71388996Y-91954922D01*
X71495341Y-91825341D01*
X71624922Y-91718996D01*
X71640094Y-91710886D01*
X71772758Y-91639976D01*
X71788829Y-91635101D01*
X71802620Y-91630917D01*
X71933177Y-91591313D01*
X72058196Y-91579000D01*
X72141804Y-91579000D01*
X72266823Y-91591313D01*
X72266823Y-91591313D01*
G37*
G36*
X145210442Y-91345518D02*
G01*
X145276627Y-91352037D01*
X145446466Y-91403557D01*
X145602991Y-91487222D01*
X145638729Y-91516552D01*
X145740186Y-91599814D01*
X145823448Y-91701271D01*
X145852778Y-91737009D01*
X145936443Y-91893534D01*
X145987963Y-92063373D01*
X146005359Y-92240000D01*
X145987963Y-92416627D01*
X145936443Y-92586466D01*
X145852778Y-92742991D01*
X145841085Y-92757239D01*
X145740186Y-92880186D01*
X145638729Y-92963448D01*
X145602991Y-92992778D01*
X145446466Y-93076443D01*
X145276627Y-93127963D01*
X145210443Y-93134481D01*
X145144260Y-93141000D01*
X145055740Y-93141000D01*
X144989557Y-93134481D01*
X144923373Y-93127963D01*
X144753534Y-93076443D01*
X144597009Y-92992778D01*
X144561271Y-92963448D01*
X144459814Y-92880186D01*
X144358915Y-92757239D01*
X144347222Y-92742991D01*
X144263557Y-92586466D01*
X144212037Y-92416627D01*
X144194641Y-92240000D01*
X144212037Y-92063373D01*
X144263557Y-91893534D01*
X144347222Y-91737009D01*
X144376552Y-91701271D01*
X144459814Y-91599814D01*
X144561271Y-91516552D01*
X144597009Y-91487222D01*
X144753534Y-91403557D01*
X144923373Y-91352037D01*
X144989558Y-91345518D01*
X145055740Y-91339000D01*
X145144260Y-91339000D01*
X145210442Y-91345518D01*
X145210442Y-91345518D01*
G37*
G36*
X136451000Y-93051000D02*
G01*
X133749000Y-93051000D01*
X133749000Y-90349000D01*
X136451000Y-90349000D01*
X136451000Y-93051000D01*
X136451000Y-93051000D01*
G37*
G36*
X138813882Y-90365076D02*
G01*
X138994072Y-90400918D01*
X139239939Y-90502759D01*
X139280003Y-90529529D01*
X139386974Y-90601005D01*
X139461212Y-90650610D01*
X139649390Y-90838788D01*
X139751096Y-90991000D01*
X139797242Y-91060063D01*
X139899082Y-91305928D01*
X139951000Y-91566937D01*
X139951000Y-91833063D01*
X139926761Y-91954922D01*
X139899082Y-92094072D01*
X139797241Y-92339939D01*
X139746001Y-92416625D01*
X139649391Y-92561211D01*
X139461211Y-92749391D01*
X139449461Y-92757242D01*
X139239939Y-92897241D01*
X139239938Y-92897242D01*
X139239937Y-92897242D01*
X138994072Y-92999082D01*
X138733063Y-93051000D01*
X138466937Y-93051000D01*
X138205928Y-92999082D01*
X137960063Y-92897242D01*
X137960062Y-92897242D01*
X137960061Y-92897241D01*
X137750539Y-92757242D01*
X137738789Y-92749391D01*
X137550609Y-92561211D01*
X137453999Y-92416625D01*
X137402759Y-92339939D01*
X137300918Y-92094072D01*
X137273239Y-91954922D01*
X137249000Y-91833063D01*
X137249000Y-91566937D01*
X137300918Y-91305928D01*
X137402758Y-91060063D01*
X137448905Y-90991000D01*
X137550610Y-90838788D01*
X137738788Y-90650610D01*
X137813027Y-90601005D01*
X137919997Y-90529529D01*
X137960061Y-90502759D01*
X138205928Y-90400918D01*
X138386118Y-90365076D01*
X138466937Y-90349000D01*
X138733063Y-90349000D01*
X138813882Y-90365076D01*
X138813882Y-90365076D01*
G37*
G36*
X104197142Y-90468242D02*
G01*
X104345101Y-90529529D01*
X104478255Y-90618499D01*
X104591501Y-90731745D01*
X104680471Y-90864899D01*
X104741758Y-91012858D01*
X104773000Y-91169925D01*
X104773000Y-91330075D01*
X104741758Y-91487142D01*
X104680471Y-91635101D01*
X104591501Y-91768255D01*
X104478255Y-91881501D01*
X104345101Y-91970471D01*
X104197142Y-92031758D01*
X104040075Y-92063000D01*
X103879925Y-92063000D01*
X103722858Y-92031758D01*
X103574899Y-91970471D01*
X103441745Y-91881501D01*
X103328499Y-91768255D01*
X103239529Y-91635101D01*
X103178242Y-91487142D01*
X103147000Y-91330075D01*
X103147000Y-91169925D01*
X103178242Y-91012858D01*
X103239529Y-90864899D01*
X103328499Y-90731745D01*
X103441745Y-90618499D01*
X103574899Y-90529529D01*
X103722858Y-90468242D01*
X103879925Y-90437000D01*
X104040075Y-90437000D01*
X104197142Y-90468242D01*
X104197142Y-90468242D01*
G37*
G36*
X106737142Y-90468242D02*
G01*
X106885101Y-90529529D01*
X107018255Y-90618499D01*
X107131501Y-90731745D01*
X107220471Y-90864899D01*
X107281758Y-91012858D01*
X107313000Y-91169925D01*
X107313000Y-91330075D01*
X107281758Y-91487142D01*
X107220471Y-91635101D01*
X107131501Y-91768255D01*
X107018255Y-91881501D01*
X106885101Y-91970471D01*
X106737142Y-92031758D01*
X106580075Y-92063000D01*
X106419925Y-92063000D01*
X106262858Y-92031758D01*
X106114899Y-91970471D01*
X105981745Y-91881501D01*
X105868499Y-91768255D01*
X105779529Y-91635101D01*
X105718242Y-91487142D01*
X105687000Y-91330075D01*
X105687000Y-91169925D01*
X105718242Y-91012858D01*
X105779529Y-90864899D01*
X105868499Y-90731745D01*
X105981745Y-90618499D01*
X106114899Y-90529529D01*
X106262858Y-90468242D01*
X106419925Y-90437000D01*
X106580075Y-90437000D01*
X106737142Y-90468242D01*
X106737142Y-90468242D01*
G37*
G36*
X94037142Y-90468242D02*
G01*
X94185101Y-90529529D01*
X94318255Y-90618499D01*
X94431501Y-90731745D01*
X94520471Y-90864899D01*
X94581758Y-91012858D01*
X94613000Y-91169925D01*
X94613000Y-91330075D01*
X94581758Y-91487142D01*
X94520471Y-91635101D01*
X94431501Y-91768255D01*
X94318255Y-91881501D01*
X94185101Y-91970471D01*
X94037142Y-92031758D01*
X93880075Y-92063000D01*
X93719925Y-92063000D01*
X93562858Y-92031758D01*
X93414899Y-91970471D01*
X93281745Y-91881501D01*
X93168499Y-91768255D01*
X93079529Y-91635101D01*
X93018242Y-91487142D01*
X92987000Y-91330075D01*
X92987000Y-91169925D01*
X93018242Y-91012858D01*
X93079529Y-90864899D01*
X93168499Y-90731745D01*
X93281745Y-90618499D01*
X93414899Y-90529529D01*
X93562858Y-90468242D01*
X93719925Y-90437000D01*
X93880075Y-90437000D01*
X94037142Y-90468242D01*
X94037142Y-90468242D01*
G37*
G36*
X96577142Y-90468242D02*
G01*
X96725101Y-90529529D01*
X96858255Y-90618499D01*
X96971501Y-90731745D01*
X97060471Y-90864899D01*
X97121758Y-91012858D01*
X97153000Y-91169925D01*
X97153000Y-91330075D01*
X97121758Y-91487142D01*
X97060471Y-91635101D01*
X96971501Y-91768255D01*
X96858255Y-91881501D01*
X96725101Y-91970471D01*
X96577142Y-92031758D01*
X96420075Y-92063000D01*
X96259925Y-92063000D01*
X96102858Y-92031758D01*
X95954899Y-91970471D01*
X95821745Y-91881501D01*
X95708499Y-91768255D01*
X95619529Y-91635101D01*
X95558242Y-91487142D01*
X95527000Y-91330075D01*
X95527000Y-91169925D01*
X95558242Y-91012858D01*
X95619529Y-90864899D01*
X95708499Y-90731745D01*
X95821745Y-90618499D01*
X95954899Y-90529529D01*
X96102858Y-90468242D01*
X96259925Y-90437000D01*
X96420075Y-90437000D01*
X96577142Y-90468242D01*
X96577142Y-90468242D01*
G37*
G36*
X101657142Y-90468242D02*
G01*
X101805101Y-90529529D01*
X101938255Y-90618499D01*
X102051501Y-90731745D01*
X102140471Y-90864899D01*
X102201758Y-91012858D01*
X102233000Y-91169925D01*
X102233000Y-91330075D01*
X102201758Y-91487142D01*
X102140471Y-91635101D01*
X102051501Y-91768255D01*
X101938255Y-91881501D01*
X101805101Y-91970471D01*
X101657142Y-92031758D01*
X101500075Y-92063000D01*
X101339925Y-92063000D01*
X101182858Y-92031758D01*
X101034899Y-91970471D01*
X100901745Y-91881501D01*
X100788499Y-91768255D01*
X100699529Y-91635101D01*
X100638242Y-91487142D01*
X100607000Y-91330075D01*
X100607000Y-91169925D01*
X100638242Y-91012858D01*
X100699529Y-90864899D01*
X100788499Y-90731745D01*
X100901745Y-90618499D01*
X101034899Y-90529529D01*
X101182858Y-90468242D01*
X101339925Y-90437000D01*
X101500075Y-90437000D01*
X101657142Y-90468242D01*
X101657142Y-90468242D01*
G37*
G36*
X99117142Y-90468242D02*
G01*
X99265101Y-90529529D01*
X99398255Y-90618499D01*
X99511501Y-90731745D01*
X99600471Y-90864899D01*
X99661758Y-91012858D01*
X99693000Y-91169925D01*
X99693000Y-91330075D01*
X99661758Y-91487142D01*
X99600471Y-91635101D01*
X99511501Y-91768255D01*
X99398255Y-91881501D01*
X99265101Y-91970471D01*
X99117142Y-92031758D01*
X98960075Y-92063000D01*
X98799925Y-92063000D01*
X98642858Y-92031758D01*
X98494899Y-91970471D01*
X98361745Y-91881501D01*
X98248499Y-91768255D01*
X98159529Y-91635101D01*
X98098242Y-91487142D01*
X98067000Y-91330075D01*
X98067000Y-91169925D01*
X98098242Y-91012858D01*
X98159529Y-90864899D01*
X98248499Y-90731745D01*
X98361745Y-90618499D01*
X98494899Y-90529529D01*
X98642858Y-90468242D01*
X98799925Y-90437000D01*
X98960075Y-90437000D01*
X99117142Y-90468242D01*
X99117142Y-90468242D01*
G37*
G36*
X128756823Y-89301313D02*
G01*
X128917242Y-89349976D01*
X129038747Y-89414922D01*
X129065078Y-89428996D01*
X129194659Y-89535341D01*
X129301004Y-89664922D01*
X129301005Y-89664924D01*
X129380024Y-89812758D01*
X129428687Y-89973177D01*
X129445117Y-90140000D01*
X129428687Y-90306823D01*
X129380024Y-90467242D01*
X129346731Y-90529529D01*
X129301004Y-90615078D01*
X129194659Y-90744659D01*
X129065078Y-90851004D01*
X129065076Y-90851005D01*
X128917242Y-90930024D01*
X128756823Y-90978687D01*
X128631804Y-90991000D01*
X128548196Y-90991000D01*
X128423177Y-90978687D01*
X128262758Y-90930024D01*
X128114924Y-90851005D01*
X128114922Y-90851004D01*
X127985341Y-90744659D01*
X127878996Y-90615078D01*
X127833269Y-90529529D01*
X127799976Y-90467242D01*
X127751313Y-90306823D01*
X127734883Y-90140000D01*
X127751313Y-89973177D01*
X127799976Y-89812758D01*
X127878995Y-89664924D01*
X127878996Y-89664922D01*
X127985341Y-89535341D01*
X128114922Y-89428996D01*
X128141253Y-89414922D01*
X128262758Y-89349976D01*
X128423177Y-89301313D01*
X128548196Y-89289000D01*
X128631804Y-89289000D01*
X128756823Y-89301313D01*
X128756823Y-89301313D01*
G37*
G36*
X113516823Y-89301313D02*
G01*
X113677242Y-89349976D01*
X113798747Y-89414922D01*
X113825078Y-89428996D01*
X113954659Y-89535341D01*
X114061004Y-89664922D01*
X114061005Y-89664924D01*
X114140024Y-89812758D01*
X114188687Y-89973177D01*
X114205117Y-90140000D01*
X114188687Y-90306823D01*
X114140024Y-90467242D01*
X114106731Y-90529529D01*
X114061004Y-90615078D01*
X113954659Y-90744659D01*
X113825078Y-90851004D01*
X113825076Y-90851005D01*
X113677242Y-90930024D01*
X113516823Y-90978687D01*
X113391804Y-90991000D01*
X113308196Y-90991000D01*
X113183177Y-90978687D01*
X113022758Y-90930024D01*
X112874924Y-90851005D01*
X112874922Y-90851004D01*
X112745341Y-90744659D01*
X112638996Y-90615078D01*
X112593269Y-90529529D01*
X112559976Y-90467242D01*
X112511313Y-90306823D01*
X112494883Y-90140000D01*
X112511313Y-89973177D01*
X112559976Y-89812758D01*
X112638995Y-89664924D01*
X112638996Y-89664922D01*
X112745341Y-89535341D01*
X112874922Y-89428996D01*
X112901253Y-89414922D01*
X113022758Y-89349976D01*
X113183177Y-89301313D01*
X113308196Y-89289000D01*
X113391804Y-89289000D01*
X113516823Y-89301313D01*
X113516823Y-89301313D01*
G37*
G36*
X87506823Y-89051313D02*
G01*
X87667242Y-89099976D01*
X87799906Y-89170886D01*
X87815078Y-89178996D01*
X87944659Y-89285341D01*
X88051004Y-89414922D01*
X88051005Y-89414924D01*
X88130024Y-89562758D01*
X88178687Y-89723177D01*
X88195117Y-89890000D01*
X88178687Y-90056823D01*
X88130024Y-90217242D01*
X88082142Y-90306823D01*
X88051004Y-90365078D01*
X87944659Y-90494659D01*
X87815078Y-90601004D01*
X87815076Y-90601005D01*
X87667242Y-90680024D01*
X87506823Y-90728687D01*
X87381804Y-90741000D01*
X87298196Y-90741000D01*
X87173177Y-90728687D01*
X87012758Y-90680024D01*
X86864924Y-90601005D01*
X86864922Y-90601004D01*
X86735341Y-90494659D01*
X86628996Y-90365078D01*
X86597858Y-90306823D01*
X86549976Y-90217242D01*
X86501313Y-90056823D01*
X86484883Y-89890000D01*
X86501313Y-89723177D01*
X86549976Y-89562758D01*
X86628995Y-89414924D01*
X86628996Y-89414922D01*
X86735341Y-89285341D01*
X86864922Y-89178996D01*
X86880094Y-89170886D01*
X87012758Y-89099976D01*
X87173177Y-89051313D01*
X87298196Y-89039000D01*
X87381804Y-89039000D01*
X87506823Y-89051313D01*
X87506823Y-89051313D01*
G37*
G36*
X72266823Y-89051313D02*
G01*
X72427242Y-89099976D01*
X72559906Y-89170886D01*
X72575078Y-89178996D01*
X72704659Y-89285341D01*
X72811004Y-89414922D01*
X72811005Y-89414924D01*
X72890024Y-89562758D01*
X72938687Y-89723177D01*
X72955117Y-89890000D01*
X72938687Y-90056823D01*
X72890024Y-90217242D01*
X72842142Y-90306823D01*
X72811004Y-90365078D01*
X72704659Y-90494659D01*
X72575078Y-90601004D01*
X72575076Y-90601005D01*
X72427242Y-90680024D01*
X72266823Y-90728687D01*
X72141804Y-90741000D01*
X72058196Y-90741000D01*
X71933177Y-90728687D01*
X71772758Y-90680024D01*
X71624924Y-90601005D01*
X71624922Y-90601004D01*
X71495341Y-90494659D01*
X71388996Y-90365078D01*
X71357858Y-90306823D01*
X71309976Y-90217242D01*
X71261313Y-90056823D01*
X71244883Y-89890000D01*
X71261313Y-89723177D01*
X71309976Y-89562758D01*
X71388995Y-89414924D01*
X71388996Y-89414922D01*
X71495341Y-89285341D01*
X71624922Y-89178996D01*
X71640094Y-89170886D01*
X71772758Y-89099976D01*
X71933177Y-89051313D01*
X72058196Y-89039000D01*
X72141804Y-89039000D01*
X72266823Y-89051313D01*
X72266823Y-89051313D01*
G37*
G36*
X146001000Y-90601000D02*
G01*
X144199000Y-90601000D01*
X144199000Y-88799000D01*
X146001000Y-88799000D01*
X146001000Y-90601000D01*
X146001000Y-90601000D01*
G37*
G36*
X128756823Y-86761313D02*
G01*
X128917242Y-86809976D01*
X129038747Y-86874922D01*
X129065078Y-86888996D01*
X129194659Y-86995341D01*
X129301004Y-87124922D01*
X129301005Y-87124924D01*
X129380024Y-87272758D01*
X129428687Y-87433177D01*
X129445117Y-87600000D01*
X129428687Y-87766823D01*
X129380024Y-87927242D01*
X129365369Y-87954659D01*
X129301004Y-88075078D01*
X129194659Y-88204659D01*
X129065078Y-88311004D01*
X129065076Y-88311005D01*
X128917242Y-88390024D01*
X128756823Y-88438687D01*
X128631804Y-88451000D01*
X128548196Y-88451000D01*
X128423177Y-88438687D01*
X128262758Y-88390024D01*
X128114924Y-88311005D01*
X128114922Y-88311004D01*
X127985341Y-88204659D01*
X127878996Y-88075078D01*
X127814631Y-87954659D01*
X127799976Y-87927242D01*
X127751313Y-87766823D01*
X127734883Y-87600000D01*
X127751313Y-87433177D01*
X127799976Y-87272758D01*
X127878995Y-87124924D01*
X127878996Y-87124922D01*
X127985341Y-86995341D01*
X128114922Y-86888996D01*
X128141253Y-86874922D01*
X128262758Y-86809976D01*
X128423177Y-86761313D01*
X128548196Y-86749000D01*
X128631804Y-86749000D01*
X128756823Y-86761313D01*
X128756823Y-86761313D01*
G37*
G36*
X114201000Y-88451000D02*
G01*
X112499000Y-88451000D01*
X112499000Y-86749000D01*
X114201000Y-86749000D01*
X114201000Y-88451000D01*
X114201000Y-88451000D01*
G37*
G36*
X72951000Y-88201000D02*
G01*
X71249000Y-88201000D01*
X71249000Y-86499000D01*
X72951000Y-86499000D01*
X72951000Y-88201000D01*
X72951000Y-88201000D01*
G37*
G36*
X87506823Y-86511313D02*
G01*
X87667242Y-86559976D01*
X87799906Y-86630886D01*
X87815078Y-86638996D01*
X87944659Y-86745341D01*
X88051004Y-86874922D01*
X88051005Y-86874924D01*
X88130024Y-87022758D01*
X88178687Y-87183177D01*
X88195117Y-87350000D01*
X88178687Y-87516823D01*
X88130024Y-87677242D01*
X88082142Y-87766823D01*
X88051004Y-87825078D01*
X87944659Y-87954659D01*
X87815078Y-88061004D01*
X87815076Y-88061005D01*
X87667242Y-88140024D01*
X87506823Y-88188687D01*
X87381804Y-88201000D01*
X87298196Y-88201000D01*
X87173177Y-88188687D01*
X87012758Y-88140024D01*
X86864924Y-88061005D01*
X86864922Y-88061004D01*
X86735341Y-87954659D01*
X86628996Y-87825078D01*
X86597858Y-87766823D01*
X86549976Y-87677242D01*
X86501313Y-87516823D01*
X86484883Y-87350000D01*
X86501313Y-87183177D01*
X86549976Y-87022758D01*
X86628995Y-86874924D01*
X86628996Y-86874922D01*
X86735341Y-86745341D01*
X86864922Y-86638996D01*
X86880094Y-86630886D01*
X87012758Y-86559976D01*
X87173177Y-86511313D01*
X87298196Y-86499000D01*
X87381804Y-86499000D01*
X87506823Y-86511313D01*
X87506823Y-86511313D01*
G37*
G36*
X104030443Y-85405519D02*
G01*
X104096627Y-85412037D01*
X104266466Y-85463557D01*
X104422991Y-85547222D01*
X104458729Y-85576552D01*
X104560186Y-85659814D01*
X104643448Y-85761271D01*
X104672778Y-85797009D01*
X104756443Y-85953534D01*
X104807963Y-86123373D01*
X104825359Y-86300000D01*
X104807963Y-86476627D01*
X104756443Y-86646466D01*
X104672778Y-86802991D01*
X104643448Y-86838729D01*
X104560186Y-86940186D01*
X104492978Y-86995341D01*
X104422991Y-87052778D01*
X104266466Y-87136443D01*
X104096627Y-87187963D01*
X104030443Y-87194481D01*
X103964260Y-87201000D01*
X103875740Y-87201000D01*
X103809557Y-87194481D01*
X103743373Y-87187963D01*
X103573534Y-87136443D01*
X103417009Y-87052778D01*
X103347022Y-86995341D01*
X103279814Y-86940186D01*
X103196552Y-86838729D01*
X103167222Y-86802991D01*
X103083557Y-86646466D01*
X103032037Y-86476627D01*
X103014641Y-86300000D01*
X103032037Y-86123373D01*
X103083557Y-85953534D01*
X103167222Y-85797009D01*
X103196552Y-85761271D01*
X103279814Y-85659814D01*
X103381271Y-85576552D01*
X103417009Y-85547222D01*
X103573534Y-85463557D01*
X103743373Y-85412037D01*
X103809557Y-85405519D01*
X103875740Y-85399000D01*
X103964260Y-85399000D01*
X104030443Y-85405519D01*
X104030443Y-85405519D01*
G37*
G36*
X106570443Y-85405519D02*
G01*
X106636627Y-85412037D01*
X106806466Y-85463557D01*
X106962991Y-85547222D01*
X106998729Y-85576552D01*
X107100186Y-85659814D01*
X107183448Y-85761271D01*
X107212778Y-85797009D01*
X107296443Y-85953534D01*
X107347963Y-86123373D01*
X107365359Y-86300000D01*
X107347963Y-86476627D01*
X107296443Y-86646466D01*
X107212778Y-86802991D01*
X107183448Y-86838729D01*
X107100186Y-86940186D01*
X107032978Y-86995341D01*
X106962991Y-87052778D01*
X106806466Y-87136443D01*
X106636627Y-87187963D01*
X106570443Y-87194481D01*
X106504260Y-87201000D01*
X106415740Y-87201000D01*
X106349557Y-87194481D01*
X106283373Y-87187963D01*
X106113534Y-87136443D01*
X105957009Y-87052778D01*
X105887022Y-86995341D01*
X105819814Y-86940186D01*
X105736552Y-86838729D01*
X105707222Y-86802991D01*
X105623557Y-86646466D01*
X105572037Y-86476627D01*
X105554641Y-86300000D01*
X105572037Y-86123373D01*
X105623557Y-85953534D01*
X105707222Y-85797009D01*
X105736552Y-85761271D01*
X105819814Y-85659814D01*
X105921271Y-85576552D01*
X105957009Y-85547222D01*
X106113534Y-85463557D01*
X106283373Y-85412037D01*
X106349557Y-85405519D01*
X106415740Y-85399000D01*
X106504260Y-85399000D01*
X106570443Y-85405519D01*
X106570443Y-85405519D01*
G37*
G36*
X109110443Y-85405519D02*
G01*
X109176627Y-85412037D01*
X109346466Y-85463557D01*
X109502991Y-85547222D01*
X109538729Y-85576552D01*
X109640186Y-85659814D01*
X109723448Y-85761271D01*
X109752778Y-85797009D01*
X109836443Y-85953534D01*
X109887963Y-86123373D01*
X109905359Y-86300000D01*
X109887963Y-86476627D01*
X109836443Y-86646466D01*
X109752778Y-86802991D01*
X109723448Y-86838729D01*
X109640186Y-86940186D01*
X109572978Y-86995341D01*
X109502991Y-87052778D01*
X109346466Y-87136443D01*
X109176627Y-87187963D01*
X109110443Y-87194481D01*
X109044260Y-87201000D01*
X108955740Y-87201000D01*
X108889557Y-87194481D01*
X108823373Y-87187963D01*
X108653534Y-87136443D01*
X108497009Y-87052778D01*
X108427022Y-86995341D01*
X108359814Y-86940186D01*
X108276552Y-86838729D01*
X108247222Y-86802991D01*
X108163557Y-86646466D01*
X108112037Y-86476627D01*
X108094641Y-86300000D01*
X108112037Y-86123373D01*
X108163557Y-85953534D01*
X108247222Y-85797009D01*
X108276552Y-85761271D01*
X108359814Y-85659814D01*
X108461271Y-85576552D01*
X108497009Y-85547222D01*
X108653534Y-85463557D01*
X108823373Y-85412037D01*
X108889557Y-85405519D01*
X108955740Y-85399000D01*
X109044260Y-85399000D01*
X109110443Y-85405519D01*
X109110443Y-85405519D01*
G37*
G36*
X94661000Y-87201000D02*
G01*
X92859000Y-87201000D01*
X92859000Y-85399000D01*
X94661000Y-85399000D01*
X94661000Y-87201000D01*
X94661000Y-87201000D01*
G37*
G36*
X98950443Y-85405519D02*
G01*
X99016627Y-85412037D01*
X99186466Y-85463557D01*
X99342991Y-85547222D01*
X99378729Y-85576552D01*
X99480186Y-85659814D01*
X99563448Y-85761271D01*
X99592778Y-85797009D01*
X99676443Y-85953534D01*
X99727963Y-86123373D01*
X99745359Y-86300000D01*
X99727963Y-86476627D01*
X99676443Y-86646466D01*
X99592778Y-86802991D01*
X99563448Y-86838729D01*
X99480186Y-86940186D01*
X99412978Y-86995341D01*
X99342991Y-87052778D01*
X99186466Y-87136443D01*
X99016627Y-87187963D01*
X98950443Y-87194481D01*
X98884260Y-87201000D01*
X98795740Y-87201000D01*
X98729557Y-87194481D01*
X98663373Y-87187963D01*
X98493534Y-87136443D01*
X98337009Y-87052778D01*
X98267022Y-86995341D01*
X98199814Y-86940186D01*
X98116552Y-86838729D01*
X98087222Y-86802991D01*
X98003557Y-86646466D01*
X97952037Y-86476627D01*
X97934641Y-86300000D01*
X97952037Y-86123373D01*
X98003557Y-85953534D01*
X98087222Y-85797009D01*
X98116552Y-85761271D01*
X98199814Y-85659814D01*
X98301271Y-85576552D01*
X98337009Y-85547222D01*
X98493534Y-85463557D01*
X98663373Y-85412037D01*
X98729557Y-85405519D01*
X98795740Y-85399000D01*
X98884260Y-85399000D01*
X98950443Y-85405519D01*
X98950443Y-85405519D01*
G37*
G36*
X101490443Y-85405519D02*
G01*
X101556627Y-85412037D01*
X101726466Y-85463557D01*
X101882991Y-85547222D01*
X101918729Y-85576552D01*
X102020186Y-85659814D01*
X102103448Y-85761271D01*
X102132778Y-85797009D01*
X102216443Y-85953534D01*
X102267963Y-86123373D01*
X102285359Y-86300000D01*
X102267963Y-86476627D01*
X102216443Y-86646466D01*
X102132778Y-86802991D01*
X102103448Y-86838729D01*
X102020186Y-86940186D01*
X101952978Y-86995341D01*
X101882991Y-87052778D01*
X101726466Y-87136443D01*
X101556627Y-87187963D01*
X101490443Y-87194481D01*
X101424260Y-87201000D01*
X101335740Y-87201000D01*
X101269557Y-87194481D01*
X101203373Y-87187963D01*
X101033534Y-87136443D01*
X100877009Y-87052778D01*
X100807022Y-86995341D01*
X100739814Y-86940186D01*
X100656552Y-86838729D01*
X100627222Y-86802991D01*
X100543557Y-86646466D01*
X100492037Y-86476627D01*
X100474641Y-86300000D01*
X100492037Y-86123373D01*
X100543557Y-85953534D01*
X100627222Y-85797009D01*
X100656552Y-85761271D01*
X100739814Y-85659814D01*
X100841271Y-85576552D01*
X100877009Y-85547222D01*
X101033534Y-85463557D01*
X101203373Y-85412037D01*
X101269557Y-85405519D01*
X101335740Y-85399000D01*
X101424260Y-85399000D01*
X101490443Y-85405519D01*
X101490443Y-85405519D01*
G37*
G36*
X96410443Y-85405519D02*
G01*
X96476627Y-85412037D01*
X96646466Y-85463557D01*
X96802991Y-85547222D01*
X96838729Y-85576552D01*
X96940186Y-85659814D01*
X97023448Y-85761271D01*
X97052778Y-85797009D01*
X97136443Y-85953534D01*
X97187963Y-86123373D01*
X97205359Y-86300000D01*
X97187963Y-86476627D01*
X97136443Y-86646466D01*
X97052778Y-86802991D01*
X97023448Y-86838729D01*
X96940186Y-86940186D01*
X96872978Y-86995341D01*
X96802991Y-87052778D01*
X96646466Y-87136443D01*
X96476627Y-87187963D01*
X96410443Y-87194481D01*
X96344260Y-87201000D01*
X96255740Y-87201000D01*
X96189557Y-87194481D01*
X96123373Y-87187963D01*
X95953534Y-87136443D01*
X95797009Y-87052778D01*
X95727022Y-86995341D01*
X95659814Y-86940186D01*
X95576552Y-86838729D01*
X95547222Y-86802991D01*
X95463557Y-86646466D01*
X95412037Y-86476627D01*
X95394641Y-86300000D01*
X95412037Y-86123373D01*
X95463557Y-85953534D01*
X95547222Y-85797009D01*
X95576552Y-85761271D01*
X95659814Y-85659814D01*
X95761271Y-85576552D01*
X95797009Y-85547222D01*
X95953534Y-85463557D01*
X96123373Y-85412037D01*
X96189557Y-85405519D01*
X96255740Y-85399000D01*
X96344260Y-85399000D01*
X96410443Y-85405519D01*
X96410443Y-85405519D01*
G37*
G36*
X124220443Y-82355519D02*
G01*
X124286627Y-82362037D01*
X124456466Y-82413557D01*
X124612991Y-82497222D01*
X124648729Y-82526552D01*
X124750186Y-82609814D01*
X124833448Y-82711271D01*
X124862778Y-82747009D01*
X124946443Y-82903534D01*
X124997963Y-83073373D01*
X125015359Y-83250000D01*
X124997963Y-83426627D01*
X124946443Y-83596466D01*
X124862778Y-83752991D01*
X124833448Y-83788729D01*
X124750186Y-83890186D01*
X124648729Y-83973448D01*
X124612991Y-84002778D01*
X124456466Y-84086443D01*
X124286627Y-84137963D01*
X124220443Y-84144481D01*
X124154260Y-84151000D01*
X124065740Y-84151000D01*
X123999557Y-84144481D01*
X123933373Y-84137963D01*
X123763534Y-84086443D01*
X123607009Y-84002778D01*
X123571271Y-83973448D01*
X123469814Y-83890186D01*
X123386552Y-83788729D01*
X123357222Y-83752991D01*
X123273557Y-83596466D01*
X123222037Y-83426627D01*
X123204641Y-83250000D01*
X123222037Y-83073373D01*
X123273557Y-82903534D01*
X123357222Y-82747009D01*
X123386552Y-82711271D01*
X123469814Y-82609814D01*
X123571271Y-82526552D01*
X123607009Y-82497222D01*
X123763534Y-82413557D01*
X123933373Y-82362037D01*
X123999557Y-82355519D01*
X124065740Y-82349000D01*
X124154260Y-82349000D01*
X124220443Y-82355519D01*
X124220443Y-82355519D01*
G37*
G36*
X126760443Y-82355519D02*
G01*
X126826627Y-82362037D01*
X126996466Y-82413557D01*
X127152991Y-82497222D01*
X127188729Y-82526552D01*
X127290186Y-82609814D01*
X127373448Y-82711271D01*
X127402778Y-82747009D01*
X127486443Y-82903534D01*
X127537963Y-83073373D01*
X127555359Y-83250000D01*
X127537963Y-83426627D01*
X127486443Y-83596466D01*
X127402778Y-83752991D01*
X127373448Y-83788729D01*
X127290186Y-83890186D01*
X127188729Y-83973448D01*
X127152991Y-84002778D01*
X126996466Y-84086443D01*
X126826627Y-84137963D01*
X126760443Y-84144481D01*
X126694260Y-84151000D01*
X126605740Y-84151000D01*
X126539557Y-84144481D01*
X126473373Y-84137963D01*
X126303534Y-84086443D01*
X126147009Y-84002778D01*
X126111271Y-83973448D01*
X126009814Y-83890186D01*
X125926552Y-83788729D01*
X125897222Y-83752991D01*
X125813557Y-83596466D01*
X125762037Y-83426627D01*
X125744641Y-83250000D01*
X125762037Y-83073373D01*
X125813557Y-82903534D01*
X125897222Y-82747009D01*
X125926552Y-82711271D01*
X126009814Y-82609814D01*
X126111271Y-82526552D01*
X126147009Y-82497222D01*
X126303534Y-82413557D01*
X126473373Y-82362037D01*
X126539557Y-82355519D01*
X126605740Y-82349000D01*
X126694260Y-82349000D01*
X126760443Y-82355519D01*
X126760443Y-82355519D01*
G37*
G36*
X121680443Y-82355519D02*
G01*
X121746627Y-82362037D01*
X121916466Y-82413557D01*
X122072991Y-82497222D01*
X122108729Y-82526552D01*
X122210186Y-82609814D01*
X122293448Y-82711271D01*
X122322778Y-82747009D01*
X122406443Y-82903534D01*
X122457963Y-83073373D01*
X122475359Y-83250000D01*
X122457963Y-83426627D01*
X122406443Y-83596466D01*
X122322778Y-83752991D01*
X122293448Y-83788729D01*
X122210186Y-83890186D01*
X122108729Y-83973448D01*
X122072991Y-84002778D01*
X121916466Y-84086443D01*
X121746627Y-84137963D01*
X121680443Y-84144481D01*
X121614260Y-84151000D01*
X121525740Y-84151000D01*
X121459557Y-84144481D01*
X121393373Y-84137963D01*
X121223534Y-84086443D01*
X121067009Y-84002778D01*
X121031271Y-83973448D01*
X120929814Y-83890186D01*
X120846552Y-83788729D01*
X120817222Y-83752991D01*
X120733557Y-83596466D01*
X120682037Y-83426627D01*
X120664641Y-83250000D01*
X120682037Y-83073373D01*
X120733557Y-82903534D01*
X120817222Y-82747009D01*
X120846552Y-82711271D01*
X120929814Y-82609814D01*
X121031271Y-82526552D01*
X121067009Y-82497222D01*
X121223534Y-82413557D01*
X121393373Y-82362037D01*
X121459557Y-82355519D01*
X121525740Y-82349000D01*
X121614260Y-82349000D01*
X121680443Y-82355519D01*
X121680443Y-82355519D01*
G37*
G36*
X119140443Y-82355519D02*
G01*
X119206627Y-82362037D01*
X119376466Y-82413557D01*
X119532991Y-82497222D01*
X119568729Y-82526552D01*
X119670186Y-82609814D01*
X119753448Y-82711271D01*
X119782778Y-82747009D01*
X119866443Y-82903534D01*
X119917963Y-83073373D01*
X119935359Y-83250000D01*
X119917963Y-83426627D01*
X119866443Y-83596466D01*
X119782778Y-83752991D01*
X119753448Y-83788729D01*
X119670186Y-83890186D01*
X119568729Y-83973448D01*
X119532991Y-84002778D01*
X119376466Y-84086443D01*
X119206627Y-84137963D01*
X119140443Y-84144481D01*
X119074260Y-84151000D01*
X118985740Y-84151000D01*
X118919557Y-84144481D01*
X118853373Y-84137963D01*
X118683534Y-84086443D01*
X118527009Y-84002778D01*
X118491271Y-83973448D01*
X118389814Y-83890186D01*
X118306552Y-83788729D01*
X118277222Y-83752991D01*
X118193557Y-83596466D01*
X118142037Y-83426627D01*
X118124641Y-83250000D01*
X118142037Y-83073373D01*
X118193557Y-82903534D01*
X118277222Y-82747009D01*
X118306552Y-82711271D01*
X118389814Y-82609814D01*
X118491271Y-82526552D01*
X118527009Y-82497222D01*
X118683534Y-82413557D01*
X118853373Y-82362037D01*
X118919557Y-82355519D01*
X118985740Y-82349000D01*
X119074260Y-82349000D01*
X119140443Y-82355519D01*
X119140443Y-82355519D01*
G37*
G36*
X117391000Y-84151000D02*
G01*
X115589000Y-84151000D01*
X115589000Y-82349000D01*
X117391000Y-82349000D01*
X117391000Y-84151000D01*
X117391000Y-84151000D01*
G37*
G36*
X80570443Y-81355519D02*
G01*
X80636627Y-81362037D01*
X80806466Y-81413557D01*
X80962991Y-81497222D01*
X80995009Y-81523499D01*
X81100186Y-81609814D01*
X81178302Y-81705000D01*
X81212778Y-81747009D01*
X81296443Y-81903534D01*
X81347963Y-82073373D01*
X81365359Y-82250000D01*
X81347963Y-82426627D01*
X81296443Y-82596466D01*
X81212778Y-82752991D01*
X81183448Y-82788729D01*
X81100186Y-82890186D01*
X80998729Y-82973448D01*
X80962991Y-83002778D01*
X80806466Y-83086443D01*
X80636627Y-83137963D01*
X80570442Y-83144482D01*
X80504260Y-83151000D01*
X80415740Y-83151000D01*
X80349558Y-83144482D01*
X80283373Y-83137963D01*
X80113534Y-83086443D01*
X79957009Y-83002778D01*
X79921271Y-82973448D01*
X79819814Y-82890186D01*
X79736552Y-82788729D01*
X79707222Y-82752991D01*
X79623557Y-82596466D01*
X79572037Y-82426627D01*
X79554641Y-82250000D01*
X79572037Y-82073373D01*
X79623557Y-81903534D01*
X79707222Y-81747009D01*
X79741698Y-81705000D01*
X79819814Y-81609814D01*
X79924991Y-81523499D01*
X79957009Y-81497222D01*
X80113534Y-81413557D01*
X80283373Y-81362037D01*
X80349557Y-81355519D01*
X80415740Y-81349000D01*
X80504260Y-81349000D01*
X80570443Y-81355519D01*
X80570443Y-81355519D01*
G37*
G36*
X73741000Y-83151000D02*
G01*
X71939000Y-83151000D01*
X71939000Y-81349000D01*
X73741000Y-81349000D01*
X73741000Y-83151000D01*
X73741000Y-83151000D01*
G37*
G36*
X83110443Y-81355519D02*
G01*
X83176627Y-81362037D01*
X83346466Y-81413557D01*
X83502991Y-81497222D01*
X83535009Y-81523499D01*
X83640186Y-81609814D01*
X83718302Y-81705000D01*
X83752778Y-81747009D01*
X83836443Y-81903534D01*
X83887963Y-82073373D01*
X83905359Y-82250000D01*
X83887963Y-82426627D01*
X83836443Y-82596466D01*
X83752778Y-82752991D01*
X83723448Y-82788729D01*
X83640186Y-82890186D01*
X83538729Y-82973448D01*
X83502991Y-83002778D01*
X83346466Y-83086443D01*
X83176627Y-83137963D01*
X83110442Y-83144482D01*
X83044260Y-83151000D01*
X82955740Y-83151000D01*
X82889558Y-83144482D01*
X82823373Y-83137963D01*
X82653534Y-83086443D01*
X82497009Y-83002778D01*
X82461271Y-82973448D01*
X82359814Y-82890186D01*
X82276552Y-82788729D01*
X82247222Y-82752991D01*
X82163557Y-82596466D01*
X82112037Y-82426627D01*
X82094641Y-82250000D01*
X82112037Y-82073373D01*
X82163557Y-81903534D01*
X82247222Y-81747009D01*
X82281698Y-81705000D01*
X82359814Y-81609814D01*
X82464991Y-81523499D01*
X82497009Y-81497222D01*
X82653534Y-81413557D01*
X82823373Y-81362037D01*
X82889557Y-81355519D01*
X82955740Y-81349000D01*
X83044260Y-81349000D01*
X83110443Y-81355519D01*
X83110443Y-81355519D01*
G37*
G36*
X78030443Y-81355519D02*
G01*
X78096627Y-81362037D01*
X78266466Y-81413557D01*
X78422991Y-81497222D01*
X78455009Y-81523499D01*
X78560186Y-81609814D01*
X78638302Y-81705000D01*
X78672778Y-81747009D01*
X78756443Y-81903534D01*
X78807963Y-82073373D01*
X78825359Y-82250000D01*
X78807963Y-82426627D01*
X78756443Y-82596466D01*
X78672778Y-82752991D01*
X78643448Y-82788729D01*
X78560186Y-82890186D01*
X78458729Y-82973448D01*
X78422991Y-83002778D01*
X78266466Y-83086443D01*
X78096627Y-83137963D01*
X78030442Y-83144482D01*
X77964260Y-83151000D01*
X77875740Y-83151000D01*
X77809558Y-83144482D01*
X77743373Y-83137963D01*
X77573534Y-83086443D01*
X77417009Y-83002778D01*
X77381271Y-82973448D01*
X77279814Y-82890186D01*
X77196552Y-82788729D01*
X77167222Y-82752991D01*
X77083557Y-82596466D01*
X77032037Y-82426627D01*
X77014641Y-82250000D01*
X77032037Y-82073373D01*
X77083557Y-81903534D01*
X77167222Y-81747009D01*
X77201698Y-81705000D01*
X77279814Y-81609814D01*
X77384991Y-81523499D01*
X77417009Y-81497222D01*
X77573534Y-81413557D01*
X77743373Y-81362037D01*
X77809557Y-81355519D01*
X77875740Y-81349000D01*
X77964260Y-81349000D01*
X78030443Y-81355519D01*
X78030443Y-81355519D01*
G37*
G36*
X75490443Y-81355519D02*
G01*
X75556627Y-81362037D01*
X75726466Y-81413557D01*
X75882991Y-81497222D01*
X75915009Y-81523499D01*
X76020186Y-81609814D01*
X76098302Y-81705000D01*
X76132778Y-81747009D01*
X76216443Y-81903534D01*
X76267963Y-82073373D01*
X76285359Y-82250000D01*
X76267963Y-82426627D01*
X76216443Y-82596466D01*
X76132778Y-82752991D01*
X76103448Y-82788729D01*
X76020186Y-82890186D01*
X75918729Y-82973448D01*
X75882991Y-83002778D01*
X75726466Y-83086443D01*
X75556627Y-83137963D01*
X75490442Y-83144482D01*
X75424260Y-83151000D01*
X75335740Y-83151000D01*
X75269558Y-83144482D01*
X75203373Y-83137963D01*
X75033534Y-83086443D01*
X74877009Y-83002778D01*
X74841271Y-82973448D01*
X74739814Y-82890186D01*
X74656552Y-82788729D01*
X74627222Y-82752991D01*
X74543557Y-82596466D01*
X74492037Y-82426627D01*
X74474641Y-82250000D01*
X74492037Y-82073373D01*
X74543557Y-81903534D01*
X74627222Y-81747009D01*
X74661698Y-81705000D01*
X74739814Y-81609814D01*
X74844991Y-81523499D01*
X74877009Y-81497222D01*
X75033534Y-81413557D01*
X75203373Y-81362037D01*
X75269557Y-81355519D01*
X75335740Y-81349000D01*
X75424260Y-81349000D01*
X75490443Y-81355519D01*
X75490443Y-81355519D01*
G37*
G36*
X138426000Y-81951000D02*
G01*
X135724000Y-81951000D01*
X135724000Y-79249000D01*
X138426000Y-79249000D01*
X138426000Y-81951000D01*
X138426000Y-81951000D01*
G37*
G36*
X140969072Y-79300918D02*
G01*
X141214939Y-79402759D01*
X141326328Y-79477187D01*
X141436211Y-79550609D01*
X141624391Y-79738789D01*
X141772242Y-79960063D01*
X141874082Y-80205928D01*
X141926000Y-80466937D01*
X141926000Y-80733063D01*
X141874082Y-80994072D01*
X141818135Y-81129142D01*
X141772241Y-81239939D01*
X141747410Y-81277101D01*
X141624391Y-81461211D01*
X141436211Y-81649391D01*
X141399743Y-81673758D01*
X141214939Y-81797241D01*
X141214938Y-81797242D01*
X141214937Y-81797242D01*
X140969072Y-81899082D01*
X140708063Y-81951000D01*
X140441937Y-81951000D01*
X140180928Y-81899082D01*
X139935063Y-81797242D01*
X139935062Y-81797242D01*
X139935061Y-81797241D01*
X139750257Y-81673758D01*
X139713789Y-81649391D01*
X139525609Y-81461211D01*
X139402590Y-81277101D01*
X139377759Y-81239939D01*
X139331866Y-81129142D01*
X139275918Y-80994072D01*
X139224000Y-80733063D01*
X139224000Y-80466937D01*
X139275918Y-80205928D01*
X139377758Y-79960063D01*
X139525609Y-79738789D01*
X139713789Y-79550609D01*
X139823672Y-79477187D01*
X139935061Y-79402759D01*
X140180928Y-79300918D01*
X140441937Y-79249000D01*
X140708063Y-79249000D01*
X140969072Y-79300918D01*
X140969072Y-79300918D01*
G37*
G36*
X112362142Y-80110242D02*
G01*
X112510101Y-80171529D01*
X112643255Y-80260499D01*
X112756501Y-80373745D01*
X112845471Y-80506899D01*
X112906758Y-80654858D01*
X112938000Y-80811925D01*
X112938000Y-80972075D01*
X112906758Y-81129142D01*
X112845471Y-81277101D01*
X112756501Y-81410255D01*
X112643255Y-81523501D01*
X112510101Y-81612471D01*
X112362142Y-81673758D01*
X112205075Y-81705000D01*
X112044925Y-81705000D01*
X111887858Y-81673758D01*
X111739899Y-81612471D01*
X111606745Y-81523501D01*
X111493499Y-81410255D01*
X111404529Y-81277101D01*
X111343242Y-81129142D01*
X111312000Y-80972075D01*
X111312000Y-80811925D01*
X111343242Y-80654858D01*
X111404529Y-80506899D01*
X111493499Y-80373745D01*
X111606745Y-80260499D01*
X111739899Y-80171529D01*
X111887858Y-80110242D01*
X112044925Y-80079000D01*
X112205075Y-80079000D01*
X112362142Y-80110242D01*
X112362142Y-80110242D01*
G37*
G36*
X91837142Y-77568242D02*
G01*
X91985101Y-77629529D01*
X92118255Y-77718499D01*
X92231501Y-77831745D01*
X92320471Y-77964899D01*
X92381758Y-78112858D01*
X92413000Y-78269925D01*
X92413000Y-78430075D01*
X92381758Y-78587142D01*
X92320471Y-78735101D01*
X92231501Y-78868255D01*
X92118255Y-78981501D01*
X91985101Y-79070471D01*
X91837142Y-79131758D01*
X91680075Y-79163000D01*
X91519925Y-79163000D01*
X91362858Y-79131758D01*
X91214899Y-79070471D01*
X91081745Y-78981501D01*
X90968499Y-78868255D01*
X90879529Y-78735101D01*
X90818242Y-78587142D01*
X90787000Y-78430075D01*
X90787000Y-78269925D01*
X90818242Y-78112858D01*
X90879529Y-77964899D01*
X90968499Y-77831745D01*
X91081745Y-77718499D01*
X91214899Y-77629529D01*
X91362858Y-77568242D01*
X91519925Y-77537000D01*
X91680075Y-77537000D01*
X91837142Y-77568242D01*
X91837142Y-77568242D01*
G37*
G36*
X106837142Y-77568242D02*
G01*
X106985101Y-77629529D01*
X107118255Y-77718499D01*
X107231501Y-77831745D01*
X107320471Y-77964899D01*
X107381758Y-78112858D01*
X107413000Y-78269925D01*
X107413000Y-78430075D01*
X107381758Y-78587142D01*
X107320471Y-78735101D01*
X107231501Y-78868255D01*
X107118255Y-78981501D01*
X106985101Y-79070471D01*
X106837142Y-79131758D01*
X106680075Y-79163000D01*
X106519925Y-79163000D01*
X106362858Y-79131758D01*
X106214899Y-79070471D01*
X106081745Y-78981501D01*
X105968499Y-78868255D01*
X105879529Y-78735101D01*
X105818242Y-78587142D01*
X105787000Y-78430075D01*
X105787000Y-78269925D01*
X105818242Y-78112858D01*
X105879529Y-77964899D01*
X105968499Y-77831745D01*
X106081745Y-77718499D01*
X106214899Y-77629529D01*
X106362858Y-77568242D01*
X106519925Y-77537000D01*
X106680075Y-77537000D01*
X106837142Y-77568242D01*
X106837142Y-77568242D01*
G37*
G36*
X112362142Y-77443242D02*
G01*
X112510101Y-77504529D01*
X112643255Y-77593499D01*
X112756501Y-77706745D01*
X112845471Y-77839899D01*
X112906758Y-77987858D01*
X112938000Y-78144925D01*
X112938000Y-78305075D01*
X112906758Y-78462142D01*
X112845471Y-78610101D01*
X112756501Y-78743255D01*
X112643255Y-78856501D01*
X112510101Y-78945471D01*
X112362142Y-79006758D01*
X112205075Y-79038000D01*
X112044925Y-79038000D01*
X111887858Y-79006758D01*
X111739899Y-78945471D01*
X111606745Y-78856501D01*
X111493499Y-78743255D01*
X111404529Y-78610101D01*
X111343242Y-78462142D01*
X111312000Y-78305075D01*
X111312000Y-78144925D01*
X111343242Y-77987858D01*
X111404529Y-77839899D01*
X111493499Y-77706745D01*
X111606745Y-77593499D01*
X111739899Y-77504529D01*
X111887858Y-77443242D01*
X112044925Y-77412000D01*
X112205075Y-77412000D01*
X112362142Y-77443242D01*
X112362142Y-77443242D01*
G37*
G36*
X117901000Y-76501000D02*
G01*
X114799000Y-76501000D01*
X114799000Y-73399000D01*
X117901000Y-73399000D01*
X117901000Y-76501000D01*
X117901000Y-76501000D01*
G37*
G36*
X121732585Y-73428802D02*
G01*
X121882410Y-73458604D01*
X122164674Y-73575521D01*
X122418705Y-73745259D01*
X122634741Y-73961295D01*
X122804479Y-74215326D01*
X122921396Y-74497590D01*
X122933425Y-74558063D01*
X122976824Y-74776243D01*
X122981000Y-74797240D01*
X122981000Y-75102760D01*
X122921396Y-75402410D01*
X122804479Y-75684674D01*
X122634741Y-75938705D01*
X122418705Y-76154741D01*
X122164674Y-76324479D01*
X121882410Y-76441396D01*
X121732585Y-76471198D01*
X121582761Y-76501000D01*
X121277239Y-76501000D01*
X121127415Y-76471198D01*
X120977590Y-76441396D01*
X120695326Y-76324479D01*
X120441295Y-76154741D01*
X120225259Y-75938705D01*
X120055521Y-75684674D01*
X119938604Y-75402410D01*
X119879000Y-75102760D01*
X119879000Y-74797240D01*
X119883177Y-74776243D01*
X119926575Y-74558063D01*
X119938604Y-74497590D01*
X120055521Y-74215326D01*
X120225259Y-73961295D01*
X120441295Y-73745259D01*
X120695326Y-73575521D01*
X120977590Y-73458604D01*
X121127415Y-73428802D01*
X121277239Y-73399000D01*
X121582761Y-73399000D01*
X121732585Y-73428802D01*
X121732585Y-73428802D01*
G37*
G36*
X112362142Y-74776242D02*
G01*
X112510101Y-74837529D01*
X112643255Y-74926499D01*
X112756501Y-75039745D01*
X112845471Y-75172899D01*
X112906758Y-75320858D01*
X112938000Y-75477925D01*
X112938000Y-75638075D01*
X112906758Y-75795142D01*
X112845471Y-75943101D01*
X112756501Y-76076255D01*
X112643255Y-76189501D01*
X112510101Y-76278471D01*
X112362142Y-76339758D01*
X112205075Y-76371000D01*
X112044925Y-76371000D01*
X111887858Y-76339758D01*
X111739899Y-76278471D01*
X111606745Y-76189501D01*
X111493499Y-76076255D01*
X111404529Y-75943101D01*
X111343242Y-75795142D01*
X111312000Y-75638075D01*
X111312000Y-75477925D01*
X111343242Y-75320858D01*
X111404529Y-75172899D01*
X111493499Y-75039745D01*
X111606745Y-74926499D01*
X111739899Y-74837529D01*
X111887858Y-74776242D01*
X112044925Y-74745000D01*
X112205075Y-74745000D01*
X112362142Y-74776242D01*
X112362142Y-74776242D01*
G37*
G36*
X128926000Y-75776000D02*
G01*
X126224000Y-75776000D01*
X126224000Y-73074000D01*
X128926000Y-73074000D01*
X128926000Y-75776000D01*
X128926000Y-75776000D01*
G37*
G36*
X131469072Y-73125918D02*
G01*
X131714939Y-73227759D01*
X131826328Y-73302187D01*
X131936211Y-73375609D01*
X132124391Y-73563789D01*
X132176348Y-73641548D01*
X132245647Y-73745260D01*
X132272242Y-73785063D01*
X132374082Y-74030928D01*
X132426000Y-74291937D01*
X132426000Y-74558063D01*
X132374082Y-74819072D01*
X132282678Y-75039743D01*
X132272241Y-75064939D01*
X132246969Y-75102761D01*
X132124391Y-75286211D01*
X131936211Y-75474391D01*
X131826328Y-75547813D01*
X131714939Y-75622241D01*
X131714938Y-75622242D01*
X131714937Y-75622242D01*
X131469072Y-75724082D01*
X131208063Y-75776000D01*
X130941937Y-75776000D01*
X130680928Y-75724082D01*
X130435063Y-75622242D01*
X130435062Y-75622242D01*
X130435061Y-75622241D01*
X130323672Y-75547813D01*
X130213789Y-75474391D01*
X130025609Y-75286211D01*
X129903031Y-75102761D01*
X129877759Y-75064939D01*
X129867323Y-75039743D01*
X129775918Y-74819072D01*
X129724000Y-74558063D01*
X129724000Y-74291937D01*
X129775918Y-74030928D01*
X129877758Y-73785063D01*
X129904354Y-73745260D01*
X129973652Y-73641548D01*
X130025609Y-73563789D01*
X130213789Y-73375609D01*
X130323672Y-73302187D01*
X130435061Y-73227759D01*
X130680928Y-73125918D01*
X130941937Y-73074000D01*
X131208063Y-73074000D01*
X131469072Y-73125918D01*
X131469072Y-73125918D01*
G37*
G36*
X64751000Y-75051000D02*
G01*
X62049000Y-75051000D01*
X62049000Y-72349000D01*
X64751000Y-72349000D01*
X64751000Y-75051000D01*
X64751000Y-75051000D01*
G37*
G36*
X67294072Y-72400918D02*
G01*
X67463684Y-72471173D01*
X67539939Y-72502759D01*
X67651328Y-72577187D01*
X67761211Y-72650609D01*
X67949391Y-72838789D01*
X68097242Y-73060063D01*
X68199082Y-73305928D01*
X68251000Y-73566937D01*
X68251000Y-73833063D01*
X68225493Y-73961295D01*
X68199082Y-74094072D01*
X68097241Y-74339939D01*
X68022813Y-74451328D01*
X67949391Y-74561211D01*
X67761211Y-74749391D01*
X67689600Y-74797240D01*
X67539939Y-74897241D01*
X67539938Y-74897242D01*
X67539937Y-74897242D01*
X67294072Y-74999082D01*
X67033063Y-75051000D01*
X66766937Y-75051000D01*
X66505928Y-74999082D01*
X66260063Y-74897242D01*
X66260062Y-74897242D01*
X66260061Y-74897241D01*
X66110400Y-74797240D01*
X66038789Y-74749391D01*
X65850609Y-74561211D01*
X65777187Y-74451328D01*
X65702759Y-74339939D01*
X65600918Y-74094072D01*
X65574507Y-73961295D01*
X65549000Y-73833063D01*
X65549000Y-73566937D01*
X65600918Y-73305928D01*
X65702758Y-73060063D01*
X65850609Y-72838789D01*
X66038789Y-72650609D01*
X66148672Y-72577187D01*
X66260061Y-72502759D01*
X66336317Y-72471173D01*
X66505928Y-72400918D01*
X66766937Y-72349000D01*
X67033063Y-72349000D01*
X67294072Y-72400918D01*
X67294072Y-72400918D01*
G37*
G36*
X74551000Y-74851000D02*
G01*
X71849000Y-74851000D01*
X71849000Y-72149000D01*
X74551000Y-72149000D01*
X74551000Y-74851000D01*
X74551000Y-74851000D01*
G37*
G36*
X77084430Y-72199000D02*
G01*
X77094072Y-72200918D01*
X77339939Y-72302759D01*
X77365685Y-72319962D01*
X77561211Y-72450609D01*
X77749391Y-72638789D01*
X77822813Y-72748672D01*
X77883027Y-72838788D01*
X77897242Y-72860063D01*
X77999082Y-73105928D01*
X78051000Y-73366937D01*
X78051000Y-73633063D01*
X77999082Y-73894072D01*
X77897242Y-74139937D01*
X77749391Y-74361211D01*
X77561211Y-74549391D01*
X77451328Y-74622813D01*
X77339939Y-74697241D01*
X77339938Y-74697242D01*
X77339937Y-74697242D01*
X77094072Y-74799082D01*
X76833063Y-74851000D01*
X76566937Y-74851000D01*
X76305928Y-74799082D01*
X76060063Y-74697242D01*
X76060062Y-74697242D01*
X76060061Y-74697241D01*
X75948672Y-74622813D01*
X75838789Y-74549391D01*
X75650609Y-74361211D01*
X75502758Y-74139937D01*
X75400918Y-73894072D01*
X75349000Y-73633063D01*
X75349000Y-73366937D01*
X75400918Y-73105928D01*
X75502758Y-72860063D01*
X75516974Y-72838788D01*
X75577187Y-72748672D01*
X75650609Y-72638789D01*
X75838789Y-72450609D01*
X76034315Y-72319962D01*
X76060061Y-72302759D01*
X76305928Y-72200918D01*
X76315570Y-72199000D01*
X76566937Y-72149000D01*
X76833063Y-72149000D01*
X77084430Y-72199000D01*
X77084430Y-72199000D01*
G37*
G36*
X138063674Y-72203465D02*
G01*
X138101367Y-72214899D01*
X138136103Y-72233466D01*
X138166548Y-72258452D01*
X138191534Y-72288897D01*
X138210101Y-72323633D01*
X138221535Y-72361326D01*
X138226000Y-72406661D01*
X138226000Y-73493339D01*
X138221535Y-73538674D01*
X138210101Y-73576367D01*
X138191534Y-73611103D01*
X138166548Y-73641548D01*
X138136103Y-73666534D01*
X138101367Y-73685101D01*
X138063674Y-73696535D01*
X138018339Y-73701000D01*
X137181661Y-73701000D01*
X137136326Y-73696535D01*
X137098633Y-73685101D01*
X137063897Y-73666534D01*
X137033452Y-73641548D01*
X137008466Y-73611103D01*
X136989899Y-73576367D01*
X136978465Y-73538674D01*
X136974000Y-73493339D01*
X136974000Y-72406661D01*
X136978465Y-72361326D01*
X136989899Y-72323633D01*
X137008466Y-72288897D01*
X137033452Y-72258452D01*
X137063897Y-72233466D01*
X137098633Y-72214899D01*
X137136326Y-72203465D01*
X137181661Y-72199000D01*
X138018339Y-72199000D01*
X138063674Y-72203465D01*
X138063674Y-72203465D01*
G37*
G36*
X136013674Y-72203465D02*
G01*
X136051367Y-72214899D01*
X136086103Y-72233466D01*
X136116548Y-72258452D01*
X136141534Y-72288897D01*
X136160101Y-72323633D01*
X136171535Y-72361326D01*
X136176000Y-72406661D01*
X136176000Y-73493339D01*
X136171535Y-73538674D01*
X136160101Y-73576367D01*
X136141534Y-73611103D01*
X136116548Y-73641548D01*
X136086103Y-73666534D01*
X136051367Y-73685101D01*
X136013674Y-73696535D01*
X135968339Y-73701000D01*
X135131661Y-73701000D01*
X135086326Y-73696535D01*
X135048633Y-73685101D01*
X135013897Y-73666534D01*
X134983452Y-73641548D01*
X134958466Y-73611103D01*
X134939899Y-73576367D01*
X134928465Y-73538674D01*
X134924000Y-73493339D01*
X134924000Y-72406661D01*
X134928465Y-72361326D01*
X134939899Y-72323633D01*
X134958466Y-72288897D01*
X134983452Y-72258452D01*
X135013897Y-72233466D01*
X135048633Y-72214899D01*
X135086326Y-72203465D01*
X135131661Y-72199000D01*
X135968339Y-72199000D01*
X136013674Y-72203465D01*
X136013674Y-72203465D01*
G37*
G36*
X97944072Y-68920918D02*
G01*
X98189939Y-69022759D01*
X98411212Y-69170610D01*
X98599390Y-69358788D01*
X98747241Y-69580061D01*
X98849082Y-69825928D01*
X98901000Y-70086938D01*
X98901000Y-70353062D01*
X98849082Y-70614072D01*
X98747241Y-70859939D01*
X98599390Y-71081212D01*
X98411212Y-71269390D01*
X98189939Y-71417241D01*
X98189938Y-71417242D01*
X98189937Y-71417242D01*
X97944072Y-71519082D01*
X97683063Y-71571000D01*
X97416937Y-71571000D01*
X97155928Y-71519082D01*
X96910063Y-71417242D01*
X96910062Y-71417242D01*
X96910061Y-71417241D01*
X96688788Y-71269390D01*
X96500610Y-71081212D01*
X96352759Y-70859939D01*
X96250918Y-70614072D01*
X96199000Y-70353062D01*
X96199000Y-70086938D01*
X96250918Y-69825928D01*
X96352759Y-69580061D01*
X96500610Y-69358788D01*
X96688788Y-69170610D01*
X96910061Y-69022759D01*
X97155928Y-68920918D01*
X97416937Y-68869000D01*
X97683063Y-68869000D01*
X97944072Y-68920918D01*
X97944072Y-68920918D01*
G37*
G36*
X135713674Y-66628465D02*
G01*
X135751367Y-66639899D01*
X135786103Y-66658466D01*
X135816548Y-66683452D01*
X135841534Y-66713897D01*
X135860101Y-66748633D01*
X135871535Y-66786326D01*
X135876000Y-66831661D01*
X135876000Y-67918339D01*
X135871535Y-67963674D01*
X135860101Y-68001367D01*
X135841534Y-68036103D01*
X135816548Y-68066548D01*
X135786103Y-68091534D01*
X135751367Y-68110101D01*
X135713674Y-68121535D01*
X135668339Y-68126000D01*
X134831661Y-68126000D01*
X134786326Y-68121535D01*
X134748633Y-68110101D01*
X134713897Y-68091534D01*
X134683452Y-68066548D01*
X134658466Y-68036103D01*
X134639899Y-68001367D01*
X134628465Y-67963674D01*
X134624000Y-67918339D01*
X134624000Y-66831661D01*
X134628465Y-66786326D01*
X134639899Y-66748633D01*
X134658466Y-66713897D01*
X134683452Y-66683452D01*
X134713897Y-66658466D01*
X134748633Y-66639899D01*
X134786326Y-66628465D01*
X134831661Y-66624000D01*
X135668339Y-66624000D01*
X135713674Y-66628465D01*
X135713674Y-66628465D01*
G37*
G36*
X133663674Y-66628465D02*
G01*
X133701367Y-66639899D01*
X133736103Y-66658466D01*
X133766548Y-66683452D01*
X133791534Y-66713897D01*
X133810101Y-66748633D01*
X133821535Y-66786326D01*
X133826000Y-66831661D01*
X133826000Y-67918339D01*
X133821535Y-67963674D01*
X133810101Y-68001367D01*
X133791534Y-68036103D01*
X133766548Y-68066548D01*
X133736103Y-68091534D01*
X133701367Y-68110101D01*
X133663674Y-68121535D01*
X133618339Y-68126000D01*
X132781661Y-68126000D01*
X132736326Y-68121535D01*
X132698633Y-68110101D01*
X132663897Y-68091534D01*
X132633452Y-68066548D01*
X132608466Y-68036103D01*
X132589899Y-68001367D01*
X132578465Y-67963674D01*
X132574000Y-67918339D01*
X132574000Y-66831661D01*
X132578465Y-66786326D01*
X132589899Y-66748633D01*
X132608466Y-66713897D01*
X132633452Y-66683452D01*
X132663897Y-66658466D01*
X132698633Y-66639899D01*
X132736326Y-66628465D01*
X132781661Y-66624000D01*
X133618339Y-66624000D01*
X133663674Y-66628465D01*
X133663674Y-66628465D01*
G37*
G36*
X85190988Y-61647973D02*
G01*
X85778082Y-61891155D01*
X85778084Y-61891156D01*
X86306455Y-62244202D01*
X86755798Y-62693545D01*
X87108844Y-63221916D01*
X87108845Y-63221918D01*
X87352027Y-63809012D01*
X87476000Y-64432265D01*
X87476000Y-65067735D01*
X87352027Y-65690988D01*
X87118513Y-66254741D01*
X87108844Y-66278084D01*
X86755798Y-66806455D01*
X86306455Y-67255798D01*
X85778084Y-67608844D01*
X85778083Y-67608845D01*
X85778082Y-67608845D01*
X85190988Y-67852027D01*
X84567735Y-67976000D01*
X83932265Y-67976000D01*
X83309012Y-67852027D01*
X82721918Y-67608845D01*
X82721917Y-67608845D01*
X82721916Y-67608844D01*
X82193545Y-67255798D01*
X81744202Y-66806455D01*
X81391156Y-66278084D01*
X81381487Y-66254741D01*
X81147973Y-65690988D01*
X81024000Y-65067735D01*
X81024000Y-64432265D01*
X81147973Y-63809012D01*
X81391155Y-63221918D01*
X81391156Y-63221916D01*
X81744202Y-62693545D01*
X82193545Y-62244202D01*
X82721916Y-61891156D01*
X82721918Y-61891155D01*
X83309012Y-61647973D01*
X83932265Y-61524000D01*
X84567735Y-61524000D01*
X85190988Y-61647973D01*
X85190988Y-61647973D01*
G37*
G36*
X115390988Y-61647973D02*
G01*
X115978082Y-61891155D01*
X115978084Y-61891156D01*
X116506455Y-62244202D01*
X116955798Y-62693545D01*
X117308844Y-63221916D01*
X117308845Y-63221918D01*
X117552027Y-63809012D01*
X117676000Y-64432265D01*
X117676000Y-65067735D01*
X117552027Y-65690988D01*
X117318513Y-66254741D01*
X117308844Y-66278084D01*
X116955798Y-66806455D01*
X116506455Y-67255798D01*
X115978084Y-67608844D01*
X115978083Y-67608845D01*
X115978082Y-67608845D01*
X115390988Y-67852027D01*
X114767735Y-67976000D01*
X114132265Y-67976000D01*
X113509012Y-67852027D01*
X112921918Y-67608845D01*
X112921917Y-67608845D01*
X112921916Y-67608844D01*
X112393545Y-67255798D01*
X111944202Y-66806455D01*
X111591156Y-66278084D01*
X111581487Y-66254741D01*
X111347973Y-65690988D01*
X111224000Y-65067735D01*
X111224000Y-64432265D01*
X111347973Y-63809012D01*
X111591155Y-63221918D01*
X111591156Y-63221916D01*
X111944202Y-62693545D01*
X112393545Y-62244202D01*
X112921916Y-61891156D01*
X112921918Y-61891155D01*
X113509012Y-61647973D01*
X114132265Y-61524000D01*
X114767735Y-61524000D01*
X115390988Y-61647973D01*
X115390988Y-61647973D01*
G37*
G36*
X124921000Y-66601000D02*
G01*
X121819000Y-66601000D01*
X121819000Y-63499000D01*
X124921000Y-63499000D01*
X124921000Y-66601000D01*
X124921000Y-66601000D01*
G37*
G36*
X128752585Y-63528802D02*
G01*
X128902410Y-63558604D01*
X129184674Y-63675521D01*
X129438705Y-63845259D01*
X129654741Y-64061295D01*
X129824479Y-64315326D01*
X129941396Y-64597590D01*
X130001000Y-64897240D01*
X130001000Y-65202760D01*
X129941396Y-65502410D01*
X129824479Y-65784674D01*
X129654741Y-66038705D01*
X129438705Y-66254741D01*
X129184674Y-66424479D01*
X128902410Y-66541396D01*
X128752585Y-66571198D01*
X128602761Y-66601000D01*
X128297239Y-66601000D01*
X128147415Y-66571198D01*
X127997590Y-66541396D01*
X127715326Y-66424479D01*
X127461295Y-66254741D01*
X127245259Y-66038705D01*
X127075521Y-65784674D01*
X126958604Y-65502410D01*
X126899000Y-65202760D01*
X126899000Y-64897240D01*
X126958604Y-64597590D01*
X127075521Y-64315326D01*
X127245259Y-64061295D01*
X127461295Y-63845259D01*
X127715326Y-63675521D01*
X127997590Y-63558604D01*
X128147415Y-63528802D01*
X128297239Y-63499000D01*
X128602761Y-63499000D01*
X128752585Y-63528802D01*
X128752585Y-63528802D01*
G37*
G36*
X74773228Y-60506703D02*
G01*
X74928100Y-60570853D01*
X75067481Y-60663985D01*
X75186015Y-60782519D01*
X75279147Y-60921900D01*
X75343297Y-61076772D01*
X75376000Y-61241184D01*
X75376000Y-61408816D01*
X75343297Y-61573228D01*
X75279147Y-61728100D01*
X75186015Y-61867481D01*
X75067481Y-61986015D01*
X74928100Y-62079147D01*
X74773228Y-62143297D01*
X74608816Y-62176000D01*
X74441184Y-62176000D01*
X74276772Y-62143297D01*
X74121900Y-62079147D01*
X73982519Y-61986015D01*
X73863985Y-61867481D01*
X73770853Y-61728100D01*
X73706703Y-61573228D01*
X73674000Y-61408816D01*
X73674000Y-61241184D01*
X73706703Y-61076772D01*
X73770853Y-60921900D01*
X73863985Y-60782519D01*
X73982519Y-60663985D01*
X74121900Y-60570853D01*
X74276772Y-60506703D01*
X74441184Y-60474000D01*
X74608816Y-60474000D01*
X74773228Y-60506703D01*
X74773228Y-60506703D01*
G37*
G36*
X98901000Y-60651000D02*
G01*
X96199000Y-60651000D01*
X96199000Y-57949000D01*
X98901000Y-57949000D01*
X98901000Y-60651000D01*
X98901000Y-60651000D01*
G37*
G36*
X119989408Y-58438850D02*
G01*
X120149827Y-58487513D01*
X120282491Y-58558423D01*
X120297663Y-58566533D01*
X120427244Y-58672878D01*
X120533589Y-58802459D01*
X120533590Y-58802461D01*
X120612609Y-58950295D01*
X120661272Y-59110714D01*
X120677702Y-59277537D01*
X120661272Y-59444360D01*
X120612609Y-59604779D01*
X120541699Y-59737443D01*
X120533589Y-59752615D01*
X120427244Y-59882196D01*
X120297663Y-59988541D01*
X120297661Y-59988542D01*
X120149827Y-60067561D01*
X119989408Y-60116224D01*
X119864389Y-60128537D01*
X119780781Y-60128537D01*
X119655762Y-60116224D01*
X119495343Y-60067561D01*
X119347509Y-59988542D01*
X119347507Y-59988541D01*
X119217926Y-59882196D01*
X119111581Y-59752615D01*
X119103471Y-59737443D01*
X119032561Y-59604779D01*
X118983898Y-59444360D01*
X118967468Y-59277537D01*
X118983898Y-59110714D01*
X119032561Y-58950295D01*
X119111580Y-58802461D01*
X119111581Y-58802459D01*
X119217926Y-58672878D01*
X119347507Y-58566533D01*
X119362679Y-58558423D01*
X119495343Y-58487513D01*
X119655762Y-58438850D01*
X119780781Y-58426537D01*
X119864389Y-58426537D01*
X119989408Y-58438850D01*
X119989408Y-58438850D01*
G37*
G36*
X83014408Y-54658776D02*
G01*
X83174827Y-54707439D01*
X83307491Y-54778349D01*
X83322663Y-54786459D01*
X83452244Y-54892804D01*
X83558589Y-55022385D01*
X83558590Y-55022387D01*
X83637609Y-55170221D01*
X83686272Y-55330640D01*
X83702702Y-55497463D01*
X83686272Y-55664286D01*
X83637609Y-55824705D01*
X83566699Y-55957369D01*
X83558589Y-55972541D01*
X83452244Y-56102122D01*
X83322663Y-56208467D01*
X83322661Y-56208468D01*
X83174827Y-56287487D01*
X83014408Y-56336150D01*
X82889389Y-56348463D01*
X82805781Y-56348463D01*
X82680762Y-56336150D01*
X82520343Y-56287487D01*
X82372509Y-56208468D01*
X82372507Y-56208467D01*
X82242926Y-56102122D01*
X82136581Y-55972541D01*
X82128471Y-55957369D01*
X82057561Y-55824705D01*
X82008898Y-55664286D01*
X81992468Y-55497463D01*
X82008898Y-55330640D01*
X82057561Y-55170221D01*
X82136580Y-55022387D01*
X82136581Y-55022385D01*
X82242926Y-54892804D01*
X82372507Y-54786459D01*
X82387679Y-54778349D01*
X82520343Y-54707439D01*
X82680762Y-54658776D01*
X82805781Y-54646463D01*
X82889389Y-54646463D01*
X83014408Y-54658776D01*
X83014408Y-54658776D01*
G37*
G36*
X111748228Y-52631703D02*
G01*
X111903100Y-52695853D01*
X112042481Y-52788985D01*
X112161015Y-52907519D01*
X112254147Y-53046900D01*
X112318297Y-53201772D01*
X112351000Y-53366184D01*
X112351000Y-53533816D01*
X112318297Y-53698228D01*
X112254147Y-53853100D01*
X112161015Y-53992481D01*
X112042481Y-54111015D01*
X111903100Y-54204147D01*
X111748228Y-54268297D01*
X111583816Y-54301000D01*
X111416184Y-54301000D01*
X111251772Y-54268297D01*
X111096900Y-54204147D01*
X110957519Y-54111015D01*
X110838985Y-53992481D01*
X110745853Y-53853100D01*
X110681703Y-53698228D01*
X110649000Y-53533816D01*
X110649000Y-53366184D01*
X110681703Y-53201772D01*
X110745853Y-53046900D01*
X110838985Y-52907519D01*
X110957519Y-52788985D01*
X111096900Y-52695853D01*
X111251772Y-52631703D01*
X111416184Y-52599000D01*
X111583816Y-52599000D01*
X111748228Y-52631703D01*
X111748228Y-52631703D01*
G37*
M02*
