%TF.GenerationSoftware,KiCad,Pcbnew,(5.1.4)-1*%
%TF.CreationDate,2019-08-28T19:55:50+03:00*%
%TF.ProjectId,Timsah_Main_Board,54696d73-6168-45f4-9d61-696e5f426f61,rev?*%
%TF.SameCoordinates,Original*%
%TF.FileFunction,Paste,Bot*%
%TF.FilePolarity,Positive*%
%FSLAX46Y46*%
G04 Gerber Fmt 4.6, Leading zero omitted, Abs format (unit mm)*
G04 Created by KiCad (PCBNEW (5.1.4)-1) date 2019-08-28 19:55:50*
%MOMM*%
%LPD*%
G04 APERTURE LIST*
%ADD10C,0.100000*%
%ADD11C,1.150000*%
G04 APERTURE END LIST*
D10*
G36*
X76049505Y-112451204D02*
G01*
X76073773Y-112454804D01*
X76097572Y-112460765D01*
X76120671Y-112469030D01*
X76142850Y-112479520D01*
X76163893Y-112492132D01*
X76183599Y-112506747D01*
X76201777Y-112523223D01*
X76218253Y-112541401D01*
X76232868Y-112561107D01*
X76245480Y-112582150D01*
X76255970Y-112604329D01*
X76264235Y-112627428D01*
X76270196Y-112651227D01*
X76273796Y-112675495D01*
X76275000Y-112699999D01*
X76275000Y-113350001D01*
X76273796Y-113374505D01*
X76270196Y-113398773D01*
X76264235Y-113422572D01*
X76255970Y-113445671D01*
X76245480Y-113467850D01*
X76232868Y-113488893D01*
X76218253Y-113508599D01*
X76201777Y-113526777D01*
X76183599Y-113543253D01*
X76163893Y-113557868D01*
X76142850Y-113570480D01*
X76120671Y-113580970D01*
X76097572Y-113589235D01*
X76073773Y-113595196D01*
X76049505Y-113598796D01*
X76025001Y-113600000D01*
X75124999Y-113600000D01*
X75100495Y-113598796D01*
X75076227Y-113595196D01*
X75052428Y-113589235D01*
X75029329Y-113580970D01*
X75007150Y-113570480D01*
X74986107Y-113557868D01*
X74966401Y-113543253D01*
X74948223Y-113526777D01*
X74931747Y-113508599D01*
X74917132Y-113488893D01*
X74904520Y-113467850D01*
X74894030Y-113445671D01*
X74885765Y-113422572D01*
X74879804Y-113398773D01*
X74876204Y-113374505D01*
X74875000Y-113350001D01*
X74875000Y-112699999D01*
X74876204Y-112675495D01*
X74879804Y-112651227D01*
X74885765Y-112627428D01*
X74894030Y-112604329D01*
X74904520Y-112582150D01*
X74917132Y-112561107D01*
X74931747Y-112541401D01*
X74948223Y-112523223D01*
X74966401Y-112506747D01*
X74986107Y-112492132D01*
X75007150Y-112479520D01*
X75029329Y-112469030D01*
X75052428Y-112460765D01*
X75076227Y-112454804D01*
X75100495Y-112451204D01*
X75124999Y-112450000D01*
X76025001Y-112450000D01*
X76049505Y-112451204D01*
X76049505Y-112451204D01*
G37*
D11*
X75575000Y-113025000D03*
D10*
G36*
X76049505Y-114501204D02*
G01*
X76073773Y-114504804D01*
X76097572Y-114510765D01*
X76120671Y-114519030D01*
X76142850Y-114529520D01*
X76163893Y-114542132D01*
X76183599Y-114556747D01*
X76201777Y-114573223D01*
X76218253Y-114591401D01*
X76232868Y-114611107D01*
X76245480Y-114632150D01*
X76255970Y-114654329D01*
X76264235Y-114677428D01*
X76270196Y-114701227D01*
X76273796Y-114725495D01*
X76275000Y-114749999D01*
X76275000Y-115400001D01*
X76273796Y-115424505D01*
X76270196Y-115448773D01*
X76264235Y-115472572D01*
X76255970Y-115495671D01*
X76245480Y-115517850D01*
X76232868Y-115538893D01*
X76218253Y-115558599D01*
X76201777Y-115576777D01*
X76183599Y-115593253D01*
X76163893Y-115607868D01*
X76142850Y-115620480D01*
X76120671Y-115630970D01*
X76097572Y-115639235D01*
X76073773Y-115645196D01*
X76049505Y-115648796D01*
X76025001Y-115650000D01*
X75124999Y-115650000D01*
X75100495Y-115648796D01*
X75076227Y-115645196D01*
X75052428Y-115639235D01*
X75029329Y-115630970D01*
X75007150Y-115620480D01*
X74986107Y-115607868D01*
X74966401Y-115593253D01*
X74948223Y-115576777D01*
X74931747Y-115558599D01*
X74917132Y-115538893D01*
X74904520Y-115517850D01*
X74894030Y-115495671D01*
X74885765Y-115472572D01*
X74879804Y-115448773D01*
X74876204Y-115424505D01*
X74875000Y-115400001D01*
X74875000Y-114749999D01*
X74876204Y-114725495D01*
X74879804Y-114701227D01*
X74885765Y-114677428D01*
X74894030Y-114654329D01*
X74904520Y-114632150D01*
X74917132Y-114611107D01*
X74931747Y-114591401D01*
X74948223Y-114573223D01*
X74966401Y-114556747D01*
X74986107Y-114542132D01*
X75007150Y-114529520D01*
X75029329Y-114519030D01*
X75052428Y-114510765D01*
X75076227Y-114504804D01*
X75100495Y-114501204D01*
X75124999Y-114500000D01*
X76025001Y-114500000D01*
X76049505Y-114501204D01*
X76049505Y-114501204D01*
G37*
D11*
X75575000Y-115075000D03*
D10*
G36*
X116999505Y-112776204D02*
G01*
X117023773Y-112779804D01*
X117047572Y-112785765D01*
X117070671Y-112794030D01*
X117092850Y-112804520D01*
X117113893Y-112817132D01*
X117133599Y-112831747D01*
X117151777Y-112848223D01*
X117168253Y-112866401D01*
X117182868Y-112886107D01*
X117195480Y-112907150D01*
X117205970Y-112929329D01*
X117214235Y-112952428D01*
X117220196Y-112976227D01*
X117223796Y-113000495D01*
X117225000Y-113024999D01*
X117225000Y-113675001D01*
X117223796Y-113699505D01*
X117220196Y-113723773D01*
X117214235Y-113747572D01*
X117205970Y-113770671D01*
X117195480Y-113792850D01*
X117182868Y-113813893D01*
X117168253Y-113833599D01*
X117151777Y-113851777D01*
X117133599Y-113868253D01*
X117113893Y-113882868D01*
X117092850Y-113895480D01*
X117070671Y-113905970D01*
X117047572Y-113914235D01*
X117023773Y-113920196D01*
X116999505Y-113923796D01*
X116975001Y-113925000D01*
X116074999Y-113925000D01*
X116050495Y-113923796D01*
X116026227Y-113920196D01*
X116002428Y-113914235D01*
X115979329Y-113905970D01*
X115957150Y-113895480D01*
X115936107Y-113882868D01*
X115916401Y-113868253D01*
X115898223Y-113851777D01*
X115881747Y-113833599D01*
X115867132Y-113813893D01*
X115854520Y-113792850D01*
X115844030Y-113770671D01*
X115835765Y-113747572D01*
X115829804Y-113723773D01*
X115826204Y-113699505D01*
X115825000Y-113675001D01*
X115825000Y-113024999D01*
X115826204Y-113000495D01*
X115829804Y-112976227D01*
X115835765Y-112952428D01*
X115844030Y-112929329D01*
X115854520Y-112907150D01*
X115867132Y-112886107D01*
X115881747Y-112866401D01*
X115898223Y-112848223D01*
X115916401Y-112831747D01*
X115936107Y-112817132D01*
X115957150Y-112804520D01*
X115979329Y-112794030D01*
X116002428Y-112785765D01*
X116026227Y-112779804D01*
X116050495Y-112776204D01*
X116074999Y-112775000D01*
X116975001Y-112775000D01*
X116999505Y-112776204D01*
X116999505Y-112776204D01*
G37*
D11*
X116525000Y-113350000D03*
D10*
G36*
X116999505Y-114826204D02*
G01*
X117023773Y-114829804D01*
X117047572Y-114835765D01*
X117070671Y-114844030D01*
X117092850Y-114854520D01*
X117113893Y-114867132D01*
X117133599Y-114881747D01*
X117151777Y-114898223D01*
X117168253Y-114916401D01*
X117182868Y-114936107D01*
X117195480Y-114957150D01*
X117205970Y-114979329D01*
X117214235Y-115002428D01*
X117220196Y-115026227D01*
X117223796Y-115050495D01*
X117225000Y-115074999D01*
X117225000Y-115725001D01*
X117223796Y-115749505D01*
X117220196Y-115773773D01*
X117214235Y-115797572D01*
X117205970Y-115820671D01*
X117195480Y-115842850D01*
X117182868Y-115863893D01*
X117168253Y-115883599D01*
X117151777Y-115901777D01*
X117133599Y-115918253D01*
X117113893Y-115932868D01*
X117092850Y-115945480D01*
X117070671Y-115955970D01*
X117047572Y-115964235D01*
X117023773Y-115970196D01*
X116999505Y-115973796D01*
X116975001Y-115975000D01*
X116074999Y-115975000D01*
X116050495Y-115973796D01*
X116026227Y-115970196D01*
X116002428Y-115964235D01*
X115979329Y-115955970D01*
X115957150Y-115945480D01*
X115936107Y-115932868D01*
X115916401Y-115918253D01*
X115898223Y-115901777D01*
X115881747Y-115883599D01*
X115867132Y-115863893D01*
X115854520Y-115842850D01*
X115844030Y-115820671D01*
X115835765Y-115797572D01*
X115829804Y-115773773D01*
X115826204Y-115749505D01*
X115825000Y-115725001D01*
X115825000Y-115074999D01*
X115826204Y-115050495D01*
X115829804Y-115026227D01*
X115835765Y-115002428D01*
X115844030Y-114979329D01*
X115854520Y-114957150D01*
X115867132Y-114936107D01*
X115881747Y-114916401D01*
X115898223Y-114898223D01*
X115916401Y-114881747D01*
X115936107Y-114867132D01*
X115957150Y-114854520D01*
X115979329Y-114844030D01*
X116002428Y-114835765D01*
X116026227Y-114829804D01*
X116050495Y-114826204D01*
X116074999Y-114825000D01*
X116975001Y-114825000D01*
X116999505Y-114826204D01*
X116999505Y-114826204D01*
G37*
D11*
X116525000Y-115400000D03*
D10*
G36*
X103974505Y-62851204D02*
G01*
X103998773Y-62854804D01*
X104022572Y-62860765D01*
X104045671Y-62869030D01*
X104067850Y-62879520D01*
X104088893Y-62892132D01*
X104108599Y-62906747D01*
X104126777Y-62923223D01*
X104143253Y-62941401D01*
X104157868Y-62961107D01*
X104170480Y-62982150D01*
X104180970Y-63004329D01*
X104189235Y-63027428D01*
X104195196Y-63051227D01*
X104198796Y-63075495D01*
X104200000Y-63099999D01*
X104200000Y-64000001D01*
X104198796Y-64024505D01*
X104195196Y-64048773D01*
X104189235Y-64072572D01*
X104180970Y-64095671D01*
X104170480Y-64117850D01*
X104157868Y-64138893D01*
X104143253Y-64158599D01*
X104126777Y-64176777D01*
X104108599Y-64193253D01*
X104088893Y-64207868D01*
X104067850Y-64220480D01*
X104045671Y-64230970D01*
X104022572Y-64239235D01*
X103998773Y-64245196D01*
X103974505Y-64248796D01*
X103950001Y-64250000D01*
X103299999Y-64250000D01*
X103275495Y-64248796D01*
X103251227Y-64245196D01*
X103227428Y-64239235D01*
X103204329Y-64230970D01*
X103182150Y-64220480D01*
X103161107Y-64207868D01*
X103141401Y-64193253D01*
X103123223Y-64176777D01*
X103106747Y-64158599D01*
X103092132Y-64138893D01*
X103079520Y-64117850D01*
X103069030Y-64095671D01*
X103060765Y-64072572D01*
X103054804Y-64048773D01*
X103051204Y-64024505D01*
X103050000Y-64000001D01*
X103050000Y-63099999D01*
X103051204Y-63075495D01*
X103054804Y-63051227D01*
X103060765Y-63027428D01*
X103069030Y-63004329D01*
X103079520Y-62982150D01*
X103092132Y-62961107D01*
X103106747Y-62941401D01*
X103123223Y-62923223D01*
X103141401Y-62906747D01*
X103161107Y-62892132D01*
X103182150Y-62879520D01*
X103204329Y-62869030D01*
X103227428Y-62860765D01*
X103251227Y-62854804D01*
X103275495Y-62851204D01*
X103299999Y-62850000D01*
X103950001Y-62850000D01*
X103974505Y-62851204D01*
X103974505Y-62851204D01*
G37*
D11*
X103625000Y-63550000D03*
D10*
G36*
X106024505Y-62851204D02*
G01*
X106048773Y-62854804D01*
X106072572Y-62860765D01*
X106095671Y-62869030D01*
X106117850Y-62879520D01*
X106138893Y-62892132D01*
X106158599Y-62906747D01*
X106176777Y-62923223D01*
X106193253Y-62941401D01*
X106207868Y-62961107D01*
X106220480Y-62982150D01*
X106230970Y-63004329D01*
X106239235Y-63027428D01*
X106245196Y-63051227D01*
X106248796Y-63075495D01*
X106250000Y-63099999D01*
X106250000Y-64000001D01*
X106248796Y-64024505D01*
X106245196Y-64048773D01*
X106239235Y-64072572D01*
X106230970Y-64095671D01*
X106220480Y-64117850D01*
X106207868Y-64138893D01*
X106193253Y-64158599D01*
X106176777Y-64176777D01*
X106158599Y-64193253D01*
X106138893Y-64207868D01*
X106117850Y-64220480D01*
X106095671Y-64230970D01*
X106072572Y-64239235D01*
X106048773Y-64245196D01*
X106024505Y-64248796D01*
X106000001Y-64250000D01*
X105349999Y-64250000D01*
X105325495Y-64248796D01*
X105301227Y-64245196D01*
X105277428Y-64239235D01*
X105254329Y-64230970D01*
X105232150Y-64220480D01*
X105211107Y-64207868D01*
X105191401Y-64193253D01*
X105173223Y-64176777D01*
X105156747Y-64158599D01*
X105142132Y-64138893D01*
X105129520Y-64117850D01*
X105119030Y-64095671D01*
X105110765Y-64072572D01*
X105104804Y-64048773D01*
X105101204Y-64024505D01*
X105100000Y-64000001D01*
X105100000Y-63099999D01*
X105101204Y-63075495D01*
X105104804Y-63051227D01*
X105110765Y-63027428D01*
X105119030Y-63004329D01*
X105129520Y-62982150D01*
X105142132Y-62961107D01*
X105156747Y-62941401D01*
X105173223Y-62923223D01*
X105191401Y-62906747D01*
X105211107Y-62892132D01*
X105232150Y-62879520D01*
X105254329Y-62869030D01*
X105277428Y-62860765D01*
X105301227Y-62854804D01*
X105325495Y-62851204D01*
X105349999Y-62850000D01*
X106000001Y-62850000D01*
X106024505Y-62851204D01*
X106024505Y-62851204D01*
G37*
D11*
X105675000Y-63550000D03*
D10*
G36*
X82824505Y-74076204D02*
G01*
X82848773Y-74079804D01*
X82872572Y-74085765D01*
X82895671Y-74094030D01*
X82917850Y-74104520D01*
X82938893Y-74117132D01*
X82958599Y-74131747D01*
X82976777Y-74148223D01*
X82993253Y-74166401D01*
X83007868Y-74186107D01*
X83020480Y-74207150D01*
X83030970Y-74229329D01*
X83039235Y-74252428D01*
X83045196Y-74276227D01*
X83048796Y-74300495D01*
X83050000Y-74324999D01*
X83050000Y-75225001D01*
X83048796Y-75249505D01*
X83045196Y-75273773D01*
X83039235Y-75297572D01*
X83030970Y-75320671D01*
X83020480Y-75342850D01*
X83007868Y-75363893D01*
X82993253Y-75383599D01*
X82976777Y-75401777D01*
X82958599Y-75418253D01*
X82938893Y-75432868D01*
X82917850Y-75445480D01*
X82895671Y-75455970D01*
X82872572Y-75464235D01*
X82848773Y-75470196D01*
X82824505Y-75473796D01*
X82800001Y-75475000D01*
X82149999Y-75475000D01*
X82125495Y-75473796D01*
X82101227Y-75470196D01*
X82077428Y-75464235D01*
X82054329Y-75455970D01*
X82032150Y-75445480D01*
X82011107Y-75432868D01*
X81991401Y-75418253D01*
X81973223Y-75401777D01*
X81956747Y-75383599D01*
X81942132Y-75363893D01*
X81929520Y-75342850D01*
X81919030Y-75320671D01*
X81910765Y-75297572D01*
X81904804Y-75273773D01*
X81901204Y-75249505D01*
X81900000Y-75225001D01*
X81900000Y-74324999D01*
X81901204Y-74300495D01*
X81904804Y-74276227D01*
X81910765Y-74252428D01*
X81919030Y-74229329D01*
X81929520Y-74207150D01*
X81942132Y-74186107D01*
X81956747Y-74166401D01*
X81973223Y-74148223D01*
X81991401Y-74131747D01*
X82011107Y-74117132D01*
X82032150Y-74104520D01*
X82054329Y-74094030D01*
X82077428Y-74085765D01*
X82101227Y-74079804D01*
X82125495Y-74076204D01*
X82149999Y-74075000D01*
X82800001Y-74075000D01*
X82824505Y-74076204D01*
X82824505Y-74076204D01*
G37*
D11*
X82475000Y-74775000D03*
D10*
G36*
X84874505Y-74076204D02*
G01*
X84898773Y-74079804D01*
X84922572Y-74085765D01*
X84945671Y-74094030D01*
X84967850Y-74104520D01*
X84988893Y-74117132D01*
X85008599Y-74131747D01*
X85026777Y-74148223D01*
X85043253Y-74166401D01*
X85057868Y-74186107D01*
X85070480Y-74207150D01*
X85080970Y-74229329D01*
X85089235Y-74252428D01*
X85095196Y-74276227D01*
X85098796Y-74300495D01*
X85100000Y-74324999D01*
X85100000Y-75225001D01*
X85098796Y-75249505D01*
X85095196Y-75273773D01*
X85089235Y-75297572D01*
X85080970Y-75320671D01*
X85070480Y-75342850D01*
X85057868Y-75363893D01*
X85043253Y-75383599D01*
X85026777Y-75401777D01*
X85008599Y-75418253D01*
X84988893Y-75432868D01*
X84967850Y-75445480D01*
X84945671Y-75455970D01*
X84922572Y-75464235D01*
X84898773Y-75470196D01*
X84874505Y-75473796D01*
X84850001Y-75475000D01*
X84199999Y-75475000D01*
X84175495Y-75473796D01*
X84151227Y-75470196D01*
X84127428Y-75464235D01*
X84104329Y-75455970D01*
X84082150Y-75445480D01*
X84061107Y-75432868D01*
X84041401Y-75418253D01*
X84023223Y-75401777D01*
X84006747Y-75383599D01*
X83992132Y-75363893D01*
X83979520Y-75342850D01*
X83969030Y-75320671D01*
X83960765Y-75297572D01*
X83954804Y-75273773D01*
X83951204Y-75249505D01*
X83950000Y-75225001D01*
X83950000Y-74324999D01*
X83951204Y-74300495D01*
X83954804Y-74276227D01*
X83960765Y-74252428D01*
X83969030Y-74229329D01*
X83979520Y-74207150D01*
X83992132Y-74186107D01*
X84006747Y-74166401D01*
X84023223Y-74148223D01*
X84041401Y-74131747D01*
X84061107Y-74117132D01*
X84082150Y-74104520D01*
X84104329Y-74094030D01*
X84127428Y-74085765D01*
X84151227Y-74079804D01*
X84175495Y-74076204D01*
X84199999Y-74075000D01*
X84850001Y-74075000D01*
X84874505Y-74076204D01*
X84874505Y-74076204D01*
G37*
D11*
X84525000Y-74775000D03*
D10*
G36*
X142824505Y-85101204D02*
G01*
X142848773Y-85104804D01*
X142872572Y-85110765D01*
X142895671Y-85119030D01*
X142917850Y-85129520D01*
X142938893Y-85142132D01*
X142958599Y-85156747D01*
X142976777Y-85173223D01*
X142993253Y-85191401D01*
X143007868Y-85211107D01*
X143020480Y-85232150D01*
X143030970Y-85254329D01*
X143039235Y-85277428D01*
X143045196Y-85301227D01*
X143048796Y-85325495D01*
X143050000Y-85349999D01*
X143050000Y-86250001D01*
X143048796Y-86274505D01*
X143045196Y-86298773D01*
X143039235Y-86322572D01*
X143030970Y-86345671D01*
X143020480Y-86367850D01*
X143007868Y-86388893D01*
X142993253Y-86408599D01*
X142976777Y-86426777D01*
X142958599Y-86443253D01*
X142938893Y-86457868D01*
X142917850Y-86470480D01*
X142895671Y-86480970D01*
X142872572Y-86489235D01*
X142848773Y-86495196D01*
X142824505Y-86498796D01*
X142800001Y-86500000D01*
X142149999Y-86500000D01*
X142125495Y-86498796D01*
X142101227Y-86495196D01*
X142077428Y-86489235D01*
X142054329Y-86480970D01*
X142032150Y-86470480D01*
X142011107Y-86457868D01*
X141991401Y-86443253D01*
X141973223Y-86426777D01*
X141956747Y-86408599D01*
X141942132Y-86388893D01*
X141929520Y-86367850D01*
X141919030Y-86345671D01*
X141910765Y-86322572D01*
X141904804Y-86298773D01*
X141901204Y-86274505D01*
X141900000Y-86250001D01*
X141900000Y-85349999D01*
X141901204Y-85325495D01*
X141904804Y-85301227D01*
X141910765Y-85277428D01*
X141919030Y-85254329D01*
X141929520Y-85232150D01*
X141942132Y-85211107D01*
X141956747Y-85191401D01*
X141973223Y-85173223D01*
X141991401Y-85156747D01*
X142011107Y-85142132D01*
X142032150Y-85129520D01*
X142054329Y-85119030D01*
X142077428Y-85110765D01*
X142101227Y-85104804D01*
X142125495Y-85101204D01*
X142149999Y-85100000D01*
X142800001Y-85100000D01*
X142824505Y-85101204D01*
X142824505Y-85101204D01*
G37*
D11*
X142475000Y-85800000D03*
D10*
G36*
X140774505Y-85101204D02*
G01*
X140798773Y-85104804D01*
X140822572Y-85110765D01*
X140845671Y-85119030D01*
X140867850Y-85129520D01*
X140888893Y-85142132D01*
X140908599Y-85156747D01*
X140926777Y-85173223D01*
X140943253Y-85191401D01*
X140957868Y-85211107D01*
X140970480Y-85232150D01*
X140980970Y-85254329D01*
X140989235Y-85277428D01*
X140995196Y-85301227D01*
X140998796Y-85325495D01*
X141000000Y-85349999D01*
X141000000Y-86250001D01*
X140998796Y-86274505D01*
X140995196Y-86298773D01*
X140989235Y-86322572D01*
X140980970Y-86345671D01*
X140970480Y-86367850D01*
X140957868Y-86388893D01*
X140943253Y-86408599D01*
X140926777Y-86426777D01*
X140908599Y-86443253D01*
X140888893Y-86457868D01*
X140867850Y-86470480D01*
X140845671Y-86480970D01*
X140822572Y-86489235D01*
X140798773Y-86495196D01*
X140774505Y-86498796D01*
X140750001Y-86500000D01*
X140099999Y-86500000D01*
X140075495Y-86498796D01*
X140051227Y-86495196D01*
X140027428Y-86489235D01*
X140004329Y-86480970D01*
X139982150Y-86470480D01*
X139961107Y-86457868D01*
X139941401Y-86443253D01*
X139923223Y-86426777D01*
X139906747Y-86408599D01*
X139892132Y-86388893D01*
X139879520Y-86367850D01*
X139869030Y-86345671D01*
X139860765Y-86322572D01*
X139854804Y-86298773D01*
X139851204Y-86274505D01*
X139850000Y-86250001D01*
X139850000Y-85349999D01*
X139851204Y-85325495D01*
X139854804Y-85301227D01*
X139860765Y-85277428D01*
X139869030Y-85254329D01*
X139879520Y-85232150D01*
X139892132Y-85211107D01*
X139906747Y-85191401D01*
X139923223Y-85173223D01*
X139941401Y-85156747D01*
X139961107Y-85142132D01*
X139982150Y-85129520D01*
X140004329Y-85119030D01*
X140027428Y-85110765D01*
X140051227Y-85104804D01*
X140075495Y-85101204D01*
X140099999Y-85100000D01*
X140750001Y-85100000D01*
X140774505Y-85101204D01*
X140774505Y-85101204D01*
G37*
D11*
X140425000Y-85800000D03*
D10*
G36*
X75924505Y-84751204D02*
G01*
X75948773Y-84754804D01*
X75972572Y-84760765D01*
X75995671Y-84769030D01*
X76017850Y-84779520D01*
X76038893Y-84792132D01*
X76058599Y-84806747D01*
X76076777Y-84823223D01*
X76093253Y-84841401D01*
X76107868Y-84861107D01*
X76120480Y-84882150D01*
X76130970Y-84904329D01*
X76139235Y-84927428D01*
X76145196Y-84951227D01*
X76148796Y-84975495D01*
X76150000Y-84999999D01*
X76150000Y-85650001D01*
X76148796Y-85674505D01*
X76145196Y-85698773D01*
X76139235Y-85722572D01*
X76130970Y-85745671D01*
X76120480Y-85767850D01*
X76107868Y-85788893D01*
X76093253Y-85808599D01*
X76076777Y-85826777D01*
X76058599Y-85843253D01*
X76038893Y-85857868D01*
X76017850Y-85870480D01*
X75995671Y-85880970D01*
X75972572Y-85889235D01*
X75948773Y-85895196D01*
X75924505Y-85898796D01*
X75900001Y-85900000D01*
X74999999Y-85900000D01*
X74975495Y-85898796D01*
X74951227Y-85895196D01*
X74927428Y-85889235D01*
X74904329Y-85880970D01*
X74882150Y-85870480D01*
X74861107Y-85857868D01*
X74841401Y-85843253D01*
X74823223Y-85826777D01*
X74806747Y-85808599D01*
X74792132Y-85788893D01*
X74779520Y-85767850D01*
X74769030Y-85745671D01*
X74760765Y-85722572D01*
X74754804Y-85698773D01*
X74751204Y-85674505D01*
X74750000Y-85650001D01*
X74750000Y-84999999D01*
X74751204Y-84975495D01*
X74754804Y-84951227D01*
X74760765Y-84927428D01*
X74769030Y-84904329D01*
X74779520Y-84882150D01*
X74792132Y-84861107D01*
X74806747Y-84841401D01*
X74823223Y-84823223D01*
X74841401Y-84806747D01*
X74861107Y-84792132D01*
X74882150Y-84779520D01*
X74904329Y-84769030D01*
X74927428Y-84760765D01*
X74951227Y-84754804D01*
X74975495Y-84751204D01*
X74999999Y-84750000D01*
X75900001Y-84750000D01*
X75924505Y-84751204D01*
X75924505Y-84751204D01*
G37*
D11*
X75450000Y-85325000D03*
D10*
G36*
X75924505Y-86801204D02*
G01*
X75948773Y-86804804D01*
X75972572Y-86810765D01*
X75995671Y-86819030D01*
X76017850Y-86829520D01*
X76038893Y-86842132D01*
X76058599Y-86856747D01*
X76076777Y-86873223D01*
X76093253Y-86891401D01*
X76107868Y-86911107D01*
X76120480Y-86932150D01*
X76130970Y-86954329D01*
X76139235Y-86977428D01*
X76145196Y-87001227D01*
X76148796Y-87025495D01*
X76150000Y-87049999D01*
X76150000Y-87700001D01*
X76148796Y-87724505D01*
X76145196Y-87748773D01*
X76139235Y-87772572D01*
X76130970Y-87795671D01*
X76120480Y-87817850D01*
X76107868Y-87838893D01*
X76093253Y-87858599D01*
X76076777Y-87876777D01*
X76058599Y-87893253D01*
X76038893Y-87907868D01*
X76017850Y-87920480D01*
X75995671Y-87930970D01*
X75972572Y-87939235D01*
X75948773Y-87945196D01*
X75924505Y-87948796D01*
X75900001Y-87950000D01*
X74999999Y-87950000D01*
X74975495Y-87948796D01*
X74951227Y-87945196D01*
X74927428Y-87939235D01*
X74904329Y-87930970D01*
X74882150Y-87920480D01*
X74861107Y-87907868D01*
X74841401Y-87893253D01*
X74823223Y-87876777D01*
X74806747Y-87858599D01*
X74792132Y-87838893D01*
X74779520Y-87817850D01*
X74769030Y-87795671D01*
X74760765Y-87772572D01*
X74754804Y-87748773D01*
X74751204Y-87724505D01*
X74750000Y-87700001D01*
X74750000Y-87049999D01*
X74751204Y-87025495D01*
X74754804Y-87001227D01*
X74760765Y-86977428D01*
X74769030Y-86954329D01*
X74779520Y-86932150D01*
X74792132Y-86911107D01*
X74806747Y-86891401D01*
X74823223Y-86873223D01*
X74841401Y-86856747D01*
X74861107Y-86842132D01*
X74882150Y-86829520D01*
X74904329Y-86819030D01*
X74927428Y-86810765D01*
X74951227Y-86804804D01*
X74975495Y-86801204D01*
X74999999Y-86800000D01*
X75900001Y-86800000D01*
X75924505Y-86801204D01*
X75924505Y-86801204D01*
G37*
D11*
X75450000Y-87375000D03*
D10*
G36*
X119524505Y-86926204D02*
G01*
X119548773Y-86929804D01*
X119572572Y-86935765D01*
X119595671Y-86944030D01*
X119617850Y-86954520D01*
X119638893Y-86967132D01*
X119658599Y-86981747D01*
X119676777Y-86998223D01*
X119693253Y-87016401D01*
X119707868Y-87036107D01*
X119720480Y-87057150D01*
X119730970Y-87079329D01*
X119739235Y-87102428D01*
X119745196Y-87126227D01*
X119748796Y-87150495D01*
X119750000Y-87174999D01*
X119750000Y-88075001D01*
X119748796Y-88099505D01*
X119745196Y-88123773D01*
X119739235Y-88147572D01*
X119730970Y-88170671D01*
X119720480Y-88192850D01*
X119707868Y-88213893D01*
X119693253Y-88233599D01*
X119676777Y-88251777D01*
X119658599Y-88268253D01*
X119638893Y-88282868D01*
X119617850Y-88295480D01*
X119595671Y-88305970D01*
X119572572Y-88314235D01*
X119548773Y-88320196D01*
X119524505Y-88323796D01*
X119500001Y-88325000D01*
X118849999Y-88325000D01*
X118825495Y-88323796D01*
X118801227Y-88320196D01*
X118777428Y-88314235D01*
X118754329Y-88305970D01*
X118732150Y-88295480D01*
X118711107Y-88282868D01*
X118691401Y-88268253D01*
X118673223Y-88251777D01*
X118656747Y-88233599D01*
X118642132Y-88213893D01*
X118629520Y-88192850D01*
X118619030Y-88170671D01*
X118610765Y-88147572D01*
X118604804Y-88123773D01*
X118601204Y-88099505D01*
X118600000Y-88075001D01*
X118600000Y-87174999D01*
X118601204Y-87150495D01*
X118604804Y-87126227D01*
X118610765Y-87102428D01*
X118619030Y-87079329D01*
X118629520Y-87057150D01*
X118642132Y-87036107D01*
X118656747Y-87016401D01*
X118673223Y-86998223D01*
X118691401Y-86981747D01*
X118711107Y-86967132D01*
X118732150Y-86954520D01*
X118754329Y-86944030D01*
X118777428Y-86935765D01*
X118801227Y-86929804D01*
X118825495Y-86926204D01*
X118849999Y-86925000D01*
X119500001Y-86925000D01*
X119524505Y-86926204D01*
X119524505Y-86926204D01*
G37*
D11*
X119175000Y-87625000D03*
D10*
G36*
X117474505Y-86926204D02*
G01*
X117498773Y-86929804D01*
X117522572Y-86935765D01*
X117545671Y-86944030D01*
X117567850Y-86954520D01*
X117588893Y-86967132D01*
X117608599Y-86981747D01*
X117626777Y-86998223D01*
X117643253Y-87016401D01*
X117657868Y-87036107D01*
X117670480Y-87057150D01*
X117680970Y-87079329D01*
X117689235Y-87102428D01*
X117695196Y-87126227D01*
X117698796Y-87150495D01*
X117700000Y-87174999D01*
X117700000Y-88075001D01*
X117698796Y-88099505D01*
X117695196Y-88123773D01*
X117689235Y-88147572D01*
X117680970Y-88170671D01*
X117670480Y-88192850D01*
X117657868Y-88213893D01*
X117643253Y-88233599D01*
X117626777Y-88251777D01*
X117608599Y-88268253D01*
X117588893Y-88282868D01*
X117567850Y-88295480D01*
X117545671Y-88305970D01*
X117522572Y-88314235D01*
X117498773Y-88320196D01*
X117474505Y-88323796D01*
X117450001Y-88325000D01*
X116799999Y-88325000D01*
X116775495Y-88323796D01*
X116751227Y-88320196D01*
X116727428Y-88314235D01*
X116704329Y-88305970D01*
X116682150Y-88295480D01*
X116661107Y-88282868D01*
X116641401Y-88268253D01*
X116623223Y-88251777D01*
X116606747Y-88233599D01*
X116592132Y-88213893D01*
X116579520Y-88192850D01*
X116569030Y-88170671D01*
X116560765Y-88147572D01*
X116554804Y-88123773D01*
X116551204Y-88099505D01*
X116550000Y-88075001D01*
X116550000Y-87174999D01*
X116551204Y-87150495D01*
X116554804Y-87126227D01*
X116560765Y-87102428D01*
X116569030Y-87079329D01*
X116579520Y-87057150D01*
X116592132Y-87036107D01*
X116606747Y-87016401D01*
X116623223Y-86998223D01*
X116641401Y-86981747D01*
X116661107Y-86967132D01*
X116682150Y-86954520D01*
X116704329Y-86944030D01*
X116727428Y-86935765D01*
X116751227Y-86929804D01*
X116775495Y-86926204D01*
X116799999Y-86925000D01*
X117450001Y-86925000D01*
X117474505Y-86926204D01*
X117474505Y-86926204D01*
G37*
D11*
X117125000Y-87625000D03*
D10*
G36*
X99424505Y-121151204D02*
G01*
X99448773Y-121154804D01*
X99472572Y-121160765D01*
X99495671Y-121169030D01*
X99517850Y-121179520D01*
X99538893Y-121192132D01*
X99558599Y-121206747D01*
X99576777Y-121223223D01*
X99593253Y-121241401D01*
X99607868Y-121261107D01*
X99620480Y-121282150D01*
X99630970Y-121304329D01*
X99639235Y-121327428D01*
X99645196Y-121351227D01*
X99648796Y-121375495D01*
X99650000Y-121399999D01*
X99650000Y-122300001D01*
X99648796Y-122324505D01*
X99645196Y-122348773D01*
X99639235Y-122372572D01*
X99630970Y-122395671D01*
X99620480Y-122417850D01*
X99607868Y-122438893D01*
X99593253Y-122458599D01*
X99576777Y-122476777D01*
X99558599Y-122493253D01*
X99538893Y-122507868D01*
X99517850Y-122520480D01*
X99495671Y-122530970D01*
X99472572Y-122539235D01*
X99448773Y-122545196D01*
X99424505Y-122548796D01*
X99400001Y-122550000D01*
X98749999Y-122550000D01*
X98725495Y-122548796D01*
X98701227Y-122545196D01*
X98677428Y-122539235D01*
X98654329Y-122530970D01*
X98632150Y-122520480D01*
X98611107Y-122507868D01*
X98591401Y-122493253D01*
X98573223Y-122476777D01*
X98556747Y-122458599D01*
X98542132Y-122438893D01*
X98529520Y-122417850D01*
X98519030Y-122395671D01*
X98510765Y-122372572D01*
X98504804Y-122348773D01*
X98501204Y-122324505D01*
X98500000Y-122300001D01*
X98500000Y-121399999D01*
X98501204Y-121375495D01*
X98504804Y-121351227D01*
X98510765Y-121327428D01*
X98519030Y-121304329D01*
X98529520Y-121282150D01*
X98542132Y-121261107D01*
X98556747Y-121241401D01*
X98573223Y-121223223D01*
X98591401Y-121206747D01*
X98611107Y-121192132D01*
X98632150Y-121179520D01*
X98654329Y-121169030D01*
X98677428Y-121160765D01*
X98701227Y-121154804D01*
X98725495Y-121151204D01*
X98749999Y-121150000D01*
X99400001Y-121150000D01*
X99424505Y-121151204D01*
X99424505Y-121151204D01*
G37*
D11*
X99075000Y-121850000D03*
D10*
G36*
X101474505Y-121151204D02*
G01*
X101498773Y-121154804D01*
X101522572Y-121160765D01*
X101545671Y-121169030D01*
X101567850Y-121179520D01*
X101588893Y-121192132D01*
X101608599Y-121206747D01*
X101626777Y-121223223D01*
X101643253Y-121241401D01*
X101657868Y-121261107D01*
X101670480Y-121282150D01*
X101680970Y-121304329D01*
X101689235Y-121327428D01*
X101695196Y-121351227D01*
X101698796Y-121375495D01*
X101700000Y-121399999D01*
X101700000Y-122300001D01*
X101698796Y-122324505D01*
X101695196Y-122348773D01*
X101689235Y-122372572D01*
X101680970Y-122395671D01*
X101670480Y-122417850D01*
X101657868Y-122438893D01*
X101643253Y-122458599D01*
X101626777Y-122476777D01*
X101608599Y-122493253D01*
X101588893Y-122507868D01*
X101567850Y-122520480D01*
X101545671Y-122530970D01*
X101522572Y-122539235D01*
X101498773Y-122545196D01*
X101474505Y-122548796D01*
X101450001Y-122550000D01*
X100799999Y-122550000D01*
X100775495Y-122548796D01*
X100751227Y-122545196D01*
X100727428Y-122539235D01*
X100704329Y-122530970D01*
X100682150Y-122520480D01*
X100661107Y-122507868D01*
X100641401Y-122493253D01*
X100623223Y-122476777D01*
X100606747Y-122458599D01*
X100592132Y-122438893D01*
X100579520Y-122417850D01*
X100569030Y-122395671D01*
X100560765Y-122372572D01*
X100554804Y-122348773D01*
X100551204Y-122324505D01*
X100550000Y-122300001D01*
X100550000Y-121399999D01*
X100551204Y-121375495D01*
X100554804Y-121351227D01*
X100560765Y-121327428D01*
X100569030Y-121304329D01*
X100579520Y-121282150D01*
X100592132Y-121261107D01*
X100606747Y-121241401D01*
X100623223Y-121223223D01*
X100641401Y-121206747D01*
X100661107Y-121192132D01*
X100682150Y-121179520D01*
X100704329Y-121169030D01*
X100727428Y-121160765D01*
X100751227Y-121154804D01*
X100775495Y-121151204D01*
X100799999Y-121150000D01*
X101450001Y-121150000D01*
X101474505Y-121151204D01*
X101474505Y-121151204D01*
G37*
D11*
X101125000Y-121850000D03*
D10*
G36*
X99449505Y-115901204D02*
G01*
X99473773Y-115904804D01*
X99497572Y-115910765D01*
X99520671Y-115919030D01*
X99542850Y-115929520D01*
X99563893Y-115942132D01*
X99583599Y-115956747D01*
X99601777Y-115973223D01*
X99618253Y-115991401D01*
X99632868Y-116011107D01*
X99645480Y-116032150D01*
X99655970Y-116054329D01*
X99664235Y-116077428D01*
X99670196Y-116101227D01*
X99673796Y-116125495D01*
X99675000Y-116149999D01*
X99675000Y-117050001D01*
X99673796Y-117074505D01*
X99670196Y-117098773D01*
X99664235Y-117122572D01*
X99655970Y-117145671D01*
X99645480Y-117167850D01*
X99632868Y-117188893D01*
X99618253Y-117208599D01*
X99601777Y-117226777D01*
X99583599Y-117243253D01*
X99563893Y-117257868D01*
X99542850Y-117270480D01*
X99520671Y-117280970D01*
X99497572Y-117289235D01*
X99473773Y-117295196D01*
X99449505Y-117298796D01*
X99425001Y-117300000D01*
X98774999Y-117300000D01*
X98750495Y-117298796D01*
X98726227Y-117295196D01*
X98702428Y-117289235D01*
X98679329Y-117280970D01*
X98657150Y-117270480D01*
X98636107Y-117257868D01*
X98616401Y-117243253D01*
X98598223Y-117226777D01*
X98581747Y-117208599D01*
X98567132Y-117188893D01*
X98554520Y-117167850D01*
X98544030Y-117145671D01*
X98535765Y-117122572D01*
X98529804Y-117098773D01*
X98526204Y-117074505D01*
X98525000Y-117050001D01*
X98525000Y-116149999D01*
X98526204Y-116125495D01*
X98529804Y-116101227D01*
X98535765Y-116077428D01*
X98544030Y-116054329D01*
X98554520Y-116032150D01*
X98567132Y-116011107D01*
X98581747Y-115991401D01*
X98598223Y-115973223D01*
X98616401Y-115956747D01*
X98636107Y-115942132D01*
X98657150Y-115929520D01*
X98679329Y-115919030D01*
X98702428Y-115910765D01*
X98726227Y-115904804D01*
X98750495Y-115901204D01*
X98774999Y-115900000D01*
X99425001Y-115900000D01*
X99449505Y-115901204D01*
X99449505Y-115901204D01*
G37*
D11*
X99100000Y-116600000D03*
D10*
G36*
X101499505Y-115901204D02*
G01*
X101523773Y-115904804D01*
X101547572Y-115910765D01*
X101570671Y-115919030D01*
X101592850Y-115929520D01*
X101613893Y-115942132D01*
X101633599Y-115956747D01*
X101651777Y-115973223D01*
X101668253Y-115991401D01*
X101682868Y-116011107D01*
X101695480Y-116032150D01*
X101705970Y-116054329D01*
X101714235Y-116077428D01*
X101720196Y-116101227D01*
X101723796Y-116125495D01*
X101725000Y-116149999D01*
X101725000Y-117050001D01*
X101723796Y-117074505D01*
X101720196Y-117098773D01*
X101714235Y-117122572D01*
X101705970Y-117145671D01*
X101695480Y-117167850D01*
X101682868Y-117188893D01*
X101668253Y-117208599D01*
X101651777Y-117226777D01*
X101633599Y-117243253D01*
X101613893Y-117257868D01*
X101592850Y-117270480D01*
X101570671Y-117280970D01*
X101547572Y-117289235D01*
X101523773Y-117295196D01*
X101499505Y-117298796D01*
X101475001Y-117300000D01*
X100824999Y-117300000D01*
X100800495Y-117298796D01*
X100776227Y-117295196D01*
X100752428Y-117289235D01*
X100729329Y-117280970D01*
X100707150Y-117270480D01*
X100686107Y-117257868D01*
X100666401Y-117243253D01*
X100648223Y-117226777D01*
X100631747Y-117208599D01*
X100617132Y-117188893D01*
X100604520Y-117167850D01*
X100594030Y-117145671D01*
X100585765Y-117122572D01*
X100579804Y-117098773D01*
X100576204Y-117074505D01*
X100575000Y-117050001D01*
X100575000Y-116149999D01*
X100576204Y-116125495D01*
X100579804Y-116101227D01*
X100585765Y-116077428D01*
X100594030Y-116054329D01*
X100604520Y-116032150D01*
X100617132Y-116011107D01*
X100631747Y-115991401D01*
X100648223Y-115973223D01*
X100666401Y-115956747D01*
X100686107Y-115942132D01*
X100707150Y-115929520D01*
X100729329Y-115919030D01*
X100752428Y-115910765D01*
X100776227Y-115904804D01*
X100800495Y-115901204D01*
X100824999Y-115900000D01*
X101475001Y-115900000D01*
X101499505Y-115901204D01*
X101499505Y-115901204D01*
G37*
D11*
X101150000Y-116600000D03*
D10*
G36*
X101449505Y-113476204D02*
G01*
X101473773Y-113479804D01*
X101497572Y-113485765D01*
X101520671Y-113494030D01*
X101542850Y-113504520D01*
X101563893Y-113517132D01*
X101583599Y-113531747D01*
X101601777Y-113548223D01*
X101618253Y-113566401D01*
X101632868Y-113586107D01*
X101645480Y-113607150D01*
X101655970Y-113629329D01*
X101664235Y-113652428D01*
X101670196Y-113676227D01*
X101673796Y-113700495D01*
X101675000Y-113724999D01*
X101675000Y-114625001D01*
X101673796Y-114649505D01*
X101670196Y-114673773D01*
X101664235Y-114697572D01*
X101655970Y-114720671D01*
X101645480Y-114742850D01*
X101632868Y-114763893D01*
X101618253Y-114783599D01*
X101601777Y-114801777D01*
X101583599Y-114818253D01*
X101563893Y-114832868D01*
X101542850Y-114845480D01*
X101520671Y-114855970D01*
X101497572Y-114864235D01*
X101473773Y-114870196D01*
X101449505Y-114873796D01*
X101425001Y-114875000D01*
X100774999Y-114875000D01*
X100750495Y-114873796D01*
X100726227Y-114870196D01*
X100702428Y-114864235D01*
X100679329Y-114855970D01*
X100657150Y-114845480D01*
X100636107Y-114832868D01*
X100616401Y-114818253D01*
X100598223Y-114801777D01*
X100581747Y-114783599D01*
X100567132Y-114763893D01*
X100554520Y-114742850D01*
X100544030Y-114720671D01*
X100535765Y-114697572D01*
X100529804Y-114673773D01*
X100526204Y-114649505D01*
X100525000Y-114625001D01*
X100525000Y-113724999D01*
X100526204Y-113700495D01*
X100529804Y-113676227D01*
X100535765Y-113652428D01*
X100544030Y-113629329D01*
X100554520Y-113607150D01*
X100567132Y-113586107D01*
X100581747Y-113566401D01*
X100598223Y-113548223D01*
X100616401Y-113531747D01*
X100636107Y-113517132D01*
X100657150Y-113504520D01*
X100679329Y-113494030D01*
X100702428Y-113485765D01*
X100726227Y-113479804D01*
X100750495Y-113476204D01*
X100774999Y-113475000D01*
X101425001Y-113475000D01*
X101449505Y-113476204D01*
X101449505Y-113476204D01*
G37*
D11*
X101100000Y-114175000D03*
D10*
G36*
X99399505Y-113476204D02*
G01*
X99423773Y-113479804D01*
X99447572Y-113485765D01*
X99470671Y-113494030D01*
X99492850Y-113504520D01*
X99513893Y-113517132D01*
X99533599Y-113531747D01*
X99551777Y-113548223D01*
X99568253Y-113566401D01*
X99582868Y-113586107D01*
X99595480Y-113607150D01*
X99605970Y-113629329D01*
X99614235Y-113652428D01*
X99620196Y-113676227D01*
X99623796Y-113700495D01*
X99625000Y-113724999D01*
X99625000Y-114625001D01*
X99623796Y-114649505D01*
X99620196Y-114673773D01*
X99614235Y-114697572D01*
X99605970Y-114720671D01*
X99595480Y-114742850D01*
X99582868Y-114763893D01*
X99568253Y-114783599D01*
X99551777Y-114801777D01*
X99533599Y-114818253D01*
X99513893Y-114832868D01*
X99492850Y-114845480D01*
X99470671Y-114855970D01*
X99447572Y-114864235D01*
X99423773Y-114870196D01*
X99399505Y-114873796D01*
X99375001Y-114875000D01*
X98724999Y-114875000D01*
X98700495Y-114873796D01*
X98676227Y-114870196D01*
X98652428Y-114864235D01*
X98629329Y-114855970D01*
X98607150Y-114845480D01*
X98586107Y-114832868D01*
X98566401Y-114818253D01*
X98548223Y-114801777D01*
X98531747Y-114783599D01*
X98517132Y-114763893D01*
X98504520Y-114742850D01*
X98494030Y-114720671D01*
X98485765Y-114697572D01*
X98479804Y-114673773D01*
X98476204Y-114649505D01*
X98475000Y-114625001D01*
X98475000Y-113724999D01*
X98476204Y-113700495D01*
X98479804Y-113676227D01*
X98485765Y-113652428D01*
X98494030Y-113629329D01*
X98504520Y-113607150D01*
X98517132Y-113586107D01*
X98531747Y-113566401D01*
X98548223Y-113548223D01*
X98566401Y-113531747D01*
X98586107Y-113517132D01*
X98607150Y-113504520D01*
X98629329Y-113494030D01*
X98652428Y-113485765D01*
X98676227Y-113479804D01*
X98700495Y-113476204D01*
X98724999Y-113475000D01*
X99375001Y-113475000D01*
X99399505Y-113476204D01*
X99399505Y-113476204D01*
G37*
D11*
X99050000Y-114175000D03*
D10*
G36*
X140224505Y-102601204D02*
G01*
X140248773Y-102604804D01*
X140272572Y-102610765D01*
X140295671Y-102619030D01*
X140317850Y-102629520D01*
X140338893Y-102642132D01*
X140358599Y-102656747D01*
X140376777Y-102673223D01*
X140393253Y-102691401D01*
X140407868Y-102711107D01*
X140420480Y-102732150D01*
X140430970Y-102754329D01*
X140439235Y-102777428D01*
X140445196Y-102801227D01*
X140448796Y-102825495D01*
X140450000Y-102849999D01*
X140450000Y-103750001D01*
X140448796Y-103774505D01*
X140445196Y-103798773D01*
X140439235Y-103822572D01*
X140430970Y-103845671D01*
X140420480Y-103867850D01*
X140407868Y-103888893D01*
X140393253Y-103908599D01*
X140376777Y-103926777D01*
X140358599Y-103943253D01*
X140338893Y-103957868D01*
X140317850Y-103970480D01*
X140295671Y-103980970D01*
X140272572Y-103989235D01*
X140248773Y-103995196D01*
X140224505Y-103998796D01*
X140200001Y-104000000D01*
X139549999Y-104000000D01*
X139525495Y-103998796D01*
X139501227Y-103995196D01*
X139477428Y-103989235D01*
X139454329Y-103980970D01*
X139432150Y-103970480D01*
X139411107Y-103957868D01*
X139391401Y-103943253D01*
X139373223Y-103926777D01*
X139356747Y-103908599D01*
X139342132Y-103888893D01*
X139329520Y-103867850D01*
X139319030Y-103845671D01*
X139310765Y-103822572D01*
X139304804Y-103798773D01*
X139301204Y-103774505D01*
X139300000Y-103750001D01*
X139300000Y-102849999D01*
X139301204Y-102825495D01*
X139304804Y-102801227D01*
X139310765Y-102777428D01*
X139319030Y-102754329D01*
X139329520Y-102732150D01*
X139342132Y-102711107D01*
X139356747Y-102691401D01*
X139373223Y-102673223D01*
X139391401Y-102656747D01*
X139411107Y-102642132D01*
X139432150Y-102629520D01*
X139454329Y-102619030D01*
X139477428Y-102610765D01*
X139501227Y-102604804D01*
X139525495Y-102601204D01*
X139549999Y-102600000D01*
X140200001Y-102600000D01*
X140224505Y-102601204D01*
X140224505Y-102601204D01*
G37*
D11*
X139875000Y-103300000D03*
D10*
G36*
X142274505Y-102601204D02*
G01*
X142298773Y-102604804D01*
X142322572Y-102610765D01*
X142345671Y-102619030D01*
X142367850Y-102629520D01*
X142388893Y-102642132D01*
X142408599Y-102656747D01*
X142426777Y-102673223D01*
X142443253Y-102691401D01*
X142457868Y-102711107D01*
X142470480Y-102732150D01*
X142480970Y-102754329D01*
X142489235Y-102777428D01*
X142495196Y-102801227D01*
X142498796Y-102825495D01*
X142500000Y-102849999D01*
X142500000Y-103750001D01*
X142498796Y-103774505D01*
X142495196Y-103798773D01*
X142489235Y-103822572D01*
X142480970Y-103845671D01*
X142470480Y-103867850D01*
X142457868Y-103888893D01*
X142443253Y-103908599D01*
X142426777Y-103926777D01*
X142408599Y-103943253D01*
X142388893Y-103957868D01*
X142367850Y-103970480D01*
X142345671Y-103980970D01*
X142322572Y-103989235D01*
X142298773Y-103995196D01*
X142274505Y-103998796D01*
X142250001Y-104000000D01*
X141599999Y-104000000D01*
X141575495Y-103998796D01*
X141551227Y-103995196D01*
X141527428Y-103989235D01*
X141504329Y-103980970D01*
X141482150Y-103970480D01*
X141461107Y-103957868D01*
X141441401Y-103943253D01*
X141423223Y-103926777D01*
X141406747Y-103908599D01*
X141392132Y-103888893D01*
X141379520Y-103867850D01*
X141369030Y-103845671D01*
X141360765Y-103822572D01*
X141354804Y-103798773D01*
X141351204Y-103774505D01*
X141350000Y-103750001D01*
X141350000Y-102849999D01*
X141351204Y-102825495D01*
X141354804Y-102801227D01*
X141360765Y-102777428D01*
X141369030Y-102754329D01*
X141379520Y-102732150D01*
X141392132Y-102711107D01*
X141406747Y-102691401D01*
X141423223Y-102673223D01*
X141441401Y-102656747D01*
X141461107Y-102642132D01*
X141482150Y-102629520D01*
X141504329Y-102619030D01*
X141527428Y-102610765D01*
X141551227Y-102604804D01*
X141575495Y-102601204D01*
X141599999Y-102600000D01*
X142250001Y-102600000D01*
X142274505Y-102601204D01*
X142274505Y-102601204D01*
G37*
D11*
X141925000Y-103300000D03*
D10*
G36*
X108299505Y-117426204D02*
G01*
X108323773Y-117429804D01*
X108347572Y-117435765D01*
X108370671Y-117444030D01*
X108392850Y-117454520D01*
X108413893Y-117467132D01*
X108433599Y-117481747D01*
X108451777Y-117498223D01*
X108468253Y-117516401D01*
X108482868Y-117536107D01*
X108495480Y-117557150D01*
X108505970Y-117579329D01*
X108514235Y-117602428D01*
X108520196Y-117626227D01*
X108523796Y-117650495D01*
X108525000Y-117674999D01*
X108525000Y-118325001D01*
X108523796Y-118349505D01*
X108520196Y-118373773D01*
X108514235Y-118397572D01*
X108505970Y-118420671D01*
X108495480Y-118442850D01*
X108482868Y-118463893D01*
X108468253Y-118483599D01*
X108451777Y-118501777D01*
X108433599Y-118518253D01*
X108413893Y-118532868D01*
X108392850Y-118545480D01*
X108370671Y-118555970D01*
X108347572Y-118564235D01*
X108323773Y-118570196D01*
X108299505Y-118573796D01*
X108275001Y-118575000D01*
X107374999Y-118575000D01*
X107350495Y-118573796D01*
X107326227Y-118570196D01*
X107302428Y-118564235D01*
X107279329Y-118555970D01*
X107257150Y-118545480D01*
X107236107Y-118532868D01*
X107216401Y-118518253D01*
X107198223Y-118501777D01*
X107181747Y-118483599D01*
X107167132Y-118463893D01*
X107154520Y-118442850D01*
X107144030Y-118420671D01*
X107135765Y-118397572D01*
X107129804Y-118373773D01*
X107126204Y-118349505D01*
X107125000Y-118325001D01*
X107125000Y-117674999D01*
X107126204Y-117650495D01*
X107129804Y-117626227D01*
X107135765Y-117602428D01*
X107144030Y-117579329D01*
X107154520Y-117557150D01*
X107167132Y-117536107D01*
X107181747Y-117516401D01*
X107198223Y-117498223D01*
X107216401Y-117481747D01*
X107236107Y-117467132D01*
X107257150Y-117454520D01*
X107279329Y-117444030D01*
X107302428Y-117435765D01*
X107326227Y-117429804D01*
X107350495Y-117426204D01*
X107374999Y-117425000D01*
X108275001Y-117425000D01*
X108299505Y-117426204D01*
X108299505Y-117426204D01*
G37*
D11*
X107825000Y-118000000D03*
D10*
G36*
X108299505Y-119476204D02*
G01*
X108323773Y-119479804D01*
X108347572Y-119485765D01*
X108370671Y-119494030D01*
X108392850Y-119504520D01*
X108413893Y-119517132D01*
X108433599Y-119531747D01*
X108451777Y-119548223D01*
X108468253Y-119566401D01*
X108482868Y-119586107D01*
X108495480Y-119607150D01*
X108505970Y-119629329D01*
X108514235Y-119652428D01*
X108520196Y-119676227D01*
X108523796Y-119700495D01*
X108525000Y-119724999D01*
X108525000Y-120375001D01*
X108523796Y-120399505D01*
X108520196Y-120423773D01*
X108514235Y-120447572D01*
X108505970Y-120470671D01*
X108495480Y-120492850D01*
X108482868Y-120513893D01*
X108468253Y-120533599D01*
X108451777Y-120551777D01*
X108433599Y-120568253D01*
X108413893Y-120582868D01*
X108392850Y-120595480D01*
X108370671Y-120605970D01*
X108347572Y-120614235D01*
X108323773Y-120620196D01*
X108299505Y-120623796D01*
X108275001Y-120625000D01*
X107374999Y-120625000D01*
X107350495Y-120623796D01*
X107326227Y-120620196D01*
X107302428Y-120614235D01*
X107279329Y-120605970D01*
X107257150Y-120595480D01*
X107236107Y-120582868D01*
X107216401Y-120568253D01*
X107198223Y-120551777D01*
X107181747Y-120533599D01*
X107167132Y-120513893D01*
X107154520Y-120492850D01*
X107144030Y-120470671D01*
X107135765Y-120447572D01*
X107129804Y-120423773D01*
X107126204Y-120399505D01*
X107125000Y-120375001D01*
X107125000Y-119724999D01*
X107126204Y-119700495D01*
X107129804Y-119676227D01*
X107135765Y-119652428D01*
X107144030Y-119629329D01*
X107154520Y-119607150D01*
X107167132Y-119586107D01*
X107181747Y-119566401D01*
X107198223Y-119548223D01*
X107216401Y-119531747D01*
X107236107Y-119517132D01*
X107257150Y-119504520D01*
X107279329Y-119494030D01*
X107302428Y-119485765D01*
X107326227Y-119479804D01*
X107350495Y-119476204D01*
X107374999Y-119475000D01*
X108275001Y-119475000D01*
X108299505Y-119476204D01*
X108299505Y-119476204D01*
G37*
D11*
X107825000Y-120050000D03*
D10*
G36*
X108099505Y-112651204D02*
G01*
X108123773Y-112654804D01*
X108147572Y-112660765D01*
X108170671Y-112669030D01*
X108192850Y-112679520D01*
X108213893Y-112692132D01*
X108233599Y-112706747D01*
X108251777Y-112723223D01*
X108268253Y-112741401D01*
X108282868Y-112761107D01*
X108295480Y-112782150D01*
X108305970Y-112804329D01*
X108314235Y-112827428D01*
X108320196Y-112851227D01*
X108323796Y-112875495D01*
X108325000Y-112899999D01*
X108325000Y-113800001D01*
X108323796Y-113824505D01*
X108320196Y-113848773D01*
X108314235Y-113872572D01*
X108305970Y-113895671D01*
X108295480Y-113917850D01*
X108282868Y-113938893D01*
X108268253Y-113958599D01*
X108251777Y-113976777D01*
X108233599Y-113993253D01*
X108213893Y-114007868D01*
X108192850Y-114020480D01*
X108170671Y-114030970D01*
X108147572Y-114039235D01*
X108123773Y-114045196D01*
X108099505Y-114048796D01*
X108075001Y-114050000D01*
X107424999Y-114050000D01*
X107400495Y-114048796D01*
X107376227Y-114045196D01*
X107352428Y-114039235D01*
X107329329Y-114030970D01*
X107307150Y-114020480D01*
X107286107Y-114007868D01*
X107266401Y-113993253D01*
X107248223Y-113976777D01*
X107231747Y-113958599D01*
X107217132Y-113938893D01*
X107204520Y-113917850D01*
X107194030Y-113895671D01*
X107185765Y-113872572D01*
X107179804Y-113848773D01*
X107176204Y-113824505D01*
X107175000Y-113800001D01*
X107175000Y-112899999D01*
X107176204Y-112875495D01*
X107179804Y-112851227D01*
X107185765Y-112827428D01*
X107194030Y-112804329D01*
X107204520Y-112782150D01*
X107217132Y-112761107D01*
X107231747Y-112741401D01*
X107248223Y-112723223D01*
X107266401Y-112706747D01*
X107286107Y-112692132D01*
X107307150Y-112679520D01*
X107329329Y-112669030D01*
X107352428Y-112660765D01*
X107376227Y-112654804D01*
X107400495Y-112651204D01*
X107424999Y-112650000D01*
X108075001Y-112650000D01*
X108099505Y-112651204D01*
X108099505Y-112651204D01*
G37*
D11*
X107750000Y-113350000D03*
D10*
G36*
X110149505Y-112651204D02*
G01*
X110173773Y-112654804D01*
X110197572Y-112660765D01*
X110220671Y-112669030D01*
X110242850Y-112679520D01*
X110263893Y-112692132D01*
X110283599Y-112706747D01*
X110301777Y-112723223D01*
X110318253Y-112741401D01*
X110332868Y-112761107D01*
X110345480Y-112782150D01*
X110355970Y-112804329D01*
X110364235Y-112827428D01*
X110370196Y-112851227D01*
X110373796Y-112875495D01*
X110375000Y-112899999D01*
X110375000Y-113800001D01*
X110373796Y-113824505D01*
X110370196Y-113848773D01*
X110364235Y-113872572D01*
X110355970Y-113895671D01*
X110345480Y-113917850D01*
X110332868Y-113938893D01*
X110318253Y-113958599D01*
X110301777Y-113976777D01*
X110283599Y-113993253D01*
X110263893Y-114007868D01*
X110242850Y-114020480D01*
X110220671Y-114030970D01*
X110197572Y-114039235D01*
X110173773Y-114045196D01*
X110149505Y-114048796D01*
X110125001Y-114050000D01*
X109474999Y-114050000D01*
X109450495Y-114048796D01*
X109426227Y-114045196D01*
X109402428Y-114039235D01*
X109379329Y-114030970D01*
X109357150Y-114020480D01*
X109336107Y-114007868D01*
X109316401Y-113993253D01*
X109298223Y-113976777D01*
X109281747Y-113958599D01*
X109267132Y-113938893D01*
X109254520Y-113917850D01*
X109244030Y-113895671D01*
X109235765Y-113872572D01*
X109229804Y-113848773D01*
X109226204Y-113824505D01*
X109225000Y-113800001D01*
X109225000Y-112899999D01*
X109226204Y-112875495D01*
X109229804Y-112851227D01*
X109235765Y-112827428D01*
X109244030Y-112804329D01*
X109254520Y-112782150D01*
X109267132Y-112761107D01*
X109281747Y-112741401D01*
X109298223Y-112723223D01*
X109316401Y-112706747D01*
X109336107Y-112692132D01*
X109357150Y-112679520D01*
X109379329Y-112669030D01*
X109402428Y-112660765D01*
X109426227Y-112654804D01*
X109450495Y-112651204D01*
X109474999Y-112650000D01*
X110125001Y-112650000D01*
X110149505Y-112651204D01*
X110149505Y-112651204D01*
G37*
D11*
X109800000Y-113350000D03*
D10*
G36*
X140224505Y-99901204D02*
G01*
X140248773Y-99904804D01*
X140272572Y-99910765D01*
X140295671Y-99919030D01*
X140317850Y-99929520D01*
X140338893Y-99942132D01*
X140358599Y-99956747D01*
X140376777Y-99973223D01*
X140393253Y-99991401D01*
X140407868Y-100011107D01*
X140420480Y-100032150D01*
X140430970Y-100054329D01*
X140439235Y-100077428D01*
X140445196Y-100101227D01*
X140448796Y-100125495D01*
X140450000Y-100149999D01*
X140450000Y-101050001D01*
X140448796Y-101074505D01*
X140445196Y-101098773D01*
X140439235Y-101122572D01*
X140430970Y-101145671D01*
X140420480Y-101167850D01*
X140407868Y-101188893D01*
X140393253Y-101208599D01*
X140376777Y-101226777D01*
X140358599Y-101243253D01*
X140338893Y-101257868D01*
X140317850Y-101270480D01*
X140295671Y-101280970D01*
X140272572Y-101289235D01*
X140248773Y-101295196D01*
X140224505Y-101298796D01*
X140200001Y-101300000D01*
X139549999Y-101300000D01*
X139525495Y-101298796D01*
X139501227Y-101295196D01*
X139477428Y-101289235D01*
X139454329Y-101280970D01*
X139432150Y-101270480D01*
X139411107Y-101257868D01*
X139391401Y-101243253D01*
X139373223Y-101226777D01*
X139356747Y-101208599D01*
X139342132Y-101188893D01*
X139329520Y-101167850D01*
X139319030Y-101145671D01*
X139310765Y-101122572D01*
X139304804Y-101098773D01*
X139301204Y-101074505D01*
X139300000Y-101050001D01*
X139300000Y-100149999D01*
X139301204Y-100125495D01*
X139304804Y-100101227D01*
X139310765Y-100077428D01*
X139319030Y-100054329D01*
X139329520Y-100032150D01*
X139342132Y-100011107D01*
X139356747Y-99991401D01*
X139373223Y-99973223D01*
X139391401Y-99956747D01*
X139411107Y-99942132D01*
X139432150Y-99929520D01*
X139454329Y-99919030D01*
X139477428Y-99910765D01*
X139501227Y-99904804D01*
X139525495Y-99901204D01*
X139549999Y-99900000D01*
X140200001Y-99900000D01*
X140224505Y-99901204D01*
X140224505Y-99901204D01*
G37*
D11*
X139875000Y-100600000D03*
D10*
G36*
X142274505Y-99901204D02*
G01*
X142298773Y-99904804D01*
X142322572Y-99910765D01*
X142345671Y-99919030D01*
X142367850Y-99929520D01*
X142388893Y-99942132D01*
X142408599Y-99956747D01*
X142426777Y-99973223D01*
X142443253Y-99991401D01*
X142457868Y-100011107D01*
X142470480Y-100032150D01*
X142480970Y-100054329D01*
X142489235Y-100077428D01*
X142495196Y-100101227D01*
X142498796Y-100125495D01*
X142500000Y-100149999D01*
X142500000Y-101050001D01*
X142498796Y-101074505D01*
X142495196Y-101098773D01*
X142489235Y-101122572D01*
X142480970Y-101145671D01*
X142470480Y-101167850D01*
X142457868Y-101188893D01*
X142443253Y-101208599D01*
X142426777Y-101226777D01*
X142408599Y-101243253D01*
X142388893Y-101257868D01*
X142367850Y-101270480D01*
X142345671Y-101280970D01*
X142322572Y-101289235D01*
X142298773Y-101295196D01*
X142274505Y-101298796D01*
X142250001Y-101300000D01*
X141599999Y-101300000D01*
X141575495Y-101298796D01*
X141551227Y-101295196D01*
X141527428Y-101289235D01*
X141504329Y-101280970D01*
X141482150Y-101270480D01*
X141461107Y-101257868D01*
X141441401Y-101243253D01*
X141423223Y-101226777D01*
X141406747Y-101208599D01*
X141392132Y-101188893D01*
X141379520Y-101167850D01*
X141369030Y-101145671D01*
X141360765Y-101122572D01*
X141354804Y-101098773D01*
X141351204Y-101074505D01*
X141350000Y-101050001D01*
X141350000Y-100149999D01*
X141351204Y-100125495D01*
X141354804Y-100101227D01*
X141360765Y-100077428D01*
X141369030Y-100054329D01*
X141379520Y-100032150D01*
X141392132Y-100011107D01*
X141406747Y-99991401D01*
X141423223Y-99973223D01*
X141441401Y-99956747D01*
X141461107Y-99942132D01*
X141482150Y-99929520D01*
X141504329Y-99919030D01*
X141527428Y-99910765D01*
X141551227Y-99904804D01*
X141575495Y-99901204D01*
X141599999Y-99900000D01*
X142250001Y-99900000D01*
X142274505Y-99901204D01*
X142274505Y-99901204D01*
G37*
D11*
X141925000Y-100600000D03*
D10*
G36*
X101899505Y-133901204D02*
G01*
X101923773Y-133904804D01*
X101947572Y-133910765D01*
X101970671Y-133919030D01*
X101992850Y-133929520D01*
X102013893Y-133942132D01*
X102033599Y-133956747D01*
X102051777Y-133973223D01*
X102068253Y-133991401D01*
X102082868Y-134011107D01*
X102095480Y-134032150D01*
X102105970Y-134054329D01*
X102114235Y-134077428D01*
X102120196Y-134101227D01*
X102123796Y-134125495D01*
X102125000Y-134149999D01*
X102125000Y-135050001D01*
X102123796Y-135074505D01*
X102120196Y-135098773D01*
X102114235Y-135122572D01*
X102105970Y-135145671D01*
X102095480Y-135167850D01*
X102082868Y-135188893D01*
X102068253Y-135208599D01*
X102051777Y-135226777D01*
X102033599Y-135243253D01*
X102013893Y-135257868D01*
X101992850Y-135270480D01*
X101970671Y-135280970D01*
X101947572Y-135289235D01*
X101923773Y-135295196D01*
X101899505Y-135298796D01*
X101875001Y-135300000D01*
X101224999Y-135300000D01*
X101200495Y-135298796D01*
X101176227Y-135295196D01*
X101152428Y-135289235D01*
X101129329Y-135280970D01*
X101107150Y-135270480D01*
X101086107Y-135257868D01*
X101066401Y-135243253D01*
X101048223Y-135226777D01*
X101031747Y-135208599D01*
X101017132Y-135188893D01*
X101004520Y-135167850D01*
X100994030Y-135145671D01*
X100985765Y-135122572D01*
X100979804Y-135098773D01*
X100976204Y-135074505D01*
X100975000Y-135050001D01*
X100975000Y-134149999D01*
X100976204Y-134125495D01*
X100979804Y-134101227D01*
X100985765Y-134077428D01*
X100994030Y-134054329D01*
X101004520Y-134032150D01*
X101017132Y-134011107D01*
X101031747Y-133991401D01*
X101048223Y-133973223D01*
X101066401Y-133956747D01*
X101086107Y-133942132D01*
X101107150Y-133929520D01*
X101129329Y-133919030D01*
X101152428Y-133910765D01*
X101176227Y-133904804D01*
X101200495Y-133901204D01*
X101224999Y-133900000D01*
X101875001Y-133900000D01*
X101899505Y-133901204D01*
X101899505Y-133901204D01*
G37*
D11*
X101550000Y-134600000D03*
D10*
G36*
X99849505Y-133901204D02*
G01*
X99873773Y-133904804D01*
X99897572Y-133910765D01*
X99920671Y-133919030D01*
X99942850Y-133929520D01*
X99963893Y-133942132D01*
X99983599Y-133956747D01*
X100001777Y-133973223D01*
X100018253Y-133991401D01*
X100032868Y-134011107D01*
X100045480Y-134032150D01*
X100055970Y-134054329D01*
X100064235Y-134077428D01*
X100070196Y-134101227D01*
X100073796Y-134125495D01*
X100075000Y-134149999D01*
X100075000Y-135050001D01*
X100073796Y-135074505D01*
X100070196Y-135098773D01*
X100064235Y-135122572D01*
X100055970Y-135145671D01*
X100045480Y-135167850D01*
X100032868Y-135188893D01*
X100018253Y-135208599D01*
X100001777Y-135226777D01*
X99983599Y-135243253D01*
X99963893Y-135257868D01*
X99942850Y-135270480D01*
X99920671Y-135280970D01*
X99897572Y-135289235D01*
X99873773Y-135295196D01*
X99849505Y-135298796D01*
X99825001Y-135300000D01*
X99174999Y-135300000D01*
X99150495Y-135298796D01*
X99126227Y-135295196D01*
X99102428Y-135289235D01*
X99079329Y-135280970D01*
X99057150Y-135270480D01*
X99036107Y-135257868D01*
X99016401Y-135243253D01*
X98998223Y-135226777D01*
X98981747Y-135208599D01*
X98967132Y-135188893D01*
X98954520Y-135167850D01*
X98944030Y-135145671D01*
X98935765Y-135122572D01*
X98929804Y-135098773D01*
X98926204Y-135074505D01*
X98925000Y-135050001D01*
X98925000Y-134149999D01*
X98926204Y-134125495D01*
X98929804Y-134101227D01*
X98935765Y-134077428D01*
X98944030Y-134054329D01*
X98954520Y-134032150D01*
X98967132Y-134011107D01*
X98981747Y-133991401D01*
X98998223Y-133973223D01*
X99016401Y-133956747D01*
X99036107Y-133942132D01*
X99057150Y-133929520D01*
X99079329Y-133919030D01*
X99102428Y-133910765D01*
X99126227Y-133904804D01*
X99150495Y-133901204D01*
X99174999Y-133900000D01*
X99825001Y-133900000D01*
X99849505Y-133901204D01*
X99849505Y-133901204D01*
G37*
D11*
X99500000Y-134600000D03*
D10*
G36*
X99849505Y-130826204D02*
G01*
X99873773Y-130829804D01*
X99897572Y-130835765D01*
X99920671Y-130844030D01*
X99942850Y-130854520D01*
X99963893Y-130867132D01*
X99983599Y-130881747D01*
X100001777Y-130898223D01*
X100018253Y-130916401D01*
X100032868Y-130936107D01*
X100045480Y-130957150D01*
X100055970Y-130979329D01*
X100064235Y-131002428D01*
X100070196Y-131026227D01*
X100073796Y-131050495D01*
X100075000Y-131074999D01*
X100075000Y-131975001D01*
X100073796Y-131999505D01*
X100070196Y-132023773D01*
X100064235Y-132047572D01*
X100055970Y-132070671D01*
X100045480Y-132092850D01*
X100032868Y-132113893D01*
X100018253Y-132133599D01*
X100001777Y-132151777D01*
X99983599Y-132168253D01*
X99963893Y-132182868D01*
X99942850Y-132195480D01*
X99920671Y-132205970D01*
X99897572Y-132214235D01*
X99873773Y-132220196D01*
X99849505Y-132223796D01*
X99825001Y-132225000D01*
X99174999Y-132225000D01*
X99150495Y-132223796D01*
X99126227Y-132220196D01*
X99102428Y-132214235D01*
X99079329Y-132205970D01*
X99057150Y-132195480D01*
X99036107Y-132182868D01*
X99016401Y-132168253D01*
X98998223Y-132151777D01*
X98981747Y-132133599D01*
X98967132Y-132113893D01*
X98954520Y-132092850D01*
X98944030Y-132070671D01*
X98935765Y-132047572D01*
X98929804Y-132023773D01*
X98926204Y-131999505D01*
X98925000Y-131975001D01*
X98925000Y-131074999D01*
X98926204Y-131050495D01*
X98929804Y-131026227D01*
X98935765Y-131002428D01*
X98944030Y-130979329D01*
X98954520Y-130957150D01*
X98967132Y-130936107D01*
X98981747Y-130916401D01*
X98998223Y-130898223D01*
X99016401Y-130881747D01*
X99036107Y-130867132D01*
X99057150Y-130854520D01*
X99079329Y-130844030D01*
X99102428Y-130835765D01*
X99126227Y-130829804D01*
X99150495Y-130826204D01*
X99174999Y-130825000D01*
X99825001Y-130825000D01*
X99849505Y-130826204D01*
X99849505Y-130826204D01*
G37*
D11*
X99500000Y-131525000D03*
D10*
G36*
X101899505Y-130826204D02*
G01*
X101923773Y-130829804D01*
X101947572Y-130835765D01*
X101970671Y-130844030D01*
X101992850Y-130854520D01*
X102013893Y-130867132D01*
X102033599Y-130881747D01*
X102051777Y-130898223D01*
X102068253Y-130916401D01*
X102082868Y-130936107D01*
X102095480Y-130957150D01*
X102105970Y-130979329D01*
X102114235Y-131002428D01*
X102120196Y-131026227D01*
X102123796Y-131050495D01*
X102125000Y-131074999D01*
X102125000Y-131975001D01*
X102123796Y-131999505D01*
X102120196Y-132023773D01*
X102114235Y-132047572D01*
X102105970Y-132070671D01*
X102095480Y-132092850D01*
X102082868Y-132113893D01*
X102068253Y-132133599D01*
X102051777Y-132151777D01*
X102033599Y-132168253D01*
X102013893Y-132182868D01*
X101992850Y-132195480D01*
X101970671Y-132205970D01*
X101947572Y-132214235D01*
X101923773Y-132220196D01*
X101899505Y-132223796D01*
X101875001Y-132225000D01*
X101224999Y-132225000D01*
X101200495Y-132223796D01*
X101176227Y-132220196D01*
X101152428Y-132214235D01*
X101129329Y-132205970D01*
X101107150Y-132195480D01*
X101086107Y-132182868D01*
X101066401Y-132168253D01*
X101048223Y-132151777D01*
X101031747Y-132133599D01*
X101017132Y-132113893D01*
X101004520Y-132092850D01*
X100994030Y-132070671D01*
X100985765Y-132047572D01*
X100979804Y-132023773D01*
X100976204Y-131999505D01*
X100975000Y-131975001D01*
X100975000Y-131074999D01*
X100976204Y-131050495D01*
X100979804Y-131026227D01*
X100985765Y-131002428D01*
X100994030Y-130979329D01*
X101004520Y-130957150D01*
X101017132Y-130936107D01*
X101031747Y-130916401D01*
X101048223Y-130898223D01*
X101066401Y-130881747D01*
X101086107Y-130867132D01*
X101107150Y-130854520D01*
X101129329Y-130844030D01*
X101152428Y-130835765D01*
X101176227Y-130829804D01*
X101200495Y-130826204D01*
X101224999Y-130825000D01*
X101875001Y-130825000D01*
X101899505Y-130826204D01*
X101899505Y-130826204D01*
G37*
D11*
X101550000Y-131525000D03*
D10*
G36*
X101899505Y-128376204D02*
G01*
X101923773Y-128379804D01*
X101947572Y-128385765D01*
X101970671Y-128394030D01*
X101992850Y-128404520D01*
X102013893Y-128417132D01*
X102033599Y-128431747D01*
X102051777Y-128448223D01*
X102068253Y-128466401D01*
X102082868Y-128486107D01*
X102095480Y-128507150D01*
X102105970Y-128529329D01*
X102114235Y-128552428D01*
X102120196Y-128576227D01*
X102123796Y-128600495D01*
X102125000Y-128624999D01*
X102125000Y-129525001D01*
X102123796Y-129549505D01*
X102120196Y-129573773D01*
X102114235Y-129597572D01*
X102105970Y-129620671D01*
X102095480Y-129642850D01*
X102082868Y-129663893D01*
X102068253Y-129683599D01*
X102051777Y-129701777D01*
X102033599Y-129718253D01*
X102013893Y-129732868D01*
X101992850Y-129745480D01*
X101970671Y-129755970D01*
X101947572Y-129764235D01*
X101923773Y-129770196D01*
X101899505Y-129773796D01*
X101875001Y-129775000D01*
X101224999Y-129775000D01*
X101200495Y-129773796D01*
X101176227Y-129770196D01*
X101152428Y-129764235D01*
X101129329Y-129755970D01*
X101107150Y-129745480D01*
X101086107Y-129732868D01*
X101066401Y-129718253D01*
X101048223Y-129701777D01*
X101031747Y-129683599D01*
X101017132Y-129663893D01*
X101004520Y-129642850D01*
X100994030Y-129620671D01*
X100985765Y-129597572D01*
X100979804Y-129573773D01*
X100976204Y-129549505D01*
X100975000Y-129525001D01*
X100975000Y-128624999D01*
X100976204Y-128600495D01*
X100979804Y-128576227D01*
X100985765Y-128552428D01*
X100994030Y-128529329D01*
X101004520Y-128507150D01*
X101017132Y-128486107D01*
X101031747Y-128466401D01*
X101048223Y-128448223D01*
X101066401Y-128431747D01*
X101086107Y-128417132D01*
X101107150Y-128404520D01*
X101129329Y-128394030D01*
X101152428Y-128385765D01*
X101176227Y-128379804D01*
X101200495Y-128376204D01*
X101224999Y-128375000D01*
X101875001Y-128375000D01*
X101899505Y-128376204D01*
X101899505Y-128376204D01*
G37*
D11*
X101550000Y-129075000D03*
D10*
G36*
X99849505Y-128376204D02*
G01*
X99873773Y-128379804D01*
X99897572Y-128385765D01*
X99920671Y-128394030D01*
X99942850Y-128404520D01*
X99963893Y-128417132D01*
X99983599Y-128431747D01*
X100001777Y-128448223D01*
X100018253Y-128466401D01*
X100032868Y-128486107D01*
X100045480Y-128507150D01*
X100055970Y-128529329D01*
X100064235Y-128552428D01*
X100070196Y-128576227D01*
X100073796Y-128600495D01*
X100075000Y-128624999D01*
X100075000Y-129525001D01*
X100073796Y-129549505D01*
X100070196Y-129573773D01*
X100064235Y-129597572D01*
X100055970Y-129620671D01*
X100045480Y-129642850D01*
X100032868Y-129663893D01*
X100018253Y-129683599D01*
X100001777Y-129701777D01*
X99983599Y-129718253D01*
X99963893Y-129732868D01*
X99942850Y-129745480D01*
X99920671Y-129755970D01*
X99897572Y-129764235D01*
X99873773Y-129770196D01*
X99849505Y-129773796D01*
X99825001Y-129775000D01*
X99174999Y-129775000D01*
X99150495Y-129773796D01*
X99126227Y-129770196D01*
X99102428Y-129764235D01*
X99079329Y-129755970D01*
X99057150Y-129745480D01*
X99036107Y-129732868D01*
X99016401Y-129718253D01*
X98998223Y-129701777D01*
X98981747Y-129683599D01*
X98967132Y-129663893D01*
X98954520Y-129642850D01*
X98944030Y-129620671D01*
X98935765Y-129597572D01*
X98929804Y-129573773D01*
X98926204Y-129549505D01*
X98925000Y-129525001D01*
X98925000Y-128624999D01*
X98926204Y-128600495D01*
X98929804Y-128576227D01*
X98935765Y-128552428D01*
X98944030Y-128529329D01*
X98954520Y-128507150D01*
X98967132Y-128486107D01*
X98981747Y-128466401D01*
X98998223Y-128448223D01*
X99016401Y-128431747D01*
X99036107Y-128417132D01*
X99057150Y-128404520D01*
X99079329Y-128394030D01*
X99102428Y-128385765D01*
X99126227Y-128379804D01*
X99150495Y-128376204D01*
X99174999Y-128375000D01*
X99825001Y-128375000D01*
X99849505Y-128376204D01*
X99849505Y-128376204D01*
G37*
D11*
X99500000Y-129075000D03*
D10*
G36*
X107249505Y-130926204D02*
G01*
X107273773Y-130929804D01*
X107297572Y-130935765D01*
X107320671Y-130944030D01*
X107342850Y-130954520D01*
X107363893Y-130967132D01*
X107383599Y-130981747D01*
X107401777Y-130998223D01*
X107418253Y-131016401D01*
X107432868Y-131036107D01*
X107445480Y-131057150D01*
X107455970Y-131079329D01*
X107464235Y-131102428D01*
X107470196Y-131126227D01*
X107473796Y-131150495D01*
X107475000Y-131174999D01*
X107475000Y-132075001D01*
X107473796Y-132099505D01*
X107470196Y-132123773D01*
X107464235Y-132147572D01*
X107455970Y-132170671D01*
X107445480Y-132192850D01*
X107432868Y-132213893D01*
X107418253Y-132233599D01*
X107401777Y-132251777D01*
X107383599Y-132268253D01*
X107363893Y-132282868D01*
X107342850Y-132295480D01*
X107320671Y-132305970D01*
X107297572Y-132314235D01*
X107273773Y-132320196D01*
X107249505Y-132323796D01*
X107225001Y-132325000D01*
X106574999Y-132325000D01*
X106550495Y-132323796D01*
X106526227Y-132320196D01*
X106502428Y-132314235D01*
X106479329Y-132305970D01*
X106457150Y-132295480D01*
X106436107Y-132282868D01*
X106416401Y-132268253D01*
X106398223Y-132251777D01*
X106381747Y-132233599D01*
X106367132Y-132213893D01*
X106354520Y-132192850D01*
X106344030Y-132170671D01*
X106335765Y-132147572D01*
X106329804Y-132123773D01*
X106326204Y-132099505D01*
X106325000Y-132075001D01*
X106325000Y-131174999D01*
X106326204Y-131150495D01*
X106329804Y-131126227D01*
X106335765Y-131102428D01*
X106344030Y-131079329D01*
X106354520Y-131057150D01*
X106367132Y-131036107D01*
X106381747Y-131016401D01*
X106398223Y-130998223D01*
X106416401Y-130981747D01*
X106436107Y-130967132D01*
X106457150Y-130954520D01*
X106479329Y-130944030D01*
X106502428Y-130935765D01*
X106526227Y-130929804D01*
X106550495Y-130926204D01*
X106574999Y-130925000D01*
X107225001Y-130925000D01*
X107249505Y-130926204D01*
X107249505Y-130926204D01*
G37*
D11*
X106900000Y-131625000D03*
D10*
G36*
X109299505Y-130926204D02*
G01*
X109323773Y-130929804D01*
X109347572Y-130935765D01*
X109370671Y-130944030D01*
X109392850Y-130954520D01*
X109413893Y-130967132D01*
X109433599Y-130981747D01*
X109451777Y-130998223D01*
X109468253Y-131016401D01*
X109482868Y-131036107D01*
X109495480Y-131057150D01*
X109505970Y-131079329D01*
X109514235Y-131102428D01*
X109520196Y-131126227D01*
X109523796Y-131150495D01*
X109525000Y-131174999D01*
X109525000Y-132075001D01*
X109523796Y-132099505D01*
X109520196Y-132123773D01*
X109514235Y-132147572D01*
X109505970Y-132170671D01*
X109495480Y-132192850D01*
X109482868Y-132213893D01*
X109468253Y-132233599D01*
X109451777Y-132251777D01*
X109433599Y-132268253D01*
X109413893Y-132282868D01*
X109392850Y-132295480D01*
X109370671Y-132305970D01*
X109347572Y-132314235D01*
X109323773Y-132320196D01*
X109299505Y-132323796D01*
X109275001Y-132325000D01*
X108624999Y-132325000D01*
X108600495Y-132323796D01*
X108576227Y-132320196D01*
X108552428Y-132314235D01*
X108529329Y-132305970D01*
X108507150Y-132295480D01*
X108486107Y-132282868D01*
X108466401Y-132268253D01*
X108448223Y-132251777D01*
X108431747Y-132233599D01*
X108417132Y-132213893D01*
X108404520Y-132192850D01*
X108394030Y-132170671D01*
X108385765Y-132147572D01*
X108379804Y-132123773D01*
X108376204Y-132099505D01*
X108375000Y-132075001D01*
X108375000Y-131174999D01*
X108376204Y-131150495D01*
X108379804Y-131126227D01*
X108385765Y-131102428D01*
X108394030Y-131079329D01*
X108404520Y-131057150D01*
X108417132Y-131036107D01*
X108431747Y-131016401D01*
X108448223Y-130998223D01*
X108466401Y-130981747D01*
X108486107Y-130967132D01*
X108507150Y-130954520D01*
X108529329Y-130944030D01*
X108552428Y-130935765D01*
X108576227Y-130929804D01*
X108600495Y-130926204D01*
X108624999Y-130925000D01*
X109275001Y-130925000D01*
X109299505Y-130926204D01*
X109299505Y-130926204D01*
G37*
D11*
X108950000Y-131625000D03*
D10*
G36*
X107899505Y-133476204D02*
G01*
X107923773Y-133479804D01*
X107947572Y-133485765D01*
X107970671Y-133494030D01*
X107992850Y-133504520D01*
X108013893Y-133517132D01*
X108033599Y-133531747D01*
X108051777Y-133548223D01*
X108068253Y-133566401D01*
X108082868Y-133586107D01*
X108095480Y-133607150D01*
X108105970Y-133629329D01*
X108114235Y-133652428D01*
X108120196Y-133676227D01*
X108123796Y-133700495D01*
X108125000Y-133724999D01*
X108125000Y-134375001D01*
X108123796Y-134399505D01*
X108120196Y-134423773D01*
X108114235Y-134447572D01*
X108105970Y-134470671D01*
X108095480Y-134492850D01*
X108082868Y-134513893D01*
X108068253Y-134533599D01*
X108051777Y-134551777D01*
X108033599Y-134568253D01*
X108013893Y-134582868D01*
X107992850Y-134595480D01*
X107970671Y-134605970D01*
X107947572Y-134614235D01*
X107923773Y-134620196D01*
X107899505Y-134623796D01*
X107875001Y-134625000D01*
X106974999Y-134625000D01*
X106950495Y-134623796D01*
X106926227Y-134620196D01*
X106902428Y-134614235D01*
X106879329Y-134605970D01*
X106857150Y-134595480D01*
X106836107Y-134582868D01*
X106816401Y-134568253D01*
X106798223Y-134551777D01*
X106781747Y-134533599D01*
X106767132Y-134513893D01*
X106754520Y-134492850D01*
X106744030Y-134470671D01*
X106735765Y-134447572D01*
X106729804Y-134423773D01*
X106726204Y-134399505D01*
X106725000Y-134375001D01*
X106725000Y-133724999D01*
X106726204Y-133700495D01*
X106729804Y-133676227D01*
X106735765Y-133652428D01*
X106744030Y-133629329D01*
X106754520Y-133607150D01*
X106767132Y-133586107D01*
X106781747Y-133566401D01*
X106798223Y-133548223D01*
X106816401Y-133531747D01*
X106836107Y-133517132D01*
X106857150Y-133504520D01*
X106879329Y-133494030D01*
X106902428Y-133485765D01*
X106926227Y-133479804D01*
X106950495Y-133476204D01*
X106974999Y-133475000D01*
X107875001Y-133475000D01*
X107899505Y-133476204D01*
X107899505Y-133476204D01*
G37*
D11*
X107425000Y-134050000D03*
D10*
G36*
X107899505Y-135526204D02*
G01*
X107923773Y-135529804D01*
X107947572Y-135535765D01*
X107970671Y-135544030D01*
X107992850Y-135554520D01*
X108013893Y-135567132D01*
X108033599Y-135581747D01*
X108051777Y-135598223D01*
X108068253Y-135616401D01*
X108082868Y-135636107D01*
X108095480Y-135657150D01*
X108105970Y-135679329D01*
X108114235Y-135702428D01*
X108120196Y-135726227D01*
X108123796Y-135750495D01*
X108125000Y-135774999D01*
X108125000Y-136425001D01*
X108123796Y-136449505D01*
X108120196Y-136473773D01*
X108114235Y-136497572D01*
X108105970Y-136520671D01*
X108095480Y-136542850D01*
X108082868Y-136563893D01*
X108068253Y-136583599D01*
X108051777Y-136601777D01*
X108033599Y-136618253D01*
X108013893Y-136632868D01*
X107992850Y-136645480D01*
X107970671Y-136655970D01*
X107947572Y-136664235D01*
X107923773Y-136670196D01*
X107899505Y-136673796D01*
X107875001Y-136675000D01*
X106974999Y-136675000D01*
X106950495Y-136673796D01*
X106926227Y-136670196D01*
X106902428Y-136664235D01*
X106879329Y-136655970D01*
X106857150Y-136645480D01*
X106836107Y-136632868D01*
X106816401Y-136618253D01*
X106798223Y-136601777D01*
X106781747Y-136583599D01*
X106767132Y-136563893D01*
X106754520Y-136542850D01*
X106744030Y-136520671D01*
X106735765Y-136497572D01*
X106729804Y-136473773D01*
X106726204Y-136449505D01*
X106725000Y-136425001D01*
X106725000Y-135774999D01*
X106726204Y-135750495D01*
X106729804Y-135726227D01*
X106735765Y-135702428D01*
X106744030Y-135679329D01*
X106754520Y-135657150D01*
X106767132Y-135636107D01*
X106781747Y-135616401D01*
X106798223Y-135598223D01*
X106816401Y-135581747D01*
X106836107Y-135567132D01*
X106857150Y-135554520D01*
X106879329Y-135544030D01*
X106902428Y-135535765D01*
X106926227Y-135529804D01*
X106950495Y-135526204D01*
X106974999Y-135525000D01*
X107875001Y-135525000D01*
X107899505Y-135526204D01*
X107899505Y-135526204D01*
G37*
D11*
X107425000Y-136100000D03*
M02*
