M48
; DRILL file {KiCad (5.1.4)-1} date 28/08/2019 16:24:05
; FORMAT={-:-/ absolute / inch / decimal}
; #@! TF.CreationDate,2019-08-28T16:24:05+03:00
; #@! TF.GenerationSoftware,Kicad,Pcbnew,(5.1.4)-1
; #@! TF.FileFunction,Plated,1,2,PTH
FMAT,2
INCH
T1C0.0157
T2C0.0300
T3C0.0315
T4C0.0394
T5C0.0512
T6C0.0598
T7C0.1575
%
G90
G05
T1
X2.0453Y-3.8359
X2.0886Y-3.7795
X2.0906Y-4.1024
X2.1083Y-3.3543
X2.2461Y-3.7343
X2.2579Y-4.0622
X2.3169Y-3.7185
X2.3898Y-4.0807
X2.3976Y-3.8425
X2.4016Y-4.2693
X2.4035Y-4.4559
X2.4193Y-3.5827
X2.4262Y-4.0622
X2.4961Y-3.0571
X2.5118Y-3.0177
X2.8009Y-3.0399
X2.8071Y-3.0787
X3.2913Y-5.3425
X3.3406Y-3.7461
X3.3543Y-4.2008
X3.3898Y-4.8602
X3.435Y-3.4783
X3.4882Y-4.1575
X3.5Y-4.811
X3.5059Y-4.6535
X3.5295Y-5.4429
X3.5512Y-4.9941
X3.6024Y-3.5571
X3.6043Y-3.8287
X3.6181Y-3.2539
X3.626Y-4.7362
X3.7717Y-3.8248
X4.0Y-4.1437
X4.065Y-5.5295
X4.4921Y-2.3642
X4.8563Y-4.9173
X5.2717Y-4.2146
T2
X4.3504Y-3.2283
X4.9409Y-3.2283
X4.8556Y-2.874
X4.9606Y-2.874
X5.0656Y-2.874
X3.4252Y-4.1201
X3.4252Y-4.2201
X3.4252Y-4.3201
X3.4252Y-4.4201
X3.4252Y-4.5201
X3.4252Y-4.6201
X4.1252Y-4.2201
X4.1252Y-4.3201
X4.1252Y-4.4201
X4.1252Y-4.5201
T3
X3.9691Y-5.4652
X4.252Y-5.748
X3.189Y-2.4803
X3.5166Y-2.2509
X4.2913Y-2.2047
X4.619Y-2.4342
X3.9715Y-5.3199
X4.0422Y-5.2492
X4.1129Y-5.1785
X4.1836Y-5.1077
X4.2543Y-5.037
X4.325Y-4.9663
X4.3957Y-4.8956
X4.3957Y-5.7441
X4.4664Y-4.8249
X4.4664Y-5.6734
X4.5371Y-4.7542
X4.5371Y-5.6027
X4.6079Y-4.6835
X4.6079Y-5.532
X4.6786Y-4.6128
X4.6786Y-5.4613
X4.7493Y-4.5421
X4.7493Y-5.3906
X4.82Y-4.4714
X4.82Y-5.3199
X4.8907Y-4.4006
X4.8907Y-5.2492
X4.9614Y-4.3299
X4.9614Y-5.1785
X5.0321Y-4.2592
X5.0321Y-5.1077
X5.1028Y-4.1885
X5.1028Y-5.037
X5.1735Y-4.1178
X5.1735Y-4.9663
X5.2442Y-4.0471
X5.2442Y-4.8956
X5.315Y-3.9764
X5.315Y-4.8249
X5.3857Y-4.7542
X5.4564Y-4.6835
X5.5271Y-4.6128
X5.5978Y-4.5421
X5.6685Y-4.4714
X5.7392Y-4.4006
X3.622Y-4.2669
X3.622Y-4.3669
X3.622Y-4.4669
X3.622Y-4.5669
X3.922Y-4.2669
X3.922Y-4.3669
X3.922Y-4.4669
X3.922Y-4.5669
X2.6378Y-3.3465
X2.6378Y-3.4465
X2.6378Y-3.5465
X2.6378Y-3.6465
X2.6378Y-3.7465
X2.6378Y-3.8465
X2.6378Y-3.9465
X2.6378Y-4.0465
X2.6378Y-4.1465
X2.6378Y-4.2465
X2.6378Y-4.3465
X2.6378Y-4.4465
X2.6378Y-4.5465
X2.6378Y-4.6465
X2.6378Y-4.7465
X2.6378Y-4.8465
X2.6378Y-4.9465
X2.6378Y-5.0465
X2.6378Y-5.1465
X2.6378Y-5.2465
X3.2378Y-3.3465
X3.2378Y-3.4465
X3.2378Y-3.5465
X3.2378Y-3.6465
X3.2378Y-3.7465
X3.2378Y-3.8465
X3.2378Y-3.9465
X3.2378Y-4.0465
X3.2378Y-4.1465
X3.2378Y-4.2465
X3.2378Y-4.3465
X3.2378Y-4.4465
X3.2378Y-4.5465
X3.2378Y-4.6465
X3.2378Y-4.7465
X3.2378Y-4.8465
X3.2378Y-4.9465
X3.2378Y-5.0465
X3.2378Y-5.1465
X3.2378Y-5.2465
X4.3307Y-3.7339
X4.3307Y-4.1339
X3.4646Y-5.0394
X3.4646Y-5.1394
X3.4646Y-5.2394
X3.4646Y-5.3394
X3.7646Y-5.0394
X3.7646Y-5.1394
X3.7646Y-5.2394
X3.7646Y-5.3394
T4
X2.3228Y-3.8189
X2.3228Y-3.9189
X2.3228Y-4.0189
X2.4803Y-4.2126
X2.4803Y-4.3126
X2.4803Y-4.4126
X2.4803Y-3.8189
X2.4803Y-3.9189
X2.4803Y-4.0189
X3.0709Y-4.0157
X3.0709Y-4.1157
X2.3228Y-4.2126
X2.3228Y-4.3126
X2.3228Y-4.4126
X2.3622Y-4.6063
X2.3622Y-4.7063
X2.3622Y-4.8063
X4.9606Y-4.9213
X5.0313Y-4.8505
X5.1021Y-4.7798
X5.1728Y-4.7091
X2.2441Y-3.2677
X2.3441Y-3.2677
X2.4441Y-3.2677
X3.0709Y-3.7402
X3.0709Y-3.8402
X2.1654Y-4.2126
X2.1654Y-4.3126
X2.1654Y-4.4126
X5.5118Y-3.8583
X5.5825Y-3.929
X5.6532Y-3.9997
X5.7239Y-4.0704
X5.7947Y-4.1411
X2.1654Y-3.8189
X2.1654Y-3.9189
X2.1654Y-4.0189
X2.7165Y-3.1496
X2.8165Y-3.1496
X2.9165Y-3.1496
X3.0165Y-3.1496
X3.1165Y-3.1496
X5.1969Y-4.3701
X5.2969Y-4.3701
X5.3969Y-4.3701
X5.4969Y-4.3701
X3.6402Y-3.4646
X3.7402Y-3.4646
X4.8425Y-4.8031
X4.9132Y-4.7324
X4.9839Y-4.6617
X5.0547Y-4.591
X3.4646Y-3.6614
X3.5646Y-3.6614
X3.6646Y-3.6614
X3.7646Y-3.6614
X3.8646Y-3.6614
X3.9646Y-3.6614
X4.0646Y-3.6614
T5
X2.4409Y-2.874
X2.5787Y-2.874
X2.9134Y-2.5197
X2.9134Y-2.6575
X3.622Y-5.6693
X3.7598Y-5.6693
X3.9567Y-3.937
X4.0945Y-3.937
X3.8583Y-2.5197
X3.8583Y-2.9496
X5.0787Y-3.563
X5.0787Y-3.7008
X4.9213Y-2.5
X4.9213Y-2.6378
T6
X5.4693Y-3.4252
X5.6693Y-3.4252
X5.3543Y-2.874
X5.3543Y-3.074
T7
X3.3346Y-2.7343
X4.5236Y-2.7343
T0
M30
